<svg width="60" height="60" viewBox="0 0 60 60" fill="none" xmlns="http://www.w3.org/2000/svg">
<circle cx="30" cy="30" r="30" fill="white"/>
<path d="M30.9938 28.8C28.9058 28.8 27.1298 29.568 26.1698 31.008C26.1458 30.792 26.1458 30.6 26.1458 30.408C26.1458 26.208 28.3298 24.072 31.7378 24.072C32.9378 24.072 34.0898 24.288 34.9538 24.864L35.8658 22.992C34.7858 22.32 33.2738 22.008 31.6898 22.008C26.9858 22.008 23.7458 25.08 23.7458 30.816C23.7458 36.168 26.2898 39.192 30.8018 39.192C34.1378 39.192 36.7538 37.128 36.7538 33.888C36.7538 30.792 34.3298 28.8 30.9938 28.8ZM30.7058 37.248C28.1138 37.248 26.7218 35.736 26.7218 34.008C26.7218 32.16 28.3058 30.744 30.5858 30.744C32.9378 30.744 34.4258 32.016 34.4258 33.984C34.4258 35.976 32.8898 37.248 30.7058 37.248Z" fill="#D48F3F"/>
<rect x="11" y="11" width="38" height="38" rx="19" stroke="#D48F3F" stroke-width="2"/>
</svg>
