<svg width="312" height="209" viewBox="0 0 312 209" fill="none" xmlns="http://www.w3.org/2000/svg">
<path opacity="0.67" d="M100.673 120.408C100.825 121.036 108.236 119.967 108.38 120.595C116.58 156.654 112.319 188.163 98.627 191.431C88.3815 193.875 75.7168 179.818 66.2352 157.562C65.7514 156.416 72.6694 152.936 72.2026 151.747C71.6593 150.372 63.7227 151.297 63.2049 149.863C61.0403 143.896 59.1134 137.478 57.5006 130.738C55.7775 123.523 54.5552 116.478 53.8082 109.781C53.6809 108.609 63.85 106.818 63.7481 105.672C63.6463 104.484 53.2649 103.949 53.1885 102.786C51.6182 78.6791 56.5839 60.4544 66.8124 58.0183C73.7475 56.363 81.7945 62.271 89.2049 73.1616C89.8924 74.1717 83.1017 80.3173 83.7723 81.4123C84.2137 82.1339 92.1249 77.7708 92.5663 78.5178C98.3299 88.4323 103.508 101.301 107.217 115.807C107.472 116.767 100.444 119.432 100.673 120.408Z" fill="#407BFF"/>
<path d="M64.877 52.0085C64.877 52.0085 94.6034 189.419 97.5149 196.32" stroke="#407BFF" stroke-width="0.9395" stroke-miterlimit="10" stroke-linecap="round" stroke-linejoin="round"/>
<path d="M67.9502 55.3275C67.9502 55.3275 97.6766 192.738 100.588 199.639" stroke="#407BFF" stroke-width="0.9395" stroke-miterlimit="10" stroke-linecap="round" stroke-linejoin="round"/>
<path opacity="0.67" d="M63.6037 142.784C63.8669 143.225 69.2655 140.661 69.5202 141.103C84.273 166.636 88.4493 191.643 78.798 197.355C71.5743 201.634 58.6125 193.918 46.1431 179.19C45.5064 178.435 49.9544 174.148 49.3177 173.35C48.5792 172.434 42.7562 175.006 42.0177 174.038C38.9619 170.006 35.9824 165.575 33.1643 160.813C30.1509 155.728 27.5619 150.644 25.4059 145.721C25.0324 144.863 32.3579 141.094 32.0099 140.245C31.6534 139.371 23.6148 141.408 23.2838 140.543C16.3997 122.547 15.8904 107.497 23.1055 103.228C27.9949 100.333 35.5156 102.93 43.7324 109.483C44.4963 110.086 40.7699 116.376 41.5424 117.047C42.0517 117.488 47.0513 112.302 47.5606 112.769C54.2835 118.965 61.2694 127.547 67.5084 137.716C67.9243 138.404 63.1963 142.096 63.6037 142.784Z" fill="#407BFF"/>
<path d="M20.2109 99.1191C20.2109 99.1191 75.2583 196.778 79.095 201.354" stroke="#407BFF" stroke-width="0.7492" stroke-miterlimit="10" stroke-linecap="round" stroke-linejoin="round"/>
<path d="M23.3262 100.927C23.3262 100.927 78.3735 198.586 82.2103 203.162" stroke="#407BFF" stroke-width="0.7492" stroke-miterlimit="10" stroke-linecap="round" stroke-linejoin="round"/>
<path opacity="0.67" d="M212.058 113.94C211.905 114.568 204.495 113.499 204.35 114.127C196.15 150.185 200.412 181.694 214.103 184.962C224.349 187.407 237.014 173.35 246.495 151.094C246.979 149.948 240.061 146.468 240.528 145.279C241.071 143.904 249.008 144.829 249.526 143.395C251.69 137.427 253.617 131.01 255.23 124.27C256.953 117.055 258.175 110.01 258.922 103.312C259.05 102.141 248.881 100.35 248.982 99.204C249.084 98.0157 259.466 97.4809 259.542 96.318C261.112 72.2109 256.147 53.9863 245.918 51.5501C238.983 49.8949 230.936 55.8028 223.526 66.6934C222.838 67.7036 229.629 73.8492 228.958 74.9442C228.517 75.6657 220.606 71.3026 220.164 72.0496C214.401 81.9641 209.223 94.8325 205.513 109.339C205.267 110.298 212.295 112.964 212.058 113.94Z" fill="#407BFF"/>
<path d="M247.854 45.5403C247.854 45.5403 218.127 182.951 215.216 189.852" stroke="#407BFF" stroke-width="0.9395" stroke-miterlimit="10" stroke-linecap="round" stroke-linejoin="round"/>
<path d="M244.789 48.8593C244.789 48.8593 215.063 186.27 212.151 193.171" stroke="#407BFF" stroke-width="0.9395" stroke-miterlimit="10" stroke-linecap="round" stroke-linejoin="round"/>
<path opacity="0.67" d="M249.135 136.315C248.872 136.757 243.473 134.193 243.219 134.635C228.466 160.168 224.29 185.175 233.941 190.887C241.165 195.166 254.126 187.45 266.596 172.722C267.232 171.967 262.785 167.68 263.421 166.882C264.16 165.965 269.983 168.537 270.721 167.57C273.777 163.538 276.756 159.107 279.575 154.345C282.588 149.26 285.177 144.176 287.333 139.252C287.707 138.395 280.381 134.626 280.729 133.777C281.086 132.903 289.124 134.94 289.455 134.074C296.339 116.079 296.849 101.029 289.633 96.7594C284.744 93.8648 277.223 96.4623 269.007 103.015C268.243 103.618 271.969 109.908 271.197 110.579C270.687 111.02 265.688 105.834 265.178 106.3C258.455 112.497 251.47 121.079 245.231 131.248C244.815 131.944 249.543 135.628 249.135 136.315Z" fill="#407BFF"/>
<path d="M292.528 92.6595C292.528 92.6595 237.48 190.319 233.644 194.894" stroke="#407BFF" stroke-width="0.7492" stroke-miterlimit="10" stroke-linecap="round" stroke-linejoin="round"/>
<path d="M289.405 94.459C289.405 94.459 234.357 192.118 230.521 196.693" stroke="#407BFF" stroke-width="0.7492" stroke-miterlimit="10" stroke-linecap="round" stroke-linejoin="round"/>
<path d="M188.247 68.1874C188.391 66.5661 188.128 63.1283 187.627 60.9638C184.775 48.6556 172.807 41.5338 161.016 42.0261C149.234 41.5253 137.368 48.6471 134.516 60.9638C134.074 62.8567 133.828 65.7257 133.862 67.4998C131.273 68.9853 129.108 71.6761 128.998 76.5654C129.389 86.0215 139.031 87.5919 142.333 86.3441C143.598 85.8687 142.995 65.8446 142.995 65.8446C142.995 65.8446 141.442 65.6409 139.379 65.8531C139.133 63.3405 139.498 59.2151 140.5 57.5429C143.785 52.0849 148.768 44.3095 161.288 44.318C173.808 44.3265 178.35 52.0849 181.635 57.5429C182.662 59.2406 183.018 63.4933 182.747 65.9889C180.175 65.573 178.07 65.8446 178.07 65.8446C178.07 65.8446 177.467 85.8687 178.732 86.3441C182.034 87.5919 191.676 86.0215 192.067 76.5654C191.974 72.3552 190.352 69.7747 188.247 68.1874Z" fill="#7531AB"/>
<path d="M155.134 83.509C155.134 83.509 152.952 97.2687 151.543 106.784C151.195 107.132 145.432 107.336 145.763 107.557C145.432 110.893 156.662 114.789 161.993 115.213C167.62 115.655 176.847 114.534 176.508 108.456C176.491 107.973 173.045 107.514 171.958 106.657C171.219 101.131 169.293 89.6122 168.316 84.2814C169.59 81.9556 155.134 83.509 155.134 83.509Z" fill="#EFB38B"/>
<mask id="mask0_613_896" style="mask-type:luminance" maskUnits="userSpaceOnUse" x="145" y="83" width="32" height="33">
<path d="M155.134 83.509C155.134 83.509 152.952 97.2687 151.543 106.784C151.195 107.132 145.432 107.336 145.763 107.557C145.432 110.893 156.662 114.789 161.993 115.213C167.62 115.655 176.847 114.534 176.508 108.456C176.491 107.973 173.045 107.514 171.958 106.657C171.219 101.131 169.293 89.6122 168.316 84.2814C169.59 81.9556 155.134 83.509 155.134 83.509Z" fill="white"/>
</mask>
<g mask="url(#mask0_613_896)">
<path d="M170.15 91.955C170.345 93.1773 175.82 104.348 173.393 104.798C154.09 112.667 145.771 95.8851 145.687 95.4861C146.001 95.3249 170.15 91.955 170.15 91.955Z" fill="#E8A680"/>
</g>
<path d="M146.739 107.209C145.322 107.115 128.514 110.163 125.951 112.242C123.387 114.313 101.462 185.412 104.025 186.838C106.589 188.264 220.588 189.623 222.294 187.059C224.001 184.496 199.707 114.712 195.301 112.938C186.134 109.246 175.031 107.251 174.335 107.743C174.386 113.482 152.248 117.734 146.739 107.209Z" fill="white" stroke="#407BFF" stroke-width="0.9395" stroke-miterlimit="10" stroke-linejoin="round"/>
<path fill-rule="evenodd" clip-rule="evenodd" d="M181.89 72.143C182.034 76.1326 182.662 85.2491 179.963 92.1417C179.42 93.5338 171.271 102.345 162.18 102.268C152.987 102.277 144.397 94.2978 143.667 92.0398C140.942 83.6278 141.01 76.4721 140.865 72.1345C140.203 68.9683 140.416 66.1077 141.137 63.7225C144.719 49.793 171.458 49.1819 179.641 60.8619C181.924 64.1215 181.966 64.5204 181.89 72.143Z" fill="#EFB38B"/>
<path d="M194.215 163.546C194.079 162.044 188.587 140.806 188.587 140.806" stroke="#B0C43B" stroke-width="1.0073" stroke-miterlimit="10" stroke-linecap="round"/>
<path d="M148.981 77.8812C149.032 79.3921 150.016 80.5805 151.179 80.538C152.342 80.4956 153.242 79.2478 153.191 77.7369C153.14 76.2259 152.155 75.0375 150.992 75.08C149.829 75.1224 148.93 76.3787 148.981 77.8812Z" fill="#441B28"/>
<path d="M171.287 77.8812C171.338 79.3921 172.323 80.5805 173.486 80.538C174.649 80.4956 175.548 79.2478 175.497 77.7369C175.447 76.2259 174.462 75.0375 173.299 75.08C172.136 75.1224 171.236 76.3787 171.287 77.8812Z" fill="#441B28"/>
<path d="M146.569 70.5726C146.569 70.5726 149.931 69.2569 153.963 70.4623" stroke="#441B28" stroke-width="1.8791" stroke-miterlimit="10" stroke-linecap="round" stroke-linejoin="round"/>
<path d="M169.165 70.5726C169.165 70.5726 172.526 69.2569 176.558 70.4623" stroke="#441B28" stroke-width="1.8791" stroke-miterlimit="10" stroke-linecap="round" stroke-linejoin="round"/>
<path fill-rule="evenodd" clip-rule="evenodd" d="M168.987 89.366C168.987 91.5645 166.008 93.3555 162.341 93.3555C158.674 93.3555 155.694 91.573 155.694 89.366C155.694 88.2625 159.107 89.6546 162.426 89.6546C165.753 89.6546 168.987 88.2625 168.987 89.366Z" fill="#C64C40"/>
<path opacity="0.48" fill-rule="evenodd" clip-rule="evenodd" d="M158.818 91.8955C158.835 91.2334 160.822 90.9703 162.282 91.5645C163.445 91.0722 165.821 91.3862 165.804 92.0398C165.787 92.7019 164.243 92.9311 162.316 92.8887C160.38 92.8547 158.802 92.5576 158.818 91.8955Z" fill="#F29F97"/>
<path d="M71.337 145.95C68.2047 145.95 65.6582 143.403 65.6582 140.271C65.6582 137.139 68.2047 134.592 71.337 134.592C74.4692 134.592 77.0157 137.139 77.0157 140.271C77.0072 143.403 74.4607 145.95 71.337 145.95ZM71.337 136.706C69.3676 136.706 67.7718 138.302 67.7718 140.271C67.7718 142.24 69.3676 143.836 71.337 143.836C73.3063 143.836 74.9021 142.24 74.9021 140.271C74.9021 138.302 73.2978 136.706 71.337 136.706Z" fill="#7531AB"/>
<path d="M63.519 157.18H53.1207C48.7322 157.18 45.1416 152.978 45.1416 147.843V131.146C45.1416 126.01 71.4896 126.163 71.4896 131.146V147.843C71.4981 152.978 67.9075 157.18 63.519 157.18Z" fill="#7531AB"/>
<path d="M71.7949 158.232H45.3196C44.267 158.232 40.965 154.421 42.0091 154.421H74.9611C76.0137 154.421 72.8475 158.232 71.7949 158.232Z" fill="#891F72"/>
<path d="M159.837 72.7372C159.837 72.7372 158.954 86.4545 159.837 86.8279C160.719 87.2099 163.215 85.6905 163.852 85.1812" stroke="#441B28" stroke-width="0.9395" stroke-miterlimit="10" stroke-linecap="round" stroke-linejoin="round"/>
<path fill-rule="evenodd" clip-rule="evenodd" d="M140.806 55.1492C140.806 55.1492 134.839 72.6014 141.213 80.8691C141.307 77.4992 141.213 66.982 143.48 60.1913C143.853 59.0708 145.025 58.3578 146.731 57.9419C147.401 57.7806 157.961 64.809 169.327 65.3353C167.477 63.8838 161.662 61.8975 162.061 61.3712C164.005 61.6428 170.515 64.0535 172.239 63.8838C182.45 64.0196 177.934 61.6258 178.868 62.254C181.958 64.3082 181.44 81.9895 182.017 81.3359C184.929 78.0339 185.761 62.254 181.44 55.3614C177.119 48.4603 152.427 38.6902 140.806 55.1492Z" fill="#441B28"/>
<path d="M134.966 139.269L124.381 183.944" stroke="#407BFF" stroke-width="0.9395" stroke-miterlimit="10" stroke-linecap="round" stroke-linejoin="round"/>
<path d="M165.49 186.193C163.936 186.193 98.7198 186.193 97.5399 186.193C96.36 186.193 95.8083 181.372 97.5399 181.372C99.2716 181.372 163.809 181.372 165.49 181.372C167.17 181.372 167.043 186.193 165.49 186.193Z" fill="#C13D9F"/>
<path d="M162.273 188.18C160.719 188.18 95.503 188.18 94.3231 188.18C93.1432 188.18 92.5915 183.358 94.3231 183.358C96.0548 183.358 160.592 183.358 162.273 183.358C163.954 183.358 163.826 188.18 162.273 188.18Z" fill="#891F72"/>
<path fill-rule="evenodd" clip-rule="evenodd" d="M133.709 188.519L145.075 140.933C145.873 136.748 148.19 133.794 151.993 133.794H223.644C227.455 133.794 232.641 135.704 232.641 139.634L218.211 185.268C218.22 189.19 133.709 192.441 133.709 188.519Z" fill="#891F72"/>
<path fill-rule="evenodd" clip-rule="evenodd" d="M138.063 188.434L148.861 142.512C149.574 138.735 151.917 135.373 155.66 135.373H226.309C230.044 135.373 233.108 136.324 233.108 140.246L224.45 186.838C224.442 190.777 138.063 192.364 138.063 188.434Z" fill="#7531AB"/>
<path d="M307.866 208.34H4.14234C1.86745 208.34 0 206.472 0 204.197V191.558C0 189.283 1.86745 187.416 4.14234 187.416H307.866C310.141 187.416 312.008 189.283 312.008 191.558V204.197C312 206.481 310.141 208.34 307.866 208.34Z" fill="#407BFF"/>
<path d="M143.412 107.531C143.709 115.103 169.828 122.675 177.255 108.27" stroke="#407BFF" stroke-width="0.9395" stroke-miterlimit="10" stroke-linejoin="round"/>
<path d="M244.755 187.314H286.934C290.923 187.314 294.183 184.054 294.183 180.065C294.183 176.075 290.923 172.816 286.934 172.816H245.23C243.83 172.816 242.005 176.084 245.74 176.33C246.3 177.221 243.872 178.681 245.332 179.657C245.307 181.414 246.359 183.137 245.332 184.453C242.242 184.131 242.378 186.881 244.755 187.314Z" fill="#7531AB"/>
<path d="M246.427 185.48H285.966C289.073 185.48 291.619 183.12 291.619 180.243C291.619 177.357 289.073 175.006 285.966 175.006H246.427C243.32 174.997 243.32 185.48 246.427 185.48Z" fill="white"/>
<path d="M288.012 178.146H247.166" stroke="#407BFF" stroke-width="0.9395" stroke-miterlimit="10" stroke-linecap="round" stroke-linejoin="round"/>
<path d="M288.012 180.15H247.166" stroke="#407BFF" stroke-width="0.9395" stroke-miterlimit="10" stroke-linecap="round" stroke-linejoin="round"/>
<path d="M288.012 182.348H247.166" stroke="#407BFF" stroke-width="0.9395" stroke-miterlimit="10" stroke-linecap="round" stroke-linejoin="round"/>
<path d="M242.047 158.224H276.586C279.854 158.224 282.519 154.964 282.519 150.975C282.519 146.985 279.846 143.726 276.586 143.726H242.429C241.283 143.726 239.789 146.994 242.845 147.24C243.303 148.131 241.317 149.591 242.513 150.567C242.497 152.325 243.354 154.048 242.513 155.363C239.984 155.041 240.094 157.791 242.047 158.224Z" fill="#7531AB"/>
<path d="M243.413 156.382H275.788C278.334 156.382 280.422 154.022 280.422 151.145C280.422 148.259 278.343 145.907 275.788 145.907H243.413C240.866 145.899 240.866 156.382 243.413 156.382Z" fill="white"/>
<path d="M277.46 149.048H244.016" stroke="#407BFF" stroke-width="0.8502" stroke-miterlimit="10" stroke-linecap="round" stroke-linejoin="round"/>
<path d="M277.46 151.051H244.016" stroke="#407BFF" stroke-width="0.8502" stroke-miterlimit="10" stroke-linecap="round" stroke-linejoin="round"/>
<path d="M277.46 153.25H244.016" stroke="#407BFF" stroke-width="0.8502" stroke-miterlimit="10" stroke-linecap="round" stroke-linejoin="round"/>
<path d="M237.481 172.637H279.659C283.649 172.637 286.909 169.378 286.909 165.388C286.909 161.399 283.649 158.139 279.659 158.139H237.956C236.555 158.139 234.73 161.407 238.465 161.653C239.025 162.545 236.598 164.005 238.058 164.981C238.032 166.738 239.085 168.461 238.058 169.777C234.968 169.454 235.104 172.204 237.481 172.637Z" fill="#407BFF"/>
<path d="M239.145 170.795H278.684C281.79 170.795 284.337 168.436 284.337 165.558C284.337 162.672 281.79 160.321 278.684 160.321H239.145C236.038 160.312 236.038 170.795 239.145 170.795Z" fill="white"/>
<path d="M280.729 163.461H239.883" stroke="#407BFF" stroke-width="0.9395" stroke-miterlimit="10" stroke-linecap="round" stroke-linejoin="round"/>
<path d="M280.729 165.465H239.883" stroke="#407BFF" stroke-width="0.9395" stroke-miterlimit="10" stroke-linecap="round" stroke-linejoin="round"/>
<path d="M280.729 167.663H239.883" stroke="#407BFF" stroke-width="0.9395" stroke-miterlimit="10" stroke-linecap="round" stroke-linejoin="round"/>
<path d="M40.6599 172.985H75.1992C78.4673 172.985 81.1326 169.726 81.1326 165.736C81.1326 161.747 78.4588 158.487 75.1992 158.487H41.0419C39.8959 158.487 38.402 161.755 41.4578 162.001C41.9162 162.893 39.9299 164.353 41.1268 165.329C41.1098 167.086 41.9671 168.809 41.1268 170.125C38.5972 169.802 38.7076 172.552 40.6599 172.985Z" fill="#407BFF"/>
<path d="M42.0261 171.152H74.4009C76.9474 171.152 79.0356 168.792 79.0356 165.914C79.0356 163.028 76.9559 160.677 74.4009 160.677H42.0261C39.4796 160.669 39.4796 171.152 42.0261 171.152Z" fill="white"/>
<path d="M76.0732 163.818H42.6289" stroke="#407BFF" stroke-width="0.8502" stroke-miterlimit="10" stroke-linecap="round" stroke-linejoin="round"/>
<path d="M76.0732 165.821H42.6289" stroke="#407BFF" stroke-width="0.8502" stroke-miterlimit="10" stroke-linecap="round" stroke-linejoin="round"/>
<path d="M76.0732 168.02H42.6289" stroke="#407BFF" stroke-width="0.8502" stroke-miterlimit="10" stroke-linecap="round" stroke-linejoin="round"/>
<path d="M36.0928 187.399H78.2717C82.2612 187.399 85.5208 184.139 85.5208 180.15C85.5208 176.16 82.2612 172.9 78.2717 172.9H36.5596C35.1591 172.9 33.334 176.168 37.0689 176.415C37.6292 177.306 35.2015 178.766 36.6615 179.742C36.636 181.499 37.6886 183.222 36.6615 184.538C33.5802 184.215 33.716 186.966 36.0928 187.399Z" fill="#7531AB"/>
<path d="M37.7568 185.557H77.2958C80.4026 185.557 82.9491 183.197 82.9491 180.319C82.9491 177.433 80.4026 175.082 77.2958 175.082H37.7568C34.6501 175.082 34.6501 185.557 37.7568 185.557Z" fill="white"/>
<path d="M79.3414 178.231H38.4951" stroke="#407BFF" stroke-width="0.9395" stroke-miterlimit="10" stroke-linecap="round" stroke-linejoin="round"/>
<path d="M79.3414 180.226H38.4951" stroke="#407BFF" stroke-width="0.9395" stroke-miterlimit="10" stroke-linecap="round" stroke-linejoin="round"/>
<path d="M79.3414 182.433H38.4951" stroke="#407BFF" stroke-width="0.9395" stroke-miterlimit="10" stroke-linecap="round" stroke-linejoin="round"/>
<path d="M243.159 40.1926C243.159 56.431 230.002 69.588 213.764 69.588C211.624 69.588 205.649 77.618 199.511 77.1851C198.213 76.905 200.81 66.634 199.452 65.8786C190.454 60.8534 184.368 51.2361 184.368 40.2011C184.368 23.9628 197.525 10.8058 213.764 10.8058C230.002 10.7973 243.159 23.9628 243.159 40.1926Z" fill="#407BFF"/>
<path d="M71.6931 85.7245C78.5942 99.3059 95.189 104.722 108.77 97.8204C110.562 96.9122 118.965 101.088 123.922 98.1175C124.89 97.3281 118.354 89.8498 119.169 88.636C124.559 80.6059 125.561 69.9785 120.875 60.7516C113.974 47.1701 97.3791 41.7545 83.7976 48.6556C70.2161 55.5482 64.8005 72.143 71.6931 85.7245Z" fill="#407BFF"/>
<path d="M231.411 44.0364C232.945 35.2194 227.041 26.8284 218.224 25.2944C209.407 23.7605 201.015 29.6646 199.482 38.4816C197.948 47.2986 203.852 55.6896 212.669 57.2236C221.486 58.7575 229.877 52.8534 231.411 44.0364Z" fill="white"/>
<mask id="mask1_613_896" style="mask-type:luminance" maskUnits="userSpaceOnUse" x="199" y="25" width="33" height="33">
<path d="M231.411 44.0364C232.945 35.2194 227.041 26.8284 218.224 25.2944C209.407 23.7605 201.015 29.6646 199.482 38.4816C197.948 47.2986 203.852 55.6896 212.669 57.2236C221.486 58.7575 229.877 52.8534 231.411 44.0364Z" fill="white"/>
</mask>
<g mask="url(#mask1_613_896)">
<g opacity="0.67">
<path d="M199.724 35.125C199.147 36.7633 200.59 41.0839 201.167 41.2791C201.744 41.4744 204.435 41.6611 205.114 41.763C205.785 41.8563 207.134 41.5677 207.712 42.0516C208.289 42.5354 208.484 44.1652 208.094 44.3604C207.712 44.5556 207.321 45.4215 207.423 46.2873C207.516 47.1531 208.195 47.9255 208.577 48.4009C208.959 48.8762 209.061 49.4619 209.443 50.3278C209.825 51.1936 210.309 53.8844 211.175 55.1407C212.041 56.3885 212.711 57.2543 213.577 56.4904C214.443 55.7179 212.907 54.1815 214.35 52.7385C215.793 51.2954 216.565 50.2344 216.175 48.0274C215.793 45.8119 215.114 44.1822 214.35 43.9869C213.577 43.7917 211.845 43.4097 211.659 42.7391C211.463 42.0685 211.082 43.3163 210.504 42.4505C209.927 41.5847 209.35 39.8531 209.545 39.3692C209.74 38.8854 208.297 36.4832 209.257 35.7107C210.216 34.9383 210.122 34.4629 208.968 33.4019C207.813 32.3408 208.102 31.7636 206.464 30.9997C204.826 30.2272 200.887 29.4633 200.021 30.2272C199.147 30.9912 199.724 35.125 199.724 35.125Z" fill="#407BFF"/>
<path d="M216.837 24.1665C216.837 24.1665 215.487 28.589 214.239 29.3614C212.992 30.1338 212.219 30.9997 213.178 31.9589C214.138 32.918 213.662 33.6905 214.817 32.918C215.971 32.1456 216.166 31.1864 216.548 30.7026C216.93 30.2187 216.837 29.6415 217.414 29.5481C217.991 29.4548 217.703 29.2595 218.28 29.4548C218.857 29.65 219.052 28.7842 219.528 29.8368C220.011 30.8978 220.589 30.5073 220.105 31.7636C219.621 33.0114 218.28 32.5361 217.414 34.4544C216.548 36.3813 216.064 35.9908 216.353 36.8567C216.642 37.7225 217.219 39.938 218.755 40.4133C220.292 40.8972 221.641 43.2994 222.507 44.5472C223.373 45.795 226.454 45.9902 226.454 45.9902L229.434 46.474C229.434 46.474 231.36 48.6895 233.092 48.1123C234.824 47.5351 234.442 43.6898 234.153 40.4218C233.865 37.1538 235.112 36.4747 233.194 34.5563C231.267 32.6294 229.926 31.8655 229.637 31.3816C229.349 30.8978 227.906 32.2475 226.174 30.8044C224.442 29.3614 223.67 29.4548 223.865 28.4956C224.06 27.5364 224.536 25.6095 223.577 24.8371C222.609 24.0646 217.703 23.394 216.837 24.1665Z" fill="#407BFF"/>
</g>
</g>
<path d="M96.2158 45.0565C96.2413 44.5302 96.2837 43.9954 96.3431 43.4691" stroke="#407BFF" stroke-width="1.8791" stroke-linecap="round" stroke-linejoin="round"/>
<path d="M96.8945 40.2605C103.677 10.7548 157.205 -15.1009 193.493 12.6392" stroke="#407BFF" stroke-width="1.8791" stroke-linecap="round" stroke-linejoin="round" stroke-dasharray="3.84 3.84"/>
<path d="M194.774 13.6578C195.19 13.9889 195.598 14.3284 196.005 14.6764" stroke="#407BFF" stroke-width="1.8791" stroke-linecap="round" stroke-linejoin="round"/>
<path d="M246.64 30.2527C247.149 30.0744 247.65 29.9047 248.151 29.7519" stroke="#407BFF" stroke-width="1.8791" stroke-linecap="round" stroke-linejoin="round"/>
<path d="M251.334 28.9879C278.251 24.1325 299.99 61.125 270.492 86.9383" stroke="#407BFF" stroke-width="1.8791" stroke-linecap="round" stroke-linejoin="round" stroke-dasharray="3.85 3.85"/>
<path d="M269.244 87.9993C268.836 88.3304 268.421 88.6699 267.996 89.001" stroke="#407BFF" stroke-width="1.8791" stroke-linecap="round" stroke-linejoin="round"/>
<path d="M100.078 88.3474H92.4894C87.8208 88.3474 84.001 84.5276 84.001 79.859V64.9703C84.001 60.3017 87.8208 56.4819 92.4894 56.4819H100.078C104.747 56.4819 108.566 60.3017 108.566 64.9703V79.859C108.566 84.5276 104.747 88.3474 100.078 88.3474Z" fill="white"/>
<path d="M88.5 62.2794H104.441" stroke="#407BFF" stroke-width="0.9395" stroke-miterlimit="10" stroke-linecap="round" stroke-linejoin="round"/>
<path d="M88.5 66.1162H104.441" stroke="#407BFF" stroke-width="0.9395" stroke-miterlimit="10" stroke-linecap="round" stroke-linejoin="round"/>
<path d="M88.5 70.4962H104.441" stroke="#407BFF" stroke-width="0.9395" stroke-miterlimit="10" stroke-linecap="round" stroke-linejoin="round"/>
<path d="M88.5 74.333H104.441" stroke="#407BFF" stroke-width="0.9395" stroke-miterlimit="10" stroke-linecap="round" stroke-linejoin="round"/>
<path d="M88.5 78.5348H104.441" stroke="#407BFF" stroke-width="0.9395" stroke-miterlimit="10" stroke-linecap="round" stroke-linejoin="round"/>
<path d="M88.5 82.3715H104.441" stroke="#407BFF" stroke-width="0.9395" stroke-miterlimit="10" stroke-linecap="round" stroke-linejoin="round"/>
<path d="M264.439 115.79C258.336 127.802 243.651 132.597 231.632 126.494C230.044 125.688 222.608 129.38 218.228 126.757C217.371 126.061 223.16 119.44 222.439 118.362C217.668 111.258 216.785 101.852 220.928 93.6866C227.031 81.6755 241.716 76.8795 253.735 82.9827C265.755 89.0859 270.543 103.771 264.439 115.79Z" fill="#407BFF"/>
<path d="M240.901 121.639H245.664C250.332 121.639 254.152 120.238 254.152 115.57V95.0277C254.152 90.3591 250.332 89.1453 245.664 89.1453H240.901C236.233 89.1453 232.413 90.3591 232.413 95.0277V115.57C232.413 120.238 236.233 121.639 240.901 121.639Z" fill="white"/>
<path d="M243.448 117.989H243.109C238.44 117.989 234.62 118.142 234.62 113.473V96.3774C234.62 91.7088 238.44 91.539 243.109 91.539H243.448C248.117 91.539 251.936 91.7088 251.936 96.3774V113.473C251.936 118.142 248.117 117.989 243.448 117.989Z" fill="#407BFF"/>
<path d="M246.385 100.52C246.572 101.835 246.929 109.781 245.817 109.823C244.705 109.866 239 105.621 239.272 105.087C239.875 103.448 246.199 99.2041 246.385 100.52Z" fill="white"/>
<path d="M242.192 120.136C241.997 119.534 242.328 118.897 242.922 118.702C243.525 118.507 244.161 118.838 244.356 119.432C244.552 120.035 244.221 120.671 243.626 120.866C243.032 121.062 242.387 120.739 242.192 120.136Z" fill="#407BFF"/>
</svg>
