<svg width="312" height="233" viewBox="0 0 312 233" fill="none" xmlns="http://www.w3.org/2000/svg">
<g clip-path="url(#clip0_615_5391)">
<path d="M147.894 177.21H27.4058C25.4402 177.21 23.8428 175.612 23.8428 173.647V4.27434C23.8428 2.30874 25.4402 0.711304 27.4058 0.711304H147.9C149.866 0.711304 151.463 2.30874 151.463 4.27434V173.647C151.457 175.612 149.86 177.21 147.894 177.21ZM27.4058 0.873544C25.5276 0.873544 23.9988 2.40234 23.9988 4.28058V173.653C23.9988 175.531 25.5276 177.06 27.4058 177.06H147.9C149.778 177.06 151.307 175.531 151.307 173.653V4.27434C151.307 2.3961 149.778 0.867304 147.9 0.867304H27.4058V0.873544Z" fill="#EBEBEB"/>
<path d="M282.865 177.21H162.371C160.405 177.21 158.808 175.612 158.808 173.647V4.27434C158.808 2.30874 160.405 0.711304 162.371 0.711304H282.865C284.831 0.711304 286.428 2.30874 286.428 4.27434V173.647C286.428 175.612 284.831 177.21 282.865 177.21ZM162.371 0.873544C160.492 0.873544 158.964 2.40234 158.964 4.28058V173.653C158.964 175.531 160.492 177.06 162.371 177.06H282.865C284.743 177.06 286.272 175.531 286.272 173.653V4.27434C286.272 2.3961 284.743 0.867304 282.865 0.867304H162.371V0.873544Z" fill="#EBEBEB"/>
<path d="M280.737 215.087H260.07V215.243H280.737V215.087Z" fill="#EBEBEB"/>
<path d="M206.681 216.778H201.259V216.934H206.681V216.778Z" fill="#EBEBEB"/>
<path d="M259.446 209.29H247.472V209.446H259.446V209.29Z" fill="#EBEBEB"/>
<path d="M59.6859 210.338H32.7354V210.494H59.6859V210.338Z" fill="#EBEBEB"/>
<path d="M69.195 210.338H65.2451V210.494H69.195V210.338Z" fill="#EBEBEB"/>
<path d="M140.493 212.971H82.0371V213.127H140.493V212.971Z" fill="#EBEBEB"/>
<path d="M312 205.04H0V205.196H312V205.04Z" fill="#EBEBEB"/>
<path d="M96.683 25.8024H23.2881V134.254H96.683V25.8024Z" fill="#E0E0E0"/>
<path d="M99.3851 25.8024H25.9902V134.254H99.3851V25.8024Z" fill="#F0F0F0"/>
<path d="M95.6724 83.1355H29.5596V127.901H95.6724V83.1355Z" fill="#EBEBEB"/>
<path d="M95.6724 30.2078H29.5596V83.1354H95.6724V30.2078Z" fill="white"/>
<path d="M95.6723 30.214H93.3447V127.907H95.6723V30.214Z" fill="#E0E0E0"/>
<path d="M29.3535 83.1432V85.502H93.5943V83.1432H29.3535Z" fill="#E0E0E0"/>
<path d="M95.6723 79.1731H28.3115V83.1355H95.6723V79.1731Z" fill="#F0F0F0"/>
<path d="M273.418 205.752H183.962C177.185 205.752 171.688 200.254 171.688 193.477V166.851C171.688 160.075 177.185 154.577 183.962 154.577H273.418C280.195 154.577 285.692 160.075 285.692 166.851V193.477C285.692 200.254 280.195 205.752 273.418 205.752Z" fill="#E0E0E0"/>
<path d="M267.409 206.126H177.953C171.176 206.126 165.679 200.628 165.679 193.852V167.226C165.679 160.449 171.176 154.952 177.953 154.952H267.409C274.186 154.952 279.684 160.449 279.684 167.226V193.852C279.684 200.635 274.192 206.126 267.409 206.126Z" fill="#F5F5F5"/>
<path d="M274.46 178.87H171.575V168.355C171.575 163.619 175.413 159.781 180.149 159.781H265.887C270.623 159.781 274.46 163.619 274.46 168.355V178.87Z" fill="#E0E0E0"/>
<path d="M265.887 200.547H180.149C175.413 200.547 171.575 196.71 171.575 191.974V181.453H274.46V191.974C274.46 196.71 270.623 200.547 265.887 200.547Z" fill="#E0E0E0"/>
<path d="M246.786 163.475H227.947V178.994H246.786V163.475Z" fill="#E6E6E6"/>
<path d="M227.948 163.475H223.124V178.994H227.948V163.475Z" fill="#F5F5F5"/>
<path d="M227.124 174.82C227.124 175.693 226.413 176.405 225.539 176.405C224.665 176.405 223.954 175.693 223.954 174.82C223.954 173.946 224.665 173.235 225.539 173.235C226.413 173.235 227.124 173.946 227.124 174.82Z" fill="#E0E0E0"/>
<path d="M251.728 161.079H237.576V178.994H251.728V161.079Z" fill="#E6E6E6"/>
<path d="M237.582 161.079H233.488V178.994H237.582V161.079Z" fill="#F5F5F5"/>
<path d="M235.535 165.092C236.31 165.092 236.939 164.463 236.939 163.688C236.939 162.912 236.31 162.284 235.535 162.284C234.759 162.284 234.131 162.912 234.131 163.688C234.131 164.463 234.759 165.092 235.535 165.092Z" fill="#E0E0E0"/>
<path d="M235.536 165.092C236.311 165.092 236.94 164.463 236.94 163.688C236.94 162.912 236.311 162.284 235.536 162.284C234.76 162.284 234.132 162.912 234.132 163.688C234.132 164.463 234.76 165.092 235.536 165.092Z" fill="#E0E0E0"/>
<path d="M253.675 163.475H241.744V178.994H253.675V163.475Z" fill="#EBEBEB"/>
<path d="M241.744 163.475H239.018V178.994H241.744V163.475Z" fill="#F5F5F5"/>
<path d="M267.16 166.103H251.51V179.001H267.16V166.103Z" fill="#E6E6E6"/>
<path d="M251.51 166.103H247.504V179.001H251.51V166.103Z" fill="#F5F5F5"/>
<path d="M271.259 164.112H259.503V178.994H271.259V164.112Z" fill="#E6E6E6"/>
<path d="M259.516 164.112H256.115V178.994H259.516V164.112Z" fill="#F5F5F5"/>
<path d="M274.392 166.103H262.973V179.001H274.392V166.103Z" fill="#E6E6E6"/>
<path d="M262.966 166.103H260.701V179.001H262.966V166.103Z" fill="#F0F0F0"/>
<path d="M201.759 184.436H187.176V199.954H201.759V184.436Z" fill="#E6E6E6"/>
<path d="M187.182 184.436H183.444V199.954H187.182V184.436Z" fill="#F5F5F5"/>
<path d="M205.577 182.046H194.626V199.961H205.577V182.046Z" fill="#E6E6E6"/>
<path d="M194.632 182.046H191.469V199.961H194.632V182.046Z" fill="#F5F5F5"/>
<path d="M251.504 184.436H236.921V199.954H251.504V184.436Z" fill="#E6E6E6"/>
<path d="M236.927 184.436H233.189V199.954H236.927V184.436Z" fill="#F5F5F5"/>
<path d="M255.323 182.046H244.372V199.961H255.323V182.046Z" fill="#E6E6E6"/>
<path d="M244.378 182.046H241.214V199.961H244.378V182.046Z" fill="#F5F5F5"/>
<path d="M207.094 184.436H197.858V199.954H207.094V184.436Z" fill="#EBEBEB"/>
<path d="M197.859 184.436H195.75V199.954H197.859V184.436Z" fill="#F5F5F5"/>
<path d="M217.527 187.063H205.415V199.961H217.527V187.063Z" fill="#E6E6E6"/>
<path d="M205.416 187.063H202.314V199.961H205.416V187.063Z" fill="#F5F5F5"/>
<path d="M220.703 185.072H211.605V199.954H220.703V185.072Z" fill="#E6E6E6"/>
<path d="M211.612 185.072H208.979V199.954H211.612V185.072Z" fill="#F5F5F5"/>
<path d="M223.131 187.063H214.289V199.961H223.131V187.063Z" fill="#E6E6E6"/>
<path d="M214.283 187.063H212.529V199.961H214.283V187.063Z" fill="#F0F0F0"/>
<path d="M212.442 139.701C212.13 139.09 211.425 138.734 210.776 138.871C210.127 139.008 209.602 139.62 209.534 140.306C209.078 139.963 208.429 139.951 207.955 140.263C207.481 140.581 207.219 141.211 207.319 141.791C206.807 141.38 205.965 141.548 205.634 142.135C205.303 142.721 205.559 143.589 206.152 143.869C205.752 143.901 205.409 144.3 205.415 144.724C205.428 145.149 205.79 145.529 206.189 145.535C205.784 145.542 205.409 145.904 205.359 146.328C205.309 146.752 205.59 147.195 205.983 147.308C205.571 147.489 205.465 148.169 205.802 148.481C206.139 148.793 206.763 148.593 206.882 148.138C206.944 148.269 207.138 148.3 207.237 148.194C207.331 148.088 207.3 147.882 207.169 147.819C207.356 148.081 207.83 147.963 207.88 147.638C207.743 148.387 208.635 149.092 209.272 148.737C209.085 149.049 209.347 149.485 209.684 149.585C210.021 149.685 210.376 149.548 210.688 149.392C211.006 149.236 211.325 149.055 211.674 149.061C211.98 149.067 212.267 149.211 212.554 149.304C213.484 149.604 214.557 149.317 215.243 148.593C215.724 149.242 216.872 149.067 217.159 148.3C217.234 148.668 217.558 148.961 217.914 148.98C218.27 148.999 218.626 148.749 218.738 148.393C218.744 148.556 218.75 148.718 218.763 148.886C219.43 149.042 220.092 148.181 219.805 147.52C220.285 147.526 220.735 147.114 220.797 146.615C220.859 146.116 220.522 145.592 220.061 145.473C220.847 145.255 221.446 144.437 221.458 143.576C221.465 142.715 220.884 141.885 220.098 141.648C219.792 141.554 219.43 141.554 219.181 141.773C218.938 141.991 218.9 142.465 219.175 142.64C219.412 141.866 219.062 140.943 218.382 140.556C217.708 140.169 216.785 140.369 216.304 140.999C216.535 140.668 216.541 140.182 216.317 139.851C216.086 139.52 215.649 139.37 215.281 139.501C215.187 138.971 214.663 138.572 214.158 138.646C213.652 138.728 213.259 139.27 213.315 139.801C213.259 139.352 212.56 139.221 212.361 139.62C212.074 139.551 212.442 139.701 212.442 139.701Z" fill="#EBEBEB"/>
<path d="M212.629 144.681C212.424 144.537 212.161 144.462 211.918 144.512C211.675 144.562 211.45 144.749 211.4 144.999C211.35 145.242 211.5 145.529 211.75 145.585C212.049 145.66 212.342 145.411 212.648 145.454C212.754 145.467 212.854 145.523 212.96 145.548C213.397 145.667 213.828 145.38 214.189 145.111C214.314 145.018 214.445 144.918 214.533 144.787C214.62 144.656 214.651 144.475 214.57 144.337C214.458 144.144 214.196 144.119 213.977 144.144C213.541 144.194 213.11 144.375 212.767 144.649C212.779 144.581 212.792 144.512 212.798 144.444L212.629 144.681Z" fill="#FAFAFA"/>
<path d="M218.95 144.306C218.832 144.225 218.713 144.138 218.57 144.107C218.432 144.075 218.264 144.107 218.176 144.219C218.058 144.375 218.133 144.618 218.289 144.743C218.445 144.868 218.651 144.899 218.844 144.93C219.044 144.961 219.3 144.968 219.399 144.793C219.474 144.662 219.412 144.493 219.306 144.394C219.2 144.294 219.05 144.244 218.913 144.2L218.95 144.306Z" fill="#FAFAFA"/>
<path d="M208.96 141.018C208.554 141.186 208.248 141.561 208.155 141.985C208.124 142.116 208.13 142.278 208.242 142.341C208.323 142.39 208.423 142.372 208.517 142.347C208.904 142.253 209.291 142.166 209.677 142.072C209.49 142.141 209.303 142.216 209.153 142.347C209.004 142.478 208.904 142.684 208.954 142.877C209.01 143.102 209.259 143.239 209.49 143.239C209.721 143.239 209.94 143.121 210.127 142.983C210.326 142.84 210.526 142.64 210.526 142.39C210.532 142.141 210.22 141.91 210.027 142.072C210.47 141.954 210.888 141.76 211.269 141.504C211.406 141.411 211.543 141.311 211.631 141.167C211.718 141.024 211.749 140.843 211.668 140.693C211.275 139.976 210.769 141.03 210.526 141.124C210.071 141.311 209.546 140.774 208.96 141.018Z" fill="#FAFAFA"/>
<path d="M207.163 144.088C207.119 144.231 207.15 144.4 207.263 144.487C207.375 144.581 207.581 144.55 207.631 144.412C207.375 144.493 207.094 144.587 206.938 144.805C206.776 145.024 206.82 145.405 207.076 145.486C207.238 145.536 207.406 145.461 207.556 145.38C207.974 145.149 208.373 144.887 208.754 144.593C208.642 144.862 208.916 145.161 209.203 145.186C209.49 145.211 209.759 145.055 210.008 144.905C210.314 144.724 210.657 144.437 210.576 144.094C210.508 143.795 210.121 143.664 209.827 143.751C209.534 143.838 209.309 144.075 209.104 144.306C209.266 144.069 209.035 143.72 208.754 143.682C208.48 143.645 208.205 143.813 208.03 144.019C208.355 143.845 208.423 143.383 207.993 143.327C207.706 143.283 207.232 143.851 207.163 144.088Z" fill="#FAFAFA"/>
<path d="M215.999 143.052C215.755 142.958 215.45 143.121 215.387 143.37C215.325 143.62 215.512 143.907 215.768 143.951C215.581 143.969 215.4 144.063 215.275 144.206C215.206 144.287 215.156 144.394 215.169 144.493C215.194 144.649 215.356 144.749 215.512 144.755C215.668 144.762 215.818 144.693 215.961 144.631C215.805 144.643 215.643 144.662 215.518 144.762C215.394 144.855 215.344 145.061 215.45 145.167C215.543 145.261 215.693 145.242 215.818 145.211C216.099 145.13 216.361 144.986 216.579 144.787C216.741 144.968 216.979 145.092 217.216 145.055C217.453 145.018 217.652 144.762 217.578 144.537C217.528 144.375 217.353 144.275 217.184 144.25C217.016 144.231 216.847 144.275 216.679 144.331C216.847 144.213 217.022 144.082 217.085 143.888C217.147 143.695 217.016 143.433 216.81 143.445C216.579 143.464 216.467 143.776 216.286 143.888C216.067 143.67 216.486 143.233 215.999 143.052Z" fill="#FAFAFA"/>
<path d="M211.874 142.097C211.612 142.272 211.525 142.621 211.543 142.933C211.562 143.283 211.718 143.651 212.036 143.788C212.454 143.969 212.979 143.626 213.054 143.171C213.128 142.721 212.835 142.259 212.43 142.054C212.43 142.06 212.13 141.923 211.874 142.097Z" fill="#FAFAFA"/>
<path d="M214.795 141.729C214.832 141.76 214.87 141.792 214.901 141.823C214.726 141.598 214.352 141.567 214.14 141.76C213.927 141.954 213.927 142.328 214.14 142.528C214.352 142.721 214.726 142.696 214.901 142.472C215.2 142.609 215.6 142.559 215.812 142.303C216.024 142.047 215.974 141.598 215.687 141.436C215.4 141.274 214.957 141.517 214.988 141.848C214.945 141.804 214.907 141.754 214.863 141.71L214.795 141.729Z" fill="#FAFAFA"/>
<path d="M218.021 142.247C217.815 142.453 217.596 142.665 217.521 142.946C217.446 143.227 217.571 143.582 217.852 143.657C218.133 143.726 218.395 143.495 218.557 143.258C218.701 143.04 218.813 142.771 218.726 142.522C218.645 142.272 218.289 142.129 218.108 142.316L218.021 142.247Z" fill="#FAFAFA"/>
<path d="M213.372 140.556C213.266 140.319 212.935 140.238 212.717 140.375C212.499 140.512 212.417 140.818 212.511 141.055C212.605 141.292 212.854 141.455 213.11 141.486C213.428 141.523 213.803 141.267 213.728 140.955C213.865 141.136 214.108 141.205 214.333 141.186C214.558 141.161 214.77 141.061 214.963 140.949C215.232 140.793 215.512 140.562 215.487 140.256C215.463 140.013 215.232 139.826 214.988 139.801C214.745 139.776 214.508 139.895 214.321 140.051C214.177 140.175 214.052 140.331 213.896 140.437C213.74 140.55 213.522 140.606 213.353 140.512L213.372 140.556Z" fill="#FAFAFA"/>
<path d="M217.34 154.746H209.346L208.566 146.69H218.12L217.34 154.746Z" fill="#F0F0F0"/>
<path d="M218.737 147.108H207.867L207.674 146.035H218.937L218.737 147.108Z" fill="#FAFAFA"/>
<path d="M209.041 178.982H199.868L202.745 169.722L203.163 168.368H205.241L209.041 178.982Z" fill="#EBEBEB"/>
<path d="M203.163 168.368L202.745 169.722L199.868 178.982L191.388 178.857L188.661 169.722L188.243 168.368H203.163Z" fill="#E0E0E0"/>
<path d="M203.163 168.368L202.745 169.722L199.868 178.982L182.452 178.72L186.165 168.368H203.163Z" fill="#FAFAFA"/>
<path d="M203.163 168.368L202.745 169.722H185.685L186.165 168.368H203.163Z" fill="#EBEBEB"/>
<path d="M188.306 174.121H184.48L185.816 170.352L189.472 170.396L188.306 174.121ZM184.924 173.809H188.075L189.048 170.701L186.034 170.67L184.924 173.809Z" fill="#EBEBEB"/>
<path d="M192.586 174.121H188.761L190.096 170.352L193.753 170.396L192.586 174.121ZM189.198 173.809H192.349L193.322 170.701L190.308 170.67L189.198 173.809Z" fill="#EBEBEB"/>
<path d="M196.86 174.121H193.035L194.371 170.352L198.027 170.396L196.86 174.121ZM193.478 173.809H196.629L197.603 170.701L194.589 170.67L193.478 173.809Z" fill="#EBEBEB"/>
<path d="M201.142 174.121H197.316L198.652 170.352L202.308 170.396L201.142 174.121ZM197.759 173.809H200.911L201.884 170.701L198.87 170.67L197.759 173.809Z" fill="#EBEBEB"/>
<path d="M186.97 178.115H183.145L184.48 174.346L188.137 174.389L186.97 178.115ZM183.588 177.803H186.739L187.712 174.695L184.698 174.664L183.588 177.803Z" fill="#EBEBEB"/>
<path d="M191.25 178.115H187.425L188.76 174.346L192.417 174.389L191.25 178.115ZM187.868 177.803H191.019L191.992 174.695L188.979 174.664L187.868 177.803Z" fill="#EBEBEB"/>
<path d="M195.524 178.115H191.699L193.035 174.346L196.691 174.389L195.524 178.115ZM192.142 177.803H195.293L196.267 174.695L193.253 174.664L192.142 177.803Z" fill="#EBEBEB"/>
<path d="M199.806 178.115H195.98L197.316 174.346L200.972 174.389L199.806 178.115ZM196.424 177.803H199.575L200.548 174.695L197.534 174.664L196.424 177.803Z" fill="#EBEBEB"/>
<path d="M257.844 149.747C257.844 151.713 258.15 152.986 258.674 153.803C259.067 154.415 259.766 154.764 260.496 154.764H263.341C264.071 154.764 264.77 154.421 265.163 153.803C265.681 152.986 265.993 151.713 265.993 149.747C265.993 146.896 264.751 144.612 264.346 142.79C264.202 142.135 264.689 140.119 264.689 140.119H259.16C259.16 140.119 259.647 142.128 259.504 142.79C259.086 144.612 257.844 146.896 257.844 149.747Z" fill="#F0F0F0"/>
<path d="M263.759 126.354C263.759 126.354 262.829 126.585 262.287 127.308C261.744 128.032 262.68 129.736 262.68 129.736C262.68 129.736 263.566 130.641 264.664 130.372C265.762 130.104 265.762 130.104 265.762 130.104C265.762 130.104 264.595 126.766 263.759 126.578V126.354Z" fill="#EBEBEB"/>
<path d="M268.102 127.152C267.959 128.6 266.729 130.235 265.438 130.104C264.146 129.973 263.266 128.132 263.416 126.678C263.56 125.23 264.614 125.287 265.912 125.411C267.204 125.542 268.252 125.699 268.102 127.152Z" fill="#EBEBEB"/>
<path d="M264.452 126.023C264.452 126.023 265.282 126.984 267.372 126.909C267.372 126.909 263.809 128.425 264.452 126.023Z" fill="#EBEBEB"/>
<path d="M265.363 125.904C265.363 125.904 266.524 125.923 266.449 126.391C266.449 126.391 267.41 126.516 267.354 126.098C267.304 125.673 265.363 125.904 265.363 125.904Z" fill="#EBEBEB"/>
<path d="M264.452 126.023C264.452 126.023 265.282 126.984 267.372 126.909C267.372 126.909 263.809 128.425 264.452 126.023Z" fill="#E0E0E0"/>
<path d="M265.363 125.904C265.363 125.904 266.524 125.923 266.449 126.391C266.449 126.391 267.41 126.516 267.354 126.098C267.304 125.673 265.363 125.904 265.363 125.904Z" fill="#E0E0E0"/>
<path d="M263.217 130.148C263.498 130.884 264.259 131.377 265.045 131.427C265.831 131.483 266.611 131.133 267.173 130.584C267.735 130.035 268.09 129.299 268.284 128.538C268.334 128.338 268.446 127.845 268.196 127.72C267.965 127.602 267.753 127.914 267.616 128.051C267.21 128.444 266.786 128.8 266.306 129.099C265.838 129.393 265.338 129.63 264.82 129.804C264.677 129.854 263.267 130.279 263.217 130.148Z" fill="#EBEBEB"/>
<path d="M269.219 128.332C269.35 128.956 269.131 129.642 268.657 130.073C268.345 130.353 267.952 130.522 267.559 130.672C267.284 130.772 266.941 130.853 266.735 130.653C266.511 130.435 266.604 130.06 266.723 129.767C266.904 129.318 267.097 128.875 267.297 128.432C267.465 128.07 267.64 127.452 267.927 127.171C268.195 126.909 268.458 127.146 268.726 127.421C268.969 127.677 269.15 127.989 269.219 128.332Z" fill="#EBEBEB"/>
<path d="M263.691 129.417C263.204 129.305 262.798 128.881 262.711 128.388C262.642 128.026 262.811 127.165 263.266 127.14C263.316 127.945 263.354 128.669 263.691 129.417Z" fill="#E0E0E0"/>
<path d="M267.204 129.673C267.697 129.63 268.153 129.324 268.383 128.887C268.508 128.644 268.658 127.321 268.165 127.801C268.003 127.957 267.922 128.531 267.809 128.75C267.647 129.081 267.441 129.393 267.204 129.673Z" fill="#E0E0E0"/>
<path d="M265.275 130.141C265.575 130.516 266.149 130.641 266.579 130.422C266.486 130.665 265.65 130.728 265.388 130.753C264.707 130.821 264.427 130.472 263.853 130.098C263.853 130.098 264.807 130.435 265.275 130.141Z" fill="#E0E0E0"/>
<path d="M261.151 153.198L262.749 137.08L264.864 131.364L265.226 131.495L263.123 137.193L261.457 153.635L261.151 153.198Z" fill="#E6E6E6"/>
<path d="M263.11 137.049L262.761 137.224C262.53 136.768 262.355 136.2 262.149 135.539C261.831 134.516 261.475 133.361 260.808 132.269L261.138 132.063C261.837 133.199 262.199 134.378 262.524 135.42C262.723 136.069 262.892 136.625 263.11 137.049Z" fill="#E6E6E6"/>
<path d="M263.971 134.934C264.514 134.896 265.038 134.653 265.419 134.266C265.855 133.829 266.086 133.23 266.311 132.656C265.6 132.731 264.944 132.269 264.233 132.219C263.665 132.176 263.085 132.419 262.717 132.85C262.236 133.405 261.955 134.085 262.218 134.435C262.436 134.715 263.241 134.984 263.971 134.934Z" fill="#F0F0F0"/>
<path d="M258.262 133.193C258.786 132.756 259.909 132.581 260.539 132.825C261.176 133.068 261.65 133.63 261.781 134.21C261.525 134.597 261.02 134.74 260.558 134.69C260.103 134.641 259.685 134.422 259.273 134.204C258.867 133.992 258.443 133.773 257.987 133.717L258.262 133.193Z" fill="#F0F0F0"/>
<path d="M261.782 133.499C260.858 133.605 260.028 133.786 259.186 132.731C258.624 132.026 258.805 130.959 258.843 130.116C259.648 130.291 261.463 131.177 261.869 131.396C262.275 131.614 262.618 131.963 262.68 132.382C262.749 132.8 262.462 133.261 262.006 133.343C262 133.318 261.782 133.499 261.782 133.499Z" fill="#F0F0F0"/>
<path d="M259.135 146.035C258.767 147.083 258.412 148.225 258.53 149.342C258.555 149.554 258.617 149.797 258.773 149.835C258.917 149.872 259.054 149.698 259.11 149.504C259.16 149.311 259.148 149.105 259.148 148.905C259.142 147.177 260.084 145.723 260.265 144.032C260.315 143.551 260.19 142.041 259.909 143.152C259.653 144.138 259.479 145.068 259.135 146.035Z" fill="#FAFAFA"/>
<path d="M128.401 180.367C128.401 180.367 130.217 160.268 122.229 150.465C114.242 140.662 128.463 149.585 130.984 159.363C130.984 159.363 131.458 141.286 123.484 129.567C115.509 117.849 129.1 126.622 131.465 139.395C131.465 139.395 131.914 123.265 127.933 114.71C123.952 106.155 129.892 111.247 132.513 116.594C135.14 121.942 133.836 136.126 133.836 136.126C133.836 136.126 136.625 109.855 141.923 111.278C147.221 112.701 136.213 131.021 135.333 139.969C135.333 139.969 140.151 127.489 144.949 129.386C149.748 131.283 138.266 133.904 134.722 152.069L133.686 160.511C133.686 160.511 138.041 148.244 142.023 151.47C146.004 154.69 132.319 162.739 130.766 180.717L128.401 180.367Z" fill="#EBEBEB"/>
<path d="M129.261 181.409C129.261 181.409 127.558 156.555 137.679 144.712C147.794 132.875 130.01 143.426 126.641 155.407C126.641 155.407 126.541 133.087 136.693 118.884C146.839 104.682 129.842 115.066 126.578 130.759C126.578 130.759 126.453 110.841 131.595 100.414C136.737 89.987 129.274 96.0773 125.892 102.592C122.51 109.106 123.739 126.647 123.739 126.647C123.739 126.647 121 94.1429 114.423 95.7278C107.852 97.3128 120.937 120.276 121.786 131.339C121.786 131.339 116.176 115.789 110.204 117.973C104.233 120.157 118.329 123.758 122.216 146.291L123.271 156.743C123.271 156.743 118.229 141.467 113.231 145.317C108.233 149.167 124.9 159.532 126.335 181.765L129.261 181.409Z" fill="#F0F0F0"/>
<path d="M144.98 193.802C144.98 200.622 137.586 206.157 128.463 206.157C119.334 206.157 111.939 200.622 111.939 193.802C111.939 190.726 113.437 187.924 115.921 185.765L113.967 177.497H142.952L140.999 185.765C143.483 187.924 144.98 190.726 144.98 193.802Z" fill="#EBEBEB"/>
<path d="M153.747 20.2613C144.674 30.3389 140.181 44.0669 140.949 57.6077C141.716 71.1485 146.708 84.1152 152.786 96.2395C158.109 106.86 164.467 118.903 160.112 129.954C157.678 136.132 152.131 140.706 145.997 143.252C139.863 145.798 133.136 146.534 126.503 146.865C115.196 147.432 103.721 146.915 92.7198 149.567C81.7187 152.219 70.8861 158.771 66.6304 169.26C61.6197 181.621 67.3106 196.41 77.3445 205.19C87.3846 213.97 100.851 217.739 114.061 219.604C132.568 222.213 151.532 221.557 169.815 217.682C184.498 214.569 198.943 209.271 210.924 200.229C222.899 191.187 232.246 178.108 234.811 163.32C237.369 148.531 232.402 132.176 220.684 122.803C215.81 118.903 209.932 116.239 205.658 111.69C201.383 107.141 199.212 99.5654 203.18 94.7481C205.801 91.5658 210.219 90.5923 214.312 90.0993C234.449 87.697 256.757 91.8465 273.599 80.5459C283.24 74.075 289.48 63.0427 290.852 51.5112C292.225 39.9797 289.735 27.4997 282.472 18.4392C262.672 -6.22753 177.996 -6.67057 153.747 20.2613Z" fill="#407BFF"/>
<g opacity="0.9">
<path d="M153.747 20.2613C144.674 30.3389 140.181 44.0669 140.949 57.6077C141.716 71.1485 146.708 84.1152 152.786 96.2395C158.109 106.86 164.467 118.903 160.112 129.954C157.678 136.132 152.131 140.706 145.997 143.252C139.863 145.798 133.136 146.534 126.503 146.865C115.196 147.432 103.721 146.915 92.7198 149.567C81.7187 152.219 70.8861 158.771 66.6304 169.26C61.6197 181.621 67.3106 196.41 77.3445 205.19C87.3846 213.97 100.851 217.739 114.061 219.604C132.568 222.213 151.532 221.557 169.815 217.682C184.498 214.569 198.943 209.271 210.924 200.229C222.899 191.187 232.246 178.108 234.811 163.32C237.369 148.531 232.402 132.176 220.684 122.803C215.81 118.903 209.932 116.239 205.658 111.69C201.383 107.141 199.212 99.5654 203.18 94.7481C205.801 91.5658 210.219 90.5923 214.312 90.0993C234.449 87.697 256.757 91.8465 273.599 80.5459C283.24 74.075 289.48 63.0427 290.852 51.5112C292.225 39.9797 289.735 27.4997 282.472 18.4392C262.672 -6.22753 177.996 -6.67057 153.747 20.2613Z" fill="white"/>
</g>
<path d="M156 232.883C222.82 232.883 276.987 229.721 276.987 225.819C276.987 221.918 222.82 218.756 156 218.756C89.1806 218.756 35.0127 221.918 35.0127 225.819C35.0127 229.721 89.1806 232.883 156 232.883Z" fill="#F5F5F5"/>
<path d="M146.06 126.797L147.62 117.792L150.683 118.685L146.06 126.797Z" fill="#407BFF"/>
<path d="M147.089 129.673L155.862 127.14L154.646 124.188L147.089 129.673Z" fill="#407BFF"/>
<path d="M148.649 126.291L153.648 116.838L157.011 119.178L148.649 126.291Z" fill="#407BFF"/>
<path d="M66.0754 140.469H62.1255C61.9508 140.469 61.8135 140.331 61.8135 140.157C61.8135 139.982 61.9508 139.845 62.1255 139.845H66.0754C66.2501 139.845 66.3874 139.982 66.3874 140.157C66.3874 140.331 66.2501 140.469 66.0754 140.469Z" fill="#407BFF"/>
<path d="M59.4982 140.469H39.6987C39.524 140.469 39.3867 140.331 39.3867 140.157C39.3867 139.982 39.524 139.845 39.6987 139.845H59.492C59.6667 139.845 59.804 139.982 59.804 140.157C59.804 140.331 59.6667 140.469 59.4982 140.469Z" fill="#407BFF"/>
<path d="M129.698 176.573C129.623 176.573 129.548 176.548 129.486 176.492C129.361 176.374 129.348 176.18 129.467 176.049L131.314 174.04C131.433 173.915 131.626 173.909 131.757 174.021C131.882 174.14 131.894 174.333 131.776 174.464L129.929 176.473C129.866 176.542 129.785 176.573 129.698 176.573Z" fill="#407BFF"/>
<path d="M112.781 192.566C112.669 192.566 112.557 192.504 112.501 192.398C112.426 192.242 112.482 192.055 112.638 191.98C118.422 189.053 127.583 178.108 127.676 177.996C127.789 177.865 127.982 177.846 128.113 177.959C128.244 178.071 128.263 178.264 128.151 178.395C127.77 178.851 118.809 189.546 112.912 192.535C112.881 192.554 112.831 192.566 112.781 192.566Z" fill="#407BFF"/>
<path d="M157.685 189.147L162.14 185.459L150.921 174.814L146.135 178.901L157.685 189.147Z" fill="#CB7A63"/>
<path d="M165.747 184.043C165.448 183.855 164.836 183.943 164.206 184.117C163.906 184.205 163.594 184.305 163.32 184.405C163.101 184.486 162.902 184.567 162.733 184.635C162.484 184.741 162.303 184.823 162.24 184.854C162.184 184.866 162.147 184.922 162.14 184.985C162.134 185.004 162.147 185.029 162.159 185.047C162.178 185.078 162.209 185.103 162.246 185.11C162.877 185.278 163.526 185.384 164.181 185.434C164.499 185.478 164.83 185.453 165.136 185.365C165.154 185.359 165.167 185.359 165.179 185.353C165.354 185.297 165.529 185.222 165.685 185.128C165.891 184.96 166.003 184.704 165.978 184.436C165.972 184.28 165.891 184.124 165.747 184.043ZM165.685 184.448C165.716 184.629 165.635 184.81 165.485 184.916C165.366 185.016 165.198 185.078 164.98 185.122C164.767 185.166 164.512 185.178 164.218 185.16C163.875 185.147 163.476 185.091 163.033 185.01C162.939 184.991 162.839 184.972 162.739 184.954C163.27 184.698 163.825 184.504 164.399 184.373C164.705 184.305 165.011 184.255 165.323 184.224C165.416 184.224 165.504 184.242 165.585 184.286C165.653 184.323 165.691 184.386 165.685 184.448Z" fill="#407BFF"/>
<path d="M163.707 181.696C163.42 181.74 163.158 181.915 162.995 182.152C162.946 182.227 162.902 182.302 162.871 182.389C162.496 183.194 162.69 184.411 162.733 184.635C162.74 184.654 162.74 184.66 162.74 184.667C162.746 184.717 162.783 184.76 162.833 184.773C162.858 184.785 162.889 184.791 162.921 184.779C162.939 184.779 162.958 184.766 162.977 184.748C163.083 184.66 163.195 184.542 163.32 184.398C163.501 184.186 163.688 183.93 163.85 183.649C164.237 183.019 164.512 182.308 164.343 181.94C164.275 181.796 164.112 181.628 163.707 181.696ZM164.081 182.065C164.187 182.308 163.981 182.863 163.663 183.412C163.457 183.762 163.22 184.099 162.983 184.348C162.933 183.955 162.883 183.206 163.077 182.651C163.114 182.526 163.17 182.408 163.239 182.314C163.345 182.164 163.495 182.046 163.669 181.996L163.757 181.983C164.019 181.94 164.069 182.033 164.081 182.065Z" fill="#407BFF"/>
<path d="M161.56 185.197L155.969 188.017C155.745 188.124 155.639 188.373 155.707 188.604L157.355 193.833C157.536 194.345 158.097 194.613 158.615 194.432C158.646 194.42 158.684 194.407 158.715 194.395C168.293 191.031 171.226 188.648 172.231 188.105C175.082 186.551 173.479 184.529 172.418 184.779C167.644 185.921 166.041 185.628 163.975 185.091C162.871 184.922 161.897 185.028 161.56 185.197Z" fill="#263238"/>
<path opacity="0.2" d="M150.921 174.82L156.605 179.856L151.813 183.943L146.135 178.907L150.921 174.82Z" fill="black"/>
<path d="M149.155 183.905L156.3 177.316L154.728 174.552L146.466 181.646L149.155 183.905Z" fill="#407BFF"/>
<path opacity="0.5" d="M149.155 183.905L156.3 177.316L154.728 174.552L146.466 181.646L149.155 183.905Z" fill="white"/>
<path d="M153.604 175.519L152.649 176.342L151.22 177.572L150.366 178.296L147.876 180.436L147.395 180.841C147.395 180.841 137.218 175.107 131.552 170.208C127.671 166.851 127.321 165.603 126.916 165.915C121.443 170.077 105.244 184.467 96.0651 191.955C95.7656 191.986 95.4723 192.017 95.1665 192.036C90.2619 192.398 86.4056 191.855 83.4104 190.713C83.3792 186.732 86.7862 177.434 87.067 176.536C87.067 176.536 100.614 163.07 122.56 151.688C122.779 151.576 123.003 151.489 123.222 151.395C123.509 151.27 123.789 151.152 124.083 151.045C125.231 150.609 126.354 150.34 127.446 150.284C128.426 150.234 129.38 150.409 130.298 150.733C130.816 150.914 131.327 151.139 131.82 151.401C132.257 151.62 132.681 151.875 133.093 152.137C133.773 152.568 134.429 153.049 135.046 153.523C136.444 154.602 147.046 168.262 152.749 174.564C152.749 174.57 152.749 174.57 152.749 174.57C153.049 174.926 153.336 175.238 153.604 175.519Z" fill="#407BFF"/>
<g opacity="0.1">
<path d="M153.604 175.519L152.649 176.342L151.22 177.572L150.366 178.296L147.876 180.436L147.395 180.841C147.395 180.841 137.218 175.107 131.552 170.208C127.671 166.851 127.321 165.603 126.916 165.915C121.443 170.077 105.244 184.467 96.0651 191.955C95.7656 191.986 95.4723 192.017 95.1665 192.036C90.2619 192.398 86.4056 191.855 83.4104 190.713C83.3792 186.732 86.7862 177.434 87.067 176.536C87.067 176.536 100.614 163.07 122.56 151.688C122.779 151.576 123.003 151.489 123.222 151.395C123.509 151.27 123.789 151.152 124.083 151.045C125.231 150.609 126.354 150.34 127.446 150.284C128.426 150.234 129.38 150.409 130.298 150.733C130.816 150.914 131.327 151.139 131.82 151.401C132.257 151.62 132.681 151.875 133.093 152.137C133.773 152.568 134.429 153.049 135.046 153.523C136.444 154.602 147.046 168.262 152.749 174.564C152.749 174.57 152.749 174.57 152.749 174.57C153.049 174.926 153.336 175.238 153.604 175.519Z" fill="black"/>
</g>
<path d="M81.3134 118.036C82.1683 121.923 83.0668 127.596 80.4023 130.26C83.7095 136.088 87.6844 141.511 92.2459 146.422C98.0927 136.257 92.5516 129.973 92.5516 129.973C88.1711 129.037 88.2398 127.271 88.9262 124.226L81.3134 118.036Z" fill="#CB7A63"/>
<path d="M77.6943 130.753C78.0188 129.698 78.6865 128.787 79.5913 128.157C80.4649 127.483 89.5503 127.383 91.9153 128.157C93.2943 128.594 94.4675 129.517 95.2163 130.759L77.6943 130.753Z" fill="#407BFF"/>
<path d="M119.608 146.228L121.96 145.155L122.079 148.986C122.079 148.986 120.981 149.966 119.776 150.34C118.622 150.696 117.524 149.635 117.811 148.462C118.042 147.489 118.703 146.665 119.608 146.228Z" fill="#CB7A63"/>
<path d="M124.962 146.241L124.837 147.645C124.806 148.081 124.488 148.443 124.063 148.537L122.054 148.986L121.936 145.155L123.976 145.186C124.519 145.18 124.956 145.61 124.962 146.153C124.962 146.185 124.962 146.209 124.962 146.241Z" fill="#CB7A63"/>
<path d="M89.7749 157.129C93.3068 158.87 97.6373 159.869 101.887 159.151C106.891 158.309 115.609 153.286 119.402 150.403L118.123 148.5C116.233 148.905 100.782 156.755 90.7983 149.654C88.9388 148.331 81.638 142.884 79.0546 142.996C74.8676 143.183 75.2295 147.57 77.0266 149.398C79.142 151.532 86.8858 155.707 89.7749 157.129Z" fill="#CB7A63"/>
<g opacity="0.2">
<path d="M124.837 147.645C124.8 148.075 124.488 148.443 124.064 148.537L122.067 148.986V148.992C122.067 148.992 120.969 149.972 119.771 150.347C119.646 150.384 119.521 150.409 119.402 150.409L119.396 150.415C115.602 153.298 106.891 158.315 101.887 159.157C97.6373 159.869 93.3068 158.877 89.7749 157.129C86.8858 155.707 79.1295 151.532 77.0266 149.398C75.2295 147.57 74.8676 143.189 79.0546 142.996C81.6317 142.884 88.9388 148.331 90.7983 149.654C100.321 156.424 114.81 149.598 117.774 148.599C117.78 148.556 117.786 148.506 117.799 148.462C117.917 147.975 118.136 147.526 118.448 147.139C118.747 146.759 119.147 146.44 119.596 146.222L121.923 145.161L121.948 145.155L123.97 145.18C124.507 145.174 124.95 145.61 124.95 146.153C124.95 146.178 124.95 146.203 124.95 146.234L124.837 147.645Z" fill="black"/>
<path d="M121.954 145.155L121.936 145.161V145.155H121.954Z" fill="black"/>
</g>
<path d="M102.861 137.024C108.158 148.699 95.8717 152.031 101.5 171.176L74.793 171.818C74.974 161.56 78.6181 163.763 73.8133 144.475C73.4077 142.84 72.7276 138.154 74.4685 133.885C75.1487 132.226 76.353 130.815 77.9317 129.961C79.9036 128.893 88.5897 129.73 92.552 129.992C96.8452 129.393 102.074 135.564 102.861 137.024Z" fill="#407BFF"/>
<path opacity="0.5" d="M102.861 137.024C108.158 148.699 95.8717 152.031 101.5 171.176L74.793 171.818C74.974 161.56 78.6181 163.763 73.8133 144.475C73.4077 142.84 72.7276 138.154 74.4685 133.885C75.1487 132.226 76.353 130.815 77.9317 129.961C79.9036 128.893 88.5897 129.73 92.552 129.992C96.8452 129.393 102.074 135.564 102.861 137.024Z" fill="white"/>
<path d="M97.7566 113.861C97.6817 114.373 97.8877 114.791 98.2059 114.835C98.5241 114.878 98.8486 114.523 98.9173 114.03C98.9921 113.537 98.7862 113.1 98.468 113.056C98.1497 113.019 97.8253 113.375 97.7566 113.861Z" fill="#263238"/>
<path d="M98.3242 113.069L99.5473 112.9C99.5473 112.894 98.8109 113.73 98.3242 113.069Z" fill="#263238"/>
<path d="M97.8371 114.535C97.8371 114.535 98.3612 116.769 99.135 117.911C98.3987 118.423 97.3379 117.986 97.3379 117.986L97.8371 114.535Z" fill="#A02724"/>
<path d="M99.5217 110.429C99.6153 110.392 99.684 110.304 99.7027 110.205C99.7276 110.042 99.6153 109.899 99.4593 109.874C98.5358 109.712 97.5873 110.011 96.9259 110.673C96.8073 110.785 96.8011 110.966 96.9072 111.084C97.0195 111.203 97.2005 111.209 97.319 111.103C97.3315 111.091 97.344 111.078 97.3565 111.059C97.8931 110.548 98.6419 110.323 99.372 110.454C99.4219 110.46 99.4781 110.454 99.5217 110.429Z" fill="#263238"/>
<path d="M81.595 109.824C81.0895 115.908 80.7463 118.466 83.3422 122.005C87.2484 127.327 94.8363 126.628 97.1388 120.813C99.223 115.584 99.7035 106.517 94.1499 103.26C90.1937 100.913 85.0894 102.217 82.7369 106.167C82.0755 107.278 81.6823 108.532 81.595 109.824Z" fill="#CB7A63"/>
<path d="M97.2754 120.445C96.8137 120.058 96.4642 119.546 96.2646 118.959C96.2458 118.897 96.2833 118.828 96.3519 118.803C96.4143 118.785 96.483 118.822 96.5017 118.891C96.6826 119.396 96.9822 119.839 97.369 120.195L97.2754 120.445Z" fill="#263238"/>
<path d="M77.2581 101.912C74.9368 105.057 73.8823 105.874 76.7527 114.242C77.9071 117.605 81.2579 122.061 82.8866 122.466C85.8069 123.203 88.6461 121.15 90.8426 119.084C92.7645 117.275 94.6053 115.321 95.7722 112.956C96.9391 110.592 97.3696 107.759 96.4087 105.306C95.3603 102.642 91.66 100.264 88.8895 99.6778C85.6322 98.9914 79.1863 99.2971 77.2581 101.912Z" fill="#263238"/>
<path d="M95.4532 113.474C95.4532 113.474 96.1833 114.729 95.2598 115.665L95.2785 113.992L95.4532 113.474Z" fill="#263238"/>
<path d="M95.4412 113.474C95.4412 113.474 95.7095 115.396 94.0996 116.114L94.967 114.036L95.4412 113.474Z" fill="#263238"/>
<path d="M84.7271 121.755C84.7271 121.755 82.955 122.56 83.2108 124.301L84.5025 122.46L84.7271 121.755Z" fill="#263238"/>
<path d="M84.7957 121.792C84.7957 121.792 83.4478 123.19 84.3339 124.719L84.8518 122.529L84.7957 121.792Z" fill="#263238"/>
<path d="M97.8811 110.966C98.5114 110.317 99.1541 109.656 99.6159 108.876C100.084 108.096 100.365 107.172 100.227 106.28C100.046 105.119 99.1728 104.164 98.1557 103.578C97.1386 102.997 95.9717 102.735 94.8235 102.48C94.2619 102.355 93.6317 102.236 93.1387 102.536C92.6582 102.823 92.4523 103.428 92.4835 103.983C92.5085 104.539 92.7331 105.063 92.9328 105.581C93.7253 107.609 94.2245 109.693 94.6051 111.827C94.7986 112.907 94.6488 113.618 95.7159 113.206C96.4272 112.925 97.3383 111.528 97.8811 110.966Z" fill="#263238"/>
<path d="M89.4818 113.967C89.4194 115.378 89.9124 116.75 90.8609 117.793C92.1276 119.172 93.7375 118.267 94.1993 116.557C94.6236 115.022 94.4614 112.457 92.8015 111.721C91.1417 110.978 89.5692 112.251 89.4818 113.967Z" fill="#CB7A63"/>
<path d="M160.256 191.955L165.074 187.256L155.751 175.531L149.923 178.969L160.256 191.955Z" fill="#CB7A63"/>
<path d="M169.99 185.809C169.454 185.621 168.355 186.22 167.526 186.751C167.313 186.882 167.126 187.013 166.964 187.125L166.951 187.131C166.92 187.156 166.895 187.175 166.87 187.194C166.683 187.325 166.546 187.425 166.496 187.462C166.434 187.493 166.409 187.556 166.421 187.618C166.44 187.681 166.496 187.724 166.558 187.731C167.132 187.755 167.707 187.737 168.281 187.674C168.412 187.662 168.536 187.649 168.661 187.631C169.079 187.599 169.479 187.462 169.822 187.231C169.947 187.15 170.065 187.063 170.165 186.963C170.346 186.745 170.408 186.445 170.321 186.171C170.284 186.015 170.159 185.877 169.99 185.809ZM170.028 186.258C170.09 186.439 170.059 186.645 169.928 186.795C169.766 186.994 169.441 187.156 168.979 187.269C168.624 187.356 168.193 187.419 167.688 187.443C167.488 187.45 167.276 187.462 167.058 187.462C167.126 187.406 167.195 187.356 167.27 187.306C167.32 187.269 167.37 187.238 167.419 187.2C168.087 186.732 168.823 186.364 169.603 186.108C169.697 186.083 169.797 186.083 169.897 186.114C169.959 186.133 170.009 186.189 170.028 186.258Z" fill="#407BFF"/>
<path d="M167.319 183.818C167.026 183.93 166.795 184.167 166.683 184.454C166.29 185.415 166.87 186.894 166.97 187.125C166.97 187.131 166.97 187.131 166.976 187.131C166.976 187.144 166.976 187.15 166.982 187.15C167.007 187.2 167.051 187.238 167.107 187.244C167.138 187.25 167.17 187.244 167.201 187.231C167.22 187.225 167.245 187.206 167.251 187.194C167.257 187.181 167.263 187.181 167.269 187.175C167.357 187.063 167.45 186.919 167.532 186.751C167.993 185.883 168.424 184.436 168.043 183.937C167.931 183.793 167.725 183.656 167.319 183.818ZM167.163 186.77C166.995 186.277 166.695 185.228 166.97 184.579C167.045 184.398 167.176 184.242 167.351 184.149L167.438 184.105C167.706 183.999 167.775 184.093 167.8 184.124C168.068 184.486 167.65 185.965 167.163 186.77Z" fill="#407BFF"/>
<path opacity="0.2" d="M155.258 174.814L159.651 180.436L153.711 183.743L149.249 178.271L155.258 174.814Z" fill="black"/>
<path d="M74.55 169.784L73.9322 172.205C73.8386 172.399 74.0695 172.58 74.3752 172.573L101.881 171.925C102.125 171.912 102.318 171.793 102.33 171.644L101.644 169.104C101.663 168.942 101.444 168.805 101.182 168.811L74.993 169.578C74.8183 169.56 74.6498 169.641 74.55 169.784Z" fill="#263238"/>
<path d="M99.0228 172.211L98.299 172.286C98.1555 172.28 98.0369 172.243 98.0369 172.155L98.0244 169.029C98.0244 168.942 98.143 168.854 98.2865 168.836L99.0103 168.755C99.1539 168.761 99.2724 168.798 99.2724 168.892L99.2849 172.018C99.2787 172.105 99.1663 172.193 99.0228 172.211Z" fill="#407BFF"/>
<path d="M89.1758 172.336L88.4519 172.411C88.3084 172.405 88.1961 172.368 88.1898 172.28L88.1836 169.154C88.1836 169.067 88.3022 168.979 88.4457 168.96L89.1633 168.879C89.3068 168.886 89.4253 168.923 89.4253 169.017L89.4378 172.143C89.4378 172.243 89.3193 172.318 89.1758 172.336Z" fill="#407BFF"/>
<path d="M89.1758 172.336L88.4519 172.411C88.3084 172.405 88.1961 172.368 88.1898 172.28L88.1836 169.154C88.1836 169.067 88.3022 168.979 88.4457 168.96L89.1633 168.879C89.3068 168.886 89.4253 168.923 89.4253 169.017L89.4378 172.143C89.4378 172.243 89.3193 172.318 89.1758 172.336Z" fill="#407BFF"/>
<path d="M158.946 177.328L157.729 178.015L157.723 178.021L155.632 179.2L153.754 180.255L153.748 180.261L151.82 181.347V181.353L151.083 181.771C151.083 181.771 150.915 181.653 150.622 181.434C150.509 181.353 150.378 181.26 150.229 181.147C149.773 180.804 149.13 180.324 148.388 179.731C148.388 179.731 148.388 179.731 148.388 179.725C144.506 176.661 137.599 170.627 135.546 165.148C134.217 166.733 132.625 168.717 130.803 170.914C122.96 180.38 110.761 193.74 96.1028 195.481C95.8032 195.524 95.51 195.549 95.2042 195.574C90.3058 195.998 86.4433 195.505 83.4356 194.401C75.829 191.618 73.7074 184.929 74.2316 179.244V179.225C74.2753 176.567 74.7994 171.825 74.7994 171.825L102.549 171.856C106.461 167.107 114.305 159.669 122.329 154.977C122.517 154.858 122.71 154.746 122.904 154.646C123.141 154.502 123.384 154.378 123.621 154.247C126.229 152.818 128.838 151.713 131.309 151.114C131.858 150.983 132.401 150.871 132.937 150.79C133.499 150.702 134.054 150.652 134.597 150.627V150.634C138.397 150.459 141.698 151.875 143.939 155.669L158.54 176.736L158.946 177.328Z" fill="#407BFF"/>
<path d="M143.97 148.493L113.307 149.76L114.205 130.248L144.869 128.981L143.97 148.493Z" fill="#407BFF"/>
<path d="M143.614 150.035L113.394 151.283C112.539 151.32 111.871 150.646 111.915 149.791L112.807 130.404C112.845 129.542 113.575 128.819 114.43 128.781L144.65 127.533C145.505 127.496 146.173 128.163 146.129 129.024L145.237 148.412C145.199 149.273 144.469 149.997 143.614 150.035Z" fill="#263238"/>
<path d="M143.97 148.493L113.307 149.76L114.205 130.248L144.869 128.981L143.97 148.493Z" fill="#407BFF"/>
<path opacity="0.9" d="M143.97 148.493L113.307 149.76L114.205 130.248L144.869 128.981L143.97 148.493Z" fill="white"/>
<path opacity="0.1" d="M125.087 128.344L120.021 150.995L122.036 150.914L127.034 128.263L125.087 128.344Z" fill="white"/>
<path opacity="0.1" d="M128.195 128.219L123.128 150.871L127.128 150.702L132.126 128.057L128.195 128.219Z" fill="white"/>
<path d="M134.016 150.278L144.225 149.991C144.4 151.176 143.894 151.619 143.245 151.638L139.982 151.719L137.804 151.769L134.416 151.863L113.393 152.474L113.225 150.995L134.016 150.278Z" fill="#407BFF"/>
<path d="M134.017 150.278L144.225 149.991C144.4 151.176 143.895 151.619 143.246 151.638L139.982 151.719L137.804 151.769L134.416 151.863L108.395 152.662C108.096 152.668 107.821 152.506 107.69 152.231C107.459 151.744 107.803 151.17 108.345 151.151L134.017 150.278Z" fill="#407BFF"/>
<path opacity="0.2" d="M134.017 150.278L144.225 149.991C144.4 151.176 143.895 151.619 143.246 151.638L139.982 151.719L137.804 151.769L134.416 151.863L108.395 152.662C108.096 152.668 107.821 152.506 107.69 152.231C107.459 151.744 107.803 151.17 108.345 151.151L134.017 150.278Z" fill="black"/>
<path opacity="0.2" d="M144.225 149.991L144.287 150.403C144.381 151.039 143.894 151.619 143.245 151.638L139.982 151.719L133.923 151.938L134.023 150.278L144.225 149.991Z" fill="black"/>
<path opacity="0.2" d="M91.3478 137.598C91.3478 137.598 89.9064 140.537 94.0685 148.3L95.8094 151.464C96.3835 152.506 100.202 150.378 101.338 148.425C101.338 148.425 94.0435 144.044 91.3478 137.598Z" fill="black"/>
<path d="M126.648 146.646L129.55 145.791L129.082 150.278C129.082 150.278 125.032 152.986 123.628 150.397L124.19 148.949C124.626 147.851 125.525 147.008 126.648 146.646Z" fill="#CB7A63"/>
<path d="M132.881 147.557L132.519 149.173C132.413 149.673 131.989 150.041 131.477 150.085L129.062 150.272L129.53 145.785L131.902 146.16C132.532 146.241 132.981 146.821 132.894 147.451C132.894 147.489 132.888 147.52 132.881 147.557Z" fill="#CB7A63"/>
<path d="M102.487 154.234C104.508 156.98 107.354 159.27 110.705 159.925C114.648 160.699 122.236 155.12 125.793 151.507C125.612 149.985 125.718 149.161 124.196 148.949C124.196 148.949 120.283 151.819 112.895 153.541C110.511 154.097 108.92 151.657 106.836 148.106C105.8 146.334 102.443 139.077 101.176 137.461C99.1482 134.865 93.3637 136.725 95.66 142.971C96.6272 145.598 100.833 151.988 102.487 154.234Z" fill="#CB7A63"/>
<path d="M100.327 133.211C104.433 136.98 106.43 143.645 106.43 143.645L96.8449 149.485C96.8449 149.485 89.8374 139.651 91.0854 136.225C92.0713 133.567 93.8997 131.82 96.3021 131.67C97.7934 131.583 99.2286 132.201 100.327 133.211Z" fill="#407BFF"/>
<path d="M78.3497 172.717L77.6258 172.736C77.4823 172.717 77.37 172.667 77.3762 172.573L77.6383 169.46C77.6508 169.366 77.7693 169.291 77.9129 169.285L78.6367 169.266C78.7802 169.285 78.8925 169.341 78.8863 169.428L78.6242 172.548C78.618 172.636 78.4932 172.729 78.3497 172.717Z" fill="#407BFF"/>
<path d="M149.904 183.094L159.239 178.427L158.44 175.107L147.795 179.968L149.904 183.094Z" fill="#407BFF"/>
<path opacity="0.5" d="M149.904 183.094L159.239 178.427L158.44 175.107L147.795 179.968L149.904 183.094Z" fill="white"/>
<path d="M164.699 186.744L158.259 188.698C158.003 188.766 157.841 189.01 157.872 189.272L158.646 195.112C158.746 195.686 159.288 196.079 159.863 195.98C159.9 195.973 159.937 195.967 159.975 195.955C170.733 194.164 174.283 192.192 175.438 191.799C178.739 190.682 177.422 188.242 176.249 188.317C170.982 188.641 169.341 188.036 167.251 187.088C166.134 186.695 165.085 186.632 164.699 186.744Z" fill="#263238"/>
<path d="M78.1061 109.749C76.1717 110.055 74.256 108.57 73.6508 106.71C73.0455 104.851 73.5447 102.773 74.5368 101.082C75.2669 99.8337 80.053 96.8759 81.8314 100.208C85.3632 106.841 78.1061 109.749 78.1061 109.749Z" fill="#263238"/>
<path d="M143.694 135.67L124.818 136.475L124.906 134.603L143.782 133.798L143.694 135.67Z" fill="#407BFF"/>
<g opacity="0.7">
<path d="M143.694 135.67L124.818 136.475L124.906 134.603L143.782 133.798L143.694 135.67Z" fill="white"/>
</g>
<path d="M143.582 138.272L124.706 139.071L124.787 137.199L143.663 136.4L143.582 138.272Z" fill="#407BFF"/>
<g opacity="0.7">
<path d="M143.582 138.272L124.706 139.071L124.787 137.199L143.663 136.4L143.582 138.272Z" fill="white"/>
</g>
<path d="M143.464 140.868L124.588 141.673L124.675 139.801L143.551 138.996L143.464 140.868Z" fill="#407BFF"/>
<g opacity="0.7">
<path d="M143.464 140.868L124.588 141.673L124.675 139.801L143.551 138.996L143.464 140.868Z" fill="white"/>
</g>
<path d="M143.346 143.47L124.47 144.269L124.557 142.397L143.433 141.598L143.346 143.47Z" fill="#407BFF"/>
<g opacity="0.7">
<path d="M143.346 143.47L124.47 144.269L124.557 142.397L143.433 141.598L143.346 143.47Z" fill="white"/>
</g>
<path d="M143.232 146.066L124.356 146.871L124.438 144.999L143.314 144.194L143.232 146.066Z" fill="#407BFF"/>
<g opacity="0.7">
<path d="M143.232 146.066L124.356 146.871L124.438 144.999L143.314 144.194L143.232 146.066Z" fill="white"/>
</g>
<path d="M117.2 137.521L115.685 137.586L115.711 138.209L117.226 138.144L117.2 137.521Z" fill="#407BFF"/>
<g opacity="0.5">
<path d="M117.2 137.521L115.685 137.586L115.711 138.209L117.226 138.144L117.2 137.521Z" fill="white"/>
</g>
<path d="M117.131 139.324L115.616 139.389L115.643 140.013L117.158 139.947L117.131 139.324Z" fill="#407BFF"/>
<g opacity="0.5">
<path d="M117.131 139.324L115.616 139.389L115.643 140.013L117.158 139.947L117.131 139.324Z" fill="white"/>
</g>
<path d="M117.056 141.121L115.541 141.186L115.568 141.809L117.083 141.744L117.056 141.121Z" fill="#407BFF"/>
<g opacity="0.5">
<path d="M117.056 141.121L115.541 141.186L115.568 141.809L117.083 141.744L117.056 141.121Z" fill="white"/>
</g>
<path d="M116.988 142.925L115.473 142.99L115.499 143.613L117.014 143.548L116.988 142.925Z" fill="#407BFF"/>
<g opacity="0.5">
<path d="M116.988 142.925L115.473 142.99L115.499 143.613L117.014 143.548L116.988 142.925Z" fill="white"/>
</g>
<path d="M116.912 144.721L115.397 144.786L115.424 145.41L116.939 145.345L116.912 144.721Z" fill="#407BFF"/>
<g opacity="0.5">
<path d="M115.421 145.417L115.477 144.787L116.987 144.724L116.931 145.348L115.421 145.417Z" fill="white"/>
</g>
<path d="M116.84 146.521L115.325 146.584L115.351 147.208L116.866 147.144L116.84 146.521Z" fill="#407BFF"/>
<g opacity="0.5">
<path d="M116.84 146.521L115.325 146.584L115.351 147.208L116.866 147.144L116.84 146.521Z" fill="white"/>
</g>
<path d="M118.772 135.801L115.64 136.968L115.671 136.144L117.406 135.863L115.69 135.745L115.721 134.921L118.772 135.801Z" fill="#407BFF"/>
<path d="M137.897 132.825L124.818 133.38L124.881 132.082L137.96 131.527L137.897 132.825Z" fill="#407BFF"/>
<g opacity="0.7">
<path d="M137.897 132.825L124.818 133.38L124.881 132.082L137.96 131.527L137.897 132.825Z" fill="white"/>
</g>
<path d="M120.252 133.498L118.336 133.58L119.11 133.087L119.322 133.286L119.553 133.08L120.252 133.498Z" fill="#407BFF"/>
<path d="M119.034 133.03L118.261 133.523L118.317 132.381L119.034 133.03Z" fill="#407BFF"/>
<path d="M120.376 132.344L120.314 133.43L119.608 133.018L120.376 132.344Z" fill="#407BFF"/>
<path d="M119.349 132.82L119.306 132.866L119.31 132.87L119.353 132.825L119.349 132.82Z" fill="white"/>
<path d="M119.311 132.837L119.307 132.842L119.35 132.887L119.354 132.883L119.311 132.837Z" fill="white"/>
<path d="M120.376 132.238L119.553 132.987L119.322 133.186L119.11 132.993L118.392 132.344L118.336 132.288L120.376 132.238Z" fill="#407BFF"/>
<path d="M117.206 132.439L115.691 132.504L115.699 132.691L117.214 132.626L117.206 132.439Z" fill="#407BFF"/>
<path d="M117.208 132.912L115.693 132.976L115.701 133.163L117.216 133.099L117.208 132.912Z" fill="#407BFF"/>
<path d="M117.206 133.394L115.691 133.458L115.699 133.645L117.214 133.581L117.206 133.394Z" fill="#407BFF"/>
<path d="M205.114 38.6069H196.023C195.199 38.6069 194.531 37.9392 194.531 37.1155C194.531 36.2918 195.199 35.6241 196.023 35.6241H205.114C205.938 35.6241 206.606 36.2918 206.606 37.1155C206.606 37.9392 205.938 38.6069 205.114 38.6069Z" fill="#407BFF"/>
<g opacity="0.7">
<path d="M205.114 38.6069H196.023C195.199 38.6069 194.531 37.9392 194.531 37.1155C194.531 36.2918 195.199 35.6241 196.023 35.6241H205.114C205.938 35.6241 206.606 36.2918 206.606 37.1155C206.606 37.9392 205.938 38.6069 205.114 38.6069Z" fill="white"/>
</g>
<path d="M238.468 69.2515L203.611 133.399C203.162 134.222 202.126 134.528 201.302 134.079L141.991 101.849C141.167 101.4 140.861 100.364 141.311 99.5405L186.644 16.1054C187.094 15.2817 188.129 14.976 188.953 15.4253L228.92 37.1405L238.468 69.2515Z" fill="#407BFF"/>
<g opacity="0.2">
<path d="M238.468 69.2515L203.611 133.399C203.162 134.222 202.126 134.528 201.302 134.079L141.991 101.849C141.167 101.4 140.861 100.364 141.311 99.5405L186.644 16.1054C187.094 15.2817 188.129 14.976 188.953 15.4253L228.92 37.1405L238.468 69.2515Z" fill="white"/>
</g>
<path d="M218.912 83.6489L174.615 59.7513L173.134 62.4973L217.431 86.3948L218.912 83.6489Z" fill="#407BFF"/>
<path d="M212.86 94.8689L168.562 70.9713L167.081 73.7172L211.378 97.6148L212.86 94.8689Z" fill="#407BFF"/>
<path d="M206.808 106.088L162.511 82.1908L161.029 84.9367L205.326 108.834L206.808 106.088Z" fill="#407BFF"/>
<path d="M228.97 37.1155L218.462 56.4657C218.013 57.2894 218.319 58.3252 219.142 58.7745L238.43 69.2577L228.97 37.1155Z" fill="#407BFF"/>
<path opacity="0.7" d="M228.97 37.1155L218.462 56.4657C218.013 57.2894 218.319 58.3252 219.142 58.7745L238.43 69.2577L228.97 37.1155Z" fill="white"/>
<path d="M247.553 67.0924L212.696 131.24C212.247 132.063 211.211 132.369 210.387 131.92L151.076 99.6902C150.252 99.2409 149.946 98.2051 150.396 97.3814L195.729 13.9464C196.179 13.1227 197.214 12.8169 198.038 13.2662L238.005 34.9814L247.553 67.0924Z" fill="#407BFF"/>
<g opacity="0.5">
<path d="M247.553 67.0924L212.696 131.24C212.247 132.063 211.211 132.369 210.387 131.92L151.076 99.6902C150.252 99.2409 149.946 98.2051 150.396 97.3814L195.729 13.9464C196.179 13.1227 197.214 12.8169 198.038 13.2662L238.005 34.9814L247.553 67.0924Z" fill="white"/>
</g>
<path d="M226.817 80.8517L184.884 58.2317C184.229 57.8822 183.418 58.1256 183.062 58.7746L182.856 59.1552C182.507 59.8104 182.75 60.6216 183.399 60.9773L225.332 83.5973C225.987 83.9467 226.798 83.7034 227.154 83.0544L227.36 82.6738C227.715 82.0186 227.472 81.2011 226.817 80.8517Z" fill="#407BFF"/>
<path d="M220.764 92.0712L178.831 69.4512C178.176 69.1017 177.365 69.3451 177.009 69.994L176.803 70.3747C176.454 71.0299 176.697 71.8411 177.346 72.1968L219.279 94.8168C219.934 95.1662 220.745 94.9228 221.101 94.2739L221.307 93.8932C221.663 93.238 221.419 92.4268 220.764 92.0712Z" fill="#407BFF"/>
<path d="M214.711 103.291L172.778 80.6706C172.123 80.3212 171.312 80.5646 170.956 81.2135L170.75 81.5942C170.401 82.2494 170.644 83.0606 171.293 83.4162L213.226 106.036C213.881 106.386 214.693 106.142 215.048 105.493L215.254 105.113C215.61 104.458 215.366 103.646 214.711 103.291Z" fill="#407BFF"/>
<path d="M238.061 34.9564L227.547 54.3067C227.098 55.1303 227.404 56.1662 228.227 56.6155L247.515 67.0987L238.061 34.9564Z" fill="#407BFF"/>
<path opacity="0.7" d="M238.061 34.9564L227.547 54.3067C227.098 55.1303 227.404 56.1662 228.227 56.6155L247.515 67.0987L238.061 34.9564Z" fill="white"/>
<path d="M235.653 5.54736L238.586 18.5702C227.479 21.6216 217.514 32.6102 210.344 42.9998C207.517 47.0995 205.121 51.8606 203.33 56.8963C203.33 56.8963 225.725 36.635 238.074 35.4494L237.488 56.9774C237.488 56.9774 250.292 32.0362 275.165 22.907C275.159 22.9008 254.33 7.89984 235.653 5.54736Z" fill="#407BFF"/>
<path d="M84.5583 147.826L90.218 212.516H81.0951L75.0049 142.902H79.1857C81.9874 142.902 84.315 145.036 84.5583 147.826Z" fill="#407BFF"/>
<path opacity="0.2" d="M84.6141 148.406L90.2239 212.516H81.101L75.0107 142.902H78.605C81.7312 142.902 84.3395 145.292 84.6141 148.406Z" fill="black"/>
<path d="M78.6305 147.114L84.3526 212.516H30.0397L24.3862 147.919C24.1491 145.224 26.2769 142.902 28.9851 142.902H74.0254C76.4278 142.902 78.4246 144.731 78.6305 147.114Z" fill="#407BFF"/>
<path opacity="0.2" d="M78.693 147.826L84.3527 212.516H30.0398L24.4612 148.768C24.1866 145.617 26.6702 142.902 29.8338 142.902H73.3141C76.1159 142.902 78.4497 145.036 78.693 147.826Z" fill="white"/>
<path d="M174.214 212.516H30.2889L28.7227 194.576H166.882C170.071 194.576 172.879 197.159 173.154 200.348L174.214 212.516Z" fill="#407BFF"/>
<path opacity="0.2" d="M174.214 212.516H30.2889L28.7227 194.576H166.882C170.071 194.576 172.879 197.159 173.154 200.348L174.214 212.516Z" fill="white"/>
<path d="M180.817 219.386H28.598C26.6261 219.386 25.0225 217.788 25.0225 215.81C25.0225 213.839 26.6199 212.235 28.598 212.235H180.817C182.788 212.235 184.392 213.832 184.392 215.81C184.392 217.782 182.788 219.386 180.817 219.386Z" fill="#407BFF"/>
<path opacity="0.2" d="M180.817 219.386H92.4525C90.4806 219.386 88.877 217.788 88.877 215.81C88.877 213.839 90.4744 212.235 92.4525 212.235H180.817C182.789 212.235 184.393 213.832 184.393 215.81C184.393 217.782 182.789 219.386 180.817 219.386Z" fill="black"/>
<path d="M30.5947 219.386L32.3981 225.526H36.0048L37.9891 219.386H30.5947Z" fill="#263238"/>
<path opacity="0.5" d="M30.5947 219.386L32.3981 225.526H36.0048L37.9891 219.386H30.5947Z" fill="white"/>
<path d="M82.2803 219.386L84.0836 225.526H87.6904L89.6747 219.386H82.2803Z" fill="#263238"/>
<path opacity="0.5" d="M82.2803 219.386L84.0836 225.526H87.6904L89.6747 219.386H82.2803Z" fill="white"/>
<path d="M121.842 219.386L123.645 225.526H127.252L129.236 219.386H121.842Z" fill="#263238"/>
<path opacity="0.5" d="M121.842 219.386L123.645 225.526H127.252L129.236 219.386H121.842Z" fill="white"/>
<path d="M173.528 219.386L175.332 225.526H178.938L180.923 219.386H173.528Z" fill="#263238"/>
<path opacity="0.5" d="M173.528 219.386L175.332 225.526H178.938L180.923 219.386H173.528Z" fill="white"/>
</g>
<defs>
<clipPath id="clip0_615_5391">
<rect width="312" height="232.883" fill="white"/>
</clipPath>
</defs>
</svg>
