<svg width="312" height="233" viewBox="0 0 312 233" fill="none" xmlns="http://www.w3.org/2000/svg">
<g clip-path="url(#clip0_615_5005)">
<path d="M312 204.329H0V204.485H312V204.329Z" fill="#EBEBEB"/>
<path d="M280.737 214.369H260.07V214.525H280.737V214.369Z" fill="#EBEBEB"/>
<path d="M206.681 216.066H201.259V216.222H206.681V216.066Z" fill="#EBEBEB"/>
<path d="M259.446 208.578H247.472V208.734H259.446V208.578Z" fill="#EBEBEB"/>
<path d="M59.6859 209.627H32.7354V209.783H59.6859V209.627Z" fill="#EBEBEB"/>
<path d="M69.195 209.627H65.2451V209.783H69.195V209.627Z" fill="#EBEBEB"/>
<path d="M140.493 212.26H82.0371V212.416H140.493V212.26Z" fill="#EBEBEB"/>
<path d="M147.894 176.498H27.4058C25.4402 176.498 23.8428 174.901 23.8428 172.935V3.56304C23.8428 1.59744 25.4402 0 27.4058 0H147.9C149.866 0 151.463 1.59744 151.463 3.56304V172.935C151.457 174.901 149.86 176.498 147.894 176.498ZM27.4058 0.156C25.5276 0.156 23.9988 1.6848 23.9988 3.56304V172.935C23.9988 174.814 25.5276 176.342 27.4058 176.342H147.9C149.778 176.342 151.307 174.814 151.307 172.935V3.56304C151.307 1.6848 149.778 0.156 147.9 0.156H27.4058Z" fill="#EBEBEB"/>
<path d="M282.865 176.498H162.371C160.405 176.498 158.808 174.901 158.808 172.935V3.56304C158.808 1.59744 160.405 0 162.371 0H282.865C284.831 0 286.428 1.59744 286.428 3.56304V172.935C286.428 174.901 284.831 176.498 282.865 176.498ZM162.371 0.156C160.492 0.156 158.964 1.6848 158.964 3.56304V172.935C158.964 174.814 160.492 176.342 162.371 176.342H282.865C284.743 176.342 286.272 174.814 286.272 172.935V3.56304C286.272 1.6848 284.743 0.156 282.865 0.156H162.371Z" fill="#EBEBEB"/>
<path d="M125.044 36.9283H43.6494V41.1091H125.044V36.9283Z" fill="#E0E0E0"/>
<path d="M50.9816 21.5156H47.3936V36.9284H50.9816V21.5156Z" fill="#EBEBEB"/>
<path d="M68.3224 21.5156H64.7344V36.9284H68.3224V21.5156Z" fill="#EBEBEB"/>
<path d="M88.0057 21.1334L84.4697 21.7427L87.0868 36.932L90.6228 36.3227L88.0057 21.1334Z" fill="#EBEBEB"/>
<path d="M55.4239 23.5436H51.8359V36.9284H55.4239V23.5436Z" fill="#EBEBEB"/>
<path d="M63.6671 23.5436H60.0791V36.9284H63.6671V23.5436Z" fill="#EBEBEB"/>
<path d="M84.4718 23.5436H80.8838V36.9284H84.4718V23.5436Z" fill="#EBEBEB"/>
<path d="M73.0309 23.0825L69.5283 23.8607L72.4315 36.927L75.9341 36.1487L73.0309 23.0825Z" fill="#EBEBEB"/>
<path d="M58.5253 20.748H56.7344V36.9284H58.5253V20.748Z" fill="#EBEBEB"/>
<path d="M79.8544 20.748H78.0635V36.9284H79.8544V20.748Z" fill="#EBEBEB"/>
<path d="M117.232 24.7291H99.7598V36.791H117.232V24.7291Z" fill="#EBEBEB"/>
<path d="M43.6465 72.3304L125.041 72.3304V68.1496L43.6465 68.1496V72.3304Z" fill="#E0E0E0"/>
<path d="M117.706 68.146H121.294V52.7332H117.706V68.146Z" fill="#EBEBEB"/>
<path d="M100.369 68.146H103.957V52.7332H100.369V68.146Z" fill="#EBEBEB"/>
<path d="M78.0597 67.5391L81.5957 68.1483L84.2128 52.959L80.6768 52.3498L78.0597 67.5391Z" fill="#EBEBEB"/>
<path d="M113.262 68.1494H116.85V54.7646H113.262V68.1494Z" fill="#EBEBEB"/>
<path d="M105.021 68.1494H108.609V54.7646H105.021V68.1494Z" fill="#EBEBEB"/>
<path d="M84.2177 68.1494H87.8057V54.7646H84.2177V68.1494Z" fill="#EBEBEB"/>
<path d="M92.7533 67.3712L96.2559 68.1494L99.159 55.0832L95.6564 54.3049L92.7533 67.3712Z" fill="#EBEBEB"/>
<path d="M110.166 68.1482H111.957V51.9679H110.166V68.1482Z" fill="#EBEBEB"/>
<path d="M88.837 68.1482H90.6279V51.9679H88.837V68.1482Z" fill="#EBEBEB"/>
<path d="M51.4616 68.0087H68.9336V55.9468H51.4616V68.0087Z" fill="#EBEBEB"/>
<path d="M266.299 22.3954H184.604V112.794H266.299V22.3954Z" fill="#E9E9E9"/>
<path d="M262.917 25.9772H188.199V109.4H262.917V25.9772Z" fill="#F4F4F4"/>
<path d="M209.315 25.9772L188.199 105.063V62.2441L197.865 25.9772H209.315Z" fill="white"/>
<path d="M218.756 25.9772L196.486 109.4H192.286L214.557 25.9772H218.756Z" fill="white"/>
<path d="M262.916 48.7281V91.547L258.186 109.4H246.729L262.916 48.7281Z" fill="white"/>
<path d="M226.9 22.3954H223.998V112.794H226.9V22.3954Z" fill="#E9E9E9"/>
<path d="M264.726 40.741H186.021V43.6426H264.726V40.741Z" fill="#E9E9E9"/>
<path d="M276.825 160.543C275.702 158.696 273.855 160.299 273.855 160.299C274.117 156.755 270.86 154.334 270.86 154.334C270.86 154.334 274.647 154.334 275.178 150.721C275.708 147.108 273.855 148.787 272.12 148.762C270.386 148.737 268.57 153.81 270.86 156.655C273.15 159.507 272.532 164.374 267.253 169.054C265.961 170.196 265.088 171.719 264.495 173.36C264.894 169.06 265.119 163.001 263.852 158.958C261.706 152.088 265.799 150.24 266.985 146.802C268.177 143.364 263.852 140.462 263.852 140.462C263.852 140.462 267.915 138.615 265.93 136.5C263.946 134.385 259.852 134.672 259.852 137.436C259.852 140.2 262.629 141.255 262.629 141.255C262.629 141.255 265.799 144.556 265.799 146.278C265.799 147.994 262.629 151.694 262.629 151.694C262.629 151.694 264.083 148.531 261.175 148.393C258.267 148.256 257.344 152.088 258.536 153.81C259.728 155.526 261.706 154.072 261.706 154.072C261.706 154.072 261.937 157.772 262.617 160.019C262.916 161.004 262.773 164.88 262.523 168.911C261.937 167.457 261.107 166.121 259.952 165.092C254.667 160.412 254.055 155.544 256.346 152.693C258.636 149.841 256.82 144.774 255.085 144.799C253.35 144.824 251.497 143.139 252.027 146.759C252.558 150.372 256.346 150.372 256.346 150.372C256.346 150.372 253.082 152.799 253.35 156.337C253.35 156.337 251.503 154.727 250.38 156.58C248.377 159.881 253.02 161.928 253.806 160.306C253.806 160.306 263.659 167.282 261.281 177.322L261.837 178.14C261.768 178.951 261.718 179.437 261.718 179.437L262.492 179.107L263.372 180.398C263.328 182.907 263.596 184.76 263.596 184.76L265.955 181.284C263.578 171.244 273.431 164.268 273.431 164.268C274.179 165.897 278.828 163.844 276.825 160.543Z" fill="#E0E0E0"/>
<path opacity="0.2" d="M276.825 160.543C275.702 158.696 273.855 160.299 273.855 160.299C274.117 156.755 270.86 154.334 270.86 154.334C270.86 154.334 274.647 154.334 275.178 150.721C275.708 147.108 273.855 148.787 272.12 148.762C270.386 148.737 268.57 153.81 270.86 156.655C273.15 159.507 272.532 164.374 267.253 169.054C265.961 170.196 265.088 171.719 264.495 173.36C264.894 169.06 265.119 163.001 263.852 158.958C261.706 152.088 265.799 150.24 266.985 146.802C268.177 143.364 263.852 140.462 263.852 140.462C263.852 140.462 267.915 138.615 265.93 136.5C263.946 134.385 259.852 134.672 259.852 137.436C259.852 140.2 262.629 141.255 262.629 141.255C262.629 141.255 265.799 144.556 265.799 146.278C265.799 147.994 262.629 151.694 262.629 151.694C262.629 151.694 264.083 148.531 261.175 148.393C258.267 148.256 257.344 152.088 258.536 153.81C259.728 155.526 261.706 154.072 261.706 154.072C261.706 154.072 261.937 157.772 262.617 160.019C262.916 161.004 262.773 164.88 262.523 168.911C261.937 167.457 261.107 166.121 259.952 165.092C254.667 160.412 254.055 155.544 256.346 152.693C258.636 149.841 256.82 144.774 255.085 144.799C253.35 144.824 251.497 143.139 252.027 146.759C252.558 150.372 256.346 150.372 256.346 150.372C256.346 150.372 253.082 152.799 253.35 156.337C253.35 156.337 251.503 154.727 250.38 156.58C248.377 159.881 253.02 161.928 253.806 160.306C253.806 160.306 263.659 167.282 261.281 177.322L261.837 178.14C261.768 178.951 261.718 179.437 261.718 179.437L262.492 179.107L263.372 180.398C263.328 182.907 263.596 184.76 263.596 184.76L265.955 181.284C263.578 171.244 273.431 164.268 273.431 164.268C274.179 165.897 278.828 163.844 276.825 160.543Z" fill="#E0E0E0"/>
<path d="M274.897 203.374H252.32L249.887 178.664H277.33L274.897 203.374Z" fill="#E6E6E6"/>
<path d="M278.535 175.937H248.683V181.391H278.535V175.937Z" fill="#F0F0F0"/>
<path d="M156 232.509C222.82 232.509 276.987 229.346 276.987 225.445C276.987 221.544 222.82 218.381 156 218.381C89.1806 218.381 35.0127 221.544 35.0127 225.445C35.0127 229.346 89.1806 232.509 156 232.509Z" fill="#F5F5F5"/>
<path d="M41.4682 224.59H151.305L151.305 86.8107H41.4682L41.4682 224.59Z" fill="#407BFF"/>
<path opacity="0.5" d="M151.364 86.8109H41.4648V224.234H151.364V86.8109Z" fill="white"/>
<path opacity="0.2" d="M148.056 91.1351H60.9521V116.513H148.056V91.1351Z" fill="black"/>
<path opacity="0.5" d="M65.9005 95.2411H60.9521V116.513H65.9005V95.2411Z" fill="white"/>
<path opacity="0.5" d="M89.8243 95.2411H84.876V116.513H89.8243V95.2411Z" fill="white"/>
<path opacity="0.5" d="M116.985 94.7212L112.108 95.5614L115.72 116.525L120.597 115.685L116.985 94.7212Z" fill="white"/>
<path opacity="0.5" d="M72.0284 98.0491H67.0801V116.519H72.0284V98.0491Z" fill="white"/>
<path opacity="0.5" d="M83.4034 98.0491H78.4551V116.519H83.4034V98.0491Z" fill="white"/>
<path opacity="0.5" d="M112.114 98.0491H107.166V116.519H112.114V98.0491Z" fill="white"/>
<path opacity="0.5" d="M96.3247 97.4155L91.4941 98.4888L95.5004 116.52L100.331 115.446L96.3247 97.4155Z" fill="white"/>
<path opacity="0.5" d="M76.3089 94.1865H73.8379V116.513H76.3089V94.1865Z" fill="white"/>
<path opacity="0.5" d="M105.737 94.1865H103.266V116.513H105.737V94.1865Z" fill="white"/>
<path opacity="0.2" d="M60.9505 145.917H148.055V120.539L60.9505 120.539V145.917Z" fill="black"/>
<path opacity="0.5" d="M143.106 145.914H148.055V124.642H143.106V145.914Z" fill="white"/>
<path opacity="0.5" d="M119.179 145.914H124.127V124.642H119.179V145.914Z" fill="white"/>
<path opacity="0.5" d="M88.3969 145.075L93.2734 145.916L96.8854 124.952L92.0089 124.112L88.3969 145.075Z" fill="white"/>
<path opacity="0.5" d="M136.978 145.915H141.927V127.445H136.978V145.915Z" fill="white"/>
<path opacity="0.5" d="M125.601 145.915H130.55V127.445H125.601V145.915Z" fill="white"/>
<path opacity="0.5" d="M96.8974 145.915H101.846V127.445H96.8974V145.915Z" fill="white"/>
<path opacity="0.5" d="M108.674 144.842L113.505 145.915L117.511 127.884L112.681 126.811L108.674 144.842Z" fill="white"/>
<path opacity="0.5" d="M132.699 145.912H135.17V123.586H132.699V145.912Z" fill="white"/>
<path opacity="0.5" d="M103.27 145.912H105.741V123.586H103.27V145.912Z" fill="white"/>
<path opacity="0.5" d="M65.9005 124.644H60.9521V145.916H65.9005V124.644Z" fill="white"/>
<path opacity="0.5" d="M72.0284 127.446H67.0801V145.916H72.0284V127.446Z" fill="white"/>
<path opacity="0.5" d="M83.4034 127.446H78.4551V145.916H83.4034V127.446Z" fill="white"/>
<path opacity="0.5" d="M76.3089 123.589H73.8379V145.916H76.3089V123.589Z" fill="white"/>
<path opacity="0.2" d="M148.057 149.935H60.9531V175.313H148.057V149.935Z" fill="black"/>
<g opacity="0.5">
<path d="M115.896 154.041H110.947V175.313H115.896V154.041Z" fill="white"/>
<path d="M143.055 153.523L138.179 154.364L141.791 175.327L146.667 174.487L143.055 153.523Z" fill="white"/>
<path d="M98.0997 156.842H93.1514V175.313H98.0997V156.842Z" fill="white"/>
<path d="M109.475 156.842H104.526V175.313H109.475V156.842Z" fill="white"/>
<path d="M138.179 156.842H133.23V175.313H138.179V156.842Z" fill="white"/>
<path d="M122.395 156.216L117.564 157.289L121.571 175.32L126.401 174.246L122.395 156.216Z" fill="white"/>
<path d="M102.373 152.986H99.9023V175.313H102.373V152.986Z" fill="white"/>
<path d="M131.808 152.986H129.337V175.313H131.808V152.986Z" fill="white"/>
<path d="M86.1256 153.521L81.249 154.361L84.861 175.325L89.7376 174.485L86.1256 153.521Z" fill="white"/>
<path d="M81.2511 156.842H76.3027V175.313H81.2511V156.842Z" fill="white"/>
<path d="M65.4673 156.215L60.6367 157.289L64.6429 175.32L69.4735 174.246L65.4673 156.215Z" fill="white"/>
<path d="M74.8802 152.986H72.4092V175.313H74.8802V152.986Z" fill="white"/>
</g>
<path opacity="0.2" d="M41.4738 224.59H57.6416L57.6416 86.8107H41.4738L41.4738 224.59Z" fill="black"/>
<path opacity="0.1" d="M147.407 179.818H106.18V218.862H147.407V179.818Z" fill="black"/>
<path opacity="0.1" d="M102.891 179.818H60.9521V218.862H102.891V179.818Z" fill="black"/>
<path opacity="0.2" d="M100.383 197.359C100.383 198.451 99.4966 199.343 98.3984 199.343C97.3064 199.343 96.4141 198.457 96.4141 197.359C96.4141 196.26 97.3001 195.374 98.3984 195.374C99.4966 195.374 100.383 196.26 100.383 197.359Z" fill="black"/>
<path opacity="0.2" d="M112.239 197.359C112.239 198.451 111.353 199.343 110.255 199.343C109.163 199.343 108.271 198.457 108.271 197.359C108.271 196.26 109.157 195.374 110.255 195.374C111.353 195.374 112.239 196.26 112.239 197.359Z" fill="black"/>
<path d="M224.042 100.09H216.017L218.157 123.047L205.478 124.95V126.547H232.185V124.95L226.712 123.047L224.042 100.09Z" fill="#263238"/>
<path d="M192.91 114.66C192.766 116.201 193.896 117.449 195.424 117.449H243.965C245.507 117.449 246.867 116.201 247.004 114.66L249.887 83.5848C249.918 83.2666 249.893 82.9608 249.825 82.68C249.55 81.588 248.589 80.7955 247.372 80.7955H198.832C197.29 80.7955 195.93 82.0435 195.793 83.5848L192.91 114.66Z" fill="#263238"/>
<path d="M243.965 115.883C244.702 115.883 245.382 115.253 245.45 114.517L248.333 83.4413C248.346 83.2978 248.34 83.173 248.308 83.0607C248.202 82.6301 247.84 82.3618 247.372 82.3618H198.831C198.095 82.3618 197.415 82.992 197.346 83.7284L194.463 114.804C194.438 115.109 194.52 115.39 194.701 115.59C194.825 115.727 195.05 115.889 195.418 115.889H243.965V115.883Z" fill="#407BFF"/>
<path opacity="0.6" d="M243.965 115.883C244.702 115.883 245.382 115.253 245.45 114.517L248.333 83.4413C248.346 83.2978 248.34 83.173 248.308 83.0607C248.202 82.6301 247.84 82.3618 247.372 82.3618H198.831C198.095 82.3618 197.415 82.992 197.346 83.7284L194.463 114.804C194.438 115.109 194.52 115.39 194.701 115.59C194.825 115.727 195.05 115.889 195.418 115.889H243.965V115.883Z" fill="white"/>
<path d="M210.232 107.659C210.232 107.659 209.246 90.2866 213.521 86.3242C217.801 82.3556 223.573 83.5037 226.612 85.6253C229.651 87.7469 233.027 93.2631 229.982 109.637L210.232 107.659Z" fill="#263238"/>
<path d="M229.888 115.883C229.894 115.858 229.9 115.833 229.912 115.802C230.281 114.616 230.692 113.337 231.148 111.964C231.491 110.922 231.859 109.818 232.271 108.651C229.825 107.871 227.335 107.266 224.808 106.848C222.144 106.373 219.442 106.093 216.734 105.999C213.233 105.974 209.214 106.367 209.214 106.367C209.214 106.367 208.64 106.504 208.285 110.217C208.16 111.553 208.035 113.406 207.973 115.889H229.888V115.883Z" fill="#407BFF"/>
<path d="M229.888 115.883C229.894 115.858 229.9 115.833 229.913 115.802C230.281 114.616 230.693 113.337 231.148 111.964C231.491 110.922 231.86 109.818 232.271 108.651C229.825 107.871 227.336 107.266 224.808 106.848C222.144 106.373 219.442 106.093 216.734 105.999C213.233 105.974 209.215 106.367 209.215 106.367C209.215 106.367 208.641 106.504 208.285 110.217C208.173 111.415 208.073 113.35 208.017 115.889H229.888V115.883Z" fill="#407BFF"/>
<g opacity="0.2">
<path d="M229.888 115.883C229.894 115.858 229.9 115.833 229.912 115.802C230.281 114.616 230.692 113.337 231.148 111.964C231.491 110.922 231.859 109.818 232.271 108.651C229.825 107.871 227.335 107.266 224.808 106.848C222.144 106.373 219.442 106.093 216.734 105.999C213.233 105.974 209.214 106.367 209.214 106.367C209.214 106.367 208.64 106.504 208.285 110.217C208.16 111.553 208.035 113.406 207.973 115.889H229.888V115.883Z" fill="black"/>
<path d="M229.888 115.883C229.894 115.858 229.9 115.833 229.913 115.802C230.281 114.616 230.693 113.337 231.148 111.964C231.491 110.922 231.86 109.818 232.271 108.651C229.825 107.871 227.336 107.266 224.808 106.848C222.144 106.373 219.442 106.093 216.734 105.999C213.233 105.974 209.215 106.367 209.215 106.367C209.215 106.367 208.641 106.504 208.285 110.217C208.173 111.415 208.073 113.35 208.017 115.889H229.888V115.883Z" fill="black"/>
</g>
<path d="M208.834 115.883L208.522 110.729L208.254 106.367C207.18 106.573 204.329 111.465 201.951 115.883H208.834Z" fill="white"/>
<path opacity="0.2" d="M208.834 115.883L208.522 110.729C207.892 111.465 206.444 113.318 205.346 115.883H208.834Z" fill="black"/>
<path d="M235.366 115.883C233.457 110.305 232.278 108.657 232.278 108.657L229.713 115.883H235.366Z" fill="white"/>
<path d="M218.212 109.974C222.643 109.406 223.978 107.515 223.978 107.515C221.164 104.863 223.504 100.264 223.504 100.264L218.169 101.263C218.306 102.143 218.368 102.885 218.375 103.509C218.412 106.748 216.952 106.779 216.952 106.779C216.016 108.526 218.212 109.974 218.212 109.974Z" fill="#EEC1BB"/>
<path opacity="0.2" d="M218.169 101.257C218.306 102.136 218.369 102.879 218.375 103.503C221.982 103.503 223.504 100.258 223.504 100.258L218.169 101.257Z" fill="black"/>
<path d="M221.114 86.3367C216.477 86.0809 214.849 88.4833 214.244 93.2444C213.495 99.1974 214.587 103.509 220.452 102.555C228.427 101.257 228.82 86.7611 221.114 86.3367Z" fill="#EEC1BB"/>
<path d="M217.258 93.1508C217.258 93.1508 216.546 94.3301 215.804 94.9978C215.804 94.9978 216.166 95.653 216.996 95.5906L217.258 93.1508Z" fill="#D4827D"/>
<path d="M220.34 89.725C220.34 89.725 221.65 89.6252 222.312 90.5362" stroke="#263238" stroke-width="0.7247" stroke-miterlimit="10" stroke-linecap="round" stroke-linejoin="round"/>
<path d="M216.983 89.3444C216.983 89.3444 216.178 88.995 215.111 89.6252" stroke="#263238" stroke-width="0.7247" stroke-miterlimit="10" stroke-linecap="round" stroke-linejoin="round"/>
<path d="M217.575 97.4563C217.812 98.0304 218.031 99.0974 218.031 99.0974C218.131 99.0974 218.23 99.0912 218.33 99.085C219.691 99.0226 220.296 98.5421 220.558 98.0366C220.701 97.7558 220.739 97.4626 220.739 97.2254C220.739 96.9509 220.676 96.7574 220.676 96.7574C219.978 97.2192 218.717 97.3752 218.037 97.4314C217.756 97.4501 217.575 97.4563 217.575 97.4563Z" fill="#263238"/>
<path d="M218.037 97.4251L218.181 97.9056C219.46 97.8432 220.352 97.6311 220.733 97.2192C220.733 96.9447 220.67 96.7512 220.67 96.7512C219.978 97.213 218.711 97.369 218.037 97.4251Z" fill="white"/>
<path d="M218.324 99.0851C219.685 99.0227 220.29 98.5422 220.552 98.0367C220.09 98.0742 219.535 98.174 219.061 98.4049C218.699 98.5734 218.474 98.8292 218.324 99.0851Z" fill="#DE5753"/>
<path d="M225.756 94.43C225.756 94.43 223.797 90.4988 224.283 87.5784C224.283 87.5784 215.298 83.3228 214.331 92.6266C214.331 92.6266 213.888 84.29 221.869 84.5458C229.837 84.7954 229.182 96.4642 224.87 99.709C224.876 99.709 226.967 96.8885 225.756 94.43Z" fill="#263238"/>
<path d="M224.945 95.3722C225.02 94.6296 225.856 93.4066 227.235 93.6312C228.664 93.8684 229.188 96.8573 225.575 97.369C225.057 97.4439 224.795 96.926 224.945 95.3722Z" fill="#EEC1BB"/>
<path d="M219.154 92.9699C219.154 92.9699 220.296 91.9652 221.176 92.7889C221.176 92.7826 219.816 93.0323 219.154 92.9699Z" fill="#263238"/>
<path d="M216.965 92.9074C216.965 92.9074 215.922 91.7967 214.968 92.533C214.968 92.533 216.303 92.9137 216.965 92.9074Z" fill="#263238"/>
<path d="M228.091 108.008C228.091 108.008 222.886 112.233 218.038 112.164C213.189 112.095 211.492 106.648 211.492 106.648C211.492 106.648 219.005 104.42 228.091 108.008Z" fill="#EEC1BB"/>
<path d="M230.649 115.883C231.117 113.375 231.66 110.897 232.271 108.657L227.647 107.209C227.647 107.209 225.669 110.754 224.621 115.883H230.649Z" fill="white"/>
<path d="M211.373 115.883C211.929 111.315 211.966 105.999 211.966 105.999L208.253 106.367C207.336 108.857 206.849 112.308 206.612 115.883H211.373Z" fill="white"/>
<path d="M219.154 85.2758C214.581 85.7002 213.645 89.9246 213.645 89.9246C214.93 89.0573 216.577 88.8763 218.162 88.9949C218.549 88.14 219.154 87.3101 219.154 87.3101C218.88 87.7531 218.711 88.4458 218.612 89.0323C219.504 89.1322 220.359 89.3131 221.101 89.5128C221.445 88.8014 221.962 88.2398 221.962 88.2398C221.775 88.6954 221.7 89.232 221.675 89.675C222.774 90.0058 223.504 90.3302 223.504 90.3302C223.647 88.8514 224.908 87.1229 224.908 87.1229C224.908 87.1229 223.735 84.8515 219.154 85.2758Z" fill="#263238"/>
<path d="M225.8 96.6577C225.788 96.639 225.769 96.614 225.756 96.5953C225.625 96.3769 225.594 96.1086 225.625 95.8527C225.694 95.3099 226.499 93.9745 227.136 94.7482C227.292 94.9417 227.329 95.2038 227.323 95.4471C227.31 95.7841 227.217 96.121 227.054 96.4143C226.911 96.6702 226.686 96.9135 226.399 96.9385C226.168 96.9697 225.937 96.8449 225.8 96.6577Z" fill="#407BFF"/>
<path opacity="0.2" d="M225.8 96.6577C225.788 96.639 225.769 96.614 225.756 96.5953C225.625 96.3769 225.594 96.1086 225.625 95.8527C225.694 95.3099 226.499 93.9745 227.136 94.7482C227.292 94.9417 227.329 95.2038 227.323 95.4471C227.31 95.7841 227.217 96.121 227.054 96.4143C226.911 96.6702 226.686 96.9135 226.399 96.9385C226.168 96.9697 225.937 96.8449 225.8 96.6577Z" fill="black"/>
<path d="M225.875 95.8027C225.875 95.8027 226.431 94.6296 226.799 94.848C227.167 95.0664 227.03 96.1148 226.668 96.2957C226.306 96.4829 226.181 96.8823 226.181 96.8823C226.181 96.8823 224.64 98.7605 224.234 98.5608V98.0367C224.241 98.0304 225.476 97.1256 225.875 95.8027Z" fill="#407BFF"/>
<path d="M216.054 226.643H219.879L226.749 131.015H221.676L216.054 226.643Z" fill="#263238"/>
<path opacity="0.4" d="M216.054 226.643H219.879L226.412 135.77L226.749 131.171H221.676L221.401 135.77L216.054 226.643Z" fill="white"/>
<path opacity="0.2" d="M221.401 135.539H226.412L226.749 131.171H221.676L221.401 135.539Z" fill="black"/>
<path d="M187.999 226.643H191.824L192.448 131.015H187.375L187.999 226.643Z" fill="#263238"/>
<path opacity="0.5" d="M187.375 131.171L187.475 146.603L187.999 226.643H191.824L192.348 146.603L192.448 131.171H187.375Z" fill="white"/>
<path opacity="0.2" d="M187.375 131.171L187.475 146.771H192.348L192.448 131.171H187.375Z" fill="black"/>
<path d="M147.414 226.643H151.239L158.109 131.015H153.036L147.414 226.643Z" fill="#263238"/>
<path opacity="0.5" d="M147.414 226.643H151.239L157.772 135.77L158.109 131.171H153.036L152.762 135.77L147.414 226.643Z" fill="white"/>
<path opacity="0.2" d="M152.762 135.539H157.772L158.109 131.171H153.036L152.762 135.539Z" fill="black"/>
<path d="M259.79 226.643H263.609L257.993 131.015H252.92L259.79 226.643Z" fill="#263238"/>
<path opacity="0.5" d="M252.92 131.171L253.257 135.77L259.79 226.643H263.609L258.268 135.77L257.993 131.171H252.92Z" fill="white"/>
<path opacity="0.2" d="M257.993 131.171H252.92L253.257 135.539H258.268L257.993 131.171Z" fill="black"/>
<path d="M150.365 133.411H260.664C261.406 133.411 262.011 132.806 262.011 132.063V128.625H149.018V132.063C149.018 132.806 149.617 133.411 150.365 133.411Z" fill="#407BFF"/>
<path opacity="0.6" d="M150.365 133.411H260.664C261.406 133.411 262.011 132.806 262.011 132.063V128.625H149.018V132.063C149.018 132.806 149.617 133.411 150.365 133.411Z" fill="white"/>
<path opacity="0.2" d="M149.015 131.015H262.009V128.618H149.015V131.015Z" fill="black"/>
<path d="M146.647 129.249H264.383C265.126 129.249 265.731 128.644 265.731 127.901C265.731 127.159 265.126 126.553 264.383 126.553H146.647C145.904 126.553 145.299 127.159 145.299 127.901C145.299 128.644 145.904 129.249 146.647 129.249Z" fill="#407BFF"/>
<path opacity="0.6" d="M146.647 129.249H264.383C265.126 129.249 265.731 128.644 265.731 127.901C265.731 127.159 265.126 126.553 264.383 126.553H146.647C145.904 126.553 145.299 127.159 145.299 127.901C145.299 128.644 145.904 129.249 146.647 129.249Z" fill="white"/>
<path d="M216.098 126.547L215.48 124.22H190.177L178.527 125.387L178.084 126.547H216.098Z" fill="#263238"/>
<path opacity="0.4" d="M190.177 124.22V126.547H216.098L215.48 124.22H190.177Z" fill="black"/>
<path d="M262.817 123.153C262.817 125.387 262.193 126.547 262.193 126.547H235.367V125.911H235.91V120.388H235.367V119.752H262.193C262.193 119.752 262.817 120.95 262.817 123.153Z" fill="#263238"/>
<path opacity="0.2" d="M262.817 123.153C262.817 125.387 262.193 126.547 262.193 126.547H235.367V125.911H235.91V120.388H235.367V119.752H262.193C262.193 119.752 262.817 120.95 262.817 123.153Z" fill="white"/>
<path opacity="0.2" d="M248.465 123.153C248.465 125.387 247.841 126.547 247.841 126.547H235.367V125.911H235.91V120.388H235.367V119.752H247.841C247.841 119.752 248.465 120.95 248.465 123.153Z" fill="black"/>
<path opacity="0.8" d="M247.142 123.153C247.142 124.968 246.637 125.911 246.637 125.911H235.91V120.388H246.637C246.637 120.388 247.142 121.362 247.142 123.153Z" fill="white"/>
<path opacity="0.6" d="M258.449 123.153C258.449 125.387 257.825 126.547 257.825 126.547H252.833C252.833 126.547 253.457 125.387 253.457 123.153C253.457 120.95 252.833 119.752 252.833 119.752H257.825C257.825 119.752 258.449 120.95 258.449 123.153Z" fill="white"/>
<path d="M265.207 116.357C265.207 118.591 264.583 119.752 264.583 119.752H237.757V119.115H238.3V113.593H237.757V112.957H264.583C264.583 112.957 265.207 114.155 265.207 116.357Z" fill="#407BFF"/>
<path opacity="0.2" d="M250.855 116.357C250.855 118.591 250.231 119.752 250.231 119.752H237.757V119.115H238.3V113.593H237.757V112.957H250.231C250.231 112.957 250.855 114.155 250.855 116.357Z" fill="black"/>
<path opacity="0.8" d="M249.532 116.357C249.532 118.173 249.026 119.115 249.026 119.115H238.3V113.593H249.026C249.026 113.593 249.532 114.566 249.532 116.357Z" fill="white"/>
<path opacity="0.2" d="M260.839 116.357C260.839 118.591 260.215 119.752 260.215 119.752H255.223C255.223 119.752 255.847 118.591 255.847 116.357C255.847 114.155 255.223 112.957 255.223 112.957H260.215C260.215 112.957 260.839 114.155 260.839 116.357Z" fill="black"/>
<path d="M216.453 68.1907H197.69C196.647 68.1907 195.799 67.3421 195.799 66.3V47.5363C195.799 46.488 196.647 45.6456 197.69 45.6456H216.453C217.495 45.6456 218.344 46.4943 218.344 47.5363V66.3C218.35 67.3421 217.502 68.1907 216.453 68.1907Z" fill="#407BFF"/>
<path d="M204.491 66.1877C204.491 66.1877 205.646 72.5401 214.038 75.4042C214.038 75.4042 209.265 70.7991 209.265 66.1877H204.491Z" fill="#407BFF"/>
<path d="M201.97 52.6907H212.178" stroke="white" stroke-width="2" stroke-miterlimit="10"/>
<path d="M205.364 50.2258C205.364 50.2258 204.478 55.9854 208.022 61.4142" stroke="white" stroke-width="2" stroke-miterlimit="10"/>
<path d="M209.471 60.7153C209.471 60.7153 212.179 60.2598 211.505 57.7887C210.906 55.5985 204.84 54.4254 203.299 58.2442C202.114 61.1708 204.978 60.6903 206.65 59.7668C209.558 58.1631 210.157 54.5002 210.157 54.5002" stroke="white" stroke-width="2" stroke-miterlimit="10"/>
<path d="M159.862 66.1877C159.862 66.1877 161.017 72.5401 169.409 75.4042C169.409 75.4042 164.636 70.7991 164.636 66.1877H159.862Z" fill="#407BFF"/>
<path opacity="0.6" d="M159.862 66.1877C159.862 66.1877 161.017 72.5401 169.409 75.4042C169.409 75.4042 164.636 70.7991 164.636 66.1877H159.862Z" fill="white"/>
<path d="M171.843 68.1907H153.079C152.037 68.1907 151.188 67.3421 151.188 66.3V47.5363C151.188 46.488 152.037 45.6456 153.079 45.6456H171.843C172.885 45.6456 173.734 46.4943 173.734 47.5363V66.3C173.734 67.3421 172.885 68.1907 171.843 68.1907Z" fill="#407BFF"/>
<path opacity="0.6" d="M171.843 68.1907H153.079C152.037 68.1907 151.188 67.3421 151.188 66.3V47.5363C151.188 46.488 152.037 45.6456 153.079 45.6456H171.843C172.885 45.6456 173.734 46.4943 173.734 47.5363V66.3C173.734 67.3421 172.885 68.1907 171.843 68.1907Z" fill="white"/>
<path d="M164.755 60.7152L163.993 58.5749H161.042L160.28 60.7152H158.596L161.747 51.8481H163.282L166.433 60.7152H164.755ZM162.514 54.4128L161.603 57.0086H163.438L162.514 54.4128Z" fill="#407BFF"/>
<path d="M217.582 115.833L209.882 122.965L210.949 123.833L218.406 116.707C218.649 116.476 218.655 116.083 218.412 115.846C218.181 115.615 217.819 115.608 217.582 115.833Z" fill="#407BFF"/>
<path d="M206.743 121.63L211.267 119.571C211.267 119.571 215.055 118.866 216.615 119.215C218.181 119.571 221.632 124.263 221.551 124.837C221.47 125.412 215.56 126.809 215.429 126.809C215.298 126.809 212.734 125.355 212.734 125.355L208.553 126.809L206.743 121.63Z" fill="#E4897B"/>
<path d="M167.562 220.266L172.53 219.586L173.222 207.767L168.255 208.453L167.562 220.266Z" fill="#EBB376"/>
<path opacity="0.2" d="M168.255 208.453L173.222 207.773L172.823 214.525L167.868 214.962L168.255 208.453Z" fill="black"/>
<path d="M167.762 150.802L166.552 143.202L138.684 141.536C138.684 141.536 135.72 157.348 137.997 161.56C142.059 169.079 163.968 165.285 170.377 166.021C166.545 181.69 166.92 212.31 166.92 212.31L176.074 213.009C176.074 213.009 183.119 180.011 184.541 164.337C185.496 153.76 176.735 154.022 167.762 150.802Z" fill="#407BFF"/>
<path d="M165.84 212.74L176.841 213.47L177.783 208.759L165.696 208.191L165.84 212.74Z" fill="#407BFF"/>
<path opacity="0.2" d="M165.84 212.74L176.841 213.47L177.783 208.759L165.696 208.191L165.84 212.74Z" fill="white"/>
<path d="M172.904 218.987L167.288 218.637C167.094 218.618 166.92 218.756 166.895 218.955V218.962L166.346 223.392C166.314 223.879 166.683 224.297 167.163 224.328C169.122 224.415 170.065 224.365 172.536 224.496C174.052 224.59 177.041 224.908 179.138 224.709C181.228 224.509 180.972 222.443 180.067 222.344C177.921 222.1 175.088 220.522 173.746 219.33C173.515 219.124 173.216 218.999 172.904 218.987Z" fill="#263238"/>
<path d="M179.025 220.222L184.03 220.59L187.169 209.177L182.17 208.815L179.025 220.222Z" fill="#EBB376"/>
<path d="M184.729 220.815C184.735 220.827 184.735 220.846 184.742 220.852C184.754 220.859 184.767 220.859 184.785 220.859C185.172 221.077 185.584 221.252 186.008 221.383C186.32 221.508 186.67 221.514 186.982 221.395C187.194 221.277 187.312 221.046 187.294 220.809C187.306 220.659 187.244 220.509 187.125 220.416C186.838 220.203 186.245 220.266 185.721 220.378C186.102 220.066 186.439 219.673 186.458 219.361C186.47 219.155 186.351 218.968 186.152 218.905C185.983 218.837 185.815 218.843 185.646 218.93C185.041 219.261 184.804 220.665 184.785 220.74H184.873L184.785 220.746C184.785 220.752 184.704 220.752 184.704 220.759C184.71 220.777 184.717 220.796 184.729 220.815ZM185.097 220.534C185.054 220.547 185.022 220.559 184.985 220.572C185.103 220.11 185.353 219.355 185.721 219.161C185.802 219.111 185.902 219.099 185.99 219.124L186.046 219.143C186.202 219.205 186.22 219.299 186.214 219.367C186.171 219.698 185.59 220.26 185.097 220.534ZM185.116 220.79C185.777 220.59 186.695 220.409 186.975 220.621C187.038 220.665 187.069 220.74 187.057 220.815C187.063 220.965 186.988 221.108 186.863 221.196C186.576 221.352 185.933 221.202 185.116 220.79Z" fill="#407BFF"/>
<path opacity="0.2" d="M182.17 208.815L187.169 209.184L185.371 215.704L180.436 215.099L182.17 208.815Z" fill="black"/>
<path d="M188.859 214.899L180.048 212.31C180.048 212.31 185.309 182.62 190.644 172.324C190.244 172.193 189.714 172.024 189.059 171.831C187.88 171.475 186.313 171.032 184.472 170.52C171.668 166.97 145.716 160.312 145.716 160.312L157.572 149.248C157.572 149.248 204.796 156.449 205.776 168.892C206.244 174.876 188.859 214.899 188.859 214.899Z" fill="#407BFF"/>
<path d="M178.913 212.503L189.521 215.505L191.424 211.093L179.718 208.029L178.913 212.503Z" fill="#407BFF"/>
<path opacity="0.2" d="M178.913 212.503L189.521 215.505L191.424 211.093L179.718 208.029L178.913 212.503Z" fill="white"/>
<path d="M184.522 220.079L179.1 218.568C178.913 218.506 178.713 218.606 178.651 218.793V218.799L177.19 223.018C177.059 223.486 177.328 223.972 177.796 224.103C179.693 224.603 180.629 224.74 183.019 225.389C184.485 225.794 187.343 226.73 189.427 226.968C191.517 227.205 191.698 225.133 190.831 224.846C188.784 224.16 186.338 222.032 185.271 220.578C185.09 220.341 184.822 220.166 184.522 220.079Z" fill="#263238"/>
<path d="M173.028 219.598C173.028 219.604 173.134 219.604 173.134 219.611C173.141 219.629 173.247 219.648 173.259 219.66C173.265 219.673 173.265 219.685 173.278 219.698C173.29 219.704 173.309 219.698 173.322 219.692C173.746 219.823 174.183 219.91 174.626 219.947C174.956 220.004 175.293 219.941 175.58 219.76C175.761 219.598 175.83 219.348 175.761 219.118C175.743 218.968 175.649 218.837 175.512 218.768C175.187 218.618 174.613 218.806 174.12 219.024C174.432 218.637 174.657 218.188 174.613 217.876C174.582 217.67 174.395 217.514 174.189 217.495C174.008 217.464 173.771 217.508 173.634 217.626C173.109 218.075 173.028 219.492 173.028 219.579C173.028 219.586 173.028 219.592 173.028 219.598C173.028 219.592 173.028 219.592 173.028 219.598ZM173.565 219.305C173.528 219.323 173.496 219.342 173.465 219.361C173.484 218.887 173.571 218.094 173.889 217.826C173.958 217.763 174.052 217.726 174.145 217.732L174.201 217.739C174.364 217.77 174.407 217.851 174.414 217.919C174.432 218.269 173.989 218.937 173.565 219.305ZM173.634 219.554C174.239 219.224 175.094 218.855 175.418 219.005C175.487 219.036 175.531 219.105 175.537 219.174C175.574 219.317 175.531 219.473 175.424 219.586C175.181 219.798 174.52 219.785 173.634 219.554Z" fill="#407BFF"/>
<path d="M188.13 92.4518C188.012 92.7201 187.887 92.976 187.743 93.2256C186.913 94.7107 185.678 95.8339 184.261 96.5328C183.893 96.72 183.506 96.876 183.113 97.0008C181.041 97.6622 178.739 97.4625 176.842 96.2208C176.062 95.7216 175.344 95.0414 174.745 94.1741C172.362 90.7795 173.004 87.4411 173.641 81.7003C173.759 80.4648 174.159 79.2667 174.826 78.2246C177.148 74.5368 182.021 73.4323 185.703 75.7473C190.888 78.9672 190.227 87.5472 188.13 92.4518Z" fill="#E4897B"/>
<path opacity="0.2" d="M184.261 96.5328C183.893 96.72 183.506 96.876 183.113 97.0008C181.041 97.6623 178.739 97.4626 176.842 96.2208C177.428 95.1912 178.183 94.4674 178.183 94.4674C178.183 94.4674 181.665 94.5173 184.261 96.5328Z" fill="black"/>
<path d="M169.223 98.0553C170.209 101.762 176.561 104.738 176.561 104.738C176.561 104.738 180.848 106.099 180.823 104.464C178.907 102.723 178.514 101.044 178.913 99.4905C179.144 98.5857 179.656 97.7184 180.28 96.8947C180.604 96.4579 180.973 96.046 181.347 95.6404L177.584 85.6315C176.249 89.7623 173.21 97.0008 169.223 98.0553Z" fill="#E4897B"/>
<path d="M187.319 79.8907C187.319 79.8907 188.928 85.3133 183.369 89.207C183.369 89.207 181.029 94.2178 179.731 94.8355C178.427 95.4533 175.481 95.0851 174.483 94.8355C173.484 94.5859 168.361 90.3302 169.84 80.3213C171.319 70.3123 179.724 73.4822 179.724 73.4822C179.724 73.4822 182.595 70.9987 187.93 74.0875C192.392 76.6584 191.518 81.4944 187.319 79.8907Z" fill="#263238"/>
<path d="M182.614 86.6174C182.745 87.9091 183.269 88.9325 184.08 89.4629C185.154 90.1493 186.19 88.6454 186.314 86.9107C186.414 85.3694 185.99 83.1043 184.704 83.1792C183.413 83.2541 182.471 85.0262 182.614 86.6174Z" fill="#E4897B"/>
<path d="M188.005 105.294C188.005 105.294 180.117 96.458 169.578 97.369C159.039 98.28 148.48 106.423 143.226 119.221C137.972 132.02 136.394 151.351 136.394 151.351C136.394 151.351 153.447 156.231 170.788 151.782C170.788 151.782 175.287 128.85 188.005 105.294Z" fill="#263238"/>
<path d="M188.004 105.294C190.669 108.058 198.269 120.731 200.441 121.206C202.668 121.692 205.757 119.733 208.228 120.476C210.699 121.218 213.233 123.465 212.659 124.906C212.084 126.347 206.288 130.185 199.099 130.397C192.94 130.578 179.961 115.24 179.961 115.24C179.955 109.306 188.004 105.294 188.004 105.294Z" fill="#263238"/>
<path d="M188.335 94.7731L188.31 94.1491C188.416 94.1428 189.371 94.068 189.371 92.976C189.377 92.0524 187.062 90.0432 185.602 88.9886L185.963 88.4832C186.375 88.7827 189.995 91.4284 189.988 92.976C189.995 94.3488 188.909 94.7544 188.335 94.7731Z" fill="#263238"/>
<path d="M187.973 86.4052C187.973 88.9886 186.469 91.0852 184.609 91.0852C182.75 91.0852 181.246 88.9886 181.246 86.4052C181.246 83.8219 182.75 81.7252 184.609 81.7252C186.469 81.7252 187.973 83.8219 187.973 86.4052Z" fill="#407BFF"/>
<path opacity="0.2" d="M187.973 86.4052C187.973 88.9886 186.469 91.0852 184.609 91.0852C182.75 91.0852 181.246 88.9886 181.246 86.4052C181.246 83.8219 182.75 81.7252 184.609 81.7252C186.469 81.7252 187.973 83.8219 187.973 86.4052Z" fill="black"/>
<path d="M185.789 89.4879C187.013 89.4879 188.005 88.1078 188.005 86.4053C188.005 84.7029 187.013 83.3228 185.789 83.3228C184.566 83.3228 183.574 84.7029 183.574 86.4053C183.574 88.1078 184.566 89.4879 185.789 89.4879Z" fill="#407BFF"/>
<path d="M186.844 84.1651C186.844 84.1651 187.018 70.6742 176.841 73.008C176.841 73.008 184.435 73.9253 184.928 84.5395L186.844 84.1651Z" fill="#407BFF"/>
<path d="M188.659 94.8854L188.135 94.9727C187.96 95.0039 187.798 94.8854 187.767 94.7169L187.717 94.4299C187.686 94.2552 187.804 94.0929 187.973 94.0617L188.497 93.9744C188.672 93.9432 188.834 94.0617 188.865 94.2302L188.915 94.5172C188.946 94.692 188.828 94.8542 188.659 94.8854Z" fill="#263238"/>
<path d="M173.671 163.632H131.913C130.191 163.632 128.793 165.029 128.793 166.752V170.926H176.791V166.752C176.791 165.029 175.4 163.632 173.671 163.632Z" fill="#407BFF"/>
<path opacity="0.3" d="M173.671 163.632H131.913C130.191 163.632 128.793 165.029 128.793 166.752V170.926H176.791V166.752C176.791 165.029 175.4 163.632 173.671 163.632Z" fill="black"/>
<path d="M123.864 135.695H141.024C146.047 135.695 150.121 131.62 150.121 126.597V119.889C150.121 114.866 146.047 110.791 141.024 110.791H123.864C118.84 110.791 114.766 114.866 114.766 119.889V126.597C114.766 131.62 118.84 135.695 123.864 135.695Z" fill="#407BFF"/>
<g opacity="0.3">
<path d="M123.864 135.695H141.024C146.047 135.695 150.121 131.62 150.121 126.597V119.889C150.121 114.866 146.047 110.791 141.024 110.791H123.864C118.84 110.791 114.766 114.866 114.766 119.889V126.597C114.766 131.62 118.84 135.695 123.864 135.695Z" fill="black"/>
</g>
<path d="M130.621 212.453L148.599 210.687V185.422H155.725V210.681L173.777 212.453C175.568 212.628 176.935 214.138 176.935 215.935V218.637H152.861H151.538H127.464V215.935C127.464 214.138 128.83 212.628 130.621 212.453Z" fill="#263238"/>
<path opacity="0.2" d="M130.621 212.453L148.599 210.687V185.422H155.725V210.681L173.777 212.453C175.568 212.628 176.935 214.138 176.935 215.935V218.637H152.861H151.538H127.464V215.935C127.464 214.138 128.83 212.628 130.621 212.453Z" fill="white"/>
<path d="M175.79 226.582C178.331 226.17 180.057 223.775 179.644 221.234C179.232 218.693 176.838 216.967 174.296 217.38C171.755 217.792 170.03 220.187 170.442 222.728C170.854 225.269 173.249 226.995 175.79 226.582Z" fill="#263238"/>
<path d="M132.659 225.279C134.48 223.458 134.48 220.507 132.659 218.687C130.839 216.866 127.888 216.866 126.067 218.687C124.247 220.507 124.247 223.458 126.067 225.279C127.888 227.099 130.839 227.099 132.659 225.279Z" fill="#263238"/>
<path d="M149.953 190.85H154.377C155.8 190.85 156.954 189.696 156.954 188.273V168.349H147.376V188.273C147.376 189.696 148.53 190.85 149.953 190.85Z" fill="#263238"/>
<path opacity="0.3" d="M149.953 190.85H154.377C155.8 190.85 156.954 189.696 156.954 188.273V168.349H147.376V188.273C147.376 189.696 148.53 190.85 149.953 190.85Z" fill="white"/>
<path d="M135.133 128.85C135.133 128.85 133.773 162.546 143.158 168.343H132.45C132.45 168.343 124.151 156.861 126.497 128.85H135.133Z" fill="#263238"/>
<path opacity="0.3" d="M135.133 128.85C135.133 128.85 133.773 162.546 143.158 168.343H132.45C132.45 168.343 124.151 156.861 126.497 128.85H135.133Z" fill="white"/>
<path d="M177.54 167.282H128.05C127.358 167.282 126.796 167.844 126.796 168.536V169.672C126.796 170.365 127.358 170.926 128.05 170.926H177.54C178.232 170.926 178.794 170.365 178.794 169.672V168.536C178.794 167.844 178.232 167.282 177.54 167.282Z" fill="#263238"/>
<path opacity="0.6" d="M177.54 167.282H128.05C127.358 167.282 126.796 167.844 126.796 168.536V169.672C126.796 170.365 127.358 170.926 128.05 170.926H177.54C178.232 170.926 178.794 170.365 178.794 169.672V168.536C178.794 167.844 178.232 167.282 177.54 167.282Z" fill="white"/>
<path d="M125.579 118.354H135.27C138.109 118.354 140.412 120.657 140.412 123.496V127.284C140.412 130.123 138.109 132.425 135.27 132.425H125.579C122.74 132.425 120.438 130.123 120.438 127.284V123.496C120.438 120.657 122.74 118.354 125.579 118.354Z" fill="#263238"/>
<path opacity="0.2" d="M125.579 118.354H135.27C138.109 118.354 140.412 120.657 140.412 123.496V127.284C140.412 130.123 138.109 132.425 135.27 132.425H125.579C122.74 132.425 120.438 130.123 120.438 127.284V123.496C120.438 120.657 122.74 118.354 125.579 118.354Z" fill="white"/>
</g>
<defs>
<clipPath id="clip0_615_5005">
<rect width="312" height="232.509" fill="white"/>
</clipPath>
</defs>
</svg>
