<svg width="312" height="312" viewBox="0 0 312 312" fill="none" xmlns="http://www.w3.org/2000/svg">
<g clip-path="url(#clip0_615_4705)">
<path d="M132.406 86.4115C132.406 86.4115 73.9182 58.1131 57.1638 113.58C40.4031 169.048 74.2239 166.645 127.308 183.83C180.391 201.015 156.38 238.83 207.747 230.412C259.115 221.994 280.131 154.197 240.464 120.569C200.802 86.9357 182.912 109.244 132.406 86.4115Z" fill="#F0EBFF"/>
<path d="M241.693 96.3145C237.001 98.1616 230.056 95.9838 227.285 92.6392C225.388 90.3553 224.44 87.3913 223.616 85.5381C224.789 84.3899 225.55 82.7925 226.018 81.0078C228.408 81.6381 228.901 81.7129 229.388 79.8472C229.887 77.9814 228.302 76.2966 226.543 77.9814C225.139 78.543 216.565 74.643 214.593 69.0208C212.415 69.4389 211.579 75.3544 211.579 75.3544C211.579 75.3544 211.51 73.0955 209.607 70.5683C207.71 68.0349 207.885 61.3955 211.042 60.6217C214.206 59.8542 214.949 62.4875 215.997 61.7137C217.052 60.94 223.71 54.9808 230.405 60.2536C237.094 65.5264 235.516 73.4886 233.987 76.2217C232.452 78.9611 232.452 80.4899 235.828 81.2325C239.204 81.9688 241.837 83.7597 240.57 88.0278C239.322 92.3147 240.052 95.7342 241.693 96.3145Z" fill="#2A1F3A"/>
<path d="M182.339 253.868C182.339 253.868 182.657 259.141 176.329 265.044C170.002 270.947 170.108 272.002 169.796 274.323C169.484 276.644 179.493 275.802 184.342 272.214C189.19 268.632 195.73 267.996 195.411 265.993C195.093 263.99 191.087 253.974 191.087 251.129" fill="#2A1F3A"/>
<path d="M223.086 239.148C223.086 239.148 226.555 243.129 225.145 251.666C223.735 260.202 224.465 260.976 225.626 263.004C226.792 265.032 234.212 258.255 235.865 252.458C237.519 246.661 242.311 242.168 240.839 240.777C239.366 239.385 230.081 233.894 228.346 231.635" fill="#2A1F3A"/>
<path d="M222.15 147.707L218.131 154.078L217.295 155.401L203.392 179.013C203.392 179.013 195.087 195.262 195.73 207.243C195.736 207.399 195.742 207.543 195.755 207.692C195.979 210.756 195.879 214.949 195.605 219.561C195.43 222.531 195.18 225.67 194.893 228.79C193.908 239.76 192.497 250.443 192.416 252.39C192.273 255.765 180.323 257.45 181.172 252.39C181.771 248.808 178.676 231.417 177.627 215.056C177.203 208.285 177.116 201.683 177.796 196.311C178.563 190.214 181.378 182.221 184.785 174.277C189.596 163.051 195.592 151.907 198.719 146.291C200.035 143.932 200.846 142.547 200.846 142.547C202.6 139.464 218.811 142.547 218.811 142.547L220.165 144.65L222.15 147.707Z" fill="url(#paint0_linear_615_4705)"/>
<path opacity="0.45" d="M195.76 207.692C195.985 210.756 195.885 214.949 195.611 219.561C195.436 222.531 195.186 225.67 194.899 228.79C190.731 226.375 185.614 227.142 184.759 220.771C184.073 215.642 181.109 215.38 177.633 215.055C177.209 208.285 177.122 201.683 177.802 196.31C178.569 190.214 181.383 182.221 184.791 174.277C185.858 174.14 187.056 173.822 188.447 173.16C196.771 169.191 200.859 162.671 200.859 162.671L194.656 200.872C194.656 200.872 195.099 203.449 195.735 207.249C195.742 207.399 195.748 207.549 195.76 207.692Z" fill="url(#paint1_linear_615_4705)"/>
<path opacity="0.25" d="M188.852 255.135C188.852 255.135 187.717 214.862 193.407 190.195" stroke="white" stroke-width="0.948" stroke-miterlimit="10"/>
<path d="M210.168 184.161C205.969 189.858 203.136 194.158 204.053 194.931C206.799 197.253 222.611 220.129 225.138 225.189C227.665 230.25 230.829 231.41 230.829 233.52C230.829 235.629 223.765 243.747 221.232 241.213C219.84 239.822 206.512 230.437 195.604 219.561C186.637 210.625 179.305 200.678 181.589 193.359C185.115 182.046 197.651 163.469 204.896 152.992C208.047 148.431 210.2 145.405 210.175 145.18C210.175 145.18 215.004 144.531 220.171 144.649C226.224 144.787 232.732 145.966 232.508 150.459C232.239 155.988 218.511 172.836 210.168 184.161Z" fill="url(#paint2_linear_615_4705)"/>
<path opacity="0.45" d="M232.522 150.453C232.241 155.988 218.513 172.836 210.176 184.161C210.42 175.388 221.982 165.841 223.087 160.393C223.992 155.963 223.549 154.066 218.138 154.078C216.678 154.078 214.85 154.222 212.591 154.49C206.457 155.226 205.371 154.446 204.916 152.986C204.573 151.913 204.566 150.478 203.162 148.98C201.79 147.52 200.167 146.721 198.738 146.284C200.055 143.926 200.866 142.54 200.866 142.54C202.62 139.458 218.831 142.54 218.831 142.54L220.185 144.643C226.232 144.781 232.746 145.966 232.522 150.453Z" fill="url(#paint3_linear_615_4705)"/>
<path opacity="0.25" d="M229.482 236.265C229.482 236.265 201.565 204.741 199.175 196.098C196.785 187.456 225.04 148.993 225.04 148.993" stroke="white" stroke-width="0.948" stroke-miterlimit="10"/>
<path d="M192.422 136.644C192.422 136.644 193.645 132.288 203.155 135.096C212.664 137.91 215.903 133.411 213.719 129.33C211.535 125.256 206.955 118.242 206.955 118.242C206.955 118.242 202.68 125.093 201.557 126.154C200.434 127.221 192.422 136.644 192.422 136.644Z" fill="url(#paint4_linear_615_4705)"/>
<path d="M205.002 120.145C205.002 120.145 204.528 126.997 202.681 132.375C200.834 137.754 198.887 142.547 199.199 144.075C199.517 145.604 202.837 141.598 205.314 143.445C207.792 145.292 207.842 147.77 210.531 148.244C213.22 148.718 215.91 145.66 219.81 146.821C223.71 147.982 227.504 151.301 231.036 148.93C234.567 146.559 227.348 98.38 227.348 98.38L222.711 91.8467C222.711 91.8467 220.39 90.6861 219.336 90.4739C218.281 90.2617 213.713 91.8467 213.713 91.8467C213.713 91.8467 210.475 94.9043 210.163 95.5345C209.857 96.1585 205.002 120.145 205.002 120.145Z" fill="#2A1F3A"/>
<path d="M217.444 90.4678C217.444 90.4678 210.386 99.0103 208.383 112.501C206.374 125.992 196.252 133.368 193.931 138.747C191.61 144.126 191.716 145.174 191.716 145.174C191.716 145.174 187.498 137.056 189.289 131.895C191.08 126.728 195.192 129.156 197.831 125.886C198.231 125.393 198.642 124.806 199.054 124.164C201.145 120.913 203.229 116.064 203.229 113.356V113.35C203.229 113.038 203.198 112.745 203.141 112.495C202.717 110.692 202.892 104.732 203.541 99.9651C203.915 97.2132 204.439 94.8607 205.095 93.9372C205.182 93.8124 205.288 93.6939 205.419 93.5753C205.45 93.5503 205.469 93.5379 205.469 93.5379C208.021 91.3102 217.444 90.4678 217.444 90.4678Z" fill="url(#paint5_linear_615_4705)"/>
<path d="M206.762 101.219L205.477 110.142L203.236 113.35V113.356L202.119 114.96L195.518 117.824L186.632 116.819L184.76 116.607L185.39 114.704C188.591 105.862 204.434 94.2991 205.427 93.5877C205.458 93.5628 205.477 93.5503 205.477 93.5503L206.512 99.7404L206.762 101.219Z" fill="url(#paint6_linear_615_4705)"/>
<path opacity="0.45" d="M199.061 124.164C201.151 120.913 203.236 116.064 203.236 113.356L202.119 114.96L195.517 117.824L186.631 116.819L188.06 114.011C188.06 114.011 198.911 103.69 203.548 99.9774C204.328 99.3472 204.939 98.9041 205.282 98.7356C205.675 98.5484 206.112 98.9291 206.512 99.7403C208.515 103.746 209.6 118.204 199.061 124.164Z" fill="url(#paint7_linear_615_4705)"/>
<path d="M252.869 144.444C250.124 143.283 247.491 147.501 244.221 146.659C240.957 145.81 242.006 151.72 238.742 152.456C235.472 153.192 233.788 151.189 232.209 155.407C229.781 149.61 221.033 143.92 221.875 134.048C221.9 133.755 221.925 133.468 221.944 133.193C222.649 124.164 221.501 123.845 219.66 115.621C219.61 115.415 219.573 115.209 219.529 114.997C217.819 106.554 225.039 99.8651 223.747 90.0808C229.551 91.1354 236.739 97.1944 236.739 97.1944C236.739 97.1944 237.263 109.032 237.263 109.98C237.263 110.161 237.294 110.916 237.326 112.021C237.513 116.688 238 127.583 238 127.583C238 127.583 239.098 132.943 241.051 137.318C241.862 139.14 242.817 140.787 243.903 141.81C247.597 145.286 249.487 142.547 252.869 144.444Z" fill="url(#paint8_linear_615_4705)"/>
<path opacity="0.45" d="M241.057 137.311C237.519 137.711 233.65 139.458 230.2 135.795C226.605 131.983 223.947 133.38 221.944 133.187C222.649 124.158 221.501 123.839 219.66 115.615C219.61 115.409 219.573 115.203 219.529 114.991C220.328 113.849 221.47 113.2 223.03 113.344C229.888 113.974 232.552 103.771 232.552 103.771L237.326 112.015C237.513 116.682 238 127.577 238 127.577C238 127.577 239.104 132.931 241.057 137.311Z" fill="url(#paint9_linear_615_4705)"/>
<path d="M243.871 130.597C241.063 136.151 233.893 133.967 229.95 131.159C226.019 128.351 214.843 115.765 213.863 113.375C213.582 112.688 213.751 111.84 214.169 110.972C214.88 109.475 216.29 107.908 217.295 106.985C217.738 106.579 218.1 106.299 218.281 106.205C219.13 105.787 220.321 108.102 222.006 109.3C223.691 110.492 233.182 114.928 234.867 117.662C231.716 112.27 229.17 105.406 236.733 97.1819C239.94 101.537 248.557 116.201 243.871 130.597Z" fill="url(#paint10_linear_615_4705)"/>
<path d="M206.062 110.635C206.062 111.615 203.741 113.656 200.865 117.824C197.975 121.986 194.568 126.735 189.302 126.098C184.222 125.487 182.662 122.129 185.402 114.698C190.618 110.043 201.083 104.427 203.155 103.765C203.155 103.803 203.161 103.834 203.161 103.877C203.292 105.544 204.64 107.684 205.451 109.163C205.807 109.818 206.062 110.342 206.062 110.635Z" fill="url(#paint11_linear_615_4705)"/>
<path d="M214.118 110.461L208.296 111.247C207.797 111.316 207.342 110.966 207.273 110.467L205.47 97.0697C205.401 96.5705 205.75 96.1149 206.25 96.0463L212.071 95.2601C212.571 95.1914 213.026 95.5409 213.095 96.0401L214.898 109.437C214.967 109.93 214.617 110.392 214.118 110.461Z" fill="white"/>
<path d="M217.301 106.991C216.297 107.915 214.88 109.481 214.175 110.979C213.813 110.467 213.414 109.855 212.996 109.169C211.729 107.072 208.253 107.047 207.879 102.224C209.67 102.567 212.384 101.987 213.944 102.405C215.423 102.81 216.24 105.044 217.301 106.991Z" fill="url(#paint12_linear_615_4705)"/>
<path d="M215.023 101.219C214.917 104.67 213.575 106.28 210.773 106.991C208.458 107.584 206.724 108.133 205.444 109.163C204.633 107.684 203.285 105.55 203.154 103.877C204.633 102.193 205.033 101.188 207.004 101.425C208.982 101.669 213.806 102.249 215.023 101.219Z" fill="url(#paint13_linear_615_4705)"/>
<path d="M207.666 99.1101C207.666 99.3161 207.497 99.4908 207.285 99.4908C207.079 99.4908 206.904 99.3223 206.904 99.1101C206.904 98.9042 207.073 98.7295 207.285 98.7295C207.497 98.7357 207.666 98.9042 207.666 99.1101Z" fill="#2A1F3A"/>
<path d="M229.389 79.8535C228.896 81.7193 228.409 81.6444 226.019 81.0141C225.62 82.5492 225.002 83.9345 224.091 85.0265C224.091 85.0265 224.091 85.0265 224.091 85.0327C223.941 85.2137 223.785 85.3884 223.617 85.5444C222.163 86.9733 220.072 87.7034 217.127 87.1917C216.959 87.1231 216.803 87.042 216.647 86.9609C210.943 83.9781 211.58 75.3607 211.58 75.3607C211.58 75.3607 211.636 75.005 211.742 74.4621C212.073 72.7898 212.953 69.3453 214.6 69.0271C216.572 74.6493 225.146 78.5493 226.55 77.9877C227.074 77.4823 227.585 77.2764 228.028 77.3013C229.064 77.3263 229.738 78.5493 229.389 79.8535Z" fill="url(#paint14_linear_615_4705)"/>
<path d="M224.122 92.5831C224.159 94.374 221.345 97.2194 218.393 96.9761C215.442 96.7265 215.966 95.3849 216.565 92.5332C216.877 91.0293 216.858 89.4007 216.771 88.1902C216.733 87.691 216.69 87.2729 216.646 86.9609C216.802 87.042 216.958 87.1231 217.126 87.1917C220.072 87.7034 222.162 86.9733 223.616 85.5444C223.785 85.3821 223.941 85.2137 224.09 85.0327C223.859 86.6302 223.959 89.0762 224.047 90.8796C224.084 91.5722 224.115 92.1713 224.122 92.5831Z" fill="url(#paint15_linear_615_4705)"/>
<path d="M220.54 77.8878C220.54 78.3558 220.272 78.7302 219.941 78.7302C219.61 78.7302 219.342 78.3496 219.342 77.8878C219.342 77.4198 219.61 77.0454 219.941 77.0454C220.272 77.0454 220.54 77.4198 220.54 77.8878Z" fill="#2A1F3A"/>
<path d="M215.186 77.8878C215.186 78.3558 214.918 78.7302 214.587 78.7302C214.257 78.7302 213.988 78.3496 213.988 77.8878C213.988 77.4198 214.257 77.0454 214.587 77.0454C214.918 77.0454 215.186 77.4198 215.186 77.8878Z" fill="#2A1F3A"/>
<path d="M216.953 77.8879C216.953 77.8879 217.427 78.8801 217.427 79.3044C217.427 79.7287 216.691 80.0158 216.635 80.515C216.585 81.0142 217.608 81.0953 217.608 81.0953" stroke="#FF9271" stroke-width="0.711" stroke-miterlimit="10"/>
<path d="M216.26 83.2981C216.26 83.2981 218.712 84.933 221.501 82.5056" stroke="#F96846" stroke-width="0.711" stroke-miterlimit="10"/>
<path opacity="0.45" d="M224.047 90.8732C221.926 89.0511 218.693 88.4209 216.771 88.1963C216.734 87.6971 216.69 87.279 216.646 86.967C216.802 87.0481 216.958 87.1292 217.127 87.1979C220.072 87.7095 222.163 86.9795 223.617 85.5505C223.785 85.3883 223.941 85.2198 224.091 85.0388C223.86 86.63 223.96 89.0761 224.047 90.8732Z" fill="url(#paint16_linear_615_4705)"/>
<path opacity="0.45" d="M228.022 77.3076C227.492 77.6882 226.862 77.9877 226.144 78.1937C218.868 80.2591 213.995 72.1221 213.995 72.1221L211.742 74.4621C212.073 72.7898 212.953 69.3453 214.6 69.0271C216.572 74.6493 225.146 78.5493 226.55 77.9877C227.074 77.4885 227.579 77.2826 228.022 77.3076Z" fill="url(#paint17_linear_615_4705)"/>
<path d="M128.617 163.151L128.373 165.366L126.189 165.866L126.427 163.65L128.617 163.151Z" fill="url(#paint18_linear_615_4705)"/>
<path d="M142.832 115.016L152.623 157.691C152.879 158.796 152.186 159.906 151.075 160.156L83.7831 175.594C82.6786 175.85 81.5679 175.157 81.3183 174.046L71.5277 131.371C71.2719 130.26 71.9645 129.149 73.0753 128.9L140.367 113.462C141.466 113.212 142.576 113.905 142.832 115.016Z" fill="#2A1F3A"/>
<path d="M127.856 176.505C127.787 177.16 127.238 177.803 126.633 177.94L122.602 178.863L122.851 176.498L126.882 175.575C127.487 175.431 127.924 175.849 127.856 176.505Z" fill="url(#paint19_linear_615_4705)"/>
<path d="M127.856 176.505C127.788 177.16 127.239 177.803 126.633 177.94L107.189 182.402L109.274 162.833L109.511 160.618L111.701 160.112L111.464 162.328L109.636 179.531L126.889 175.569C127.488 175.431 127.925 175.85 127.856 176.505Z" fill="#2A1F3A"/>
<path d="M126.87 158.789L125.035 175.999L109.629 179.531L111.457 162.327L126.87 158.789Z" fill="url(#paint20_linear_615_4705)"/>
<path d="M143.269 172.967C143.2 173.622 142.657 174.258 142.052 174.402L126.633 177.94C127.238 177.803 127.787 177.16 127.856 176.505C127.924 175.849 127.488 175.438 126.882 175.575L142.295 172.037C142.9 171.9 143.337 172.311 143.269 172.967Z" fill="url(#paint21_linear_615_4705)"/>
<path d="M146.271 112.108L156.985 158.802L85.6809 175.163L74.9668 128.469L146.271 112.108Z" fill="url(#paint22_linear_615_4705)"/>
<path d="M153.434 154.646L87.0586 169.878C86.6031 169.984 86.1538 169.697 86.0477 169.241L77.2057 130.709C77.0996 130.254 77.3866 129.805 77.8359 129.698L144.211 114.467C144.666 114.361 145.116 114.648 145.222 115.103L154.064 153.635C154.176 154.084 153.889 154.54 153.434 154.646Z" fill="white"/>
<path d="M133.902 140.812L98.6026 148.911C97.9286 149.067 97.2547 148.643 97.0987 147.969C96.9427 147.295 97.367 146.621 98.0409 146.465L133.341 138.366C134.015 138.21 134.688 138.634 134.844 139.308C135 139.982 134.582 140.656 133.902 140.812Z" fill="#D6D6D6"/>
<path d="M120.274 143.938L98.6084 148.911C97.9345 149.067 97.2606 148.643 97.1046 147.969C96.9486 147.295 97.3729 146.621 98.0468 146.465L119.712 141.492C120.386 141.336 121.06 141.76 121.216 142.434C121.372 143.108 120.948 143.782 120.274 143.938Z" fill="url(#paint23_linear_615_4705)"/>
<path d="M102.47 141.734C102.508 141.897 102.516 142.051 102.495 142.196C102.474 142.342 102.427 142.472 102.355 142.589C102.283 142.705 102.187 142.805 102.068 142.888C101.949 142.969 101.809 143.029 101.649 143.065L100.837 143.252L100.339 141.08L101.151 140.893C101.311 140.857 101.462 140.85 101.606 140.872C101.749 140.893 101.878 140.941 101.994 141.016C102.11 141.089 102.209 141.187 102.291 141.308C102.373 141.43 102.433 141.572 102.47 141.734ZM102.169 141.804C102.138 141.67 102.093 141.555 102.032 141.459C101.972 141.362 101.9 141.285 101.816 141.227C101.733 141.17 101.639 141.133 101.536 141.116C101.432 141.1 101.322 141.105 101.206 141.131L100.689 141.25L101.078 142.946L101.595 142.827C101.711 142.801 101.812 142.757 101.898 142.697C101.984 142.637 102.053 142.563 102.103 142.476C102.153 142.388 102.184 142.287 102.196 142.174C102.209 142.06 102.199 141.937 102.169 141.804ZM103.077 142.738L102.725 141.202L102.879 141.167C102.908 141.16 102.93 141.161 102.944 141.17C102.957 141.178 102.969 141.196 102.98 141.222L103.053 141.457C103.081 141.338 103.126 141.24 103.189 141.163C103.253 141.084 103.337 141.033 103.441 141.009C103.484 140.999 103.523 140.996 103.56 140.998C103.596 140.999 103.631 141.005 103.664 141.015L103.676 141.225C103.675 141.252 103.662 141.268 103.638 141.274C103.623 141.277 103.601 141.277 103.569 141.275C103.538 141.272 103.496 141.276 103.443 141.288C103.349 141.31 103.277 141.355 103.225 141.424C103.175 141.493 103.141 141.584 103.122 141.698L103.347 142.676L103.077 142.738ZM104.563 140.755C104.675 140.729 104.781 140.725 104.879 140.742C104.979 140.758 105.068 140.794 105.146 140.848C105.225 140.902 105.293 140.974 105.349 141.065C105.405 141.154 105.447 141.258 105.475 141.379C105.503 141.5 105.511 141.613 105.499 141.718C105.488 141.822 105.458 141.916 105.41 142C105.363 142.083 105.299 142.154 105.216 142.212C105.135 142.269 105.038 142.31 104.926 142.336C104.814 142.362 104.708 142.367 104.609 142.351C104.51 142.334 104.421 142.299 104.342 142.245C104.262 142.191 104.194 142.119 104.138 142.03C104.081 141.941 104.039 141.836 104.011 141.715C103.983 141.594 103.976 141.482 103.988 141.377C104 141.271 104.029 141.176 104.077 141.093C104.125 141.01 104.19 140.939 104.271 140.881C104.354 140.823 104.451 140.781 104.563 140.755ZM104.877 142.125C105.029 142.09 105.13 142.014 105.182 141.896C105.233 141.777 105.238 141.626 105.197 141.444C105.155 141.261 105.085 141.127 104.986 141.042C104.888 140.958 104.763 140.932 104.612 140.967C104.535 140.985 104.471 141.013 104.421 141.053C104.37 141.092 104.331 141.141 104.304 141.199C104.278 141.257 104.264 141.325 104.261 141.402C104.26 141.478 104.269 141.561 104.29 141.652C104.311 141.743 104.339 141.822 104.373 141.89C104.409 141.957 104.451 142.011 104.5 142.052C104.55 142.092 104.606 142.118 104.668 142.132C104.731 142.145 104.801 142.143 104.877 142.125ZM106.103 142.591L105.632 140.535L105.792 140.499C105.831 140.49 105.859 140.503 105.878 140.538L105.942 140.715C105.99 140.62 106.05 140.538 106.122 140.471C106.196 140.403 106.288 140.356 106.398 140.331C106.486 140.311 106.57 140.31 106.65 140.327C106.729 140.344 106.802 140.38 106.867 140.435C106.933 140.49 106.991 140.562 107.04 140.654C107.09 140.746 107.13 140.855 107.159 140.983C107.185 141.096 107.194 141.205 107.186 141.31C107.178 141.414 107.154 141.508 107.114 141.593C107.073 141.677 107.017 141.749 106.943 141.809C106.871 141.868 106.783 141.91 106.68 141.933C106.585 141.955 106.5 141.958 106.425 141.942C106.351 141.926 106.282 141.896 106.217 141.85L106.373 142.529L106.103 142.591ZM106.359 140.57C106.271 140.59 106.198 140.628 106.141 140.683C106.085 140.739 106.037 140.81 105.998 140.896L106.169 141.639C106.234 141.694 106.298 141.729 106.363 141.743C106.429 141.756 106.498 141.755 106.571 141.738C106.714 141.706 106.812 141.629 106.865 141.51C106.918 141.39 106.923 141.236 106.88 141.047C106.857 140.947 106.828 140.863 106.794 140.795C106.76 140.728 106.721 140.675 106.678 140.637C106.634 140.598 106.585 140.574 106.531 140.564C106.478 140.553 106.421 140.555 106.359 140.57ZM110.072 141.133L109.845 141.185C109.818 141.191 109.796 141.189 109.776 141.18C109.757 141.171 109.741 141.157 109.728 141.138L109.405 140.661L108.431 140.884L108.348 141.455C108.345 141.475 108.336 141.494 108.322 141.512C108.309 141.53 108.289 141.542 108.264 141.548L108.036 141.6L108.407 139.229L108.705 139.16L110.072 141.133ZM108.464 140.653L109.275 140.467L108.731 139.662C108.696 139.612 108.659 139.549 108.619 139.472C108.617 139.516 108.615 139.557 108.612 139.595C108.61 139.632 108.606 139.664 108.602 139.693L108.464 140.653ZM112.7 139.388C112.723 139.49 112.735 139.589 112.735 139.686C112.736 139.783 112.725 139.875 112.704 139.964C112.683 140.052 112.652 140.135 112.61 140.213C112.568 140.29 112.517 140.361 112.457 140.425L113.153 140.898L112.911 140.954C112.874 140.962 112.841 140.965 112.81 140.961C112.78 140.957 112.75 140.946 112.721 140.926L112.244 140.598C112.19 140.63 112.133 140.657 112.073 140.682C112.014 140.706 111.95 140.726 111.882 140.742C111.723 140.778 111.571 140.785 111.427 140.761C111.284 140.737 111.153 140.687 111.037 140.61C110.92 140.534 110.821 140.434 110.738 140.31C110.656 140.185 110.595 140.042 110.558 139.879C110.521 139.716 110.512 139.561 110.533 139.414C110.553 139.266 110.599 139.132 110.67 139.013C110.742 138.892 110.837 138.789 110.956 138.705C111.074 138.62 111.214 138.559 111.373 138.523C111.533 138.486 111.685 138.48 111.829 138.504C111.974 138.529 112.104 138.579 112.221 138.657C112.337 138.733 112.437 138.834 112.52 138.958C112.603 139.082 112.662 139.225 112.7 139.388ZM112.398 139.457C112.368 139.324 112.322 139.208 112.261 139.11C112.2 139.013 112.128 138.935 112.045 138.878C111.961 138.819 111.868 138.781 111.764 138.763C111.66 138.746 111.549 138.75 111.432 138.777C111.316 138.804 111.214 138.848 111.129 138.909C111.043 138.97 110.974 139.046 110.923 139.135C110.873 139.223 110.842 139.324 110.83 139.439C110.818 139.553 110.828 139.677 110.858 139.81C110.889 139.944 110.935 140.059 110.995 140.157C111.056 140.254 111.128 140.331 111.211 140.39C111.296 140.447 111.39 140.484 111.494 140.502C111.598 140.519 111.708 140.514 111.824 140.487C111.941 140.46 112.043 140.417 112.129 140.356C112.215 140.295 112.283 140.221 112.333 140.132C112.383 140.043 112.414 139.942 112.426 139.829C112.438 139.714 112.429 139.59 112.398 139.457ZM113.189 138.802L113.413 139.781C113.44 139.897 113.487 139.981 113.556 140.032C113.624 140.084 113.712 140.097 113.82 140.072C113.899 140.054 113.969 140.018 114.03 139.965C114.091 139.912 114.143 139.845 114.187 139.765L113.927 138.632L114.197 138.571L114.549 140.106L114.388 140.143C114.35 140.152 114.321 140.138 114.303 140.103L114.243 139.943C114.194 140.032 114.133 140.109 114.06 140.173C113.987 140.237 113.898 140.281 113.79 140.305C113.707 140.325 113.629 140.328 113.558 140.316C113.488 140.302 113.426 140.275 113.371 140.234C113.315 140.194 113.269 140.14 113.23 140.073C113.192 140.007 113.163 139.93 113.144 139.843L112.919 138.864L113.189 138.802ZM115.242 138.305C115.334 138.284 115.422 138.28 115.507 138.294C115.592 138.306 115.669 138.335 115.739 138.381C115.809 138.426 115.87 138.487 115.921 138.566C115.973 138.643 116.011 138.737 116.036 138.846C116.046 138.888 116.048 138.918 116.042 138.934C116.036 138.95 116.02 138.961 115.995 138.967L114.974 139.201C114.998 139.298 115.03 139.379 115.071 139.445C115.112 139.511 115.159 139.564 115.212 139.603C115.266 139.64 115.325 139.665 115.389 139.676C115.453 139.685 115.521 139.682 115.594 139.665C115.661 139.65 115.718 139.629 115.763 139.603C115.809 139.575 115.847 139.548 115.878 139.522C115.91 139.495 115.935 139.472 115.955 139.452C115.975 139.43 115.994 139.417 116.011 139.413C116.034 139.408 116.053 139.413 116.069 139.427L116.167 139.508C116.143 139.556 116.111 139.601 116.072 139.642C116.032 139.682 115.988 139.717 115.938 139.749C115.89 139.78 115.839 139.807 115.784 139.829C115.73 139.852 115.675 139.87 115.62 139.883C115.514 139.907 115.412 139.912 115.313 139.897C115.216 139.881 115.127 139.846 115.045 139.793C114.965 139.738 114.895 139.663 114.835 139.57C114.775 139.476 114.73 139.363 114.7 139.231C114.675 139.123 114.668 139.02 114.679 138.919C114.691 138.819 114.72 138.728 114.766 138.646C114.812 138.563 114.875 138.492 114.955 138.433C115.035 138.373 115.131 138.331 115.242 138.305ZM115.293 138.502C115.163 138.532 115.069 138.594 115.012 138.687C114.954 138.779 114.932 138.893 114.944 139.031L115.779 138.839C115.765 138.777 115.743 138.722 115.714 138.674C115.685 138.625 115.649 138.586 115.607 138.556C115.565 138.526 115.518 138.506 115.464 138.497C115.412 138.486 115.355 138.488 115.293 138.502ZM117.166 138.156C117.159 138.181 117.143 138.196 117.118 138.202C117.103 138.205 117.084 138.204 117.063 138.197C117.041 138.19 117.014 138.184 116.983 138.177C116.953 138.169 116.917 138.164 116.876 138.162C116.835 138.158 116.788 138.163 116.735 138.175C116.69 138.185 116.65 138.201 116.617 138.221C116.583 138.241 116.555 138.264 116.534 138.29C116.513 138.316 116.499 138.344 116.491 138.375C116.484 138.404 116.484 138.434 116.491 138.465C116.5 138.505 116.519 138.535 116.547 138.556C116.576 138.577 116.612 138.593 116.653 138.604C116.695 138.614 116.742 138.622 116.793 138.626C116.843 138.629 116.895 138.634 116.949 138.64C117.003 138.644 117.056 138.651 117.108 138.66C117.16 138.67 117.209 138.685 117.253 138.707C117.297 138.729 117.336 138.759 117.368 138.799C117.401 138.837 117.425 138.887 117.439 138.948C117.455 139.019 117.458 139.088 117.447 139.154C117.435 139.219 117.41 139.28 117.37 139.336C117.331 139.391 117.278 139.439 117.212 139.481C117.146 139.522 117.066 139.554 116.972 139.576C116.865 139.6 116.764 139.605 116.669 139.591C116.574 139.575 116.49 139.547 116.417 139.507L116.457 139.389C116.462 139.374 116.469 139.362 116.479 139.352C116.488 139.342 116.502 139.336 116.52 139.331C116.539 139.327 116.559 139.33 116.583 139.339C116.606 139.349 116.634 139.359 116.666 139.37C116.7 139.38 116.738 139.388 116.782 139.393C116.826 139.397 116.88 139.393 116.941 139.378C116.994 139.366 117.038 139.349 117.075 139.327C117.111 139.304 117.139 139.278 117.16 139.248C117.181 139.219 117.194 139.188 117.199 139.155C117.206 139.122 117.205 139.088 117.197 139.053C117.187 139.011 117.168 138.979 117.138 138.957C117.109 138.934 117.074 138.917 117.032 138.906C116.99 138.894 116.943 138.887 116.892 138.884C116.841 138.88 116.788 138.875 116.734 138.871C116.681 138.866 116.627 138.859 116.574 138.85C116.522 138.84 116.473 138.823 116.429 138.8C116.384 138.778 116.345 138.746 116.312 138.706C116.279 138.665 116.255 138.611 116.24 138.545C116.226 138.487 116.225 138.428 116.237 138.369C116.249 138.309 116.274 138.253 116.311 138.202C116.348 138.15 116.397 138.104 116.459 138.064C116.522 138.024 116.596 137.995 116.683 137.975C116.784 137.952 116.878 137.947 116.965 137.961C117.053 137.974 117.133 138.001 117.205 138.043L117.166 138.156ZM118.367 139.256C118.246 139.283 118.144 139.271 118.063 139.218C117.983 139.166 117.928 139.075 117.899 138.948L117.683 138.008L117.498 138.051C117.482 138.055 117.468 138.053 117.454 138.047C117.441 138.039 117.432 138.025 117.427 138.005L117.403 137.897L117.647 137.808L117.6 137.319C117.599 137.304 117.603 137.29 117.612 137.278C117.62 137.266 117.633 137.257 117.651 137.253L117.787 137.222L117.908 137.751L118.348 137.65L118.393 137.846L117.953 137.947L118.165 138.868C118.179 138.933 118.206 138.977 118.245 139.001C118.283 139.025 118.327 139.032 118.377 139.02C118.405 139.014 118.428 139.005 118.447 138.993C118.466 138.98 118.483 138.967 118.496 138.955C118.509 138.942 118.519 138.931 118.528 138.922C118.537 138.911 118.546 138.905 118.554 138.903C118.568 138.9 118.583 138.906 118.598 138.92L118.706 139.031C118.67 139.085 118.621 139.132 118.562 139.173C118.501 139.212 118.437 139.24 118.367 139.256ZM118.975 137.475L119.327 139.01L119.057 139.072L118.705 137.536L118.975 137.475ZM118.925 136.979C118.931 137.005 118.931 137.031 118.925 137.057C118.92 137.081 118.911 137.105 118.897 137.127C118.883 137.148 118.866 137.166 118.845 137.182C118.824 137.197 118.801 137.208 118.774 137.214C118.748 137.22 118.722 137.221 118.697 137.216C118.672 137.211 118.649 137.202 118.627 137.189C118.605 137.175 118.587 137.158 118.572 137.138C118.556 137.117 118.546 137.093 118.54 137.067C118.534 137.041 118.533 137.015 118.538 136.989C118.542 136.963 118.551 136.939 118.564 136.918C118.578 136.895 118.595 136.877 118.615 136.861C118.636 136.846 118.66 136.835 118.686 136.829C118.712 136.823 118.738 136.822 118.764 136.827C118.789 136.832 118.813 136.842 118.834 136.856C118.856 136.869 118.875 136.886 118.891 136.908C118.907 136.929 118.919 136.952 118.925 136.979ZM120.066 137.199C120.178 137.173 120.283 137.168 120.382 137.185C120.481 137.202 120.57 137.237 120.649 137.291C120.728 137.346 120.796 137.418 120.852 137.508C120.908 137.597 120.95 137.702 120.978 137.822C121.006 137.943 121.014 138.057 121.002 138.161C120.99 138.266 120.961 138.36 120.913 138.443C120.866 138.526 120.802 138.597 120.719 138.655C120.638 138.712 120.541 138.754 120.429 138.779C120.316 138.805 120.211 138.81 120.111 138.795C120.013 138.778 119.924 138.743 119.845 138.688C119.765 138.634 119.697 138.563 119.641 138.474C119.584 138.385 119.542 138.279 119.514 138.158C119.486 138.038 119.479 137.925 119.491 137.82C119.503 137.714 119.532 137.62 119.58 137.537C119.628 137.453 119.693 137.383 119.774 137.325C119.857 137.266 119.954 137.224 120.066 137.199ZM120.38 138.569C120.532 138.534 120.633 138.458 120.685 138.339C120.736 138.22 120.741 138.07 120.699 137.888C120.658 137.705 120.587 137.571 120.489 137.486C120.391 137.401 120.266 137.376 120.115 137.411C120.038 137.428 119.974 137.457 119.924 137.496C119.873 137.535 119.834 137.584 119.807 137.642C119.781 137.701 119.767 137.768 119.764 137.845C119.763 137.921 119.772 138.005 119.793 138.096C119.814 138.187 119.842 138.266 119.876 138.333C119.912 138.401 119.954 138.455 120.003 138.496C120.052 138.535 120.109 138.562 120.171 138.575C120.234 138.589 120.303 138.586 120.38 138.569ZM121.487 138.514L121.135 136.979L121.295 136.942C121.334 136.933 121.362 136.946 121.381 136.982L121.44 137.143C121.49 137.054 121.551 136.978 121.622 136.913C121.694 136.849 121.785 136.804 121.893 136.78C121.977 136.76 122.054 136.758 122.124 136.771C122.195 136.784 122.257 136.811 122.312 136.853C122.367 136.893 122.414 136.947 122.452 137.013C122.491 137.08 122.52 137.157 122.54 137.244L122.764 138.221L122.495 138.283L122.27 137.306C122.244 137.189 122.196 137.106 122.128 137.054C122.061 137.002 121.973 136.988 121.863 137.013C121.784 137.031 121.713 137.067 121.652 137.122C121.592 137.176 121.541 137.243 121.497 137.322L121.757 138.452L121.487 138.514Z" fill="black"/>
<path d="M124.937 147.339L109.524 150.877C109.218 150.946 108.919 150.758 108.85 150.453C108.781 150.147 108.969 149.847 109.274 149.779L124.687 146.241C124.993 146.172 125.292 146.359 125.361 146.665C125.43 146.965 125.243 147.27 124.937 147.339Z" fill="#D6D6D6"/>
<path d="M125.566 150.078L110.153 153.616C109.847 153.685 109.548 153.498 109.479 153.192C109.41 152.886 109.598 152.587 109.903 152.518L125.316 148.98C125.616 148.911 125.921 149.099 125.99 149.404C126.059 149.704 125.865 150.01 125.566 150.078Z" fill="#D6D6D6"/>
<path d="M126.197 152.818L110.784 156.356C110.478 156.424 110.179 156.237 110.11 155.931C110.041 155.626 110.228 155.326 110.534 155.258L125.947 151.719C126.253 151.651 126.552 151.838 126.621 152.144C126.683 152.45 126.496 152.749 126.197 152.818Z" fill="#D6D6D6"/>
<path d="M126.82 155.557L111.407 159.095C111.101 159.164 110.802 158.977 110.733 158.671C110.664 158.365 110.851 158.065 111.157 157.997L126.57 154.459C126.876 154.39 127.175 154.577 127.244 154.883C127.313 155.189 127.125 155.488 126.82 155.557Z" fill="#D6D6D6"/>
<path d="M115.701 129.63C116.057 131.171 115.09 132.706 113.549 133.062C112.007 133.418 110.472 132.45 110.117 130.909C109.761 129.368 110.728 127.833 112.269 127.477" stroke="url(#paint24_linear_615_4705)" stroke-width="0.948" stroke-miterlimit="10"/>
<path d="M112.27 127.477C113.811 127.121 115.346 128.089 115.702 129.63" stroke="#D6D6D6" stroke-width="0.948" stroke-miterlimit="10"/>
<path d="M113.48 110.236L89.2002 118.722L76.6328 98.5609L100.913 90.0745L113.48 110.236Z" fill="#E06746"/>
<path d="M101.634 80.8396L79.3438 88.6316L89.7942 118.526L112.084 110.734L101.634 80.8396Z" fill="white"/>
<path d="M99.158 88.2927L85.9219 92.9197L86.0619 93.3202L99.298 88.6932L99.158 88.2927Z" fill="#C1C1C1"/>
<path d="M99.8377 90.2326L86.6016 94.8596L86.7416 95.2602L99.9777 90.6332L99.8377 90.2326Z" fill="#C1C1C1"/>
<path d="M100.527 92.1631L87.291 96.7915L87.4311 97.1921L100.667 92.5636L100.527 92.1631Z" fill="#C1C1C1"/>
<path d="M101.201 94.1057L87.9648 98.7341L88.1049 99.1347L101.341 94.5063L101.201 94.1057Z" fill="#C1C1C1"/>
<path d="M101.881 96.0456L88.6445 100.674L88.7846 101.075L102.021 96.4462L101.881 96.0456Z" fill="#C1C1C1"/>
<path d="M102.552 97.9955L89.3164 102.623L89.4564 103.023L102.693 98.3961L102.552 97.9955Z" fill="#C1C1C1"/>
<path d="M103.232 99.9357L89.9961 104.563L90.1361 104.963L103.372 100.336L103.232 99.9357Z" fill="#C1C1C1"/>
<path d="M103.916 101.868L90.6797 106.497L90.8198 106.897L104.056 102.269L103.916 101.868Z" fill="#C1C1C1"/>
<path d="M104.595 103.808L91.3594 108.437L91.4994 108.837L104.736 104.209L104.595 103.808Z" fill="#C1C1C1"/>
<path d="M105.277 105.748L92.041 110.376L92.1811 110.777L105.417 106.149L105.277 105.748Z" fill="#C1C1C1"/>
<path d="M105.951 107.69L92.7148 112.319L92.8549 112.719L106.091 108.091L105.951 107.69Z" fill="#C1C1C1"/>
<path d="M109.254 89.7101L84.9727 98.2007L91.8298 117.81L116.111 109.32L109.254 89.7101Z" fill="#FFB469"/>
<path d="M138.128 31.7741L148.15 56.7403L126.235 65.5325L114.441 36.1483L131.938 29.1283C132.076 29.0722 132.213 29.0223 132.356 28.9786C134.609 28.3109 137.043 29.3904 138.035 31.5432C138.066 31.6181 138.097 31.6992 138.128 31.7741Z" fill="url(#paint25_linear_615_4705)"/>
<path d="M134.224 34.9196L121.211 40.1411L121.369 40.5349L134.382 35.3134L134.224 34.9196Z" fill="white"/>
<path d="M134.99 36.8224L121.977 42.0439L122.135 42.4378L135.148 37.2162L134.99 36.8224Z" fill="white"/>
<path opacity="0.25" d="M135.759 38.7318L122.746 43.9534L122.904 44.3472L135.917 39.1257L135.759 38.7318Z" fill="white"/>
<path opacity="0.25" d="M136.521 40.6422L123.508 45.8638L123.666 46.2576L136.679 41.0361L136.521 40.6422Z" fill="white"/>
<path opacity="0.25" d="M137.289 42.5509L124.275 47.7725L124.433 48.1663L137.447 42.9447L137.289 42.5509Z" fill="white"/>
<path opacity="0.25" d="M138.054 44.454L125.041 49.6755L125.199 50.0693L138.212 44.8478L138.054 44.454Z" fill="white"/>
<path opacity="0.25" d="M138.816 46.3649L125.803 51.5864L125.961 51.9802L138.974 46.7587L138.816 46.3649Z" fill="white"/>
<path opacity="0.25" d="M139.583 48.2736L126.57 53.4951L126.728 53.8889L139.741 48.6674L139.583 48.2736Z" fill="white"/>
<path d="M140.353 50.1825L127.34 55.4041L127.498 55.7979L140.511 50.5763L140.353 50.1825Z" fill="#2A1F3A"/>
<path opacity="0.25" d="M141.119 52.0854L128.105 57.3069L128.263 57.7007L141.277 52.4792L141.119 52.0854Z" fill="white"/>
<path opacity="0.25" d="M141.88 53.9967L128.867 59.2183L129.025 59.6121L142.038 54.3905L141.88 53.9967Z" fill="white"/>
<path d="M138.035 31.5433L134.036 33.1469L132.363 28.9724C134.61 28.3109 137.043 29.3905 138.035 31.5433Z" fill="url(#paint26_linear_615_4705)"/>
<path d="M201.733 42.8939L191.456 67.7541L169.635 58.7373L181.728 29.4717L199.15 36.6726C199.287 36.7288 199.418 36.7912 199.556 36.8598C201.64 37.9581 202.619 40.4291 201.827 42.663C201.796 42.7379 201.765 42.8128 201.733 42.8939Z" fill="url(#paint27_linear_615_4705)"/>
<path d="M196.749 42.3989L183.791 37.0442L183.629 37.4363L196.587 42.7911L196.749 42.3989Z" fill="white"/>
<path d="M195.962 44.3013L183.004 38.9465L182.842 39.3387L195.8 44.6934L195.962 44.3013Z" fill="white"/>
<path opacity="0.25" d="M195.177 46.199L182.219 40.8442L182.057 41.2364L195.015 46.5911L195.177 46.199Z" fill="white"/>
<path opacity="0.25" d="M194.39 48.1006L181.432 42.7458L181.27 43.138L194.228 48.4927L194.39 48.1006Z" fill="white"/>
<path opacity="0.25" d="M193.611 49.9997L180.652 44.645L180.49 45.0372L193.449 50.3919L193.611 49.9997Z" fill="white"/>
<path opacity="0.25" d="M192.826 51.8975L179.867 46.5427L179.705 46.9349L192.664 52.2896L192.826 51.8975Z" fill="white"/>
<path opacity="0.25" d="M192.039 53.7991L179.08 48.4443L178.918 48.8365L191.876 54.1912L192.039 53.7991Z" fill="white"/>
<path opacity="0.25" d="M191.253 55.6963L178.295 50.3416L178.133 50.7337L191.091 56.0884L191.253 55.6963Z" fill="white"/>
<path opacity="0.25" d="M190.466 57.5986L177.508 52.2439L177.346 52.6361L190.304 57.9908L190.466 57.5986Z" fill="white"/>
<path opacity="0.25" d="M189.681 59.4956L176.723 54.1409L176.561 54.533L189.519 59.8878L189.681 59.4956Z" fill="white"/>
<path opacity="0.25" d="M188.9 61.4004L175.941 56.0457L175.779 56.4378L188.738 61.7925L188.9 61.4004Z" fill="white"/>
<path d="M201.821 42.6631L197.834 41.0157L199.55 36.8599C201.634 37.9581 202.62 40.4291 201.821 42.6631Z" fill="url(#paint28_linear_615_4705)"/>
<path d="M123.408 113.412C123.408 113.412 123.396 112.994 123.415 112.233" stroke="url(#paint29_linear_615_4705)" stroke-width="0.948" stroke-linecap="round" stroke-linejoin="round"/>
<path d="M123.521 109.861C124.102 100.926 127.602 77.6755 148.151 70.0128C172.243 61.0335 192.598 76.0032 199.662 86.8421" stroke="url(#paint30_linear_615_4705)" stroke-width="0.948" stroke-linecap="round" stroke-linejoin="round" stroke-dasharray="3.8 3.8"/>
<path d="M200.285 87.853C200.491 88.2025 200.685 88.5457 200.859 88.8826" stroke="url(#paint31_linear_615_4705)" stroke-width="0.948" stroke-linecap="round" stroke-linejoin="round"/>
</g>
<defs>
<linearGradient id="paint0_linear_615_4705" x1="195.039" y1="189.944" x2="161.304" y2="303.799" gradientUnits="userSpaceOnUse">
<stop stop-color="#6B637C"/>
<stop offset="1" stop-color="#8A8593"/>
</linearGradient>
<linearGradient id="paint1_linear_615_4705" x1="236.215" y1="191.665" x2="176.547" y2="197.99" gradientUnits="userSpaceOnUse">
<stop/>
<stop offset="1" stop-opacity="0"/>
</linearGradient>
<linearGradient id="paint2_linear_615_4705" x1="216.58" y1="143.764" x2="202.39" y2="238.725" gradientUnits="userSpaceOnUse">
<stop stop-color="#6B637C"/>
<stop offset="1" stop-color="#8A8593"/>
</linearGradient>
<linearGradient id="paint3_linear_615_4705" x1="255.95" y1="139.616" x2="203.943" y2="163.933" gradientUnits="userSpaceOnUse">
<stop/>
<stop offset="1" stop-opacity="0"/>
</linearGradient>
<linearGradient id="paint4_linear_615_4705" x1="208.304" y1="117.555" x2="188.907" y2="184.462" gradientUnits="userSpaceOnUse">
<stop stop-color="#925BE8"/>
<stop offset="1" stop-color="#80C3FF"/>
</linearGradient>
<linearGradient id="paint5_linear_615_4705" x1="197.98" y1="179.61" x2="205.57" y2="80.942" gradientUnits="userSpaceOnUse">
<stop stop-color="#925BE8"/>
<stop offset="1" stop-color="#80C3FF"/>
</linearGradient>
<linearGradient id="paint6_linear_615_4705" x1="190.37" y1="179.039" x2="197.962" y2="80.3523" gradientUnits="userSpaceOnUse">
<stop stop-color="#925BE8"/>
<stop offset="1" stop-color="#80C3FF"/>
</linearGradient>
<linearGradient id="paint7_linear_615_4705" x1="180.192" y1="131.818" x2="216.737" y2="97.8022" gradientUnits="userSpaceOnUse">
<stop/>
<stop offset="1" stop-opacity="0"/>
</linearGradient>
<linearGradient id="paint8_linear_615_4705" x1="231.895" y1="182.345" x2="239.52" y2="83.2212" gradientUnits="userSpaceOnUse">
<stop stop-color="#925BE8"/>
<stop offset="1" stop-color="#80C3FF"/>
</linearGradient>
<linearGradient id="paint9_linear_615_4705" x1="260.568" y1="107.499" x2="203.324" y2="138.915" gradientUnits="userSpaceOnUse">
<stop/>
<stop offset="1" stop-opacity="0"/>
</linearGradient>
<linearGradient id="paint10_linear_615_4705" x1="224.562" y1="181.659" x2="232.153" y2="82.9859" gradientUnits="userSpaceOnUse">
<stop stop-color="#925BE8"/>
<stop offset="1" stop-color="#80C3FF"/>
</linearGradient>
<linearGradient id="paint11_linear_615_4705" x1="190.177" y1="179.014" x2="197.767" y2="80.341" gradientUnits="userSpaceOnUse">
<stop stop-color="#925BE8"/>
<stop offset="1" stop-color="#80C3FF"/>
</linearGradient>
<linearGradient id="paint12_linear_615_4705" x1="219.512" y1="114.904" x2="210.165" y2="101.691" gradientUnits="userSpaceOnUse">
<stop stop-color="#FFD0C2"/>
<stop offset="1" stop-color="#F7AF9F"/>
</linearGradient>
<linearGradient id="paint13_linear_615_4705" x1="214.51" y1="100.387" x2="195.956" y2="112.334" gradientUnits="userSpaceOnUse">
<stop stop-color="#FFD0C2"/>
<stop offset="1" stop-color="#F7AF9F"/>
</linearGradient>
<linearGradient id="paint14_linear_615_4705" x1="215.353" y1="90.8155" x2="227.019" y2="59.5409" gradientUnits="userSpaceOnUse">
<stop stop-color="#FFD0C2"/>
<stop offset="1" stop-color="#F7AF9F"/>
</linearGradient>
<linearGradient id="paint15_linear_615_4705" x1="218.973" y1="98.9336" x2="221.925" y2="79.958" gradientUnits="userSpaceOnUse">
<stop stop-color="#FFD0C2"/>
<stop offset="1" stop-color="#F7AF9F"/>
</linearGradient>
<linearGradient id="paint16_linear_615_4705" x1="226.166" y1="76.3527" x2="215.203" y2="100.037" gradientUnits="userSpaceOnUse">
<stop/>
<stop offset="1" stop-opacity="0"/>
</linearGradient>
<linearGradient id="paint17_linear_615_4705" x1="223.808" y1="63.6825" x2="216.797" y2="85.03" gradientUnits="userSpaceOnUse">
<stop/>
<stop offset="1" stop-opacity="0"/>
</linearGradient>
<linearGradient id="paint18_linear_615_4705" x1="127.716" y1="162.966" x2="127.084" y2="166.05" gradientUnits="userSpaceOnUse">
<stop stop-color="#6B637C"/>
<stop offset="1" stop-color="#8A8593"/>
</linearGradient>
<linearGradient id="paint19_linear_615_4705" x1="125.619" y1="175.223" x2="124.782" y2="179.309" gradientUnits="userSpaceOnUse">
<stop stop-color="#6B637C"/>
<stop offset="1" stop-color="#8A8593"/>
</linearGradient>
<linearGradient id="paint20_linear_615_4705" x1="112.005" y1="182.4" x2="130.704" y2="142.743" gradientUnits="userSpaceOnUse">
<stop stop-color="#6B637C"/>
<stop offset="1" stop-color="#8A8593"/>
</linearGradient>
<linearGradient id="paint21_linear_615_4705" x1="127.78" y1="189.839" x2="146.48" y2="150.179" gradientUnits="userSpaceOnUse">
<stop stop-color="#6B637C"/>
<stop offset="1" stop-color="#8A8593"/>
</linearGradient>
<linearGradient id="paint22_linear_615_4705" x1="169.71" y1="180.823" x2="80.742" y2="119.251" gradientUnits="userSpaceOnUse">
<stop stop-color="#6B637C"/>
<stop offset="1" stop-color="#8A8593"/>
</linearGradient>
<linearGradient id="paint23_linear_615_4705" x1="69.3612" y1="154.467" x2="152.047" y2="135.21" gradientUnits="userSpaceOnUse">
<stop stop-color="#925BE8"/>
<stop offset="1" stop-color="#80C3FF"/>
</linearGradient>
<linearGradient id="paint24_linear_615_4705" x1="109.83" y1="130.975" x2="115.989" y2="129.562" gradientUnits="userSpaceOnUse">
<stop stop-color="#925BE8"/>
<stop offset="1" stop-color="#80C3FF"/>
</linearGradient>
<linearGradient id="paint25_linear_615_4705" x1="136.073" y1="113.023" x2="129.537" y2="21.9399" gradientUnits="userSpaceOnUse">
<stop stop-color="#925BE8"/>
<stop offset="1" stop-color="#80C3FF"/>
</linearGradient>
<linearGradient id="paint26_linear_615_4705" x1="138.695" y1="10.4697" x2="130.156" y2="58.7521" gradientUnits="userSpaceOnUse">
<stop stop-color="#925BE8"/>
<stop offset="1" stop-color="#80C3FF"/>
</linearGradient>
<linearGradient id="paint27_linear_615_4705" x1="143.496" y1="99.5856" x2="202.456" y2="29.8532" gradientUnits="userSpaceOnUse">
<stop stop-color="#925BE8"/>
<stop offset="1" stop-color="#80C3FF"/>
</linearGradient>
<linearGradient id="paint28_linear_615_4705" x1="217.022" y1="28.0443" x2="177.179" y2="56.6226" gradientUnits="userSpaceOnUse">
<stop stop-color="#925BE8"/>
<stop offset="1" stop-color="#80C3FF"/>
</linearGradient>
<linearGradient id="paint29_linear_615_4705" x1="123.11" y1="112.82" x2="201.147" y2="112.82" gradientUnits="userSpaceOnUse">
<stop stop-color="#6B637C"/>
<stop offset="1" stop-color="#8A8593"/>
</linearGradient>
<linearGradient id="paint30_linear_615_4705" x1="123.111" y1="88.5631" x2="201.157" y2="88.5631" gradientUnits="userSpaceOnUse">
<stop stop-color="#6B637C"/>
<stop offset="1" stop-color="#8A8593"/>
</linearGradient>
<linearGradient id="paint31_linear_615_4705" x1="123.113" y1="88.3695" x2="201.157" y2="88.3695" gradientUnits="userSpaceOnUse">
<stop stop-color="#6B637C"/>
<stop offset="1" stop-color="#8A8593"/>
</linearGradient>
<clipPath id="clip0_615_4705">
<rect width="312" height="312" fill="white"/>
</clipPath>
</defs>
</svg>
