<svg width="312" height="250" viewBox="0 0 312 250" fill="none" xmlns="http://www.w3.org/2000/svg">
<mask id="mask0_615_9919" style="mask-type:alpha" maskUnits="userSpaceOnUse" x="0" y="0" width="312" height="250">
<rect width="312" height="250" fill="#FBFBFE"/>
</mask>
<g mask="url(#mask0_615_9919)">
</g>
<path d="M225.222 122.653C225.222 124.397 223.811 125.81 222.07 125.81H62.1518C60.4108 125.807 59 124.394 59 122.653V95.0388C59 93.2953 60.4108 91.8823 62.1518 91.8823H222.073C223.814 91.8823 225.225 93.2953 225.225 95.0388V122.653H225.222Z" fill="#F3F1FD"/>
<path d="M94.612 91.8823H62.1518C60.4108 91.8823 59 93.2953 59 95.0388V122.653C59 124.397 60.4108 125.81 62.1518 125.81H94.612V91.8823Z" fill="#7531AB"/>
<path d="M103.797 101.859H139.356" stroke="#9AC7F7" stroke-width="2" stroke-miterlimit="10"/>
<path d="M143.186 101.859H165.746" stroke="#9AC7F7" stroke-width="2" stroke-miterlimit="10"/>
<path d="M113.195 115.94H117.819" stroke="#9AC7F7" stroke-width="2" stroke-miterlimit="10"/>
<path d="M124.492 106.551H138.673" stroke="#9AC7F7" stroke-width="2" stroke-miterlimit="10"/>
<path d="M130.688 111.248H138.671" stroke="#9AC7F7" stroke-width="2" stroke-miterlimit="10"/>
<path d="M121.338 115.94H138.67" stroke="#9AC7F7" stroke-width="2" stroke-miterlimit="10"/>
<path d="M117.453 106.551H120.709" stroke="#9AC7F7" stroke-width="2" stroke-miterlimit="10"/>
<path d="M103.9 106.551H114.221" stroke="#9AC7F7" stroke-width="2" stroke-miterlimit="10"/>
<path d="M103.9 111.248H127.539" stroke="#9AC7F7" stroke-width="2" stroke-miterlimit="10"/>
<path d="M103.9 115.94H109.493" stroke="#9AC7F7" stroke-width="2" stroke-miterlimit="10"/>
<path d="M142.35 106.551H159.682" stroke="#9AC7F7" stroke-width="2" stroke-miterlimit="10"/>
<path d="M147.863 111.248L170.471 111.213" stroke="#9AC7F7" stroke-width="2" stroke-miterlimit="10"/>
<path d="M145.5 115.94H159.683" stroke="#9AC7F7" stroke-width="2" stroke-miterlimit="10"/>
<path d="M163.568 106.551H170.471" stroke="#9AC7F7" stroke-width="2" stroke-miterlimit="10"/>
<path d="M141.613 111.248H144.869" stroke="#9AC7F7" stroke-width="2" stroke-miterlimit="10"/>
<path d="M142.334 115.94H147.142" stroke="#9AC7F7" stroke-width="2" stroke-miterlimit="10"/>
<path d="M210.269 99.7551C206.795 99.7551 203.971 102.584 203.971 106.063C203.971 109.31 209.087 115.364 209.67 116.047L210.269 116.743L210.868 116.047C211.451 115.367 216.567 109.313 216.567 106.063C216.567 102.584 213.74 99.7551 210.269 99.7551ZM210.269 114.298C208.552 112.181 205.547 108.062 205.547 106.063C205.547 103.455 207.666 101.333 210.269 101.333C212.872 101.333 214.991 103.455 214.991 106.063C214.991 108.06 211.986 112.179 210.269 114.298Z" fill="#9AC7F7"/>
<path d="M210.253 102.882C208.515 102.882 207.102 104.298 207.102 106.039C207.102 107.779 208.515 109.195 210.253 109.195C211.992 109.195 213.405 107.779 213.405 106.039C213.405 104.298 211.992 102.882 210.253 102.882ZM210.253 107.617C209.386 107.617 208.677 106.91 208.677 106.039C208.677 105.167 209.386 104.46 210.253 104.46C211.121 104.46 211.829 105.167 211.829 106.039C211.829 106.908 211.124 107.617 210.253 107.617Z" fill="#9AC7F7"/>
<path d="M190.575 116.934C195.356 116.934 199.248 113.037 199.248 108.249C199.248 103.458 195.356 99.563 190.575 99.563C185.791 99.563 181.902 103.458 181.902 108.249C181.902 113.037 185.791 116.934 190.575 116.934ZM190.575 101.139C194.488 101.139 197.672 104.327 197.672 108.246C197.672 112.165 194.488 115.354 190.575 115.354C186.662 115.354 183.478 112.165 183.478 108.246C183.478 104.327 186.662 101.139 190.575 101.139Z" fill="#9AC7F7"/>
<path d="M194.281 110.845L191.36 107.921V102.725H189.787V108.574L193.168 111.96L194.281 110.845Z" fill="#9AC7F7"/>
<g clip-path="url(#clip0_615_9919)">
<path d="M72.038 100.543C71.5809 100.543 71.1425 100.725 70.8193 101.048C70.496 101.372 70.3145 101.811 70.3145 102.269V112.626C70.3145 113.084 70.496 113.523 70.8193 113.846C71.1425 114.17 71.5809 114.352 72.038 114.352H77.0778C76.7822 114.044 76.5319 113.695 76.3346 113.316H72.038C71.8552 113.316 71.6798 113.244 71.5505 113.114C71.4212 112.985 71.3486 112.809 71.3486 112.626H76.0457C75.9375 112.29 75.8695 111.942 75.843 111.59H71.3486V102.269C71.3486 102.086 71.4212 101.91 71.5505 101.781C71.6798 101.651 71.8552 101.578 72.038 101.578H79.9665C80.1493 101.578 80.3247 101.651 80.454 101.781C80.5833 101.91 80.6559 102.086 80.6559 102.269V106.77C81.0144 106.798 81.3605 106.867 81.69 106.973V102.269C81.69 101.811 81.5085 101.372 81.1852 101.048C80.862 100.725 80.4236 100.543 79.9665 100.543H72.038ZM84.1031 111.245C84.1031 110.238 83.7036 109.272 82.9924 108.56C82.2813 107.847 81.3169 107.447 80.3112 107.447C79.3055 107.447 78.341 107.847 77.6299 108.56C76.9188 109.272 76.5193 110.238 76.5193 111.245C76.5193 112.252 76.9188 113.218 77.6299 113.93C78.341 114.642 79.3055 115.042 80.3112 115.042C81.3169 115.042 82.2813 114.642 82.9924 113.93C83.7036 113.218 84.1031 112.252 84.1031 111.245ZM79.9072 109.586L81.8417 110.856C81.9017 110.895 81.9508 110.948 81.9846 111.011C82.0184 111.074 82.0356 111.144 82.0348 111.215C82.0348 111.287 82.0178 111.358 81.9851 111.422C81.9543 111.485 81.9071 111.539 81.8486 111.578L79.9134 112.9C79.8797 112.923 79.8431 112.941 79.8045 112.953C79.7148 112.982 79.6178 112.976 79.5321 112.937C79.4827 112.914 79.4377 112.883 79.3991 112.844C79.3617 112.803 79.3314 112.757 79.3094 112.706C79.2879 112.654 79.2769 112.598 79.277 112.542V109.948C79.2767 109.864 79.3004 109.783 79.3453 109.713C79.3902 109.643 79.4544 109.588 79.5301 109.554C79.5902 109.526 79.6566 109.514 79.7228 109.519C79.7889 109.525 79.8525 109.547 79.9072 109.585V109.586ZM72.3827 103.305C72.3827 103.121 72.4554 102.946 72.5847 102.816C72.714 102.687 72.8893 102.614 73.0722 102.614H78.5876C78.7705 102.614 78.9458 102.687 79.0751 102.816C79.2044 102.946 79.277 103.121 79.277 103.305V104.686C79.277 104.869 79.2044 105.044 79.0751 105.174C78.9458 105.303 78.7705 105.376 78.5876 105.376H73.0722C72.8893 105.376 72.714 105.303 72.5847 105.174C72.4554 105.044 72.3827 104.869 72.3827 104.686V103.305ZM73.4169 104.34H78.2429V103.65H73.4169V104.34Z" fill="white"/>
</g>
<path d="M223.254 238.423H228.799L219.652 149.697H211.613L223.254 238.423Z" fill="#163F59"/>
<path d="M212.148 153.786L215.676 180.656L219.858 151.699L219.653 149.697H212.625L212.148 153.786Z" fill="#212957"/>
<path d="M148.976 238.423H154.518L145.371 149.697H137.332L148.976 238.423Z" fill="#163F59"/>
<path d="M137.867 153.786L141.394 180.656L145.579 151.699L145.371 149.697H138.344L137.867 153.786Z" fill="#212957"/>
<path d="M99.248 238.423H93.7031L102.85 149.697H110.889L99.248 238.423Z" fill="#163F59"/>
<path d="M110.353 153.786L99.5938 181.168L102.644 151.699L102.849 149.697H109.877L110.353 153.786Z" fill="#212957"/>
<path d="M153.451 146.814H95.0898V152H153.451V146.814Z" fill="#387BFF"/>
<path d="M226.26 146.814H150.359V152H226.26V146.814Z" fill="#7EB3FF"/>
<path d="M210.383 145.266C210.391 145.252 210.399 145.236 210.404 145.223L210.383 143.911H156.214V145.223C156.214 145.223 156.207 145.252 156.214 145.266L156.353 145.508C157.05 146.644 158.299 146.849 159.728 146.849H206.867C208.296 146.849 209.545 146.644 210.242 145.508L210.383 145.266Z" fill="#D0DEE6"/>
<path d="M197.33 145.487C197.33 145.487 197.322 145.511 197.33 145.524L197.465 145.722C197.678 146.015 197.947 146.231 198.259 146.388H206.495C207.871 146.388 209.072 146.223 209.743 145.306L209.873 145.106C209.884 145.095 209.889 145.085 209.897 145.071L209.884 144.426H197.332V145.487H197.33Z" fill="#B6C2C9"/>
<path d="M190.018 144.218H162.951V145.143H190.018V144.218Z" fill="#B6C2C9"/>
<path d="M197.029 143.866L190.007 117.209C189.82 116.502 189.102 115.935 188.402 115.935H150.396C149.696 115.935 149.276 116.505 149.462 117.209L156.484 143.866H197.029Z" fill="#212957"/>
<path d="M158.42 140.846L152.654 118.955H187.734L193.5 140.846H158.42Z" fill="#9AC7F7"/>
<path d="M238.033 164.991C238.033 164.991 244.909 169.254 243.6 177.124C242.29 184.994 239.016 191.224 223.624 189.257C208.233 187.289 195.136 180.075 195.136 180.075C195.136 180.075 202.339 182.699 202.012 193.848C201.684 204.997 203.976 226.97 205.941 230.577C207.905 234.184 209.542 239.103 209.542 239.103H193.168L198.735 229.593L181.379 166.3C181.379 166.3 178.104 155.151 189.892 158.102C201.687 161.056 238.033 164.991 238.033 164.991Z" fill="#212957"/>
<path d="M217.733 167.369L186.952 161.795C186.952 161.795 177.13 159.171 175.165 168.353C172.876 179.057 167.962 226.727 167.962 226.727L167.634 229.022L152.57 237.22H175.493L173.855 230.006L187.607 181.47C187.607 181.47 211.184 188.356 219.043 188.356C226.901 188.356 232.794 185.405 232.794 184.093C232.794 182.784 223.299 166.713 217.733 167.369Z" fill="#3B47BC"/>
<path d="M190.076 151.995C188.112 151.134 183.568 149.905 182.463 149.782C181.358 149.659 180.499 146.585 181.113 144.618C181.521 143.317 181.925 142.176 182.546 141.803C182.862 141.611 183.235 141.621 183.693 141.912C185.043 142.773 190.446 147.447 190.446 147.447C190.446 147.447 192.041 152.856 190.076 151.995Z" fill="#F7B68B"/>
<path d="M176.079 142.651L182.545 141.803L181.113 144.618L181.973 148.924L178.411 149.54C178.411 149.54 177.921 148.924 178.533 148.679C179.148 148.433 180.008 148.063 180.008 148.063C180.008 148.063 178.288 147.817 177.551 147.695C176.814 147.572 176.691 147.327 176.691 146.956C176.691 146.588 177.429 146.34 177.429 146.34C177.429 146.34 176.079 145.847 175.954 145.479C175.831 145.111 175.586 144.618 175.831 144.25C176.079 143.88 175.712 142.896 176.079 142.651Z" fill="#EC9568"/>
<path d="M233.122 168.681C233.122 168.681 240.98 191.31 223.626 189.998C206.27 188.686 190.554 180.816 189.244 179.505C187.934 178.193 189.244 188.686 184.988 197.871C180.731 207.052 174.51 230.009 174.51 230.009L168.289 229.681L175.492 171.635C175.492 171.635 175.844 162.522 188.917 163.437C202.996 164.421 216.096 164.748 216.096 164.748L233.122 168.681Z" fill="#3B47BC"/>
<path d="M229.831 106.38C229.831 106.38 227.002 110.845 223.916 111.08C220.831 111.314 219.287 104.028 219.287 99.0937C219.287 94.1589 224.688 89.4588 225.202 88.0485C225.716 86.6382 231.117 91.3383 231.117 95.5692C231.117 99.8001 229.831 105.204 229.831 106.38Z" fill="#EC9568"/>
<path d="M246.922 119.262C246.922 119.262 252.06 125.223 244.577 138.59C237.094 151.955 233.724 159.334 232.715 159.395C231.704 159.457 226.454 159.478 225.123 157.228C223.792 154.978 222.658 153.016 223.124 151.851C223.59 150.686 234.749 120.952 235.875 118.203C238.164 112.624 245.368 118.222 246.922 119.262Z" fill="#9AC7F7"/>
<path d="M215.111 118.097L222.232 114.407L235.494 114.162C235.494 114.162 242.37 115.146 245.316 121.541C246.331 123.741 239.782 149.23 239.013 153.597C238.031 159.172 245.037 167.332 243.597 169.012C238.262 175.229 211.179 164.421 211.179 164.421C211.179 164.421 210.2 122.032 215.111 118.097Z" fill="#C5E1F9"/>
<path d="M216.34 118.59C216.34 118.59 222.478 123.509 217.567 138.02C212.655 152.53 210.691 160.403 209.709 160.648C208.726 160.894 203.57 161.877 201.851 159.91C200.131 157.942 198.659 156.22 198.904 154.991C199.149 153.762 208.726 127.198 209.956 124.492C211.181 121.786 214.62 117.851 216.34 118.59Z" fill="#9AC7F7"/>
<path d="M234.524 105.463L233.723 116.305C233.723 116.305 234.135 117.814 230.715 118.113C226.104 118.516 224.1 116.708 224.1 116.708C224.1 116.708 226.706 111.688 226.304 104.86C225.904 98.0355 234.524 105.463 234.524 105.463Z" fill="#F7B68B"/>
<path d="M226.508 85.1823C226.508 85.1823 232.364 83.7747 238.135 88.1949C241.543 90.8049 243.55 95.4224 241.745 99.2374C239.94 103.052 235.931 108.072 233.927 108.072C231.922 108.072 227.511 105.06 226.91 103.855C226.308 102.65 226.308 101.847 225.906 99.2374C225.504 96.6274 224.101 97.4298 224.101 98.0323C224.101 98.6348 223.3 100.442 222.898 99.2374C222.499 98.035 214.279 89.3999 226.508 85.1823Z" fill="#212957"/>
<path d="M239.236 94.2177C244.053 94.2177 247.957 90.4424 247.957 85.7853C247.957 81.1281 244.053 77.3528 239.236 77.3528C234.42 77.3528 230.516 81.1281 230.516 85.7853C230.516 90.4424 234.42 94.2177 239.236 94.2177Z" fill="#212957"/>
<path d="M205.617 146.465C204.419 146.999 191.538 146.793 190.88 147.777C190.225 148.761 189.57 152.368 189.57 152.368C189.57 152.368 193.172 157.287 200.703 159.582C208.233 161.877 207.906 162.205 211.508 154.991C215.112 147.777 208.564 145.154 205.617 146.465Z" fill="#9AC7F7"/>
<path d="M245.135 199.164C246.431 199.164 248.478 198.868 250.27 197.303C252.849 195.055 253.965 191.059 253.589 185.426C253.336 181.624 251.843 177.775 250.262 173.698C247.597 166.841 244.581 159.07 246.157 148.793L243.226 148.34C241.528 159.406 244.839 167.927 247.493 174.775C249.056 178.798 250.408 182.277 250.632 185.623C250.935 190.193 250.147 193.448 248.35 195.037C246.649 196.546 244.52 196.157 244.429 196.141L243.836 199.052C243.889 199.062 244.387 199.164 245.135 199.164Z" fill="#367082"/>
<path d="M222.392 222.73L219.504 227.143L243.768 234.927C243.768 234.927 245.389 233.376 239.434 230.259C232.502 226.625 222.392 222.73 222.392 222.73Z" fill="#88BDDA"/>
<path d="M218.082 222.73L220.971 227.143L196.709 234.927C196.709 234.927 195.088 233.376 201.043 230.259C207.975 226.625 218.082 222.73 218.082 222.73Z" fill="#88BDDA"/>
<path d="M222.772 209.609H217.701V227.687H222.772V209.609Z" fill="#88BDDA"/>
<path d="M222.714 223.661L220.244 227.87L241.013 235.298C241.013 235.298 242.4 233.818 237.305 230.84C231.371 227.377 222.714 223.661 222.714 223.661Z" fill="#ACD5F4"/>
<path d="M217.761 223.661L220.228 227.87L199.459 235.298C199.459 235.298 198.073 233.818 203.168 230.84C209.104 227.377 217.761 223.661 217.761 223.661Z" fill="#ACD5F4"/>
<path d="M238.662 236.972C238.662 237.945 239.453 238.734 240.424 238.734C241.399 238.734 242.187 237.945 242.187 236.972C242.187 235.996 241.396 235.205 240.424 235.205C239.453 235.205 238.662 235.996 238.662 236.972Z" fill="#001F46"/>
<path d="M198.42 236.972C198.42 237.945 199.213 238.734 200.185 238.734C201.159 238.734 201.947 237.945 201.947 236.972C201.947 235.996 201.159 235.205 200.185 235.205C199.211 235.205 198.42 235.996 198.42 236.972Z" fill="#001F46"/>
<path d="M242.926 236.972C242.926 237.945 243.714 238.734 244.688 238.734C245.662 238.734 246.45 237.945 246.45 236.972C246.45 235.996 245.66 235.205 244.688 235.205C243.714 235.205 242.926 235.996 242.926 236.972Z" fill="#367082"/>
<path d="M194.154 236.972C194.154 237.945 194.945 238.734 195.917 238.734C196.888 238.734 197.676 237.945 197.676 236.972C197.676 235.996 196.888 235.205 195.917 235.205C194.945 235.205 194.154 235.996 194.154 236.972Z" fill="#367082"/>
<path d="M222.155 202.984H218.447V209.484H222.155V202.984Z" fill="#367082"/>
<path d="M215.668 199.55C215.668 201.55 217.289 203.171 219.283 203.171H221.325C223.321 203.171 224.94 201.55 224.94 199.55C224.94 197.548 223.321 195.927 221.325 195.927H219.283C217.286 195.927 215.668 197.545 215.668 199.55Z" fill="#367082"/>
<path d="M192.739 196.237C192.654 195.81 192.604 193.136 192.604 192.677C192.604 189.753 194.488 187.383 196.817 187.383H243.793C246.12 187.383 248.007 189.753 248.007 192.677C248.007 193.136 247.957 195.81 247.866 196.237H192.739Z" fill="#8DCFFF"/>
<path d="M248.44 197.671C248.44 198.566 247.919 199.294 247.272 199.294H193.335C192.688 199.294 192.166 198.566 192.166 197.671C192.166 196.778 192.688 196.05 193.335 196.05H247.272C247.919 196.05 248.44 196.775 248.44 197.671Z" fill="#367082"/>
<path d="M226.795 199.163C228.091 199.163 230.138 198.868 231.93 197.303C234.509 195.055 235.625 191.059 235.249 185.426C234.999 181.624 233.503 177.774 231.922 173.698C229.257 166.841 226.241 159.07 227.817 148.793L224.886 148.339C223.188 159.406 226.499 167.926 229.153 174.775C230.716 178.798 232.068 182.277 232.292 185.623C232.595 190.192 231.807 193.448 230.011 195.037C228.31 196.546 226.18 196.156 226.089 196.14L225.496 199.052C225.549 199.062 226.047 199.163 226.795 199.163Z" fill="#367082"/>
<path d="M220.22 165.295C229.548 167.113 239.158 167.113 248.485 165.295C249.316 165.135 249.992 164.319 249.995 163.506C249.995 155.836 249.995 148.164 249.995 140.494C249.995 139.678 249.316 139.163 248.485 139.326C239.158 141.147 229.548 141.144 220.22 139.326C219.39 139.166 218.711 139.68 218.711 140.494C218.711 148.164 218.711 155.834 218.711 163.506C218.714 164.317 219.39 165.132 220.22 165.295Z" fill="#8DCFFF"/>
<path d="M114.27 225.554C114.27 225.554 111.59 215.967 107.378 212.709C103.167 209.449 100.106 204.85 94.5529 202.739C89.0001 200.63 87.6611 196.796 89.7667 195.453C91.8723 194.112 98.7642 190.275 107.187 199.094C115.609 207.913 117.715 214.816 117.523 223.059C117.334 231.305 114.654 230.348 114.27 225.554Z" fill="#8DCFFF"/>
<path d="M92.8301 196.924C92.8301 196.924 101.253 199.417 105.083 202.291C108.911 205.167 115.995 213.219 116.378 221.08" stroke="#7DC2F5" stroke-width="3.7863" stroke-miterlimit="10"/>
<path d="M116.566 228.62C116.566 228.62 120.905 216.351 122.691 212.515C124.477 208.681 124.221 199.476 121.413 195.898C118.605 192.32 114.01 186.951 116.054 179.028C118.096 171.104 117.077 166.247 113.246 169.316C109.418 172.384 102.691 179.148 102.526 190.022C102.398 198.332 104.845 203.195 109.418 209.193C113.121 214.051 116.821 222.998 116.566 228.62Z" fill="#D48F3F"/>
<path d="M118.283 225.751C118.379 225.245 120.575 213.304 118.254 208.265C117.722 207.114 117.013 205.714 116.257 204.232C113.787 199.369 110.404 192.712 110.055 188.073C109.496 180.622 114.157 173.432 114.205 173.36L113.566 172.938C113.369 173.24 108.716 180.422 109.294 188.132C109.653 192.923 112.938 199.385 115.576 204.578C116.324 206.053 117.035 207.444 117.559 208.585C119.779 213.4 117.554 225.487 117.53 225.607L118.283 225.751Z" fill="#D48F3F"/>
<path d="M133.607 210.409C138.585 209.449 138.966 203.699 135.138 202.55C131.31 201.401 124.993 201.592 121.929 205.618C118.378 210.286 116.951 218.655 118.101 224.597C119.248 230.54 118.101 222.296 120.59 218.271C123.076 214.243 129.5 211.198 133.607 210.409Z" fill="#194866"/>
<path d="M135.9 205.743C135.9 205.743 129.008 204.403 124.222 209.001C120.08 212.984 118.288 217.948 117.521 223.062" stroke="#161711" stroke-width="3.7264" stroke-miterlimit="10"/>
<path d="M108.334 240.252H122.118L124.415 218.012H106.037L108.334 240.252Z" fill="#2C7EEA"/>
<path d="M225.222 81.0878C225.222 82.8314 223.811 84.2443 222.07 84.2443H62.1518C60.4108 84.2443 59 82.8314 59 81.0878V53.4737C59 51.7301 60.4108 50.3171 62.1518 50.3171H222.073C223.814 50.3171 225.225 51.7301 225.225 53.4737V81.0878H225.222Z" fill="#F3F1FD"/>
<path d="M94.612 50.3171H62.1518C60.4108 50.3171 59 51.7301 59 53.4737V81.0878C59 82.8314 60.4108 84.2443 62.1518 84.2443H94.612V50.3171Z" fill="#D48F3F"/>
<path d="M103.797 60.2932H139.356" stroke="#9AC7F7" stroke-width="2" stroke-miterlimit="10"/>
<path d="M143.186 60.2932H165.746" stroke="#9AC7F7" stroke-width="2" stroke-miterlimit="10"/>
<path d="M113.197 74.3772H117.818" stroke="#9AC7F7" stroke-width="2" stroke-miterlimit="10"/>
<path d="M124.492 64.9851H138.673" stroke="#9AC7F7" stroke-width="2" stroke-miterlimit="10"/>
<path d="M130.688 69.6829H138.671" stroke="#9AC7F7" stroke-width="2" stroke-miterlimit="10"/>
<path d="M121.338 74.377H138.67" stroke="#9AC7F7" stroke-width="2" stroke-miterlimit="10"/>
<path d="M117.453 64.9851H120.709" stroke="#9AC7F7" stroke-width="2" stroke-miterlimit="10"/>
<path d="M103.9 64.9851H114.221" stroke="#9AC7F7" stroke-width="2" stroke-miterlimit="10"/>
<path d="M103.9 69.6829H127.539" stroke="#9AC7F7" stroke-width="2" stroke-miterlimit="10"/>
<path d="M103.9 74.3772H109.493" stroke="#9AC7F7" stroke-width="2" stroke-miterlimit="10"/>
<path d="M142.35 64.9851H159.682" stroke="#9AC7F7" stroke-width="2" stroke-miterlimit="10"/>
<path d="M147.863 69.6826L170.471 69.6479" stroke="#9AC7F7" stroke-width="2" stroke-miterlimit="10"/>
<path d="M145.5 74.3774H159.683" stroke="#9AC7F7" stroke-width="2" stroke-miterlimit="10"/>
<path d="M163.568 64.9851H170.471" stroke="#9AC7F7" stroke-width="2" stroke-miterlimit="10"/>
<path d="M141.613 69.6826H144.869" stroke="#9AC7F7" stroke-width="2" stroke-miterlimit="10"/>
<path d="M142.334 74.3772H147.142" stroke="#9AC7F7" stroke-width="2" stroke-miterlimit="10"/>
<path d="M75.9953 73.687H66.2658V71.6368L69.7583 68.0991C70.7938 67.038 71.4673 66.3022 71.7867 65.8916C72.1035 65.4811 72.3324 65.1025 72.4709 64.7533C72.6093 64.404 72.6812 64.0415 72.6812 63.6656C72.6812 63.1057 72.5268 62.6898 72.2206 62.4179C71.9118 62.146 71.5019 62.0073 70.9881 62.0073C70.4478 62.0073 69.926 62.13 69.4176 62.3779C68.9091 62.6258 68.3794 62.9777 67.8284 63.4363L66.2285 61.5381C66.9126 60.9543 67.4823 60.541 67.9322 60.2984C68.3821 60.0558 68.8745 59.8719 69.4069 59.7412C69.9393 59.6106 70.5356 59.5466 71.1958 59.5466C72.0662 59.5466 72.8329 59.7066 73.4984 60.0238C74.1639 60.3411 74.683 60.7863 75.0503 61.3595C75.4177 61.9327 75.6013 62.5858 75.6013 63.3243C75.6013 63.9668 75.4895 64.5693 75.2633 65.1318C75.037 65.6944 74.6883 66.2702 74.2145 66.8621C73.7406 67.4539 72.9074 68.2964 71.7149 69.3894L69.926 71.077V71.2103H75.99V73.687H75.9953Z" fill="white"/>
<path d="M86.6379 73.687H76.9084V71.6368L80.4009 68.0991C81.4364 67.038 82.1099 66.3022 82.4293 65.8916C82.7461 65.4811 82.975 65.1025 83.1134 64.7533C83.2519 64.404 83.3237 64.0415 83.3237 63.6656C83.3237 63.1057 83.1693 62.6898 82.8632 62.4179C82.5544 62.146 82.1445 62.0073 81.6307 62.0073C81.0903 62.0073 80.5686 62.13 80.0601 62.3779C79.5517 62.6258 79.022 62.9777 78.4709 63.4363L76.8711 61.5381C77.5552 60.9543 78.1249 60.541 78.5748 60.2984C79.0246 60.0558 79.5171 59.8719 80.0495 59.7412C80.5819 59.6106 81.1782 59.5466 81.8383 59.5466C82.7088 59.5466 83.4755 59.7066 84.141 60.0238C84.8065 60.3411 85.3255 60.7863 85.6929 61.3595C86.0602 61.9327 86.2439 62.5858 86.2439 63.3243C86.2439 63.9668 86.1321 64.5693 85.9059 65.1318C85.6796 65.6944 85.3309 66.2702 84.857 66.8621C84.3832 67.4539 83.55 68.2964 82.3574 69.3894L80.5686 71.077V71.2103H86.6326V73.687H86.6379Z" fill="white"/>
<path d="M210.269 58.1897C206.795 58.1897 203.971 61.0183 203.971 64.4974C203.971 67.7445 209.087 73.799 209.67 74.4815L210.269 75.1773L210.865 74.4815C211.448 73.8016 216.565 67.7472 216.565 64.4974C216.567 61.0183 213.743 58.1897 210.269 58.1897ZM210.269 72.7326C208.549 70.6158 205.547 66.4969 205.547 64.4974C205.547 61.8901 207.663 59.768 210.269 59.768C212.872 59.768 214.991 61.8901 214.991 64.4974C214.991 66.4942 211.986 70.6158 210.269 72.7326Z" fill="#9AC7F7"/>
<path d="M210.253 61.3167C208.515 61.3167 207.102 62.7323 207.102 64.4732C207.102 66.214 208.515 67.6297 210.253 67.6297C211.992 67.6297 213.405 66.214 213.405 64.4732C213.405 62.7323 211.992 61.3167 210.253 61.3167ZM210.253 66.0514C209.386 66.0514 208.677 65.3449 208.677 64.4732C208.677 63.6014 209.386 62.8949 210.253 62.8949C211.124 62.8949 211.829 63.6014 211.829 64.4732C211.829 65.3449 211.124 66.0514 210.253 66.0514Z" fill="#9AC7F7"/>
<path d="M190.575 75.369C195.359 75.369 199.248 71.4714 199.248 66.6833C199.248 61.8925 195.359 57.9976 190.575 57.9976C185.791 57.9976 181.902 61.8925 181.902 66.6833C181.902 71.4714 185.791 75.369 190.575 75.369ZM190.575 59.5758C194.488 59.5758 197.672 62.7643 197.672 66.6833C197.672 70.6023 194.488 73.7908 190.575 73.7908C186.662 73.7908 183.478 70.6023 183.478 66.6833C183.478 62.7617 186.662 59.5758 190.575 59.5758Z" fill="#9AC7F7"/>
<path d="M194.281 69.2797L191.36 66.3552V61.1592H189.787V67.0083L193.168 70.3968L194.281 69.2797Z" fill="#9AC7F7"/>
<path d="M225.222 40.2531C225.222 41.9966 223.811 43.4096 222.07 43.4096H62.1518C60.4108 43.4069 59 41.994 59 40.2531V12.6389C59 10.8954 60.4108 9.48242 62.1518 9.48242H222.073C223.814 9.48242 225.225 10.8954 225.225 12.6389V40.2531H225.222Z" fill="#F3F1FD"/>
<path d="M94.612 9.48242H62.1518C60.4108 9.48242 59 10.8954 59 12.6389V40.2531C59 41.9966 60.4108 43.4096 62.1518 43.4096H94.612V9.48242Z" fill="#9AC7F7"/>
<path d="M103.797 19.4587H139.356" stroke="#9AC7F7" stroke-width="2" stroke-miterlimit="10"/>
<path d="M143.186 19.4587H165.746" stroke="#9AC7F7" stroke-width="2" stroke-miterlimit="10"/>
<path d="M113.197 33.5403H117.818" stroke="#9AC7F7" stroke-width="2" stroke-miterlimit="10"/>
<path d="M124.492 24.1506H138.673" stroke="#9AC7F7" stroke-width="2" stroke-miterlimit="10"/>
<path d="M130.688 28.8486H138.671" stroke="#9AC7F7" stroke-width="2" stroke-miterlimit="10"/>
<path d="M121.338 33.5403H138.67" stroke="#9AC7F7" stroke-width="2" stroke-miterlimit="10"/>
<path d="M117.453 24.1506H120.709" stroke="#9AC7F7" stroke-width="2" stroke-miterlimit="10"/>
<path d="M103.9 24.1506H114.221" stroke="#9AC7F7" stroke-width="2" stroke-miterlimit="10"/>
<path d="M103.9 28.8486H127.539" stroke="#9AC7F7" stroke-width="2" stroke-miterlimit="10"/>
<path d="M103.9 33.5403H109.493" stroke="#9AC7F7" stroke-width="2" stroke-miterlimit="10"/>
<path d="M142.35 24.1506H159.682" stroke="#9AC7F7" stroke-width="2" stroke-miterlimit="10"/>
<path d="M147.863 28.8481L170.471 28.8135" stroke="#9AC7F7" stroke-width="2" stroke-miterlimit="10"/>
<path d="M145.5 33.5403H159.683" stroke="#9AC7F7" stroke-width="2" stroke-miterlimit="10"/>
<path d="M163.568 24.1506H170.471" stroke="#9AC7F7" stroke-width="2" stroke-miterlimit="10"/>
<path d="M141.613 28.8484H144.869" stroke="#9AC7F7" stroke-width="2" stroke-miterlimit="10"/>
<path d="M142.334 33.5403H147.142" stroke="#9AC7F7" stroke-width="2" stroke-miterlimit="10"/>
<path d="M73.5373 32.852H70.5958V24.7874L70.6251 23.4625L70.673 22.0122C70.1832 22.5027 69.8451 22.8226 69.6535 22.9746L68.0536 24.2622L66.6348 22.4894L71.1175 18.9143H73.5346V32.852H73.5373Z" fill="white"/>
<path d="M81.7045 18.7305C83.0382 18.7305 84.1109 19.0344 84.9282 19.6422C85.7427 20.2501 86.1527 21.0685 86.1527 22.0976C86.1527 22.8094 85.9557 23.4439 85.5617 23.9984C85.1677 24.5556 84.5342 25.0515 83.6584 25.4914C84.6992 26.0512 85.4473 26.6351 85.8998 27.2403C86.3523 27.8481 86.5813 28.5146 86.5813 29.2371C86.5813 30.3808 86.134 31.3005 85.2396 31.9964C84.3452 32.6922 83.1659 33.0414 81.7072 33.0414C80.1845 33.0414 78.9866 32.7162 78.1188 32.0683C77.2484 31.4205 76.8145 30.5007 76.8145 29.3144C76.8145 28.5199 77.0248 27.8134 77.448 27.1976C77.8686 26.5818 78.5474 26.0379 79.4818 25.5687C78.6885 25.0675 78.1162 24.529 77.7674 23.9558C77.4187 23.3853 77.243 22.7588 77.243 22.0789C77.243 21.0819 77.6556 20.2741 78.4809 19.6582C79.3034 19.0397 80.3788 18.7305 81.7045 18.7305ZM79.535 29.1438C79.535 29.6903 79.7267 30.1168 80.1047 30.4208C80.4853 30.7274 81.0071 30.8793 81.6672 30.8793C82.3966 30.8793 82.9423 30.722 83.3044 30.4074C83.6664 30.0928 83.8474 29.677 83.8474 29.1624C83.8474 28.7359 83.6664 28.3386 83.3097 27.9654C82.9503 27.5948 82.37 27.1976 81.5634 26.779C80.2111 27.4029 79.535 28.1893 79.535 29.1438ZM81.6859 20.8872C81.1854 20.8872 80.7808 21.0152 80.472 21.2738C80.1632 21.5324 80.0115 21.8763 80.0115 22.3082C80.0115 22.6894 80.1339 23.0307 80.3788 23.3319C80.6237 23.6332 81.0656 23.9424 81.7072 24.2624C82.3301 23.9691 82.764 23.6705 83.0115 23.3666C83.2591 23.0627 83.3816 22.7081 83.3816 22.3082C83.3816 21.871 83.2218 21.5244 82.9051 21.2685C82.5856 21.0152 82.181 20.8872 81.6859 20.8872Z" fill="white"/>
<path d="M210.269 17.355C206.795 17.355 203.971 20.1836 203.971 23.6627C203.971 26.9098 209.087 32.9643 209.67 33.6467L210.269 34.3426L210.865 33.6467C211.448 32.9669 216.565 26.9125 216.565 23.6627C216.567 20.1836 213.743 17.355 210.269 17.355ZM210.269 31.8979C208.549 29.7811 205.547 25.6622 205.547 23.6627C205.547 21.0554 207.663 18.9332 210.269 18.9332C212.872 18.9332 214.991 21.0554 214.991 23.6627C214.991 25.6595 211.986 29.7811 210.269 31.8979Z" fill="#9AC7F7"/>
<path d="M210.253 20.4822C208.515 20.4822 207.102 21.8978 207.102 23.6387C207.102 25.3796 208.515 26.7952 210.253 26.7952C211.992 26.7952 213.405 25.3796 213.405 23.6387C213.405 21.8978 211.992 20.4822 210.253 20.4822ZM210.253 25.2169C209.386 25.2169 208.677 24.5105 208.677 23.6387C208.677 22.7669 209.386 22.0604 210.253 22.0604C211.124 22.0604 211.829 22.7669 211.829 23.6387C211.829 24.5078 211.124 25.2169 210.253 25.2169Z" fill="#9AC7F7"/>
<path d="M190.575 34.5346C195.359 34.5346 199.248 30.6369 199.248 25.8488C199.248 21.0581 195.359 17.1631 190.575 17.1631C185.791 17.1631 181.902 21.0581 181.902 25.8488C181.902 30.6369 185.791 34.5346 190.575 34.5346ZM190.575 18.7387C194.488 18.7387 197.672 21.9272 197.672 25.8462C197.672 29.7651 194.488 32.9537 190.575 32.9537C186.662 32.9537 183.478 29.7651 183.478 25.8462C183.478 21.9272 186.662 18.7387 190.575 18.7387Z" fill="#9AC7F7"/>
<path d="M194.281 28.4455L191.36 25.5209V20.325H189.787V26.1741L193.168 29.5599L194.281 28.4455Z" fill="#9AC7F7"/>
<defs>
<clipPath id="clip0_615_9919">
<rect width="16.5463" height="16.5711" fill="white" transform="translate(68.2461 99.1616)"/>
</clipPath>
</defs>
</svg>
