<svg width="60" height="61" viewBox="0 0 60 61" fill="none" xmlns="http://www.w3.org/2000/svg">
<circle cx="30" cy="30.9905" r="30" fill="white"/>
<path d="M30.7168 30.2465L35.1088 24.8225V23.1905H24.0208V25.2785H32.1088L27.8848 30.4625V32.1425H29.2288C32.1088 32.1425 33.3808 33.2945 33.3808 35.0705C33.3808 36.8945 31.9408 38.0465 29.4208 38.0465C27.3568 38.0465 25.4848 37.3025 24.3568 36.2465L23.2528 38.1425C24.6688 39.4145 27.0208 40.1825 29.4208 40.1825C33.6928 40.1825 35.7808 37.8785 35.7808 35.0465C35.7808 32.4545 34.0768 30.5585 30.7168 30.2465Z" fill="#D48F3F"/>
<rect x="11" y="11.9905" width="38" height="38" rx="19" stroke="#D48F3F" stroke-width="2"/>
</svg>
