<svg width="313" height="250" viewBox="0 0 313 250" fill="none" xmlns="http://www.w3.org/2000/svg">
<rect width="312" height="250" fill="#FBFBFE"/>
<mask id="mask0_577_1091" style="mask-type:alpha" maskUnits="userSpaceOnUse" x="0" y="0" width="312" height="250">
<rect width="312" height="250" fill="#FBFBFE"/>
</mask>
<g mask="url(#mask0_577_1091)">
</g>
<g clip-path="url(#clip0_577_1091)">
<path d="M313 212.514H1V212.669H313V212.514Z" fill="#EBEBEB"/>
<path d="M281.737 222.514H261.07V222.67H281.737V222.514Z" fill="#EBEBEB"/>
<path d="M207.681 224.205H202.259V224.36H207.681V224.205Z" fill="#EBEBEB"/>
<path d="M260.447 216.746H248.473V216.902H260.447V216.746Z" fill="#EBEBEB"/>
<path d="M60.6859 217.791H33.7354V217.946H60.6859V217.791Z" fill="#EBEBEB"/>
<path d="M70.195 217.791H66.2451V217.946H70.195V217.791Z" fill="#EBEBEB"/>
<path d="M141.493 220.413H83.0371V220.569H141.493V220.413Z" fill="#EBEBEB"/>
<path d="M148.894 184.795H28.4058C26.4402 184.795 24.8428 183.203 24.8428 181.246V12.5488C24.8428 10.5911 26.4402 9 28.4058 9H148.9C150.866 9 152.463 10.5911 152.463 12.5488V181.246C152.457 183.203 150.86 184.795 148.894 184.795ZM28.4058 9.15538C26.5276 9.15538 24.9988 10.6781 24.9988 12.5488V181.246C24.9988 183.116 26.5276 184.639 28.4058 184.639H148.9C150.778 184.639 152.307 183.116 152.307 181.246V12.5488C152.307 10.6781 150.778 9.15538 148.9 9.15538H28.4058Z" fill="#EBEBEB"/>
<path d="M283.865 184.795H163.371C161.405 184.795 159.808 183.203 159.808 181.246V12.5488C159.808 10.5911 161.405 9 163.371 9H283.865C285.831 9 287.428 10.5911 287.428 12.5488V181.246C287.428 183.203 285.831 184.795 283.865 184.795ZM163.371 9.15538C161.492 9.15538 159.964 10.6781 159.964 12.5488V181.246C159.964 183.116 161.492 184.639 163.371 184.639H283.865C285.743 184.639 287.272 183.116 287.272 181.246V12.5488C287.272 10.6781 285.743 9.15538 283.865 9.15538H163.371Z" fill="#EBEBEB"/>
<g opacity="0.2">
<path d="M126.043 45.781H44.6484V49.9451H126.043V45.781Z" fill="#7F34BB"/>
<path d="M51.9806 30.4296H48.3926V45.7809H51.9806V30.4296Z" fill="#A55DDE"/>
<path d="M69.3214 30.4296H65.7334V45.7809H69.3214V30.4296Z" fill="#A55DDE"/>
<path d="M89.0047 30.0491L85.4688 30.6559L88.0858 45.7846L91.6218 45.1778L89.0047 30.0491Z" fill="#A55DDE"/>
<path d="M56.423 32.4496H52.835V45.781H56.423V32.4496Z" fill="#A55DDE"/>
<path d="M64.6661 32.4496H61.0781V45.781H64.6661V32.4496Z" fill="#A55DDE"/>
<path d="M85.4708 32.4496H81.8828V45.781H85.4708V32.4496Z" fill="#A55DDE"/>
<path d="M74.0299 31.9904L70.5273 32.7655L73.4305 45.7796L76.9331 45.0045L74.0299 31.9904Z" fill="#A55DDE"/>
<path d="M59.5243 29.6652H57.7334V45.781H59.5243V29.6652Z" fill="#A55DDE"/>
<path d="M80.8534 29.6652H79.0625V45.781H80.8534V29.6652Z" fill="#A55DDE"/>
<path d="M118.231 33.6304H100.759V45.6442H118.231V33.6304Z" fill="#A55DDE"/>
</g>
<g opacity="0.2">
<path d="M44.6455 81.0417L126.04 81.0417V76.8776L44.6455 76.8776V81.0417Z" fill="#7F34BB"/>
<path d="M118.705 76.874H122.293V61.5227H118.705V76.874Z" fill="#A55DDE"/>
<path d="M101.368 76.874H104.956V61.5227H101.368V76.874Z" fill="#A55DDE"/>
<path d="M79.0588 76.2697L82.5947 76.8765L85.2118 61.7477L81.6758 61.1409L79.0588 76.2697Z" fill="#A55DDE"/>
<path d="M114.262 76.8774H117.85V63.546H114.262V76.8774Z" fill="#A55DDE"/>
<path d="M106.02 76.8774H109.608V63.546H106.02V76.8774Z" fill="#A55DDE"/>
<path d="M85.2167 76.8774H88.8047V63.546H85.2167V76.8774Z" fill="#A55DDE"/>
<path d="M93.7523 76.1023L97.2549 76.8774L100.158 63.8633L96.6554 63.0882L93.7523 76.1023Z" fill="#A55DDE"/>
<path d="M111.165 76.8763H112.956V60.7605H111.165V76.8763Z" fill="#A55DDE"/>
<path d="M89.8361 76.8763H91.627V60.7605H89.8361V76.8763Z" fill="#A55DDE"/>
<path d="M52.4606 76.7372H69.9326V64.7234H52.4606V76.7372Z" fill="#A55DDE"/>
</g>
<path d="M267.298 31.3059H185.604V121.344H267.298V31.3059Z" fill="#E9E9E9"/>
<path opacity="0.2" d="M263.916 34.8734H189.198V117.963H263.916V34.8734Z" fill="#A55DDE"/>
<path d="M210.314 34.8734L189.198 113.644V70.9957L198.864 34.8734H210.314Z" fill="white"/>
<path d="M219.755 34.8734L197.485 117.963H193.285L215.556 34.8734H219.755Z" fill="white"/>
<path d="M263.915 57.5337V100.182L259.185 117.963H247.729L263.915 57.5337Z" fill="white"/>
<path d="M227.899 31.3059H224.997V121.344H227.899V31.3059Z" fill="#E9E9E9"/>
<path d="M265.725 49.5782H187.02V52.4683H265.725V49.5782Z" fill="#E9E9E9"/>
<path d="M277.825 168.902C276.702 167.063 274.855 168.66 274.855 168.66C275.117 165.13 271.86 162.718 271.86 162.718C271.86 162.718 275.647 162.718 276.178 159.12C276.708 155.521 274.855 157.193 273.12 157.168C271.386 157.143 269.57 162.196 271.86 165.03C274.15 167.871 273.532 172.718 268.253 177.38C266.961 178.517 266.088 180.034 265.495 181.668C265.894 177.386 266.119 171.351 264.852 167.324C262.706 160.481 266.799 158.641 267.985 155.217C269.177 151.792 264.852 148.902 264.852 148.902C264.852 148.902 268.915 147.062 266.93 144.956C264.946 142.849 260.852 143.134 260.852 145.888C260.852 148.641 263.629 149.691 263.629 149.691C263.629 149.691 266.799 152.979 266.799 154.695C266.799 156.404 263.629 160.089 263.629 160.089C263.629 160.089 265.083 156.938 262.175 156.802C259.267 156.665 258.344 160.481 259.536 162.196C260.728 163.905 262.706 162.457 262.706 162.457C262.706 162.457 262.937 166.143 263.617 168.38C263.916 169.362 263.773 173.222 263.523 177.237C262.937 175.789 262.107 174.459 260.952 173.433C255.667 168.772 255.055 163.924 257.346 161.084C259.636 158.243 257.82 153.197 256.085 153.222C254.35 153.246 252.497 151.568 253.027 155.173C253.558 158.772 257.346 158.772 257.346 158.772C257.346 158.772 254.082 161.189 254.35 164.713C254.35 164.713 252.503 163.11 251.38 164.956C249.377 168.244 254.02 170.282 254.806 168.666C254.806 168.666 264.659 175.615 262.281 185.615L262.837 186.429C262.768 187.237 262.718 187.722 262.718 187.722L263.492 187.392L264.372 188.679C264.328 191.177 264.596 193.023 264.596 193.023L266.955 189.561C264.578 179.561 274.431 172.613 274.431 172.613C275.179 174.235 279.828 172.19 277.825 168.902Z" fill="#A55DDE"/>
<path opacity="0.2" d="M277.825 168.902C276.702 167.063 274.855 168.66 274.855 168.66C275.117 165.13 271.86 162.718 271.86 162.718C271.86 162.718 275.647 162.718 276.178 159.12C276.708 155.521 274.855 157.193 273.12 157.168C271.386 157.143 269.57 162.196 271.86 165.03C274.15 167.871 273.532 172.718 268.253 177.38C266.961 178.517 266.088 180.034 265.495 181.668C265.894 177.386 266.119 171.351 264.852 167.324C262.706 160.481 266.799 158.641 267.985 155.217C269.177 151.792 264.852 148.902 264.852 148.902C264.852 148.902 268.915 147.062 266.93 144.956C264.946 142.849 260.852 143.134 260.852 145.888C260.852 148.641 263.629 149.691 263.629 149.691C263.629 149.691 266.799 152.979 266.799 154.695C266.799 156.404 263.629 160.089 263.629 160.089C263.629 160.089 265.083 156.938 262.175 156.802C259.267 156.665 258.344 160.481 259.536 162.196C260.728 163.905 262.706 162.457 262.706 162.457C262.706 162.457 262.937 166.143 263.617 168.38C263.916 169.362 263.773 173.222 263.523 177.237C262.937 175.789 262.107 174.459 260.952 173.433C255.667 168.772 255.055 163.924 257.346 161.084C259.636 158.243 257.82 153.197 256.085 153.222C254.35 153.246 252.497 151.568 253.027 155.173C253.558 158.772 257.346 158.772 257.346 158.772C257.346 158.772 254.082 161.189 254.35 164.713C254.35 164.713 252.503 163.11 251.38 164.956C249.377 168.244 254.02 170.282 254.806 168.666C254.806 168.666 264.659 175.615 262.281 185.615L262.837 186.429C262.768 187.237 262.718 187.722 262.718 187.722L263.492 187.392L264.372 188.679C264.328 191.177 264.596 193.023 264.596 193.023L266.955 189.561C264.578 179.561 274.431 172.613 274.431 172.613C275.179 174.235 279.828 172.19 277.825 168.902Z" fill="#A55DDE"/>
<path d="M275.897 211.563H253.32L250.887 186.951H278.33L275.897 211.563Z" fill="#171E4A"/>
<path d="M279.535 184.235H249.683V189.667H279.535V184.235Z" fill="#F0F0F0"/>
<path d="M157 240.581C223.82 240.581 277.987 237.431 277.987 233.546C277.987 229.66 223.82 226.51 157 226.51C90.1806 226.51 36.0127 229.66 36.0127 233.546C36.0127 237.431 90.1806 240.581 157 240.581Z" fill="#F5F5F5"/>
<path d="M42.4682 232.694H152.305L152.305 95.4646H42.4682L42.4682 232.694Z" fill="#FAAE55"/>
<path opacity="0.5" d="M152.364 95.4647H42.4648V232.34H152.364V95.4647Z" fill="white"/>
<path opacity="0.2" d="M149.056 99.7717H61.9521V125.049H149.056V99.7717Z" fill="#C0741A"/>
<path opacity="0.5" d="M66.9005 103.861H61.9521V125.049H66.9005V103.861Z" fill="#A55DDE"/>
<path opacity="0.5" d="M90.8243 103.861H85.876V125.049H90.8243V103.861Z" fill="#A55DDE"/>
<path opacity="0.5" d="M117.985 103.344L113.108 104.18L116.72 125.061L121.597 124.224L117.985 103.344Z" fill="#A55DDE"/>
<path opacity="0.5" d="M73.0284 106.658H68.0801V125.055H73.0284V106.658Z" fill="#A55DDE"/>
<path opacity="0.5" d="M84.4034 106.658H79.4551V125.055H84.4034V106.658Z" fill="#A55DDE"/>
<path opacity="0.5" d="M113.114 106.658H108.166V125.055H113.114V106.658Z" fill="#A55DDE"/>
<path opacity="0.5" d="M97.3247 106.027L92.4941 107.096L96.5004 125.055L101.331 123.986L97.3247 106.027Z" fill="#A55DDE"/>
<path opacity="0.5" d="M77.3089 102.811H74.8379V125.049H77.3089V102.811Z" fill="#A55DDE"/>
<path opacity="0.5" d="M106.737 102.811H104.266V125.049H106.737V102.811Z" fill="#A55DDE"/>
<path opacity="0.2" d="M61.9505 154.335H149.055V129.059H61.9505V154.335Z" fill="#C0741A"/>
<path opacity="0.5" d="M144.106 154.332H149.055V133.145H144.106V154.332Z" fill="#A55DDE"/>
<path opacity="0.5" d="M120.179 154.332H125.127V133.145H120.179V154.332Z" fill="#A55DDE"/>
<path opacity="0.5" d="M89.3969 153.497L94.2734 154.334L97.8854 133.454L93.0089 132.617L89.3969 153.497Z" fill="#A55DDE"/>
<path opacity="0.5" d="M137.978 154.333H142.927V135.937H137.978V154.333Z" fill="#A55DDE"/>
<path opacity="0.5" d="M126.601 154.333H131.55V135.937H126.601V154.333Z" fill="#A55DDE"/>
<path opacity="0.5" d="M97.8964 154.333H102.845V135.937H97.8964V154.333Z" fill="#A55DDE"/>
<path opacity="0.5" d="M109.674 153.264L114.505 154.333L118.511 136.374L113.681 135.305L109.674 153.264Z" fill="#A55DDE"/>
<path opacity="0.5" d="M133.698 154.331H136.169V132.093H133.698V154.331Z" fill="#A55DDE"/>
<path opacity="0.5" d="M104.27 154.331H106.741V132.093H104.27V154.331Z" fill="#A55DDE"/>
<path opacity="0.5" d="M66.9005 133.147H61.9521V154.334H66.9005V133.147Z" fill="#A55DDE"/>
<path opacity="0.5" d="M73.0274 135.938H68.0791V154.334H73.0274V135.938Z" fill="#A55DDE"/>
<path opacity="0.5" d="M84.4034 135.938H79.4551V154.334H84.4034V135.938Z" fill="#A55DDE"/>
<path opacity="0.5" d="M77.3089 132.097H74.8379V154.334H77.3089V132.097Z" fill="#A55DDE"/>
<path opacity="0.2" d="M149.057 158.337H61.9531V183.614H149.057V158.337Z" fill="#C0741A"/>
<g opacity="0.5">
<path d="M116.896 162.426H111.947V183.614H116.896V162.426Z" fill="#A55DDE"/>
<path d="M144.055 161.911L139.179 162.748L142.791 183.628L147.667 182.791L144.055 161.911Z" fill="#A55DDE"/>
<path d="M99.0997 165.217H94.1514V183.614H99.0997V165.217Z" fill="#A55DDE"/>
<path d="M110.475 165.217H105.526V183.614H110.475V165.217Z" fill="#A55DDE"/>
<path d="M139.179 165.217H134.23V183.614H139.179V165.217Z" fill="#A55DDE"/>
<path d="M123.395 164.593L118.564 165.662L122.571 183.621L127.401 182.552L123.395 164.593Z" fill="#A55DDE"/>
<path d="M103.373 161.376H100.902V183.614H103.373V161.376Z" fill="#A55DDE"/>
<path d="M132.808 161.376H130.337V183.614H132.808V161.376Z" fill="#A55DDE"/>
<path d="M87.1256 161.909L82.249 162.746L85.861 183.626L90.7376 182.789L87.1256 161.909Z" fill="#A55DDE"/>
<path d="M82.2511 165.217H77.3027V183.614H82.2511V165.217Z" fill="#A55DDE"/>
<path d="M66.4673 164.592L61.6367 165.661L65.6429 183.62L70.4735 182.551L66.4673 164.592Z" fill="#A55DDE"/>
<path d="M75.8802 161.376H73.4092V183.614H75.8802V161.376Z" fill="#A55DDE"/>
</g>
<path opacity="0.2" d="M42.4728 232.694H58.6406L58.6406 95.4646H42.4728L42.4728 232.694Z" fill="#FAAE55"/>
<path opacity="0.1" d="M148.407 188.101H107.18V226.989H148.407V188.101Z" fill="#C0741A"/>
<path opacity="0.1" d="M103.891 188.101H61.9521V226.989H103.891V188.101Z" fill="#C0741A"/>
<path opacity="0.2" d="M101.383 205.572C101.383 206.659 100.497 207.548 99.3984 207.548C98.3064 207.548 97.4141 206.665 97.4141 205.572C97.4141 204.478 98.3001 203.595 99.3984 203.595C100.497 203.595 101.383 204.478 101.383 205.572Z" fill="#7F34BB"/>
<path opacity="0.2" d="M113.239 205.572C113.239 206.659 112.353 207.548 111.255 207.548C110.163 207.548 109.271 206.665 109.271 205.572C109.271 204.478 110.157 203.595 111.255 203.595C112.353 203.595 113.239 204.478 113.239 205.572Z" fill="#7F34BB"/>
<path d="M225.043 108.69H217.018L219.158 131.556L206.479 133.451V135.043H233.186V133.451L227.713 131.556L225.043 108.69Z" fill="#263238"/>
<path d="M193.911 123.203C193.767 124.738 194.897 125.981 196.425 125.981H244.966C246.508 125.981 247.868 124.738 248.005 123.203L250.888 92.2514C250.919 91.9345 250.894 91.6299 250.826 91.3502C250.551 90.2626 249.59 89.4733 248.373 89.4733H199.833C198.291 89.4733 196.931 90.7163 196.794 92.2514L193.911 123.203Z" fill="#263238"/>
<path d="M244.966 124.421C245.703 124.421 246.383 123.793 246.451 123.06L249.334 92.1085C249.347 91.9656 249.341 91.8413 249.309 91.7294C249.203 91.3006 248.841 91.0333 248.373 91.0333H199.832C199.096 91.0333 198.416 91.661 198.347 92.3944L195.464 123.346C195.439 123.65 195.521 123.93 195.701 124.129C195.826 124.266 196.051 124.427 196.419 124.427H244.966V124.421Z" fill="#A55DDE"/>
<path opacity="0.6" d="M244.966 124.421C245.703 124.421 246.383 123.793 246.451 123.06L249.334 92.1085C249.347 91.9656 249.341 91.8413 249.309 91.7294C249.203 91.3006 248.841 91.0333 248.373 91.0333H199.832C199.096 91.0333 198.416 91.661 198.347 92.3944L195.464 123.346C195.439 123.65 195.521 123.93 195.701 124.129C195.826 124.266 196.051 124.427 196.419 124.427H244.966V124.421Z" fill="white"/>
<path d="M211.233 116.229C211.233 116.229 210.247 98.9264 214.521 94.9799C218.802 91.027 224.574 92.1706 227.613 94.2838C230.652 96.3969 234.028 101.891 230.983 118.2L211.233 116.229Z" fill="#171E4A"/>
<path d="M230.889 124.421C230.895 124.396 230.901 124.371 230.913 124.34C231.282 123.159 231.693 121.885 232.149 120.518C232.492 119.48 232.86 118.38 233.272 117.218C230.826 116.441 228.336 115.838 225.809 115.421C223.145 114.949 220.443 114.669 217.735 114.576C214.234 114.551 210.215 114.943 210.215 114.943C210.215 114.943 209.641 115.08 209.286 118.778C209.161 120.108 209.036 121.954 208.974 124.427H230.889V124.421Z" fill="#A55DDE"/>
<path d="M230.889 124.421C230.895 124.396 230.901 124.371 230.914 124.34C231.282 123.159 231.694 121.885 232.149 120.518C232.492 119.48 232.861 118.38 233.272 117.218C230.826 116.441 228.337 115.838 225.809 115.421C223.145 114.949 220.443 114.669 217.735 114.576C214.234 114.551 210.216 114.943 210.216 114.943C210.216 114.943 209.642 115.08 209.286 118.778C209.174 119.971 209.074 121.898 209.018 124.427H230.889V124.421Z" fill="#A55DDE"/>
<path d="M230.889 124.421C230.895 124.396 230.901 124.371 230.913 124.34C231.282 123.159 231.693 121.885 232.149 120.518C232.492 119.48 232.86 118.38 233.272 117.218C230.826 116.441 228.336 115.838 225.809 115.421C223.145 114.949 220.443 114.669 217.735 114.576C214.234 114.551 210.215 114.943 210.215 114.943C210.215 114.943 209.641 115.08 209.286 118.778C209.161 120.108 209.036 121.954 208.974 124.427H230.889V124.421Z" fill="#7F34BB"/>
<path d="M230.889 124.421C230.895 124.396 230.901 124.371 230.914 124.34C231.282 123.159 231.694 121.885 232.149 120.518C232.492 119.48 232.861 118.38 233.272 117.218C230.826 116.441 228.337 115.838 225.809 115.421C223.145 114.949 220.443 114.669 217.735 114.576C214.234 114.551 210.216 114.943 210.216 114.943C210.216 114.943 209.642 115.08 209.286 118.778C209.174 119.971 209.074 121.898 209.018 124.427H230.889V124.421Z" fill="#7F34BB"/>
<path d="M209.835 124.421L209.523 119.287L209.255 114.943C208.181 115.148 205.33 120.02 202.952 124.421H209.835Z" fill="#A55DDE"/>
<path opacity="0.2" d="M209.835 124.421L209.523 119.287C208.893 120.02 207.445 121.866 206.347 124.421H209.835Z" fill="black"/>
<path d="M236.367 124.421C234.458 118.865 233.278 117.224 233.278 117.224L230.714 124.421H236.367Z" fill="#A55DDE"/>
<path d="M219.213 118.535C223.644 117.97 224.979 116.086 224.979 116.086C222.165 113.445 224.505 108.864 224.505 108.864L219.17 109.859C219.307 110.735 219.369 111.475 219.376 112.096C219.413 115.322 217.953 115.353 217.953 115.353C217.017 117.093 219.213 118.535 219.213 118.535Z" fill="#EEC1BB"/>
<path opacity="0.2" d="M219.17 109.853C219.307 110.729 219.37 111.469 219.376 112.09C222.983 112.09 224.505 108.858 224.505 108.858L219.17 109.853Z" fill="black"/>
<path d="M222.115 94.9922C217.478 94.7374 215.85 97.1302 215.244 101.872C214.496 107.802 215.588 112.096 221.453 111.145C229.428 109.853 229.821 95.4148 222.115 94.9922Z" fill="#EEC1BB"/>
<path d="M218.259 101.779C218.259 101.779 217.547 102.954 216.805 103.619C216.805 103.619 217.167 104.271 217.997 104.209L218.259 101.779Z" fill="#D4827D"/>
<path d="M221.341 98.3671C221.341 98.3671 222.651 98.2677 223.313 99.1751" stroke="#263238" stroke-width="0.7247" stroke-miterlimit="10" stroke-linecap="round" stroke-linejoin="round"/>
<path d="M217.984 97.9878C217.984 97.9878 217.179 97.6398 216.112 98.2675" stroke="#263238" stroke-width="0.7247" stroke-miterlimit="10" stroke-linecap="round" stroke-linejoin="round"/>
<path d="M218.576 106.068C218.813 106.639 219.032 107.702 219.032 107.702C219.132 107.702 219.231 107.696 219.331 107.69C220.692 107.628 221.297 107.149 221.559 106.646C221.702 106.366 221.74 106.074 221.74 105.838C221.74 105.564 221.677 105.371 221.677 105.371C220.979 105.831 219.718 105.987 219.038 106.043C218.757 106.061 218.576 106.068 218.576 106.068Z" fill="#263238"/>
<path d="M219.038 106.036L219.182 106.515C220.461 106.453 221.353 106.242 221.734 105.831C221.734 105.558 221.671 105.365 221.671 105.365C220.979 105.825 219.712 105.981 219.038 106.036Z" fill="white"/>
<path d="M219.326 107.69C220.686 107.628 221.292 107.149 221.554 106.646C221.092 106.683 220.537 106.782 220.062 107.012C219.701 107.18 219.476 107.435 219.326 107.69Z" fill="#DE5753"/>
<path d="M226.757 103.053C226.757 103.053 224.798 99.1377 225.284 96.2291C225.284 96.2291 216.299 91.9903 215.332 101.257C215.332 101.257 214.889 92.9537 222.869 93.2085C230.838 93.4571 230.183 105.079 225.871 108.311C225.877 108.311 227.968 105.502 226.757 103.053Z" fill="#263238"/>
<path d="M225.946 103.992C226.021 103.252 226.857 102.034 228.236 102.258C229.665 102.494 230.189 105.471 226.576 105.981C226.058 106.055 225.796 105.539 225.946 103.992Z" fill="#EEC1BB"/>
<path d="M220.155 101.599C220.155 101.599 221.297 100.598 222.177 101.419C222.177 101.412 220.817 101.661 220.155 101.599Z" fill="#263238"/>
<path d="M217.966 101.537C217.966 101.537 216.923 100.43 215.969 101.164C215.969 101.164 217.304 101.543 217.966 101.537Z" fill="#263238"/>
<path d="M229.092 116.577C229.092 116.577 223.887 120.785 219.039 120.717C214.19 120.648 212.493 115.223 212.493 115.223C212.493 115.223 220.006 113.004 229.092 116.577Z" fill="#EEC1BB"/>
<path d="M231.65 124.421C232.118 121.922 232.661 119.455 233.272 117.224L228.648 115.782C228.648 115.782 226.67 119.312 225.622 124.421H231.65Z" fill="#A55DDE"/>
<path d="M212.374 124.421C212.93 119.871 212.967 114.576 212.967 114.576L209.254 114.943C208.337 117.423 207.85 120.86 207.613 124.421H212.374Z" fill="#A55DDE"/>
<path d="M220.155 93.9357C215.581 94.3583 214.646 98.5659 214.646 98.5659C215.931 97.702 217.578 97.5218 219.163 97.6399C219.55 96.7884 220.155 95.9618 220.155 95.9618C219.881 96.4031 219.712 97.0929 219.613 97.6772C220.505 97.7766 221.36 97.9568 222.102 98.1557C222.445 97.4472 222.963 96.8879 222.963 96.8879C222.776 97.3416 222.701 97.8761 222.676 98.3173C223.775 98.6467 224.505 98.9699 224.505 98.9699C224.648 97.4969 225.909 95.7753 225.909 95.7753C225.909 95.7753 224.736 93.513 220.155 93.9357Z" fill="#263238"/>
<path d="M226.802 105.272C226.79 105.253 226.771 105.229 226.758 105.21C226.627 104.992 226.596 104.725 226.627 104.47C226.696 103.93 227.501 102.6 228.137 103.37C228.293 103.563 228.331 103.824 228.325 104.066C228.312 104.402 228.219 104.738 228.056 105.03C227.913 105.284 227.688 105.527 227.401 105.552C227.17 105.583 226.939 105.459 226.802 105.272Z" fill="#A55DDE"/>
<path d="M226.802 105.272C226.79 105.253 226.771 105.229 226.758 105.21C226.627 104.992 226.596 104.725 226.627 104.47C226.696 103.93 227.501 102.6 228.137 103.37C228.293 103.563 228.331 103.824 228.325 104.066C228.312 104.402 228.219 104.738 228.056 105.03C227.913 105.284 227.688 105.527 227.401 105.552C227.17 105.583 226.939 105.459 226.802 105.272Z" fill="#7F34BB"/>
<path d="M226.876 104.421C226.876 104.421 227.432 103.252 227.8 103.47C228.168 103.687 228.031 104.731 227.669 104.912C227.307 105.098 227.182 105.496 227.182 105.496C227.182 105.496 225.641 107.367 225.235 107.168V106.646C225.242 106.639 226.477 105.738 226.876 104.421Z" fill="#A55DDE"/>
<path d="M217.055 234.739H220.88L227.75 139.492H222.677L217.055 234.739Z" fill="#171E4A"/>
<path opacity="0.4" d="M217.055 234.739H220.88L227.413 144.228L227.75 139.648H222.677L222.402 144.228L217.055 234.739Z" fill="#171E4A"/>
<path opacity="0.2" d="M222.402 143.998H227.413L227.75 139.648H222.677L222.402 143.998Z" fill="#171E4A"/>
<path d="M188.999 234.739H192.824L193.448 139.492H188.375L188.999 234.739Z" fill="#171E4A"/>
<path opacity="0.5" d="M188.375 139.648L188.475 155.018L188.999 234.739H192.824L193.348 155.018L193.448 139.648H188.375Z" fill="#171E4A"/>
<path opacity="0.2" d="M188.375 139.648L188.475 155.186H193.348L193.448 139.648H188.375Z" fill="#171E4A"/>
<path d="M148.414 234.739H152.239L159.109 139.492H154.036L148.414 234.739Z" fill="#263238"/>
<path opacity="0.5" d="M148.414 234.739H152.239L158.772 144.228L159.109 139.648H154.036L153.762 144.228L148.414 234.739Z" fill="white"/>
<path opacity="0.2" d="M153.762 143.998H158.772L159.109 139.648H154.036L153.762 143.998Z" fill="black"/>
<path d="M260.79 234.739H264.609L258.993 139.492H253.92L260.79 234.739Z" fill="#171E4A"/>
<path opacity="0.5" d="M253.92 139.648L254.257 144.228L260.79 234.739H264.609L259.268 144.228L258.993 139.648H253.92Z" fill="#171E4A"/>
<path opacity="0.2" d="M258.993 139.648H253.92L254.257 143.998H259.268L258.993 139.648Z" fill="#171E4A"/>
<path d="M151.365 141.879H261.664C262.406 141.879 263.012 141.276 263.012 140.537V137.112H150.018V140.537C150.018 141.276 150.617 141.879 151.365 141.879Z" fill="#A55DDE"/>
<path opacity="0.6" d="M151.365 141.879H261.664C262.406 141.879 263.012 141.276 263.012 140.537V137.112H150.018V140.537C150.018 141.276 150.617 141.879 151.365 141.879Z" fill="white"/>
<path opacity="0.2" d="M150.015 139.492H263.009V137.105H150.015V139.492Z" fill="black"/>
<path d="M147.647 137.734H265.383C266.126 137.734 266.731 137.131 266.731 136.391C266.731 135.652 266.126 135.049 265.383 135.049H147.647C146.904 135.049 146.299 135.652 146.299 136.391C146.299 137.131 146.904 137.734 147.647 137.734Z" fill="#A55DDE"/>
<path opacity="0.6" d="M147.647 137.734H265.383C266.126 137.734 266.731 137.131 266.731 136.391C266.731 135.652 266.126 135.049 265.383 135.049H147.647C146.904 135.049 146.299 135.652 146.299 136.391C146.299 137.131 146.904 137.734 147.647 137.734Z" fill="white"/>
<path d="M217.098 135.042L216.48 132.724H191.177L179.527 133.886L179.084 135.042H217.098Z" fill="#263238"/>
<path opacity="0.4" d="M191.177 132.724V135.042H217.098L216.48 132.724H191.177Z" fill="black"/>
<path d="M263.817 131.661C263.817 133.886 263.193 135.042 263.193 135.042H236.367V134.408H236.91V128.908H236.367V128.274H263.193C263.193 128.274 263.817 129.467 263.817 131.661Z" fill="#263238"/>
<path opacity="0.2" d="M263.817 131.661C263.817 133.886 263.193 135.042 263.193 135.042H236.367V134.408H236.91V128.908H236.367V128.274H263.193C263.193 128.274 263.817 129.467 263.817 131.661Z" fill="white"/>
<path opacity="0.2" d="M249.465 131.661C249.465 133.886 248.841 135.042 248.841 135.042H236.367V134.408H236.91V128.908H236.367V128.274H248.841C248.841 128.274 249.465 129.467 249.465 131.661Z" fill="black"/>
<path opacity="0.8" d="M248.142 131.661C248.142 133.47 247.637 134.408 247.637 134.408H236.91V128.908H247.637C247.637 128.908 248.142 129.878 248.142 131.661Z" fill="white"/>
<path opacity="0.6" d="M259.449 131.661C259.449 133.886 258.825 135.042 258.825 135.042H253.833C253.833 135.042 254.457 133.886 254.457 131.661C254.457 129.467 253.833 128.274 253.833 128.274H258.825C258.825 128.274 259.449 129.467 259.449 131.661Z" fill="white"/>
<path d="M266.207 124.893C266.207 127.118 265.583 128.274 265.583 128.274H238.757V127.64H239.3V122.14H238.757V121.506H265.583C265.583 121.506 266.207 122.699 266.207 124.893Z" fill="#A55DDE"/>
<path opacity="0.2" d="M251.855 124.893C251.855 127.118 251.231 128.274 251.231 128.274H238.757V127.64H239.3V122.14H238.757V121.506H251.231C251.231 121.506 251.855 122.699 251.855 124.893Z" fill="black"/>
<path opacity="0.8" d="M250.532 124.893C250.532 126.702 250.026 127.64 250.026 127.64H239.3V122.14H250.026C250.026 122.14 250.532 123.109 250.532 124.893Z" fill="white"/>
<path opacity="0.2" d="M261.839 124.893C261.839 127.118 261.215 128.274 261.215 128.274H256.223C256.223 128.274 256.847 127.118 256.847 124.893C256.847 122.699 256.223 121.506 256.223 121.506H261.215C261.215 121.506 261.839 122.699 261.839 124.893Z" fill="black"/>
<path d="M217.453 76.9188H198.69C197.647 76.9188 196.799 76.0736 196.799 75.0357V56.3468C196.799 55.3027 197.647 54.4636 198.69 54.4636H217.453C218.495 54.4636 219.344 55.3089 219.344 56.3468V75.0357C219.35 76.0736 218.502 76.9188 217.453 76.9188Z" fill="#A55DDE"/>
<path d="M205.491 74.9238C205.491 74.9238 206.646 81.2508 215.038 84.1036C215.038 84.1036 210.265 79.5168 210.265 74.9238H205.491Z" fill="#A55DDE"/>
<path d="M202.97 61.4805H213.178" stroke="white" stroke-width="2" stroke-miterlimit="10"/>
<path d="M206.364 59.0255C206.364 59.0255 205.478 64.7621 209.022 70.1692L206.364 59.0255Z" fill="#A55DDE"/>
<path d="M206.364 59.0255C206.364 59.0255 205.478 64.7621 209.022 70.1692" stroke="white" stroke-width="2" stroke-miterlimit="10"/>
<path d="M210.471 69.4731C210.471 69.4731 213.179 69.0194 212.505 66.5582C211.906 64.3767 205.84 63.2083 204.299 67.0119C203.114 69.9268 205.978 69.4482 207.65 68.5284C210.558 66.9311 211.157 63.2828 211.157 63.2828" fill="#A55DDE"/>
<path d="M210.471 69.4731C210.471 69.4731 213.179 69.0194 212.505 66.5582C211.906 64.3767 205.84 63.2083 204.299 67.0119C203.114 69.9268 205.978 69.4482 207.65 68.5284C210.558 66.9311 211.157 63.2828 211.157 63.2828" stroke="white" stroke-width="2" stroke-miterlimit="10"/>
<path d="M160.863 74.9238C160.863 74.9238 162.018 81.2508 170.41 84.1036C170.41 84.1036 165.637 79.5168 165.637 74.9238H160.863Z" fill="#FAAE55"/>
<path opacity="0.6" d="M160.863 74.9238C160.863 74.9238 162.018 81.2508 170.41 84.1036C170.41 84.1036 165.637 79.5168 165.637 74.9238H160.863Z" fill="white"/>
<path d="M172.844 76.9188H154.08C153.038 76.9188 152.189 76.0736 152.189 75.0357V56.3468C152.189 55.3027 153.038 54.4636 154.08 54.4636H172.844C173.886 54.4636 174.735 55.3089 174.735 56.3468V75.0357C174.735 76.0736 173.886 76.9188 172.844 76.9188Z" fill="#FAAE55"/>
<path opacity="0.6" d="M172.844 76.9188H154.08C153.038 76.9188 152.189 76.0736 152.189 75.0357V56.3468C152.189 55.3027 153.038 54.4636 154.08 54.4636H172.844C173.886 54.4636 174.735 55.3089 174.735 56.3468V75.0357C174.735 76.0736 173.886 76.9188 172.844 76.9188Z" fill="white"/>
<path d="M165.756 69.4732L164.994 67.3414H162.043L161.281 69.4732H159.597L162.748 60.6415H164.283L167.434 69.4732H165.756ZM163.515 63.1959L162.604 65.7814H164.439L163.515 63.1959Z" fill="#FAAE55"/>
<path d="M218.582 124.371L210.882 131.475L211.949 132.339L219.406 125.241C219.649 125.011 219.655 124.62 219.412 124.384C219.181 124.154 218.819 124.147 218.582 124.371Z" fill="#407BFF"/>
<path d="M207.743 130.145L212.267 128.094C212.267 128.094 216.055 127.392 217.615 127.74C219.181 128.094 222.632 132.768 222.551 133.34C222.47 133.911 216.56 135.304 216.429 135.304C216.298 135.304 213.734 133.855 213.734 133.855L209.553 135.304L207.743 130.145Z" fill="#E4897B"/>
<path d="M168.562 228.387L173.53 227.71L174.222 215.938L169.255 216.622L168.562 228.387Z" fill="#EBB376"/>
<path opacity="0.2" d="M169.255 216.622L174.222 215.945L173.823 222.669L168.868 223.104L169.255 216.622Z" fill="black"/>
<path d="M168.762 159.201L167.552 151.631L139.684 149.971C139.684 149.971 136.72 165.72 138.997 169.915C143.059 177.405 164.968 173.626 171.377 174.359C167.545 189.965 167.92 220.463 167.92 220.463L177.074 221.159C177.074 221.159 184.119 188.294 185.541 172.681C186.496 162.147 177.735 162.408 168.762 159.201Z" fill="#FAAE55"/>
<path d="M166.841 220.892L177.842 221.619L178.784 216.927L166.697 216.361L166.841 220.892Z" fill="#407BFF"/>
<path d="M166.841 220.892L177.842 221.619L178.784 216.927L166.697 216.361L166.841 220.892Z" fill="#C0741A"/>
<path d="M173.904 227.113L168.288 226.765C168.094 226.747 167.92 226.883 167.895 227.082V227.088L167.346 231.501C167.314 231.986 167.683 232.402 168.163 232.433C170.122 232.52 171.065 232.471 173.536 232.601C175.052 232.694 178.041 233.011 180.138 232.812C182.228 232.614 181.972 230.556 181.067 230.457C178.921 230.215 176.088 228.642 174.746 227.455C174.515 227.25 174.216 227.126 173.904 227.113Z" fill="#A55DDE"/>
<path d="M180.025 228.344L185.03 228.711L188.169 217.343L183.17 216.983L180.025 228.344Z" fill="#EBB376"/>
<path d="M185.728 228.934C185.734 228.947 185.734 228.965 185.741 228.972C185.753 228.978 185.766 228.978 185.784 228.978C186.171 229.195 186.583 229.369 187.007 229.5C187.319 229.624 187.669 229.63 187.981 229.512C188.193 229.394 188.311 229.164 188.293 228.928C188.305 228.779 188.243 228.63 188.124 228.537C187.837 228.325 187.244 228.387 186.72 228.499C187.101 228.189 187.438 227.797 187.457 227.486C187.469 227.281 187.35 227.095 187.151 227.033C186.982 226.964 186.814 226.97 186.645 227.057C186.04 227.387 185.803 228.785 185.784 228.86H185.872L185.784 228.866C185.784 228.872 185.703 228.872 185.703 228.878C185.709 228.897 185.716 228.916 185.728 228.934ZM186.096 228.655C186.053 228.667 186.021 228.68 185.984 228.692C186.102 228.232 186.352 227.48 186.72 227.287C186.801 227.238 186.901 227.225 186.989 227.25L187.045 227.269C187.201 227.331 187.219 227.424 187.213 227.492C187.17 227.822 186.589 228.381 186.096 228.655ZM186.115 228.909C186.776 228.711 187.694 228.53 187.974 228.742C188.037 228.785 188.068 228.86 188.056 228.934C188.062 229.083 187.987 229.226 187.862 229.313C187.575 229.469 186.932 229.32 186.115 228.909Z" fill="#407BFF"/>
<path opacity="0.2" d="M183.17 216.983L188.169 217.349L186.371 223.844L181.436 223.241L183.17 216.983Z" fill="black"/>
<path d="M189.859 223.042L181.048 220.463C181.048 220.463 186.309 190.892 191.644 180.637C191.244 180.506 190.714 180.338 190.059 180.146C188.88 179.791 187.313 179.35 185.472 178.84C172.668 175.304 146.716 168.672 146.716 168.672L158.572 157.653C158.572 157.653 205.796 164.825 206.776 177.218C207.244 183.179 189.859 223.042 189.859 223.042Z" fill="#FAAE55"/>
<path d="M179.913 220.656L190.521 223.645L192.424 219.251L180.718 216.2L179.913 220.656Z" fill="#407BFF"/>
<path d="M179.913 220.656L190.521 223.645L192.424 219.251L180.718 216.2L179.913 220.656Z" fill="#C0741A"/>
<path d="M185.522 228.201L180.1 226.697C179.913 226.635 179.713 226.734 179.651 226.921V226.927L178.19 231.128C178.059 231.594 178.328 232.079 178.796 232.21C180.693 232.707 181.629 232.844 184.019 233.49C185.485 233.894 188.343 234.826 190.427 235.062C192.517 235.299 192.698 233.235 191.831 232.949C189.784 232.266 187.338 230.146 186.271 228.698C186.09 228.462 185.822 228.288 185.522 228.201Z" fill="#A55DDE"/>
<path d="M174.028 227.722C174.028 227.729 174.134 227.729 174.134 227.735C174.141 227.753 174.247 227.772 174.259 227.784C174.265 227.797 174.265 227.809 174.278 227.822C174.29 227.828 174.309 227.822 174.322 227.816C174.746 227.946 175.183 228.033 175.626 228.07C175.956 228.126 176.293 228.064 176.58 227.884C176.761 227.722 176.83 227.474 176.761 227.244C176.743 227.095 176.649 226.964 176.512 226.896C176.187 226.747 175.613 226.933 175.12 227.151C175.432 226.765 175.657 226.318 175.613 226.007C175.582 225.802 175.395 225.646 175.189 225.628C175.008 225.597 174.771 225.64 174.634 225.758C174.109 226.206 174.028 227.617 174.028 227.704C174.028 227.71 174.028 227.716 174.028 227.722C174.028 227.716 174.028 227.716 174.028 227.722ZM174.565 227.43C174.528 227.449 174.496 227.467 174.465 227.486C174.484 227.014 174.571 226.224 174.889 225.957C174.958 225.895 175.052 225.858 175.145 225.864L175.201 225.87C175.364 225.901 175.407 225.982 175.414 226.05C175.432 226.399 174.989 227.064 174.565 227.43ZM174.634 227.679C175.239 227.349 176.094 226.983 176.418 227.132C176.487 227.163 176.531 227.231 176.537 227.3C176.574 227.443 176.531 227.598 176.424 227.71C176.181 227.921 175.52 227.909 174.634 227.679Z" fill="#407BFF"/>
<path d="M189.129 101.083C189.011 101.35 188.886 101.605 188.742 101.854C187.912 103.333 186.677 104.452 185.26 105.148C184.892 105.334 184.505 105.49 184.112 105.614C182.041 106.273 179.738 106.074 177.841 104.837C177.061 104.34 176.343 103.662 175.744 102.798C173.361 99.4174 174.003 96.0923 174.64 90.3744C174.758 89.1438 175.158 87.9505 175.825 86.9125C178.147 83.2394 183.02 82.1393 186.702 84.4451C191.887 87.6521 191.226 96.1979 189.129 101.083Z" fill="#E4897B"/>
<path opacity="0.2" d="M185.26 105.148C184.892 105.334 184.505 105.49 184.112 105.614C182.04 106.273 179.738 106.074 177.841 104.837C178.427 103.812 179.182 103.091 179.182 103.091C179.182 103.091 182.664 103.14 185.26 105.148Z" fill="black"/>
<path d="M170.222 106.664C171.208 110.356 177.56 113.321 177.56 113.321C177.56 113.321 181.847 114.676 181.822 113.047C179.906 111.313 179.513 109.641 179.912 108.094C180.143 107.193 180.655 106.329 181.279 105.508C181.603 105.073 181.972 104.663 182.346 104.259L178.583 94.29C177.248 98.4044 174.209 105.614 170.222 106.664Z" fill="#E4897B"/>
<path d="M188.318 88.5721C188.318 88.5721 189.927 93.973 184.368 97.8513C184.368 97.8513 182.028 102.842 180.73 103.457C179.426 104.073 176.48 103.706 175.482 103.457C174.483 103.209 169.36 98.97 170.839 89.0009C172.318 79.0319 180.723 82.1892 180.723 82.1892C180.723 82.1892 183.594 79.7155 188.929 82.792C193.391 85.3527 192.517 90.1694 188.318 88.5721Z" fill="#263238"/>
<path d="M183.612 95.2719C183.743 96.5584 184.267 97.5777 185.079 98.106C186.152 98.7897 187.188 97.2918 187.312 95.564C187.412 94.0289 186.988 91.7728 185.703 91.8474C184.411 91.922 183.469 93.6871 183.612 95.2719Z" fill="#E4897B"/>
<path d="M189.005 113.874C189.005 113.874 181.117 105.073 170.578 105.981C160.039 106.888 149.48 114.999 144.226 127.746C138.972 140.493 137.394 159.748 137.394 159.748C137.394 159.748 154.447 164.608 171.788 160.176C171.788 160.176 176.287 137.336 189.005 113.874Z" fill="#A55DDE"/>
<path d="M189.005 113.874C191.67 116.627 199.27 129.25 201.442 129.722C203.669 130.207 206.758 128.256 209.229 128.995C211.7 129.735 214.234 131.972 213.66 133.408C213.085 134.844 207.288 138.666 200.1 138.877C193.941 139.058 180.962 123.781 180.962 123.781C180.956 117.87 189.005 113.874 189.005 113.874Z" fill="#7F34BB"/>
<path d="M189.335 103.395L189.31 102.774C189.416 102.767 190.371 102.693 190.371 101.605C190.377 100.685 188.062 98.6841 186.602 97.6338L186.963 97.1304C187.375 97.4287 190.995 100.064 190.988 101.605C190.995 102.973 189.909 103.377 189.335 103.395Z" fill="#263238"/>
<path d="M188.973 95.0608C188.973 97.6338 187.469 99.7221 185.609 99.7221C183.75 99.7221 182.246 97.6338 182.246 95.0608C182.246 92.4877 183.75 90.3994 185.609 90.3994C187.469 90.3994 188.973 92.4877 188.973 95.0608Z" fill="#407BFF"/>
<path opacity="0.2" d="M188.973 95.0608C188.973 97.6338 187.469 99.7221 185.609 99.7221C183.75 99.7221 182.246 97.6338 182.246 95.0608C182.246 92.4877 183.75 90.3994 185.609 90.3994C187.469 90.3994 188.973 92.4877 188.973 95.0608Z" fill="black"/>
<path d="M186.789 98.131C188.013 98.131 189.005 96.7564 189.005 95.0607C189.005 93.3651 188.013 91.9905 186.789 91.9905C185.566 91.9905 184.574 93.3651 184.574 95.0607C184.574 96.7564 185.566 98.131 186.789 98.131Z" fill="#407BFF"/>
<path d="M187.844 92.8295C187.844 92.8295 188.018 79.3924 177.841 81.7169C177.841 81.7169 185.435 82.6305 185.928 93.2024L187.844 92.8295Z" fill="#407BFF"/>
<path d="M189.659 103.507L189.135 103.594C188.96 103.625 188.798 103.507 188.767 103.339L188.717 103.053C188.686 102.879 188.804 102.718 188.973 102.687L189.497 102.6C189.672 102.569 189.834 102.687 189.865 102.855L189.915 103.14C189.946 103.314 189.828 103.476 189.659 103.507Z" fill="#263238"/>
<path d="M174.672 171.979H132.914C131.192 171.979 129.794 173.371 129.794 175.087V179.245H177.792V175.087C177.792 173.371 176.401 171.979 174.672 171.979Z" fill="#FAAE55"/>
<path opacity="0.3" d="M174.672 171.979H132.914C131.192 171.979 129.794 173.371 129.794 175.087V179.245H177.792V175.087C177.792 173.371 176.401 171.979 174.672 171.979Z" fill="black"/>
<path d="M124.865 144.154H142.025C147.048 144.154 151.122 140.096 151.122 135.092V128.411C151.122 123.408 147.048 119.349 142.025 119.349H124.865C119.841 119.349 115.767 123.408 115.767 128.411V135.092C115.767 140.096 119.841 144.154 124.865 144.154Z" fill="#FAAE55"/>
<g opacity="0.3">
<path d="M124.865 144.154H142.025C147.048 144.154 151.122 140.096 151.122 135.092V128.411C151.122 123.408 147.048 119.349 142.025 119.349H124.865C119.841 119.349 115.767 123.408 115.767 128.411V135.092C115.767 140.096 119.841 144.154 124.865 144.154Z" fill="black"/>
</g>
<path d="M131.622 220.606L149.6 218.847V193.682H156.726V218.841L174.778 220.606C176.569 220.78 177.936 222.284 177.936 224.074V226.765H153.862H152.539H128.465V224.074C128.465 222.284 129.831 220.78 131.622 220.606Z" fill="#263238"/>
<path opacity="0.2" d="M131.622 220.606L149.6 218.847V193.682H156.726V218.841L174.778 220.606C176.569 220.78 177.936 222.284 177.936 224.074V226.765H153.862H152.539H128.465V224.074C128.465 222.284 129.831 220.78 131.622 220.606Z" fill="white"/>
<path d="M176.791 234.679C179.332 234.268 181.058 231.883 180.645 229.352C180.233 226.821 177.839 225.102 175.297 225.513C172.756 225.924 171.031 228.309 171.443 230.84C171.855 233.371 174.25 235.09 176.791 234.679Z" fill="#263238"/>
<path d="M133.659 233.38C135.48 231.567 135.48 228.628 133.659 226.815C131.839 225.002 128.888 225.001 127.067 226.815C125.247 228.628 125.247 231.567 127.067 233.38C128.888 235.193 131.839 235.193 133.659 233.38Z" fill="#263238"/>
<path d="M150.954 199.089H155.378C156.801 199.089 157.955 197.94 157.955 196.523V176.678H148.377V196.523C148.377 197.94 149.531 199.089 150.954 199.089Z" fill="#263238"/>
<path opacity="0.3" d="M150.954 199.089H155.378C156.801 199.089 157.955 197.94 157.955 196.523V176.678H148.377V196.523C148.377 197.94 149.531 199.089 150.954 199.089Z" fill="white"/>
<path d="M136.134 137.336C136.134 137.336 134.774 170.898 144.159 176.672H133.451C133.451 176.672 125.152 165.236 127.498 137.336H136.134Z" fill="#263238"/>
<path opacity="0.3" d="M136.134 137.336C136.134 137.336 134.774 170.898 144.159 176.672H133.451C133.451 176.672 125.152 165.236 127.498 137.336H136.134Z" fill="white"/>
<path d="M178.541 175.615H129.051C128.358 175.615 127.797 176.174 127.797 176.864V177.995C127.797 178.685 128.358 179.245 129.051 179.245H178.541C179.233 179.245 179.795 178.685 179.795 177.995V176.864C179.795 176.174 179.233 175.615 178.541 175.615Z" fill="#263238"/>
<path opacity="0.6" d="M178.541 175.615H129.051C128.358 175.615 127.797 176.174 127.797 176.864V177.995C127.797 178.685 128.358 179.245 129.051 179.245H178.541C179.233 179.245 179.795 178.685 179.795 177.995V176.864C179.795 176.174 179.233 175.615 178.541 175.615Z" fill="white"/>
<path d="M126.58 126.882H136.271C139.11 126.882 141.413 129.176 141.413 132.003V135.776C141.413 138.604 139.11 140.897 136.271 140.897H126.58C123.741 140.897 121.438 138.604 121.438 135.776V132.003C121.438 129.176 123.741 126.882 126.58 126.882Z" fill="#263238"/>
<path opacity="0.2" d="M126.58 126.882H136.271C139.11 126.882 141.413 129.176 141.413 132.003V135.776C141.413 138.604 139.11 140.897 136.271 140.897H126.58C123.741 140.897 121.438 138.604 121.438 135.776V132.003C121.438 129.176 123.741 126.882 126.58 126.882Z" fill="white"/>
</g>
<defs>
<clipPath id="clip0_577_1091">
<rect width="312" height="231.581" fill="white" transform="translate(1 9)"/>
</clipPath>
</defs>
</svg>
