<svg width="291" height="251" viewBox="0 0 291 251" fill="none" xmlns="http://www.w3.org/2000/svg">
<g clip-path="url(#clip0_979_1400)">
<path d="M68.6895 50.1766C76.8576 51.8741 85.1677 52.35 93.3642 51.2349C105.993 49.5231 122.698 44.7359 134.318 31.9156C155.356 8.70403 193.462 -14.6993 217.491 14.8834C241.526 44.466 233.124 78.0972 255.511 85.626C277.899 93.1477 300.116 120.614 283.581 156.568C263.786 199.631 225.225 171.426 246.938 224.498C258.04 251.637 185.77 255.501 150.058 236.331C117.329 218.766 85.0682 265.018 54.3847 235.386C23.7011 205.754 70.5575 169.232 47.2465 149.33C23.9355 129.428 6.49845 117.226 17.607 81.7693C25.9385 55.1768 56.0964 47.5628 68.6824 50.1766H68.6895Z" fill="#F5F8FF"/>
<path d="M272.629 249.883C270.555 246.374 265.391 233.241 287.864 212.906C288.589 212.253 289.747 212.657 289.896 213.623C290.911 220.35 292.382 240.976 274.249 250.344C273.673 250.642 272.963 250.444 272.636 249.883H272.629Z" fill="#E1ECFA"/>
<path d="M288.049 216.315C288.049 216.315 285.492 225.968 280.385 233.646C275.278 241.324 273.56 250.096 273.56 250.096" fill="#E1ECFA"/>
<path d="M273.943 249.499C275.065 245.678 276.798 231.977 250.611 218.105C249.766 217.658 248.764 218.325 248.857 219.277C249.51 225.897 253.076 245.806 272.516 250.33C273.133 250.472 273.759 250.11 273.936 249.506L273.943 249.499Z" fill="#E1ECFA"/>
<path d="M251.257 221.387C251.257 221.387 256.001 229.924 262.692 235.975C269.383 242.027 273.119 249.932 273.119 249.932" fill="#E1ECFA"/>
<path d="M21.6131 250.074C24.1345 245.813 30.3991 229.86 3.11062 205.164C2.22989 204.369 0.823556 204.866 0.645989 206.038C-0.589877 214.206 -2.37265 239.257 19.6527 250.635C20.3559 250.998 21.2153 250.756 21.6131 250.074Z" fill="#E1ECFA"/>
<path d="M2.89062 209.312C2.89062 209.312 5.99449 221.039 12.1951 230.364C18.3958 239.697 20.4911 250.351 20.4911 250.351" fill="#E1ECFA"/>
<path d="M23.6301 249.946C22.5078 246.125 20.7748 232.424 46.9624 218.553C47.8076 218.105 48.809 218.773 48.7167 219.725C48.0633 226.344 44.4977 246.253 25.0577 250.777C24.4398 250.919 23.8147 250.557 23.6372 249.954L23.6301 249.946Z" fill="#E1ECFA"/>
<path d="M46.3093 221.834C46.3093 221.834 41.5647 230.371 34.874 236.423C28.1833 242.474 24.4473 250.38 24.4473 250.38" fill="#E1ECFA"/>
<path d="M217.427 172.804L228.066 153.648L238.706 134.492C239.978 132.205 243.145 132.205 244.417 134.492L255.057 153.648L265.696 172.804C266.968 175.091 265.377 177.947 262.841 177.947H254.083L253.764 245.791L228.926 244.939V177.947H220.289C217.753 177.947 216.162 175.091 217.434 172.804H217.427Z" fill="#E1ECFA"/>
<path d="M56.281 73.3526L66.9208 54.9282L77.5606 36.5039C78.832 34.3092 81.9998 34.3092 83.2712 36.5039L93.911 54.9282L104.551 73.3526C105.822 75.5473 104.231 78.296 101.696 78.296H93.0019L92.9095 230.194H67.8371V78.296H59.1434C56.6077 78.296 55.0167 75.5473 56.2881 73.3526H56.281Z" fill="#E1ECFA"/>
<path d="M111.213 150.019L121.852 130.863L132.492 111.707C133.764 109.42 136.931 109.42 138.203 111.707L148.843 130.863L159.482 150.019C160.754 152.306 159.163 155.161 156.627 155.161H147.87L147.422 250.145C147.422 252.305 142.692 247.773 140.618 247.773L127.456 246.985C125.383 246.985 122.712 251.672 122.712 249.513V155.161H114.075C111.539 155.161 109.948 152.306 111.22 150.019H111.213Z" fill="#E1ECFA"/>
<path d="M245.035 75.2277L245.567 57.7622L244.609 59.0975L243.941 75.2561L243.962 75.2703C241.952 75.9096 241.611 79.3899 241.554 80.711C241.54 80.9951 241.753 81.2437 242.03 81.2721L243.671 81.4568C243.948 81.4852 244.204 81.3005 244.26 81.0306L244.452 80.1002L244.914 81.3076C244.985 81.4994 245.155 81.6272 245.361 81.6556L246.299 81.7622C246.611 81.7977 246.888 81.5633 246.903 81.2579C246.981 79.745 246.981 75.7391 245.028 75.2277H245.035Z" fill="#FAAE55"/>
<path d="M198.101 17.4261L243.806 23.2787C244.516 23.3711 245.127 23.8186 245.426 24.472L263.985 64.7939C264.674 66.2926 263.424 67.9546 261.797 67.7131L217.711 61.1786C217.043 61.0792 216.468 60.6672 216.163 60.0635L195.984 20.4235C195.224 18.939 196.446 17.2131 198.101 17.419V17.4261Z" fill="#7F34BB"/>
<path d="M199.905 128.526H194.272V150.125H199.905V128.526Z" fill="#FAAE55"/>
<path d="M211.681 149.181H182.496C181.63 149.181 180.927 149.884 180.927 150.75V165.425C180.927 166.291 181.63 166.994 182.496 166.994H211.681C212.548 166.994 213.251 166.291 213.251 165.425V150.75C213.251 149.884 212.548 149.181 211.681 149.181Z" fill="#E19843"/>
<path d="M253.616 70.3411C248.409 61.4698 238.565 64.6376 233.998 66.7471L235.482 56.6684C235.965 53.4083 233.458 50.4678 230.163 50.4252L167.311 49.587C163.88 49.5444 161.146 52.4565 161.416 55.88L162.261 66.5766C157.552 64.4742 148.084 61.69 143.013 70.334C136.542 81.3573 152.466 112.531 171.949 104.647C173.895 106.849 176.125 108.788 178.59 110.407C178.647 110.443 178.689 110.471 178.746 110.507C179.251 110.805 182.12 112.467 183.789 113.199C183.882 113.241 183.967 113.284 184.059 113.334C189.095 116.324 195.636 121.246 194.507 126.097L200.068 126.069C200.068 126.069 198.257 119.03 209.103 114.548C209.813 114.314 211.277 113.746 211.603 113.618C211.646 113.603 211.688 113.582 211.731 113.568C216.497 111.529 220.695 108.355 223.962 104.342C243.771 113.312 260.171 81.5065 253.623 70.3411H253.616ZM149.377 74.1836C152.793 68.3594 158.908 69.5385 162.609 70.9732L163.753 85.4129C164.186 90.8536 165.933 95.9107 168.675 100.286C155.236 103.198 144.817 81.9539 149.37 74.1907L149.377 74.1836ZM226.924 100.009C228.813 96.6778 230.148 92.9631 230.738 88.9572L233.345 71.2502C236.931 69.716 243.622 67.9901 247.266 74.1836C251.939 82.1457 240.859 104.278 226.931 100.009H226.924Z" fill="#FAAE55"/>
<path d="M161.714 59.6231H234.736L234.339 64.4245H162.09L161.714 59.6231Z" fill="#E19843"/>
<path d="M202.838 126.104H191.353C190.969 126.104 190.657 126.416 190.657 126.8V130.259C190.657 130.644 190.969 130.955 191.353 130.955H202.838C203.223 130.955 203.534 130.644 203.534 130.259V126.8C203.534 126.416 203.223 126.104 202.838 126.104Z" fill="#E19843"/>
<path d="M212.299 31.6031L202.107 45.7658C201.226 46.9875 201.169 48.614 201.972 49.8925C205.381 55.326 215.673 69.297 232.762 72.1096C234.133 72.3369 235.518 71.7403 236.328 70.611L246.655 56.2494C247.458 55.1343 247.578 53.6711 246.968 52.4423C244.297 47.0656 235.497 32.91 215.801 30.0973C214.444 29.9055 213.102 30.4951 212.299 31.6102V31.6031Z" fill="#A55DDE"/>
<path d="M105.667 211.905L105.546 215.882L100.425 215.854L100.446 211.883L105.667 211.905Z" fill="#F3D6C1"/>
<path d="M100.425 215.854L105.432 215.875C105.51 215.875 105.581 215.882 105.652 215.903C106.37 216.074 110.439 217.104 114.026 219.085C114.921 219.575 114.552 220.939 113.536 220.939L101.391 220.882C100.844 220.882 100.403 220.435 100.403 219.888L100.425 215.861V215.854Z" fill="#A55DDE"/>
<path d="M68.4549 220.144L68.3271 224.121L63.2061 224.093L63.2274 220.122L68.4549 220.144Z" fill="#F3D6C1"/>
<path d="M63.2069 224.093L68.2142 224.114C68.2924 224.114 68.3634 224.121 68.4344 224.142C69.1518 224.313 73.2216 225.343 76.8085 227.324C77.7034 227.815 77.3341 229.178 76.3184 229.178L64.1728 229.121C63.6259 229.121 63.1855 228.674 63.1855 228.127L63.2069 224.1V224.093Z" fill="#A55DDE"/>
<path d="M77.4051 167.094L72.4617 192.969L62.5605 220.932C62.5605 220.932 62.0633 221.848 63.4342 222.282H68.818C68.818 222.282 69.5851 222.111 69.9331 221.451L81.0275 200.554L87.4483 179.538L102.208 190.724L98.9191 212.622C98.9191 212.622 98.9547 213.247 99.8283 213.247H105.816C105.816 213.247 106.455 213.062 106.604 212.423L112.364 188.288C112.364 188.288 112.365 188.267 112.372 188.26C112.4 188.174 112.507 187.713 111.633 186.647C110.66 185.461 97.6691 169.58 97.6691 169.58L77.398 167.108L77.4051 167.094Z" fill="#FAAE55"/>
<path d="M114.019 140.736L117.833 142.767L129.375 134.052C129.375 134.052 128.267 132.078 128.523 130.487C128.778 128.896 129.247 128.604 129.567 128.867C129.893 129.13 129.851 131.041 130.54 131.403C131.229 131.765 131.534 131.374 132.344 129.215C133.161 127.056 133.516 126.062 134.198 126.04C134.879 126.019 134.801 127.539 134.801 127.539C134.801 127.539 135.398 127.234 135.867 127.532C136.336 127.823 136.144 128.434 136.144 128.434C136.144 128.434 136.534 128.285 137.024 128.682C137.522 129.08 137.216 129.776 137.216 129.776C137.216 129.776 138.061 129.428 138.069 130.678C138.069 131.928 137.472 135.97 132.372 136.943C132.372 136.943 120.305 151.425 118.401 151.404C116.498 151.39 110.993 149.515 110.993 149.515L114.012 140.743L114.019 140.736Z" fill="#F3D6C1"/>
<path d="M78.9602 171.398H75.6078C75.4657 170.162 74.9969 168.23 73.5409 166.696C72.1062 165.183 70.0748 164.416 67.5178 164.416C63.1284 164.416 61.0189 166.781 60.0174 168.763C59.5415 169.708 59.2787 170.645 59.1296 171.398H55.6564C54.6194 171.398 53.7812 172.236 53.7812 173.273V187.542C53.7812 188.579 54.6194 189.417 55.6564 189.417H78.9673C80.0043 189.417 80.8424 188.579 80.8424 187.542V173.273C80.8424 172.236 80.0043 171.398 78.9673 171.398H78.9602ZM67.5107 166.945C69.3432 166.945 70.7495 167.442 71.6871 168.429C72.5678 169.345 72.9159 170.546 73.0508 171.405H61.6865C62.134 169.594 63.4764 166.952 67.5107 166.952V166.945Z" fill="#A55DDE"/>
<path d="M76.581 146.283L72.3479 147.164L69.0451 161.248C69.0451 161.248 71.1617 162.058 71.9785 163.443C72.8024 164.828 72.7953 166.071 72.3976 165.751C72.149 165.56 71.8009 165.375 71.3038 165.141C70.6361 164.828 70.281 164.395 69.8406 164.494C69.0806 164.658 68.3064 165.119 69.173 166.618C70.0111 168.074 72.2129 168.188 71.737 168.671C70.5225 169.899 69.3363 168.656 69.3363 168.656C69.3363 168.656 69.0309 169.345 68.484 169.416C67.9371 169.487 67.5749 168.564 67.5749 168.564C67.5749 168.564 67.2481 169.168 66.616 169.175C65.9839 169.182 65.7069 168.322 65.7069 168.322C65.7069 168.322 64.8687 169.345 64.0661 168.386C63.2635 167.428 61.6015 164.956 64.8971 160.95C64.8971 160.95 64.9114 142.099 66.3887 140.892C67.8661 139.685 73.2925 137.611 73.2925 137.611L76.581 146.283Z" fill="#F3D6C1"/>
<path d="M76.8077 168.017C79.5778 169.111 90.1394 172.911 98.7479 170.993C99.1243 170.908 99.3871 170.574 99.3942 170.19C99.4368 167.484 99.728 157.051 101.525 153.599C102.86 151.042 103.642 149.38 104.032 148.52C104.21 148.122 104.664 147.931 105.076 148.087L111.27 150.353C111.703 150.509 112.186 150.289 112.342 149.848L115.297 141.666C115.446 141.254 115.247 140.793 114.843 140.615C112.577 139.635 105.368 136.645 99.6215 135.785C92.7745 134.755 90.3383 127.454 71.8145 137.674C71.4807 137.859 71.3315 138.271 71.4807 138.619L74.6698 146.283C74.8403 146.702 75.3161 146.901 75.7352 146.745L81.0267 144.727C81.6659 144.486 82.3123 145.068 82.1276 145.729L76.3105 167.016C76.1969 167.428 76.41 167.854 76.8077 168.01V168.017Z" fill="#A55DDE"/>
<path d="M104.85 116.764C104.85 116.764 104.999 118.391 106.732 121.835C108.501 125.358 107.932 130.572 105.205 131.595C103.081 132.39 101.554 131.921 101.554 131.921L100.46 137.483L93.6489 134.812L94.3947 130.089L93.0381 119.428L104.85 116.764Z" fill="#F3D6C1"/>
<path d="M106.746 113.511C106.803 112.986 106.305 112.559 105.794 112.716C104.75 113.035 102.712 113.334 99.0466 112.843C92.0433 111.906 88.4352 117.965 88.4849 122.361C88.5275 126.125 92.5547 128.249 93.8261 129.826C94.1031 130.167 94.6145 130.174 94.9199 129.861C95.6444 129.123 96.653 128.022 96.6885 127.589C96.7382 126.907 94.7565 126.807 94.65 124.769C94.5435 122.73 97.2638 122.468 98.0451 124.037C98.8264 125.607 98.4641 120.166 99.9273 119.648C101.277 119.165 106.256 118.028 106.732 113.518L106.746 113.511Z" fill="#7F34BB"/>
<path d="M93.9251 133.74C93.9251 133.74 92.2489 137.845 96.4253 139.393C100.602 140.942 100.729 135.984 100.729 135.984L93.9251 133.74Z" fill="#F3D6C1"/>
<path d="M123.26 219.796C123.26 220.406 123.715 220.904 124.283 220.904H222.307C229.58 220.904 235.468 215.626 235.468 209.113V205.271C235.468 198.757 229.573 193.48 222.307 193.48H124.276C123.715 193.48 123.253 193.977 123.253 194.588V194.787C123.253 195.391 123.708 195.888 124.269 195.895H125.547L125.618 218.702H124.276C123.715 218.702 123.253 219.199 123.253 219.803L123.26 219.796Z" fill="#A55DDE"/>
<path d="M191.268 195.803L125.455 195.895L125.526 218.688H191.943C195.36 218.688 198.13 215.69 198.13 211.997V203.225C198.13 199.12 195.054 195.796 191.261 195.796L191.268 195.803Z" fill="#F9ECDC"/>
<path d="M214.835 208.339V206.038C214.835 205.355 214.282 204.802 213.599 204.802H204.145C203.463 204.802 202.91 205.355 202.91 206.038V208.339C202.91 209.022 203.463 209.575 204.145 209.575H213.599C214.282 209.575 214.835 209.022 214.835 208.339Z" fill="#E19843"/>
<path d="M194.464 199.354H125.625" stroke="#FAAE55" stroke-miterlimit="10" stroke-linecap="round"/>
<path d="M189.499 202.792H125.625" stroke="#FAAE55" stroke-miterlimit="10" stroke-linecap="round"/>
<path d="M194.464 209.014H125.625" stroke="#FAAE55" stroke-miterlimit="10" stroke-linecap="round"/>
<path d="M195.544 215.47H125.625" stroke="#FAAE55" stroke-miterlimit="10" stroke-linecap="round"/>
<path d="M262.777 249.13C262.777 249.783 262.045 250.316 261.143 250.316H104.224C92.5827 250.316 83.1504 244.641 83.1504 237.637V233.504C83.1504 226.5 92.5827 220.825 104.224 220.825H261.143C262.045 220.825 262.777 221.358 262.777 222.012V222.225C262.777 222.878 262.053 223.411 261.158 223.411L259.105 223.425L258.991 247.943H261.143C262.045 247.943 262.777 248.476 262.777 249.13Z" fill="#E19843"/>
<path d="M153.183 223.318L259.133 223.418L259.02 247.936H153.715C147.749 247.936 142.912 244.413 142.912 240.074V230.791C142.912 226.664 147.508 223.318 153.183 223.318Z" fill="#F9ECDC"/>
<path d="M127.45 229.562H124.005C123.009 229.562 122.201 230.369 122.201 231.366V241.651C122.201 242.647 123.009 243.455 124.005 243.455H127.45C128.446 243.455 129.254 242.647 129.254 241.651V231.366C129.254 230.369 128.446 229.562 127.45 229.562Z" fill="#A55DDE"/>
<path d="M116.646 229.626H113.202C112.205 229.626 111.397 230.433 111.397 231.43V241.714C111.397 242.711 112.205 243.519 113.202 243.519H116.646C117.643 243.519 118.45 242.711 118.45 241.714V231.43C118.45 230.433 117.643 229.626 116.646 229.626Z" fill="#A55DDE"/>
<path d="M154.724 227.14H258.991" stroke="#FAAE55" stroke-miterlimit="10" stroke-linecap="round"/>
<path d="M168.965 235.386H259.055" stroke="#FAAE55" stroke-miterlimit="10" stroke-linecap="round"/>
<path d="M146.329 238.476H258.992" stroke="#FAAE55" stroke-miterlimit="10" stroke-linecap="round"/>
<path d="M150.967 245.422H258.991" stroke="#FAAE55" stroke-miterlimit="10" stroke-linecap="round"/>
<path d="M242.556 192.642C242.556 193.239 242.116 193.722 241.569 193.722H146.578C139.532 193.722 133.821 188.579 133.821 182.23V178.486C133.821 172.144 139.532 166.994 146.578 166.994H241.562C242.109 166.994 242.549 167.477 242.549 168.074V168.266C242.549 168.855 242.109 169.338 241.569 169.345H240.326L240.255 191.57H241.562C242.109 191.57 242.549 192.052 242.549 192.649L242.556 192.642Z" fill="#FAAE55"/>
<path d="M176.217 169.26L240.354 169.352L240.283 191.562H176.544C172.928 191.562 170.002 188.373 170.002 184.438V176.029C170.002 172.293 172.786 169.26 176.217 169.26Z" fill="#F9ECDC"/>
<path d="M159.924 174.914H159.263C158.267 174.914 157.459 175.721 157.459 176.718V185.703C157.459 186.699 158.267 187.507 159.263 187.507H159.924C160.92 187.507 161.728 186.699 161.728 185.703V176.718C161.728 175.721 160.92 174.914 159.924 174.914Z" fill="#E19843"/>
<path d="M153.389 174.971H152.729C151.733 174.971 150.925 175.778 150.925 176.775V185.76C150.925 186.756 151.733 187.564 152.729 187.564H153.389C154.386 187.564 155.194 186.756 155.194 185.76V176.775C155.194 175.778 154.386 174.971 153.389 174.971Z" fill="#E19843"/>
<path d="M177.147 172.726H240.262" stroke="#FAAE55" stroke-miterlimit="10" stroke-linecap="round"/>
<path d="M185.771 180.191H240.305" stroke="#FAAE55" stroke-miterlimit="10" stroke-linecap="round"/>
<path d="M172.069 182.989H240.262" stroke="#FAAE55" stroke-miterlimit="10" stroke-linecap="round"/>
<path d="M174.875 189.282H240.262" stroke="#FAAE55" stroke-miterlimit="10" stroke-linecap="round"/>
<path d="M43.1982 249.776C43.1982 250.252 43.6386 250.642 44.1784 250.642H138.452C145.441 250.642 151.116 246.509 151.116 241.416V238.405C151.116 233.305 145.448 229.178 138.452 229.178H44.1784C43.6386 229.178 43.1982 229.569 43.1982 230.045V230.201C43.1982 230.677 43.6315 231.06 44.1713 231.068H45.4001L45.4711 248.924H44.1784C43.6386 248.924 43.1982 249.307 43.1982 249.79V249.776Z" fill="#FAAE55"/>
<path d="M108.614 230.996L45.4004 231.067L45.4714 248.909H109.268C112.549 248.909 115.205 246.566 115.205 243.668V236.799C115.205 233.589 112.251 230.982 108.607 230.982L108.614 230.996Z" fill="#F9ECDC"/>
<path d="M111.675 233.781H45.4707" stroke="#FAAE55" stroke-miterlimit="10" stroke-linecap="round"/>
<path d="M106.902 236.466H45.4707" stroke="#FAAE55" stroke-miterlimit="10" stroke-linecap="round"/>
<path d="M111.675 241.338H45.4707" stroke="#FAAE55" stroke-miterlimit="10" stroke-linecap="round"/>
<path d="M112.712 246.395H45.4707" stroke="#FAAE55" stroke-miterlimit="10" stroke-linecap="round"/>
<path d="M6.25781 250.635H286.707" stroke="#A55DDE" stroke-miterlimit="10" stroke-linecap="round"/>
</g>
<defs>
<clipPath id="clip0_979_1400">
<rect width="290.428" height="250" fill="white" transform="translate(0 0.99054)"/>
</clipPath>
</defs>
</svg>
