<svg width="312" height="251" viewBox="0 0 312 251" fill="none" xmlns="http://www.w3.org/2000/svg">
<mask id="mask0_615_5833" style="mask-type:alpha" maskUnits="userSpaceOnUse" x="0" y="0" width="312" height="251">
<rect y="0.990479" width="312" height="250" fill="#FBFBFE"/>
</mask>
<g mask="url(#mask0_615_5833)">
</g>
<g clip-path="url(#clip0_615_5833)">
<path d="M312 214.329H0V214.485H312V214.329Z" fill="#EBEBEB"/>
<path d="M280.737 224.369H260.07V224.525H280.737V224.369Z" fill="#EBEBEB"/>
<path d="M206.68 226.066H201.258V226.222H206.68V226.066Z" fill="#EBEBEB"/>
<path d="M259.447 218.578H247.473V218.734H259.447V218.578Z" fill="#EBEBEB"/>
<path d="M59.6849 219.627H32.7344V219.783H59.6849V219.627Z" fill="#EBEBEB"/>
<path d="M69.196 219.627H65.2461V219.783H69.196V219.627Z" fill="#EBEBEB"/>
<path d="M140.493 222.26H82.0371V222.416H140.493V222.26Z" fill="#EBEBEB"/>
<path d="M147.895 186.498H27.4068C25.4412 186.498 23.8438 184.901 23.8438 182.935V13.563C23.8438 11.5974 25.4412 10 27.4068 10H147.901C149.867 10 151.464 11.5974 151.464 13.563V182.935C151.458 184.901 149.861 186.498 147.895 186.498ZM27.4068 10.156C25.5285 10.156 23.9998 11.6848 23.9998 13.563V182.935C23.9998 184.814 25.5285 186.342 27.4068 186.342H147.901C149.779 186.342 151.308 184.814 151.308 182.935V13.563C151.308 11.6848 149.779 10.156 147.901 10.156H27.4068Z" fill="#EBEBEB"/>
<path d="M282.866 186.498H162.372C160.406 186.498 158.809 184.901 158.809 182.935V13.563C158.809 11.5974 160.406 10 162.372 10H282.866C284.832 10 286.429 11.5974 286.429 13.563V182.935C286.429 184.901 284.832 186.498 282.866 186.498ZM162.372 10.156C160.493 10.156 158.965 11.6848 158.965 13.563V182.935C158.965 184.814 160.493 186.342 162.372 186.342H282.866C284.744 186.342 286.273 184.814 286.273 182.935V13.563C286.273 11.6848 284.744 10.156 282.866 10.156H162.372Z" fill="#EBEBEB"/>
<path d="M37.9749 98.5663H83.7266L83.7266 22.9188H37.9749L37.9749 98.5663Z" fill="#F5F5F5"/>
<path d="M37.9712 22.9167H37.0664V98.5643H37.9712V22.9167Z" fill="#E0E0E0"/>
<path d="M42.617 95.2341H79.0898L79.0898 26.2447H42.617L42.617 95.2341Z" fill="#FAFAFA"/>
<path d="M94.5237 125.125H140.275V49.4775H94.5237V125.125Z" fill="#F5F5F5"/>
<path d="M94.5239 49.4742H93.6191V125.122H94.5239V49.4742Z" fill="#E0E0E0"/>
<path d="M99.1659 121.793H135.639V52.8034H99.1659V121.793Z" fill="#FAFAFA"/>
<path d="M65.0199 194.773C66.1555 174.199 63.1541 141.09 59.9031 129.639C59.4725 128.123 58.9795 126.357 58.2432 126.126C56.1154 125.452 55.1607 128.785 55.429 129.927C56.7019 135.461 57.8439 149.177 58.9858 173.045C59.5536 184.926 58.9733 193.063 60.5083 194.779L65.0199 194.773Z" fill="#E6E6E6"/>
<path d="M61.6378 148.884C64.6205 139.243 102.803 129.34 91.8082 139.711C89.0688 142.294 76.3143 149.102 71.0789 156.259C67.0104 161.819 62.8983 171.167 61.8125 176.358C61.3383 165.445 59.6535 155.311 61.6378 148.884Z" fill="#E6E6E6"/>
<path d="M65.9881 161.108C72.64 146.437 93.9184 143.804 88.1963 151.548C85.9499 154.587 77.7131 158.05 72.4715 165.214C68.403 170.773 64.2908 180.121 63.2051 185.313C62.7308 174.399 63.2113 167.235 65.9881 161.108Z" fill="#E6E6E6"/>
<path d="M57.6278 159.86C49.753 140.984 21.3048 139.486 28.8739 148.253C31.7506 151.586 41.8032 157.701 49.3973 165.576C55.3003 171.691 61.9522 181.825 64.2173 187.384C62.7509 175.84 60.804 167.473 57.6278 159.86Z" fill="#E6E6E6"/>
<path d="M60.9341 138.744C67.9853 125.814 89.3261 124.435 83.2359 131.505C80.846 134.282 73.0647 137.814 67.9853 144.759C64.0354 150.15 59.293 157.189 58.2385 162.218C57.7767 151.635 57.8079 144.472 60.9341 138.744Z" fill="#E6E6E6"/>
<path d="M54.7933 138.999C49.2273 130.968 24.2985 122.126 30.7943 129.408C37.6021 137.04 42.4381 135.723 48.8716 142.394C53.8698 147.573 59.5045 156.153 61.4202 160.864C60.1847 151.08 58.7745 144.74 54.7933 138.999Z" fill="#E6E6E6"/>
<path d="M61.4016 129.746C64.9272 123.393 79.5164 118.719 75.6912 123.593C73.0392 126.975 69.8568 129.296 66.4872 133.901C63.8664 137.477 60.3096 141.982 59.6108 145.314C59.3112 138.294 59.2988 133.527 61.4016 129.746Z" fill="#E6E6E6"/>
<path d="M55.6555 131.667C52.0987 127.73 33.0792 118.364 37.4222 124.379C39.1258 126.738 46.3829 132.497 51.275 137.564C55.0752 141.502 59.2435 144.703 60.6974 148.278C59.749 140.846 59.2186 135.605 55.6555 131.667Z" fill="#E6E6E6"/>
<path d="M60.528 145.508C55.3301 139.754 17.4346 132.341 27.1752 138.687C30.5136 140.859 45.1589 144.597 52.3037 151.997C57.8511 157.751 59.8479 167.279 61.9757 172.508C67.5792 163.329 65.7322 151.267 60.528 145.508Z" fill="#E6E6E6"/>
<path d="M54.038 193.943L54.5247 211.159C54.5808 214.422 55.3359 214.329 56.2594 214.329H68.5085C69.432 214.329 70.1933 214.429 70.2432 211.159L70.73 193.943C70.7861 190.398 69.9936 187.416 68.9952 187.416H55.7727C54.7743 187.409 53.9818 190.398 54.038 193.943Z" fill="#F5F5F5"/>
<path d="M53.3081 190.542H71.4603C71.7286 190.542 71.9533 190.373 71.9782 190.149L72.4088 186.854C72.44 186.592 72.2029 186.367 71.8909 186.367H52.8713C52.5593 186.367 52.316 186.598 52.3534 186.854L52.784 190.149C52.8152 190.373 53.0398 190.542 53.3081 190.542Z" fill="#F5F5F5"/>
<path d="M181.504 117.702H167.764V210.154H181.504V117.702Z" fill="#F0F0F0"/>
<path d="M274.56 210.16H170.402V214.329H274.56V210.16Z" fill="#F0F0F0"/>
<path d="M181.503 210.161H277.199V117.709L181.503 117.709V210.161Z" fill="#F5F5F5"/>
<path d="M180.081 114.071H166.035V117.709H180.081V114.071Z" fill="#F0F0F0"/>
<path d="M180.078 117.703L278.926 117.703V114.065L180.078 114.065V117.703Z" fill="#FAFAFA"/>
<path d="M272.191 161.357H186.516V125.409H272.191V161.357ZM187.302 160.571H271.411V126.195H187.302V160.571Z" fill="#E0E0E0"/>
<path d="M272.191 202.454H186.516V167.011H272.191V202.454ZM187.302 201.668H271.411V167.791H187.302V201.668Z" fill="#E0E0E0"/>
<path d="M246.032 132.479H212.666C211.855 132.479 211.188 131.811 211.188 131C211.188 130.189 211.855 129.521 212.666 129.521H246.032C246.843 129.521 247.511 130.189 247.511 131C247.511 131.811 246.849 132.479 246.032 132.479Z" fill="#E0E0E0"/>
<path d="M246.032 174.081H212.666C211.855 174.081 211.188 173.413 211.188 172.602C211.188 171.791 211.855 171.123 212.666 171.123H246.032C246.843 171.123 247.511 171.791 247.511 172.602C247.511 173.413 246.849 174.081 246.032 174.081Z" fill="#E0E0E0"/>
<path d="M224.896 114.033H264.583L267.803 78.6462H228.116L224.896 114.033Z" fill="#E6E6E6"/>
<path d="M223.549 114.033H263.235L266.455 78.6462H226.769L223.549 114.033Z" fill="#F0F0F0"/>
<path d="M259.671 110.115L262.18 82.5649H230.331L227.822 110.115H259.671Z" fill="white"/>
<path d="M215.706 88.1935L213.354 114.033H232.373L234.726 88.1935H215.706Z" fill="#E6E6E6"/>
<path d="M214.72 88.1935L212.367 114.033H231.393L233.739 88.1935H214.72Z" fill="#F0F0F0"/>
<path d="M217.321 91.0514L215.486 111.169H228.79L230.618 91.0514H217.321Z" fill="white"/>
<path d="M155.999 242.509C222.819 242.509 276.986 239.346 276.986 235.445C276.986 231.544 222.819 228.381 155.999 228.381C89.1796 228.381 35.0117 231.544 35.0117 235.445C35.0117 239.346 89.1796 242.509 155.999 242.509Z" fill="#F5F5F5"/>
<path d="M184.903 46.6725C182.488 40.5636 175.474 37.6432 169.403 40.3202C164.093 42.6664 161.203 49.4868 163.206 54.9343C164.261 57.8047 166.326 60.0012 168.841 61.2804C169.914 61.8232 170.857 62.597 171.499 63.6204L173.147 66.2537C174.258 68.0383 176.485 68.7684 178.438 68.0008L182.594 66.3597C184.547 65.586 185.67 63.533 185.271 61.4676L184.647 58.3039C184.429 57.1869 184.578 56.045 184.978 54.978C185.951 52.3884 186.001 49.4431 184.903 46.6725Z" fill="#FAAE55"/>
<path d="M178.976 73.2549C178.714 73.2549 178.452 73.1988 178.202 73.0927C177.728 72.8868 177.36 72.5061 177.167 72.0257C176.774 71.0335 177.266 69.9041 178.259 69.5109L183.769 67.3332C184.249 67.146 184.779 67.1522 185.254 67.3581C185.728 67.5641 186.096 67.9447 186.29 68.4252C186.477 68.9057 186.47 69.4298 186.265 69.9103C186.059 70.3845 185.678 70.7527 185.198 70.9461L179.688 73.1239C179.457 73.205 179.213 73.2549 178.976 73.2549ZM184.48 67.8199C184.318 67.8199 184.155 67.8511 183.999 67.9135L178.489 70.0913C177.816 70.3596 177.479 71.1271 177.747 71.801C177.878 72.1255 178.128 72.3813 178.446 72.5248C178.77 72.6684 179.126 72.6746 179.45 72.5436L184.96 70.3658C185.285 70.2348 185.541 69.9852 185.684 69.6669C185.828 69.3425 185.834 68.9868 185.703 68.6623C185.572 68.3378 185.322 68.082 185.004 67.9385C184.836 67.8573 184.655 67.8199 184.48 67.8199Z" fill="#263238"/>
<path d="M181.785 76.6058C181.623 76.6058 181.46 76.5746 181.304 76.506C181.005 76.3749 180.78 76.1378 180.662 75.8445L180.568 75.6012C180.325 74.9834 180.63 74.2783 181.248 74.0349L184.693 72.6746C185.31 72.4313 186.016 72.737 186.259 73.3548L186.353 73.5981C186.471 73.8977 186.465 74.2221 186.334 74.5217C186.203 74.8212 185.972 75.0458 185.672 75.1644L182.228 76.5247C182.078 76.5809 181.935 76.6058 181.785 76.6058ZM185.123 73.2113C185.055 73.2113 184.98 73.2237 184.911 73.2549L181.467 74.6153C181.167 74.7338 181.017 75.077 181.136 75.3765L181.229 75.6199C181.286 75.7634 181.398 75.882 181.541 75.9381C181.685 76.0005 181.847 76.0005 181.991 75.9444L185.435 74.5841C185.579 74.5279 185.691 74.4156 185.753 74.2721C185.816 74.1285 185.816 73.9725 185.76 73.8228L185.666 73.5794C185.579 73.3548 185.36 73.2113 185.123 73.2113Z" fill="#263238"/>
<path d="M171.544 57.736C170.608 57.736 169.729 57.1744 169.367 56.2571C168.892 55.059 169.485 53.6925 170.683 53.2182C171.888 52.744 173.248 53.3368 173.722 54.5349L174.583 56.7126L172.406 57.5738C172.119 57.6861 171.831 57.736 171.544 57.736ZM171.538 53.68C171.326 53.68 171.114 53.7174 170.908 53.7986C170.028 54.148 169.591 55.1464 169.941 56.0262C170.29 56.9061 171.289 57.3429 172.168 56.9934L173.766 56.3632L173.136 54.7658C172.874 54.0918 172.225 53.68 171.538 53.68Z" fill="white"/>
<path d="M178.447 68.2129L173.773 56.3632L178.073 54.6659L182.747 66.5157L182.166 66.7403L177.717 55.4771L174.578 56.7126L179.028 67.9821L178.447 68.2129Z" fill="white"/>
<path d="M177.716 55.4771L176.855 53.2994C176.381 52.1013 176.974 50.7347 178.172 50.2605C179.37 49.7862 180.736 50.379 181.21 51.5771C181.685 52.7752 181.092 54.1418 179.894 54.616L177.716 55.4771ZM179.033 50.7222C178.821 50.7222 178.608 50.7597 178.402 50.8408C177.523 51.1902 177.086 52.1886 177.435 53.0685L178.066 54.6659L179.663 54.0357C180.543 53.6862 180.98 52.6878 180.63 51.808C180.368 51.1341 179.719 50.7222 179.033 50.7222Z" fill="white"/>
<path d="M187.405 85.217C185.046 85.217 182.694 85.0235 180.41 84.6491L180.51 84.0314C182.756 84.4058 185.078 84.593 187.405 84.593V85.217Z" fill="#FAAE55"/>
<path d="M200.316 91.6755L200.646 91.0015C202.013 88.2185 201.87 84.9487 201.302 82.8521C198.937 83.707 196.422 84.3435 193.826 84.7366L193.733 84.1188C196.403 83.7132 198.98 83.0518 201.395 82.1532L201.707 82.0409L201.807 82.3591C202.431 84.3871 202.687 87.6694 201.514 90.6022C209.183 87.5508 217.189 76.7182 217.189 63.8139C217.189 52.351 203.829 43.0284 187.411 43.0284C170.994 43.0284 157.634 52.351 157.634 63.8139C157.634 72.1443 164.729 79.6447 175.705 82.927L175.524 83.526C164.274 80.1627 157.004 72.4251 157.004 63.8139C157.004 52.0078 170.645 42.4044 187.405 42.4044C204.172 42.4044 217.806 52.0078 217.806 63.8139C217.806 77.3796 209.095 88.7177 201.021 91.4446L200.316 91.6755Z" fill="#FAAE55"/>
<path d="M220.801 65.4736L200.01 69.1864C198.524 69.4547 197.095 68.4563 196.827 66.9712L194.612 54.5848C194.344 53.0997 195.342 51.6707 196.827 51.4024L217.619 47.6896C219.104 47.4213 220.533 48.4197 220.801 49.9048L223.016 62.2912C223.285 63.7763 222.286 65.2115 220.801 65.4736Z" fill="#FAAE55"/>
<path d="M212.633 57.7609L205.27 55.0964L206.649 62.8028L212.633 57.7609Z" fill="white"/>
<path d="M134.328 167.641H81.307C80.215 167.641 79.3164 166.749 79.3164 165.651V162.818C79.3164 161.726 80.2087 160.827 81.307 160.827H134.328C135.42 160.827 136.319 161.719 136.319 162.818V165.651C136.313 166.743 135.42 167.641 134.328 167.641Z" fill="#212957"/>
<path d="M133.724 231.701H135.303L133.487 167.641H131.297L133.724 231.701Z" fill="#212957"/>
<path opacity="0.3" d="M133.724 231.701H135.303L133.487 167.641H131.297L133.724 231.701Z" fill="white"/>
<path d="M119.165 231.701H117.586L119.408 167.641H121.592L119.165 231.701Z" fill="#212957"/>
<path opacity="0.3" d="M119.165 231.701H117.586L119.408 167.641H121.592L119.165 231.701Z" fill="white"/>
<path d="M96.4625 231.701H98.0412L96.2254 167.641H94.0352L96.4625 231.701Z" fill="#212957"/>
<path opacity="0.3" d="M96.4625 231.701H98.0412L96.2254 167.641H94.0352L96.4625 231.701Z" fill="white"/>
<path d="M81.9131 231.701H80.3281L82.1502 167.641H84.3342L81.9131 231.701Z" fill="#212957"/>
<path opacity="0.3" d="M81.9131 231.701H80.3281L82.1502 167.641H84.3342L81.9131 231.701Z" fill="white"/>
<path d="M150.577 215.421L156.205 213.511L151.582 200.37L145.953 202.279L150.577 215.421Z" fill="#FFC3BD"/>
<path d="M155.787 211.346L149.616 214.054C149.391 214.154 149.304 214.373 149.41 214.591L151.75 219.346C151.993 219.839 152.73 220.082 153.241 219.851C155.369 218.872 156.33 218.304 159.038 217.112C160.711 216.382 164.074 215.071 166.158 213.736C168.192 212.426 166.608 210.454 165.584 210.847C163.157 211.77 159.126 211.733 156.917 211.259C156.517 211.165 156.118 211.203 155.787 211.346Z" fill="#A55DDE"/>
<path opacity="0.2" d="M145.953 202.286L151.582 200.376L154.221 207.889L148.499 209.53L145.953 202.286Z" fill="black"/>
<path d="M110.709 143.062C110.709 143.062 138.802 148.129 141.054 157.351C145.503 175.585 155.537 204.101 155.537 204.101L144.855 207.196C144.855 207.196 129.585 174.499 127.657 163.492C111.907 163.473 92.7006 164.764 90.2171 158.069C88.0268 152.153 88.8068 143.062 88.8068 143.062H110.709Z" fill="#FAAE55"/>
<path d="M144.269 209.087L156.749 204.969L155.682 199.334L142.072 204.126L144.269 209.087Z" fill="#FAAE55"/>
<path d="M126.115 217.418L132.33 217.892L128.68 202.554L122.883 203.864L126.115 217.418Z" fill="#FFC3BD"/>
<path d="M132.175 216.394L125.48 215.652C125.237 215.627 125.049 215.776 125.037 216.014L124.687 221.305C124.65 221.854 125.162 222.435 125.723 222.484C128.057 222.703 129.168 222.684 132.113 223.015C133.923 223.215 137.492 223.77 139.969 223.645C142.39 223.527 141.997 221.031 140.918 220.856C138.353 220.444 134.884 218.391 133.205 216.881C132.899 216.6 132.531 216.432 132.175 216.394Z" fill="#A55DDE"/>
<path opacity="0.2" d="M122.883 203.871L128.68 202.56L130.521 210.31L124.661 211.34L122.883 203.871Z" fill="black"/>
<path d="M96.1208 143.062C96.1208 143.062 130.26 148.172 128.694 161.095C126.441 179.728 132.225 206.679 132.225 206.679L121.274 208.638C121.274 208.638 113.218 175.142 113.15 163.966C102.043 163.966 82.6299 164.758 80.1526 158.069C77.9624 152.153 78.7424 143.062 78.7424 143.062H96.1208Z" fill="#FAAE55"/>
<path d="M120.494 210.46L133.342 207.664L132.868 201.949L118.828 205.293L120.494 210.46Z" fill="#FAAE55"/>
<path d="M114.106 107.151C115.017 110.72 115.909 114.32 116.783 117.908C117.657 121.496 118.512 125.091 119.416 128.635L120.097 131.281L120.446 132.579L120.627 133.221L120.652 133.302L120.664 133.34C120.671 133.359 120.646 133.284 120.633 133.259C120.577 133.115 120.502 132.972 120.452 132.891C120.427 132.841 120.39 132.791 120.359 132.753C120.334 132.722 120.315 132.691 120.29 132.66C120.228 132.591 120.203 132.56 120.165 132.522C120.028 132.398 120.015 132.416 120.047 132.448C120.072 132.485 120.171 132.554 120.271 132.629C120.49 132.778 120.795 132.953 121.132 133.115C121.806 133.446 122.593 133.752 123.397 134.064C126.649 135.268 130.23 136.291 133.712 137.396L133.163 141.377C131.222 141.402 129.332 141.315 127.416 141.152C125.5 140.984 123.591 140.741 121.632 140.341C120.646 140.148 119.66 139.898 118.599 139.555C118.069 139.38 117.526 139.174 116.92 138.894C116.615 138.744 116.309 138.588 115.953 138.357C115.604 138.126 115.223 137.851 114.774 137.383C114.661 137.259 114.555 137.146 114.431 136.978L114.256 136.741C114.193 136.653 114.131 136.547 114.075 136.447C113.963 136.26 113.844 136.017 113.75 135.761L113.644 135.468L113.407 134.781L112.939 133.421C112.633 132.516 112.334 131.618 112.059 130.713C110.93 127.112 109.9 123.518 108.927 119.905C107.96 116.292 107.055 112.686 106.219 109.029L114.106 107.151Z" fill="#FFC3BD"/>
<path d="M105.332 102.833C108.757 99.0136 114.193 101.684 116.476 110.227C117.587 114.383 117.238 116.561 117.238 116.561L105.419 120.198C102.879 114.589 100.67 108.03 105.332 102.833Z" fill="#A55DDE"/>
<g opacity="0.2">
<path d="M105.332 102.833C108.757 99.0136 114.193 101.684 116.476 110.227C117.587 114.383 117.238 116.561 117.238 116.561L105.419 120.198C102.879 114.589 100.67 108.03 105.332 102.833Z" fill="black"/>
</g>
<path d="M139.871 135.767L138.81 135.443C138.167 135.243 137.494 135.187 136.826 135.262L134.548 135.53C133.019 135.917 131.734 136.903 131.073 138.195L130.299 139.698C130.686 142.488 136.327 141.589 136.327 141.589H141.631L141.456 137.808C141.419 136.865 140.782 136.048 139.871 135.767Z" fill="#FFC3BD"/>
<path d="M143.533 129.677C143.427 130.819 142.822 131.63 142.242 132.454C141.674 133.284 141.087 134.107 140.495 134.925C139.303 136.547 138.086 138.157 136.744 139.686C136.613 139.836 136.382 139.854 136.233 139.717C136.108 139.605 136.077 139.424 136.152 139.28C137.075 137.471 138.117 135.742 139.184 134.032C139.721 133.178 140.27 132.335 140.832 131.499C141.381 130.657 141.911 129.796 142.934 129.271C143.134 129.165 143.384 129.246 143.49 129.452C143.527 129.527 143.54 129.602 143.533 129.677Z" fill="#263238"/>
<path d="M106.123 99.1322L99.4652 97.2352L90.8977 96.8296C88.227 96.7048 85.8121 98.3834 84.9759 100.923C83.3411 105.903 81.8435 113.11 80.7452 119.331C79.5159 126.307 78.8795 133.533 78.7422 143.068H110.71C111.359 125.309 113.449 116.642 114.691 110.358C115.446 106.52 113.511 102.658 109.98 100.979L106.123 99.1322Z" fill="#A55DDE"/>
<path d="M97.1953 100.38C98.0065 102.464 101.151 106.913 104.802 108.654C106.83 107.188 107.26 103.993 107.572 102.489L97.1953 100.38Z" fill="#7F34BB"/>
<path d="M107.565 102.496C107.74 101.641 107.753 100.767 107.291 100.037C106.773 99.2258 106.904 98.296 107.422 97.3413C107.759 96.7173 108.689 95.3882 108.951 95.2634L104.764 90.365L101.35 86.415C101.057 90.1154 100.77 94.6955 97.8559 97.5722C96.8263 98.583 96.6141 98.895 97.1945 100.386C98.0057 102.471 100.907 105.378 104.558 107.119C106.586 105.653 107.26 103.993 107.565 102.496Z" fill="#FFC3BD"/>
<path opacity="0.2" d="M107.664 94.421L105.305 90.5834C105.255 90.677 105.199 90.7893 105.143 90.9016C104.956 91.3135 104.775 91.8251 104.637 92.3743C104.201 94.0778 105.648 96.5114 107.24 97.672C107.302 97.5597 107.358 97.4536 107.427 97.3413C107.726 96.7797 108.569 95.5629 108.856 95.3258C108.887 95.2946 108.918 95.2759 108.949 95.2571L107.664 94.421Z" fill="black"/>
<path d="M115.928 85.2482C116.477 88.7863 121.538 79.6821 118.711 77.6853C115.254 75.2393 114.892 78.5153 115.928 85.2482Z" fill="#263238"/>
<path d="M101.506 80.6305C101.182 86.3776 100.689 89.716 103.328 93.0356C107.297 98.0276 114.916 96.3803 117.019 90.8766C118.91 85.922 119.122 77.3607 113.599 74.3281C108.158 71.3454 101.831 74.8835 101.506 80.6305Z" fill="#FFC3BD"/>
<path d="M112.832 77.1799C112.832 77.1799 116.508 80.7866 119.128 79.2952C121.743 77.8039 122.286 73.9413 119.128 70.5592C117.612 68.9306 115.316 67.3394 110.81 67.4642C111.141 67.8947 112.083 68.2442 112.083 68.2442C112.083 68.2442 106.374 67.2894 102.386 68.9306C102.386 68.9306 102.904 69.7293 103.659 70.0912C99.7844 69.7979 96.0217 71.3142 98.6924 74.9771C95.1793 75.3141 94.3931 79.8131 96.2651 82.7771C98.1371 85.7411 98.4678 87.9626 100.97 89.3104C100.995 85.2731 101.9 84.3246 101.9 84.3246C103.703 83.5634 105.781 79.7133 105.369 77.7726C109.144 79.2952 113.257 79.8069 112.832 77.1799Z" fill="#212957"/>
<path d="M99.5411 74.8211C98.4428 73.9163 97.4944 73.0926 96.8017 71.3517C96.3524 73.361 98.4366 75.651 98.4366 75.651L99.5411 74.8211Z" fill="#263238"/>
<path d="M98.6356 83.7693C98.6668 85.1796 99.3032 86.4775 100.089 87.3074C101.281 88.5554 102.904 87.4946 103.185 85.8909C103.44 84.4495 102.829 82.2405 101.337 81.5916C99.8773 80.9551 98.5981 82.1594 98.6356 83.7693Z" fill="#FFC3BD"/>
<path d="M110.916 83.5946C110.823 84.0688 110.991 84.5118 111.297 84.5805C111.603 84.6554 111.927 84.3309 112.027 83.8567C112.121 83.3824 111.952 82.9394 111.647 82.8707C111.341 82.7959 111.01 83.1203 110.916 83.5946Z" fill="#263238"/>
<path d="M116.221 84.8551C116.128 85.3293 116.296 85.7724 116.602 85.841C116.908 85.9159 117.232 85.5914 117.332 85.1171C117.425 84.6429 117.257 84.1999 116.951 84.1312C116.639 84.0626 116.315 84.3871 116.221 84.8551Z" fill="#263238"/>
<path d="M114.453 84.8239C114.453 84.8239 114.721 87.3885 115.402 88.7925C114.528 89.2293 113.43 88.5679 113.43 88.5679L114.453 84.8239Z" fill="#ED847E"/>
<path d="M112.452 91.2199C110.599 90.8143 109.813 89.429 109.775 89.3666C109.738 89.298 109.763 89.2106 109.831 89.1732C109.9 89.1357 109.987 89.1607 110.025 89.2293C110.031 89.248 110.923 90.8205 113.032 91.0264C113.114 91.0327 113.17 91.1013 113.157 91.1824C113.151 91.2573 113.082 91.3197 113.001 91.3072C112.808 91.2823 112.627 91.2573 112.452 91.2199Z" fill="#263238"/>
<path d="M110.218 81.6851C110.174 81.6664 110.137 81.6414 110.106 81.604C110.006 81.4854 110.024 81.3045 110.143 81.2047C111.335 80.2187 112.589 80.6306 112.639 80.6493C112.783 80.6805 112.87 80.8615 112.814 81.0112C112.764 81.161 112.602 81.2359 112.458 81.1859C112.408 81.1672 111.441 80.8739 110.505 81.6477C110.424 81.7038 110.311 81.7226 110.218 81.6851Z" fill="#263238"/>
<path d="M116.876 81.7974C116.863 81.7538 116.863 81.7038 116.882 81.6539C116.926 81.5042 117.082 81.4168 117.232 81.4605C118.723 81.8786 119.097 83.139 119.11 83.1952C119.166 83.3325 119.066 83.501 118.916 83.5446C118.767 83.5883 118.611 83.501 118.567 83.3512C118.548 83.3013 118.249 82.3403 117.076 82.0096C116.976 81.9784 116.901 81.8973 116.876 81.7974Z" fill="#263238"/>
<path d="M92.2333 105.422C91.029 108.842 89.8372 112.411 88.7639 115.899C88.221 117.652 87.7343 119.406 87.285 121.134C86.8545 122.863 86.4863 124.591 86.2928 126.17C86.2741 126.363 86.2429 126.563 86.2305 126.744L86.2117 127.019C86.2055 127.106 86.1993 127.237 86.193 127.193C86.1743 127.181 86.1431 127.225 86.1805 127.356C86.2367 127.611 86.4988 128.129 86.9356 128.641C87.8092 129.689 89.1383 130.788 90.5548 131.774C93.4064 133.777 96.7136 135.561 99.946 137.227L98.6605 141.034C96.6762 140.609 94.8292 140.073 92.9447 139.424C91.0727 138.775 89.2256 138.02 87.3848 137.096C85.5565 136.135 83.722 135.087 81.9498 133.408C81.0762 132.554 80.1714 131.543 79.5037 130.039C79.173 129.296 78.9359 128.398 78.8797 127.443C78.861 127.162 78.8672 127.062 78.861 126.906L78.8548 126.47C78.8485 126.176 78.8673 125.908 78.8735 125.627C78.9609 123.424 79.2853 121.421 79.6597 119.443C80.0341 117.471 80.5021 115.562 81.0013 113.665C82.0247 109.871 83.2103 106.233 84.6268 102.545L92.2333 105.422Z" fill="#FFC3BD"/>
<path d="M90.4925 96.8234C96.5952 96.7672 97.7496 101.516 94.4299 109.041C92.6952 112.979 89.7873 116.735 89.7873 116.735L79.6973 111.375C81.0451 105.36 83.5099 96.8858 90.4925 96.8234Z" fill="#A55DDE"/>
<path d="M107.328 136.622L105.094 135.399C104.732 135.199 104.308 135.125 103.896 135.181L101.213 135.549C99.4097 135.736 98.0993 137.115 97.1133 138.313L95.9652 139.711C95.909 142.531 103.035 141.87 103.035 141.87L109.269 141.789L109.075 139.33C108.988 138.195 108.333 137.178 107.328 136.622Z" fill="#FFC3BD"/>
<path d="M240.454 140.379H71.543V148.285H240.454V140.379Z" fill="#407BFF"/>
<path opacity="0.3" d="M126.33 140.379H71.543V148.285H126.33V140.379Z" fill="white"/>
<path d="M76.0677 148.278H73.4844V235.439H76.0677V148.278Z" fill="#407BFF"/>
<path opacity="0.7" d="M76.0677 148.278H73.4844V235.439H76.0677V148.278Z" fill="white"/>
<path d="M124.396 148.278H121.812V235.439H124.396V148.278Z" fill="#407BFF"/>
<path opacity="0.7" d="M124.396 148.278H121.812V235.439H124.396V148.278Z" fill="white"/>
<path d="M190.191 148.278H187.607V235.439H190.191V148.278Z" fill="#407BFF"/>
<path opacity="0.7" d="M190.191 148.278H187.607V235.439H190.191V148.278Z" fill="white"/>
<path d="M238.519 148.278H235.936V235.439H238.519V148.278Z" fill="#407BFF"/>
<path opacity="0.7" d="M238.519 148.278H235.936V235.439H238.519V148.278Z" fill="white"/>
<path d="M222.114 105.435H175.938C174.372 105.435 172.887 106.714 172.625 108.28L167.807 137.539C167.552 139.106 168.619 140.385 170.185 140.385H216.361C217.927 140.385 219.412 139.106 219.674 137.539L224.492 108.28C224.747 106.714 223.68 105.435 222.114 105.435Z" fill="#263238"/>
<path d="M192.824 138.469H149.35C149.063 138.469 148.832 138.706 148.832 138.987V139.854C148.832 140.141 149.069 140.372 149.35 140.372H192.824C193.111 140.372 193.342 140.135 193.342 139.854V138.987C193.342 138.706 193.111 138.469 192.824 138.469Z" fill="#263238"/>
<path opacity="0.2" d="M222.115 105.435H176.981C175.415 105.435 173.93 106.714 173.668 108.28L168.85 137.539C168.595 139.106 169.662 140.385 171.228 140.385H216.362C217.928 140.385 219.413 139.106 219.675 137.539L224.492 108.28C224.748 106.714 223.681 105.435 222.115 105.435Z" fill="white"/>
<path d="M102.625 138.469C102.625 138.469 117.495 140.684 124.671 137.758C128.028 139.374 139.99 140.173 144.146 138.469C142.861 139.961 139.84 140.379 139.84 140.379C139.84 140.379 111.486 140.379 108.472 140.379C105.458 140.379 103.155 139.062 102.625 138.469Z" fill="#A55DDE"/>
<path opacity="0.7" d="M102.625 138.469C102.625 138.469 117.495 140.684 124.671 137.758C128.028 139.374 139.99 140.173 144.146 138.469C142.861 139.961 139.84 140.379 139.84 140.379C139.84 140.379 111.486 140.379 108.472 140.379C105.458 140.379 103.155 139.062 102.625 138.469Z" fill="white"/>
</g>
<defs>
<clipPath id="clip0_615_5833">
<rect width="312" height="232.509" fill="white" transform="translate(0 10)"/>
</clipPath>
</defs>
</svg>
