<svg width="312" height="250" viewBox="0 0 312 250" fill="none" xmlns="http://www.w3.org/2000/svg">
<rect width="312" height="250" fill="#FBFBFE"/>
<g clip-path="url(#clip0_615_5001)">
<path d="M39.5779 169.809C61.4021 169.809 79.0942 167.513 79.0942 164.68C79.0942 161.847 61.4021 159.55 39.5779 159.55C17.7536 159.55 0.0615234 161.847 0.0615234 164.68C0.0615234 167.513 17.7536 169.809 39.5779 169.809Z" fill="#3C81AB"/>
<path d="M145 199.435C198.106 199.435 241.158 197.138 241.158 194.305C241.158 191.472 198.106 189.176 145 189.176C91.8932 189.176 48.8418 191.472 48.8418 194.305C48.8418 197.138 91.8932 199.435 145 199.435Z" fill="#3C81AB"/>
<g style="mix-blend-mode:soft-light">
<path d="M104.19 81.1716H81.3901C77.7388 81.1716 74.7756 78.2084 74.7756 74.5572C74.7756 70.906 77.7388 67.9427 81.3901 67.9427H89.2852C92.9364 67.9427 95.8996 64.9795 95.8996 61.3283C95.8996 57.6771 92.9364 54.7139 89.2852 54.7139H34.7892C31.138 54.7139 28.1748 57.6771 28.1748 61.3283C28.1748 64.9795 31.1312 67.9427 34.7892 67.9427H37.95C41.6012 67.9427 44.5644 70.906 44.5644 74.5572C44.5644 78.2084 41.6012 81.1716 37.95 81.1716H27.2892C23.638 81.1716 20.6748 84.1348 20.6748 87.7861C20.6748 91.4373 23.638 94.4005 27.2892 94.4005H104.197C107.848 94.4005 110.811 91.4373 110.811 87.7861C110.811 84.1348 107.855 81.1716 104.197 81.1716H104.19Z" fill="white"/>
<path d="M122.092 67.0708H104.905C101.771 67.0708 99.2373 69.6117 99.2373 72.7384C99.2373 75.8651 101.778 78.406 104.905 78.406H122.092C125.225 78.406 127.759 75.8651 127.759 72.7384C127.759 69.6117 125.218 67.0708 122.092 67.0708Z" fill="white"/>
</g>
<g style="mix-blend-mode:soft-light">
<path d="M256.546 95.1294H233.746C230.095 95.1294 227.132 92.1662 227.132 88.515C227.132 84.8637 230.088 81.9005 233.746 81.9005H241.642C245.293 81.9005 248.256 78.9441 248.256 75.2861C248.256 71.628 245.293 68.6716 241.642 68.6716H187.139C183.488 68.6716 180.524 71.6348 180.524 75.2861C180.524 78.9373 183.488 81.9005 187.139 81.9005H190.3C193.951 81.9005 196.914 84.8637 196.914 88.515C196.914 92.1662 193.951 95.1294 190.3 95.1294H179.639C175.988 95.1294 173.024 98.0858 173.024 101.744C173.024 105.402 175.988 108.358 179.639 108.358H256.546C260.197 108.358 263.161 105.395 263.161 101.744C263.161 98.0926 260.197 95.1294 256.546 95.1294Z" fill="white"/>
<path d="M274.441 81.0217H257.254C254.121 81.0217 251.58 83.5626 251.58 86.6961C251.58 89.8296 254.121 92.3637 257.254 92.3637H274.441C277.575 92.3637 280.109 89.8228 280.109 86.6961C280.109 83.5694 277.568 81.0217 274.441 81.0217Z" fill="white"/>
</g>
<path d="M214.816 146.533C214.816 149.741 212.323 152.343 209.251 152.343H79.4824C76.4102 152.343 73.9238 149.741 73.9238 146.533V68.0382C73.9238 64.8297 76.4102 62.2275 79.4824 62.2275H209.258C212.33 62.2275 214.823 64.8297 214.823 68.0382V146.54L214.816 146.533Z" fill="#EDEDED"/>
<path d="M61.4785 184.387V189.68C61.4785 192.234 64.394 194.298 67.984 194.298H220.743C224.34 194.298 227.248 192.228 227.248 189.68V184.387H61.4785Z" fill="#B2B2B2"/>
<path d="M210.96 144.08C210.96 146.805 208.603 149.019 205.688 149.019H83.0381C80.1294 149.019 77.7656 146.805 77.7656 144.08V77.4727C77.7656 74.7479 80.1226 72.5341 83.0381 72.5341H205.688C208.597 72.5341 210.96 74.7479 210.96 77.4727V144.08Z" fill="#A55DDE"/>
<g style="mix-blend-mode:multiply">
<path d="M191.635 141.029C183.685 144.019 175.32 145.279 166.812 144.877C159.339 144.516 151.628 143.638 144.53 141.226C135.47 138.154 127.166 132.997 121.253 125.545C116.09 119.033 113.712 111.185 113.392 103.031C113.011 93.2425 114.871 81.7779 119.98 72.5341H83.0381C80.1294 72.5341 77.7656 74.7479 77.7656 77.4727V144.08C77.7656 146.805 80.1226 149.019 83.0381 149.019H205.688C208.597 149.019 210.96 146.805 210.96 144.08V128.399C205.477 133.794 199.08 138.229 191.635 141.029Z" fill="#EDEDED"/>
</g>
<path d="M146.28 65.1568C146.28 66.2467 145.422 67.1322 144.366 67.1322C143.31 67.1322 142.452 66.2467 142.452 65.1568C142.452 64.0668 143.304 63.1813 144.366 63.1813C145.429 63.1813 146.28 64.0668 146.28 65.1568Z" fill="#A55DDE"/>
<path d="M154.96 184.387H133.781V189.612H154.96V184.387Z" fill="#878787"/>
<path d="M227.255 184.387H61.4785L77.7728 152.35H209.258L227.255 184.387Z" fill="#DADADA"/>
<path d="M214.517 169.128L205.647 153.331H82.2481L74.2168 169.128H214.517Z" fill="#B2B2B2"/>
<path d="M127.828 172.241L126.295 182.2H162.446L159.898 172.241H127.828Z" fill="#B2B2B2"/>
<path d="M69.4217 123.345H9.36035V164.033H69.4217V123.345Z" fill="#F6A654"/>
<path d="M69.4148 123.345H9.36035L39.3876 98.1608L69.4148 123.345Z" fill="#F6A654"/>
<path d="M69.4148 123.345H9.36035L39.3876 149.305L69.4148 123.345Z" fill="#A05A33"/>
<path d="M17.8818 107.459V130.715L39.3873 149.305L61.281 130.381V107.459H17.8818Z" fill="white"/>
<path d="M69.4148 164.033H9.36035L39.3876 138.849L69.4148 164.033Z" fill="#E19843"/>
<path d="M220.974 26.0217C218.359 26.0217 216.077 27.425 214.816 29.5163C213.556 27.425 211.274 26.0217 208.658 26.0217C204.687 26.0217 201.472 29.237 201.472 33.2084C201.472 43.1743 214.816 52.4863 214.816 52.4863C214.816 52.4863 228.161 41.4577 228.161 33.2084C228.161 29.237 224.946 26.0217 220.974 26.0217Z" fill="#E19843"/>
<path d="M21.1104 20.6062C21.1104 31.7438 34.7479 40.7697 51.5668 40.7697C68.3856 40.7697 82.0232 31.7438 82.0232 20.6062C82.0232 9.46863 68.3856 0.442749 51.5668 0.442749C34.7479 0.442749 21.1104 9.46863 21.1104 20.6062Z" fill="white"/>
<path d="M62.0705 36.703C64.1685 46.7847 82.2339 47.2888 82.2339 47.2888C82.2339 47.2888 71.4165 43.4605 73.2012 31.3283C75.0882 23.3447 59.9724 26.6281 62.0705 36.7098V36.703Z" fill="white"/>
<path d="M61.0215 21.8665C61.0215 23.3719 62.2476 24.5981 63.7531 24.5981C65.2585 24.5981 66.4847 23.3719 66.4847 21.8665C66.4847 20.361 65.2585 19.1349 63.7531 19.1349C62.2476 19.1349 61.0215 20.361 61.0215 21.8665Z" fill="#A55DDE"/>
<path d="M48.835 21.8665C48.835 23.3719 50.0543 24.5981 51.5666 24.5981C53.0788 24.5981 54.2982 23.3719 54.2982 21.8665C54.2982 20.361 53.0788 19.1349 51.5666 19.1349C50.0543 19.1349 48.835 20.361 48.835 21.8665Z" fill="#A55DDE"/>
<path d="M36.6553 21.8665C36.6553 23.3719 37.8814 24.5981 39.3869 24.5981C40.8923 24.5981 42.1185 23.3719 42.1185 21.8665C42.1185 20.361 40.8991 19.1349 39.3869 19.1349C37.8746 19.1349 36.6553 20.361 36.6553 21.8665Z" fill="#A55DDE"/>
<path d="M194.026 12.0436H94.3125V141.812H194.026V12.0436Z" fill="#E6F5FE"/>
<path d="M194.026 12.0436H94.3125V20.3678H194.026V12.0436Z" fill="#C6C6C6"/>
<path d="M101.928 16.2534C101.928 17.5408 100.886 18.5899 99.5914 18.5899C98.2971 18.5899 97.2549 17.5408 97.2549 16.2534C97.2549 14.9659 98.3039 13.9169 99.5914 13.9169C100.879 13.9169 101.928 14.9591 101.928 16.2534Z" fill="#878787"/>
<path d="M108.631 16.2534C108.631 17.5408 107.589 18.5899 106.295 18.5899C105 18.5899 103.958 17.5408 103.958 16.2534C103.958 14.9659 105 13.9169 106.295 13.9169C107.589 13.9169 108.631 14.9591 108.631 16.2534Z" fill="#878787"/>
<path d="M115.334 16.2534C115.334 17.5408 114.292 18.5899 112.998 18.5899C111.703 18.5899 110.661 17.5408 110.661 16.2534C110.661 14.9659 111.703 13.9169 112.998 13.9169C114.292 13.9169 115.334 14.9591 115.334 16.2534Z" fill="#878787"/>
<path d="M188.549 16.2534C188.549 17.5408 187.5 18.5899 186.213 18.5899H124.884C123.597 18.5899 122.548 17.5408 122.548 16.2534C122.548 14.9659 123.597 13.9169 124.884 13.9169H186.213C187.5 13.9169 188.549 14.9591 188.549 16.2534Z" fill="#878787"/>
<path d="M135.436 27.9836H99.5918V63.8283H135.436V27.9836Z" fill="#EDEDED"/>
<path d="M115.334 89.8706H99.5918V105.354H115.334V89.8706Z" fill="#EDEDED"/>
<path d="M134.476 89.8706H118.733V105.354H134.476V89.8706Z" fill="#EDEDED"/>
<path d="M115.334 108.147H99.5918V123.631H115.334V108.147Z" fill="#EDEDED"/>
<path d="M134.476 108.147H118.733V123.631H134.476V108.147Z" fill="#EDEDED"/>
<path d="M142.446 26.4578V132.466" stroke="#C6C6C6" stroke-width="0.89" stroke-miterlimit="10"/>
<path d="M190.573 27.9836H147.623V50.5245H190.573V27.9836Z" fill="#FAAE55"/>
<path d="M190.573 79.4618H147.623V102.003H190.573V79.4618Z" fill="#454F56"/>
<path d="M190.573 125.463H147.623V136.73H190.573V125.463Z" fill="#A55DDE"/>
<path d="M147.623 59.0531H190.573" stroke="#C6C6C6" stroke-width="4.47" stroke-miterlimit="10"/>
<path d="M147.623 65.7561H190.573" stroke="#C6C6C6" stroke-width="4.47" stroke-miterlimit="10"/>
<path d="M147.623 72.4591H190.573" stroke="#C6C6C6" stroke-width="4.47" stroke-miterlimit="10"/>
<path d="M147.623 107.793H190.573" stroke="#C6C6C6" stroke-width="4.47" stroke-miterlimit="10"/>
<path d="M147.623 114.496H190.573" stroke="#C6C6C6" stroke-width="4.47" stroke-miterlimit="10"/>
<path d="M147.623 121.199H190.573" stroke="#C6C6C6" stroke-width="4.47" stroke-miterlimit="10"/>
<path d="M99.5918 70.2247H134.476" stroke="#C6C6C6" stroke-width="4.47" stroke-miterlimit="10"/>
<path d="M99.5918 76.9277H134.476" stroke="#C6C6C6" stroke-width="4.47" stroke-miterlimit="10"/>
<path d="M99.5918 83.6307H134.476" stroke="#C6C6C6" stroke-width="4.47" stroke-miterlimit="10"/>
<path d="M99.5918 127.902H134.476" stroke="#C6C6C6" stroke-width="4.47" stroke-miterlimit="10"/>
<path d="M99.5918 132.466H134.476" stroke="#C6C6C6" stroke-width="4.47" stroke-miterlimit="10"/>
<path d="M243.576 169.366L232.758 208.433C232.758 208.433 229.747 206.71 222.527 202.153C215.939 197.99 206.137 189.857 203.569 186.315C202.69 185.361 211.178 170.3 227.676 164.673C232.343 168.999 243.576 169.366 243.576 169.366Z" fill="#FAAE55"/>
<path d="M230.824 207.936C232.384 212.064 248.276 232.214 262.649 249.966H286.239V239.101L244.318 198.74C244.318 198.74 247.847 191.199 248.876 186.213C249.904 181.219 247.827 170.572 247.35 167.841C246.873 165.109 243.344 159.523 241.628 151.873C240.545 147.044 234.094 149.026 233.024 151.975C231.137 157.153 233.085 161.669 235.068 166.069C235.967 168.059 222.111 182.153 230.824 207.95V207.936Z" fill="#FAAE55"/>
<path d="M190.231 162.139C185.872 157.425 181.75 162.725 185.368 166.635C188.985 170.545 206.137 189.094 206.137 189.094L211.001 184.598C211.001 184.598 194.591 166.853 190.231 162.139Z" fill="#FAAE55"/>
<path d="M194.026 151.519C189.809 146.601 184.898 152.268 188.392 156.349C191.894 160.429 210.504 182.187 210.504 182.187L216.424 176.717C216.424 176.717 198.236 156.437 194.019 151.519H194.026Z" fill="#FAAE55"/>
<path d="M202.309 141.512C198.678 136.083 192.48 141.567 195.49 146.069C198.501 150.579 215.851 177.091 215.851 177.091L223.447 172.105C223.447 172.105 205.94 146.941 202.309 141.512Z" fill="#FAAE55"/>
<path d="M214.448 138.358C211.56 132.5 204.693 137.118 207.091 141.982C209.489 146.846 222.963 173.127 222.963 173.127L230.442 170.157C230.442 170.157 217.336 144.223 214.448 138.358Z" fill="#FAAE55"/>
<path d="M237.01 119.7H173.065V206.499H237.01V119.7Z" fill="#7F34BB"/>
<path d="M234.088 121.158H175.981V203.583H234.088V121.158Z" fill="#D7D7D8"/>
<path d="M231.901 121.158H175.981V203.583H231.901V121.158Z" fill="white"/>
<path d="M184.734 125.654C184.734 126.662 183.917 127.48 182.909 127.48C181.9 127.48 181.083 126.662 181.083 125.654C181.083 124.646 181.9 123.828 182.909 123.828C183.917 123.828 184.734 124.646 184.734 125.654Z" fill="#7F34BB"/>
<path d="M193.61 125.654C193.61 126.662 192.793 127.48 191.785 127.48C190.776 127.48 189.959 126.662 189.959 125.654C189.959 124.646 190.776 123.828 191.785 123.828C192.793 123.828 193.61 124.646 193.61 125.654Z" fill="#7F34BB"/>
<path d="M202.479 125.654C202.479 126.662 201.662 127.48 200.654 127.48C199.646 127.48 198.828 126.662 198.828 125.654C198.828 124.646 199.646 123.828 200.654 123.828C201.662 123.828 202.479 124.646 202.479 125.654Z" fill="#7F34BB"/>
<path d="M211.355 125.654C211.355 126.662 210.538 127.48 209.53 127.48C208.522 127.48 207.704 126.662 207.704 125.654C207.704 124.646 208.522 123.828 209.53 123.828C210.538 123.828 211.355 124.646 211.355 125.654Z" fill="#7F34BB"/>
<path d="M220.231 125.654C220.231 126.662 219.414 127.48 218.406 127.48C217.398 127.48 216.58 126.662 216.58 125.654C216.58 124.646 217.398 123.828 218.406 123.828C219.414 123.828 220.231 124.646 220.231 125.654Z" fill="#7F34BB"/>
<path d="M229.107 125.654C229.107 126.662 228.29 127.48 227.282 127.48C226.273 127.48 225.456 126.662 225.456 125.654C225.456 124.646 226.273 123.828 227.282 123.828C228.29 123.828 229.107 124.646 229.107 125.654Z" fill="#7F34BB"/>
<path d="M182.466 125.858C182.466 126.131 182.248 126.342 181.983 126.342C181.717 126.342 181.499 126.124 181.499 125.858V117.432C181.499 117.166 181.717 116.948 181.983 116.948C182.248 116.948 182.466 117.166 182.466 117.432V125.858Z" fill="#C6C6C6"/>
<path d="M183.883 125.858C183.883 126.131 183.665 126.342 183.4 126.342C183.134 126.342 182.916 126.124 182.916 125.858V117.432C182.916 117.166 183.134 116.948 183.4 116.948C183.665 116.948 183.883 117.166 183.883 117.432V125.858Z" fill="#C6C6C6"/>
<path d="M191.56 125.858C191.56 126.131 191.342 126.342 191.076 126.342C190.811 126.342 190.593 126.124 190.593 125.858V117.432C190.593 117.166 190.811 116.948 191.076 116.948C191.342 116.948 191.56 117.166 191.56 117.432V125.858Z" fill="#C6C6C6"/>
<path d="M192.977 125.858C192.977 126.131 192.759 126.342 192.493 126.342C192.228 126.342 192.01 126.124 192.01 125.858V117.432C192.01 117.166 192.228 116.948 192.493 116.948C192.759 116.948 192.977 117.166 192.977 117.432V125.858Z" fill="#C6C6C6"/>
<path d="M200.436 125.858C200.436 126.131 200.218 126.342 199.952 126.342C199.687 126.342 199.469 126.124 199.469 125.858V117.432C199.469 117.166 199.687 116.948 199.952 116.948C200.218 116.948 200.436 117.166 200.436 117.432V125.858Z" fill="#C6C6C6"/>
<path d="M201.853 125.858C201.853 126.131 201.635 126.342 201.369 126.342C201.104 126.342 200.886 126.124 200.886 125.858V117.432C200.886 117.166 201.104 116.948 201.369 116.948C201.635 116.948 201.853 117.166 201.853 117.432V125.858Z" fill="#C6C6C6"/>
<path d="M209.312 125.858C209.312 126.131 209.094 126.342 208.828 126.342C208.563 126.342 208.345 126.124 208.345 125.858V117.432C208.345 117.166 208.563 116.948 208.828 116.948C209.094 116.948 209.312 117.166 209.312 117.432V125.858Z" fill="#C6C6C6"/>
<path d="M210.729 125.858C210.729 126.131 210.511 126.342 210.245 126.342C209.98 126.342 209.762 126.124 209.762 125.858V117.432C209.762 117.166 209.98 116.948 210.245 116.948C210.511 116.948 210.729 117.166 210.729 117.432V125.858Z" fill="#C6C6C6"/>
<path d="M218.181 125.858C218.181 126.131 217.963 126.342 217.698 126.342C217.425 126.342 217.214 126.124 217.214 125.858V117.432C217.214 117.166 217.432 116.948 217.698 116.948C217.963 116.948 218.181 117.166 218.181 117.432V125.858Z" fill="#C6C6C6"/>
<path d="M219.605 125.858C219.605 126.131 219.387 126.342 219.121 126.342C218.856 126.342 218.638 126.124 218.638 125.858V117.432C218.638 117.166 218.856 116.948 219.121 116.948C219.387 116.948 219.605 117.166 219.605 117.432V125.858Z" fill="#C6C6C6"/>
<path d="M227.057 125.858C227.057 126.131 226.839 126.342 226.573 126.342C226.308 126.342 226.09 126.124 226.09 125.858V117.432C226.09 117.166 226.308 116.948 226.573 116.948C226.839 116.948 227.057 117.166 227.057 117.432V125.858Z" fill="#C6C6C6"/>
<path d="M228.474 125.858C228.474 126.131 228.256 126.342 227.99 126.342C227.725 126.342 227.507 126.124 227.507 125.858V117.432C227.507 117.166 227.725 116.948 227.99 116.948C228.256 116.948 228.474 117.166 228.474 117.432V125.858Z" fill="#C6C6C6"/>
<path d="M227.057 139.394H181.976V146.444H227.057V139.394Z" fill="#D5DBDF"/>
<path d="M227.057 150.089H181.976V153.617H227.057V150.089Z" fill="#D5DBDF"/>
<path d="M227.057 156.655H181.976V160.184H227.057V156.655Z" fill="#D5DBDF"/>
<path d="M227.057 163.222H181.976V166.751H227.057V163.222Z" fill="#D5DBDF"/>
<path d="M227.057 169.782H181.976V173.311H227.057V169.782Z" fill="#D5DBDF"/>
<path d="M210.722 176.349H181.976V179.877H210.722V176.349Z" fill="#D5DBDF"/>
<path d="M188.352 207.023L148.74 223.127C148.74 223.127 144.707 217.391 144.387 207.064C144.094 197.643 147.902 180.824 149.714 175.851C150.075 174.326 172.82 164.666 190.47 180.232C189.98 183.386 184.946 193.024 185.606 196.778C186.533 202.064 188.352 207.016 188.352 207.016V207.023Z" fill="#FAAE55"/>
<path d="M160.184 249.973L166.281 228.147C166.281 228.147 172.5 225.027 178.202 222.677C183.897 220.327 193.161 211.042 195.579 208.712C197.998 206.383 201.206 199.067 207.711 192.166C211.819 187.813 207.568 185.661 203.89 186.58C197.425 188.195 192.105 193.617 189.04 198.583C187.65 200.831 167.875 194.653 147.923 220.851C145.259 224.618 138.767 237.384 132.582 249.973H160.184Z" fill="#FAAE55"/>
<path d="M182.61 169.782C183.713 165.15 174.83 162.827 172.964 167.459C172.194 169.366 169.102 178.399 169.102 178.399L180.757 181.907C180.757 181.907 181.963 172.514 182.617 169.782H182.61Z" fill="#FAAE55"/>
<path d="M170.934 168.215C171.281 163.467 162.132 162.602 161.043 167.479C160.593 169.489 158.985 178.903 158.985 178.903L171.049 180.484C171.049 180.484 170.729 171.015 170.934 168.215Z" fill="#FAAE55"/>
<path d="M159.374 170.47C159.681 166.267 151.588 165.504 150.621 169.816C150.219 171.594 148.802 179.925 148.802 179.925L159.476 181.328C159.476 181.328 159.19 172.95 159.374 170.477V170.47Z" fill="#FAAE55"/>
<path d="M201.86 148.856C203.747 143.358 197.35 140.688 194.816 145.777C191.894 151.642 178.679 183.59 178.679 183.59L187.357 188.004C187.357 188.004 199.292 156.335 201.86 148.862V148.856Z" fill="#FAAE55"/>
</g>
<defs>
<clipPath id="clip0_615_5001">
<rect width="286.785" height="250" fill="white"/>
</clipPath>
</defs>
</svg>
