<svg width="339" height="251" viewBox="0 0 339 251" fill="none" xmlns="http://www.w3.org/2000/svg">
<rect y="0.990479" width="312" height="250" fill="#FBFBFE"/>
<g clip-path="url(#clip0_615_10475)">
<path d="M33.9438 233.751H56.3828V233.92H33.9438V233.751Z" fill="#EBEBEB"/>
<path d="M114.351 235.594H120.238V235.763H114.351V235.594Z" fill="#EBEBEB"/>
<path d="M57.0592 227.463H70.0605V227.633H57.0592V227.463Z" fill="#EBEBEB"/>
<path d="M273.949 228.602H303.211V228.771H273.949V228.602Z" fill="#EBEBEB"/>
<path d="M263.625 228.602H267.914V228.771H263.625V228.602Z" fill="#EBEBEB"/>
<path d="M186.213 231.461H249.682V231.63H186.213V231.461Z" fill="#EBEBEB"/>
<path d="M178.179 192.633H308.999C311.133 192.633 312.867 190.898 312.867 188.764V4.86856C312.867 2.73442 311.133 1 308.999 1H178.179C176.045 1 174.31 2.73442 174.31 4.86856V188.764C174.31 190.898 176.045 192.633 178.179 192.633ZM308.999 1.16938C311.038 1.16938 312.698 2.82927 312.698 4.86856V188.764C312.698 190.804 311.038 192.463 308.999 192.463H178.179C176.14 192.463 174.48 190.804 174.48 188.764V4.86856C174.48 2.82927 176.14 1.16938 178.179 1.16938H308.999Z" fill="#EBEBEB"/>
<path d="M31.633 192.633H162.46C164.594 192.633 166.328 190.898 166.328 188.764V4.86856C166.328 2.73442 164.594 1 162.46 1H31.633C29.4989 1 27.7645 2.73442 27.7645 4.86856V188.764C27.7645 190.898 29.4989 192.633 31.633 192.633ZM162.46 1.16938C164.499 1.16938 166.159 2.82927 166.159 4.86856V188.764C166.159 190.804 164.499 192.463 162.46 192.463H31.633C29.5937 192.463 27.9338 190.804 27.9338 188.764V4.86856C27.9338 2.82927 29.5937 1.16938 31.633 1.16938H162.46Z" fill="#EBEBEB"/>
<path d="M0.000518799 222.85H338.754V223.019H0.000518799V222.85Z" fill="#EBEBEB"/>
<path d="M56.2668 129.103H115.637V218.419H56.2668V129.103Z" fill="#F5F5F5"/>
<path d="M43.4627 129.103H56.2676V218.419H43.4627V129.103Z" fill="#EBEBEB"/>
<path d="M60.6239 135.736H110.936V157.43H60.6239V135.736Z" fill="#FAFAFA"/>
<path d="M89.4707 135.736L89.22 138.629C89.1387 139.584 88.3393 140.316 87.3772 140.316H84.1794C83.2241 140.316 82.4246 139.584 82.3366 138.629L82.0859 135.736H89.4707Z" fill="#EBEBEB"/>
<path d="M60.6239 159.794H110.936V181.488H60.6239V159.794Z" fill="#FAFAFA"/>
<path d="M89.4707 159.794L89.22 162.687C89.1387 163.642 88.3393 164.374 87.3772 164.374H84.1794C83.2241 164.374 82.4246 163.642 82.3366 162.687L82.0859 159.794H89.4707Z" fill="#EBEBEB"/>
<path d="M60.6239 183.852H110.936V205.546H60.6239V183.852Z" fill="#FAFAFA"/>
<path d="M89.4707 183.852L89.22 186.745C89.1387 187.701 88.3393 188.432 87.3772 188.432H84.1794C83.2241 188.432 82.4246 187.701 82.3366 186.745L82.0859 183.852H89.4707Z" fill="#EBEBEB"/>
<path d="M60.6239 222.884H110.231L110.936 218.412H60.6239V222.884Z" fill="#E6E6E6"/>
<path d="M48.6379 222.884H60.623V218.412H47.9333L48.6379 222.884Z" fill="#E0E0E0"/>
<path d="M86.3009 129.198H65.576L67.8727 102.917H88.5977L86.3009 129.198Z" fill="#FAFAFA"/>
<path d="M86.3 129.198H87.2892L89.5859 102.917H88.5968L86.3 129.198Z" fill="#EBEBEB"/>
<path d="M84.4227 126.522H67.9186L69.7547 105.594H86.252L84.4227 126.522Z" fill="#F0F0F0"/>
<path d="M83.211 124.801H69.4306L70.9617 107.321H84.7422L83.211 124.801Z" fill="#E6E6E6"/>
<path d="M70.0073 129.198L71.2539 114.943H53.1645L51.9179 129.198H70.0073Z" fill="#F0F0F0"/>
<path d="M70.0072 129.198L71.2538 114.943H72.2227L70.976 129.198H70.0072Z" fill="#E0E0E0"/>
<path d="M68.2873 127.748L69.2832 116.393H54.8862L53.8902 127.748H68.2873Z" fill="#EBEBEB"/>
<path d="M67.1823 126.813L68.0156 117.328H55.9899L55.1565 126.813H67.1823Z" fill="#F5F5F5"/>
<path d="M295.503 197.68H233.762V176.366H295.503V197.68Z" fill="#EBEBEB"/>
<path d="M295.503 218.995H233.762V197.68H295.503V218.995Z" fill="#EBEBEB"/>
<path d="M231.601 197.68H169.859V176.366H231.601V197.68Z" fill="#EBEBEB"/>
<path d="M231.601 218.995H169.859V197.68H231.601V218.995Z" fill="#EBEBEB"/>
<path d="M193.328 197.68L201.004 176.366H189.181L181.505 197.68H193.328Z" fill="#F0F0F0"/>
<path d="M206.729 176.366H204.134L196.451 197.68H199.046L206.729 176.366Z" fill="#F0F0F0"/>
<path d="M185.645 218.995L193.328 197.68H181.506L173.823 218.995H185.645Z" fill="#F0F0F0"/>
<path d="M199.047 197.68H196.452L188.769 218.995H191.364L199.047 197.68Z" fill="#F0F0F0"/>
<path d="M281.634 197.68L289.311 176.366H277.488L269.805 197.68H281.634Z" fill="#F0F0F0"/>
<path d="M295.035 176.366H292.44L284.757 197.68H287.352L295.035 176.366Z" fill="#F0F0F0"/>
<path d="M273.95 218.995L281.633 197.68H269.804L262.127 218.995H273.95Z" fill="#F0F0F0"/>
<path d="M287.352 197.68H284.757L277.074 218.995H279.669L287.352 197.68Z" fill="#F0F0F0"/>
<path d="M169.865 179.645V177.49H231.606V179.645H169.865Z" fill="#E0E0E0"/>
<path d="M169.865 200.79V198.635H231.606V200.79H169.865Z" fill="#E0E0E0"/>
<path d="M202.312 189.753C202.82 189.753 203.24 189.34 203.24 188.825C203.24 188.31 202.827 187.897 202.312 187.897H199.155C198.647 187.897 198.227 188.31 198.227 188.825C198.227 189.34 198.64 189.753 199.155 189.753H202.312Z" fill="#E6E6E6"/>
<path d="M202.312 189.428C202.82 189.428 203.24 189.015 203.24 188.5C203.24 187.985 202.827 187.572 202.312 187.572H199.155C198.647 187.572 198.227 187.985 198.227 188.5C198.227 189.015 198.64 189.428 199.155 189.428H202.312Z" fill="#E0E0E0"/>
<path d="M202.312 209.428C202.82 209.428 203.24 209.015 203.24 208.5C203.24 207.985 202.827 207.572 202.312 207.572H199.155C198.647 207.572 198.227 207.985 198.227 208.5C198.227 209.015 198.64 209.428 199.155 209.428H202.312Z" fill="#E6E6E6"/>
<path d="M202.312 209.096C202.82 209.096 203.24 208.683 203.24 208.168C203.24 207.653 202.827 207.24 202.312 207.24H199.155C198.647 207.24 198.227 207.653 198.227 208.168C198.227 208.683 198.64 209.096 199.155 209.096H202.312Z" fill="#E0E0E0"/>
<path d="M232.684 175.411V219.923H168.788V175.411H232.684ZM230.529 198.805H170.942V217.768H230.529V198.805ZM230.529 177.687H170.942V196.65H230.529V177.687Z" fill="#F5F5F5"/>
<path d="M233.754 179.638V177.484H295.495V179.638H233.754Z" fill="#E0E0E0"/>
<path d="M233.762 200.79V198.635H295.503V200.79H233.762Z" fill="#E0E0E0"/>
<path d="M266.214 189.753C266.723 189.753 267.143 189.34 267.143 188.825C267.143 188.31 266.729 187.897 266.214 187.897H263.057C262.549 187.897 262.129 188.31 262.129 188.825C262.129 189.34 262.542 189.753 263.057 189.753H266.214Z" fill="#E6E6E6"/>
<path d="M266.214 189.428C266.723 189.428 267.143 189.015 267.143 188.5C267.143 187.985 266.729 187.572 266.214 187.572H263.057C262.549 187.572 262.129 187.985 262.129 188.5C262.129 189.015 262.542 189.428 263.057 189.428H266.214Z" fill="#E0E0E0"/>
<path d="M266.214 209.428C266.723 209.428 267.143 209.015 267.143 208.5C267.143 207.985 266.729 207.572 266.214 207.572H263.057C262.549 207.572 262.129 207.985 262.129 208.5C262.129 209.015 262.542 209.428 263.057 209.428H266.214Z" fill="#E6E6E6"/>
<path d="M266.214 209.096C266.723 209.096 267.143 208.683 267.143 208.168C267.143 207.653 266.729 207.24 266.214 207.24H263.057C262.549 207.24 262.129 207.653 262.129 208.168C262.129 208.683 262.542 209.096 263.057 209.096H266.214Z" fill="#E0E0E0"/>
<path d="M296.58 175.411V219.923H232.684V175.411H296.58ZM294.426 198.805H234.839V217.768H294.426V198.805ZM294.426 177.687H234.839V196.65H294.426V177.687Z" fill="#F5F5F5"/>
<path d="M288.057 222.883H293.721L294.426 219.923H287.353L288.057 222.883Z" fill="#E0E0E0"/>
<path d="M171.919 222.883H177.576L178.287 219.923H171.214L171.919 222.883Z" fill="#E0E0E0"/>
<path d="M276.574 155.438C276.574 153.71 274.542 152.247 271.737 151.752L274.508 148.439H258.024L260.795 151.752C257.99 152.253 255.958 153.717 255.958 155.438C255.958 157.341 258.424 171.244 261.669 174.306L261.229 174.828C260.998 175.106 261.195 175.526 261.554 175.526H270.964C271.324 175.526 271.527 175.106 271.29 174.828L270.849 174.306C274.101 171.244 276.561 157.335 276.561 155.438H276.574Z" fill="#F0F0F0"/>
<path d="M245.407 167.551H268.043C268.043 169.828 265.956 171.826 262.813 172.971L263.456 175.539H249.994L250.638 172.971C247.494 171.826 245.407 169.828 245.407 167.551Z" fill="#E6E6E6"/>
<path d="M172.642 250.837C100.093 250.837 41.2803 247.404 41.2803 243.168C41.2803 238.932 100.093 235.499 172.642 235.499C245.191 235.499 304.004 238.932 304.004 243.168C304.004 247.404 245.191 250.837 172.642 250.837Z" fill="#F5F5F5"/>
<path d="M268.191 14.7601H113.082C110.392 14.7601 108.211 16.9411 108.211 19.6314V127.287C108.211 129.978 110.392 132.159 113.082 132.159H268.191C270.881 132.159 273.062 129.978 273.062 127.287V19.6314C273.062 16.9411 270.881 14.7601 268.191 14.7601Z" fill="#A55DDE"/>
<path opacity="0.5" d="M268.191 14.7601H113.082C110.392 14.7601 108.211 16.9411 108.211 19.6314V127.287C108.211 129.978 110.392 132.159 113.082 132.159H268.191C270.881 132.159 273.062 129.978 273.062 127.287V19.6314C273.062 16.9411 270.881 14.7601 268.191 14.7601Z" fill="white"/>
<path opacity="0.5" d="M267.593 31.5013H113.684C112.764 31.5013 112.018 32.2475 112.018 33.168V126.691C112.018 127.612 112.764 128.358 113.684 128.358H267.593C268.514 128.358 269.26 127.612 269.26 126.691V33.168C269.26 32.2475 268.514 31.5013 267.593 31.5013Z" fill="white"/>
<path opacity="0.3" d="M245.955 19.3265H242.852C241.748 19.3265 240.854 20.2214 240.854 21.3252V24.4282C240.854 25.532 241.748 26.4268 242.852 26.4268H245.955C247.059 26.4268 247.954 25.532 247.954 24.4282V21.3252C247.954 20.2214 247.059 19.3265 245.955 19.3265Z" fill="white"/>
<path opacity="0.5" d="M256.606 19.3265H253.503C252.399 19.3265 251.504 20.2214 251.504 21.3252V24.4282C251.504 25.532 252.399 26.4268 253.503 26.4268H256.606C257.709 26.4268 258.604 25.532 258.604 24.4282V21.3252C258.604 20.2214 257.709 19.3265 256.606 19.3265Z" fill="white"/>
<path opacity="0.8" d="M267.262 19.3265H264.159C263.055 19.3265 262.16 20.2214 262.16 21.3252V24.4282C262.16 25.532 263.055 26.4268 264.159 26.4268H267.262C268.366 26.4268 269.26 25.532 269.26 24.4282V21.3252C269.26 20.2214 268.366 19.3265 267.262 19.3265Z" fill="white"/>
<path d="M119.423 17.9309H114.504C113.131 17.9309 112.018 19.0441 112.018 20.4174V25.3361C112.018 26.7093 113.131 27.8225 114.504 27.8225H119.423C120.796 27.8225 121.909 26.7093 121.909 25.3361V20.4174C121.909 19.0441 120.796 17.9309 119.423 17.9309Z" fill="#A55DDE"/>
<path opacity="0.8" d="M257.663 37.5853H147.968C146.464 37.5853 145.244 38.8047 145.244 40.3089V46.5284C145.244 48.0326 146.464 49.252 147.968 49.252H257.663C259.167 49.252 260.386 48.0326 260.386 46.5284V40.3089C260.386 38.8047 259.167 37.5853 257.663 37.5853Z" fill="white"/>
<path opacity="0.8" d="M257.663 53.0596H147.968C146.464 53.0596 145.244 54.279 145.244 55.7832V62.0027C145.244 63.5069 146.464 64.7262 147.968 64.7262H257.663C259.167 64.7262 260.386 63.5069 260.386 62.0027V55.7832C260.386 54.279 259.167 53.0596 257.663 53.0596Z" fill="white"/>
<path opacity="0.8" d="M257.663 71.0542H147.968C146.464 71.0542 145.244 72.2736 145.244 73.7778V119.117C145.244 120.621 146.464 121.84 147.968 121.84H257.663C259.167 121.84 260.386 120.621 260.386 119.117V73.7778C260.386 72.2736 259.167 71.0542 257.663 71.0542Z" fill="white"/>
<path d="M148.3 71.0542H257.331C259.018 71.0542 260.386 72.4228 260.386 74.1098V78.1883C260.386 79.8753 259.018 81.2439 257.331 81.2439H148.3C146.613 81.2439 145.244 79.8753 145.244 78.1883V74.1098C145.244 72.4228 146.613 71.0542 148.3 71.0542Z" fill="#A55DDE"/>
<path opacity="0.5" d="M148.3 71.0542H257.331C259.018 71.0542 260.386 72.4228 260.386 74.1098V78.1883C260.386 79.8753 259.018 81.2439 257.331 81.2439H148.3C146.613 81.2439 145.244 79.8753 145.244 78.1883V74.1098C145.244 72.4228 146.613 71.0542 148.3 71.0542Z" fill="white"/>
<path opacity="0.5" d="M188.881 72.6464H184.423C183.731 72.6464 183.17 73.2075 183.17 73.8997V78.3577C183.17 79.05 183.731 79.6111 184.423 79.6111H188.881C189.574 79.6111 190.135 79.05 190.135 78.3577V73.8997C190.135 73.2075 189.574 72.6464 188.881 72.6464Z" fill="white"/>
<path opacity="0.5" d="M198.834 72.6464H194.376C193.684 72.6464 193.123 73.2075 193.123 73.8997V78.3577C193.123 79.05 193.684 79.6111 194.376 79.6111H198.834C199.527 79.6111 200.088 79.05 200.088 78.3577V73.8997C200.088 73.2075 199.527 72.6464 198.834 72.6464Z" fill="white"/>
<path opacity="0.5" d="M204.458 72.6464H208.923C209.614 72.6464 210.177 73.2087 210.177 73.8997V78.3645C210.177 79.0556 209.614 79.6179 208.923 79.6179H204.458C203.767 79.6179 203.205 79.0556 203.205 78.3645V73.8997C203.205 73.2087 203.767 72.6464 204.458 72.6464Z" fill="white"/>
<path d="M121.289 41.7048H122.414C122.688 41.7048 122.932 41.7587 123.145 41.8665C123.359 41.9719 123.524 42.1226 123.642 42.3186C123.759 42.5122 123.818 42.7364 123.818 42.9912C123.818 43.2461 123.759 43.4715 123.642 43.6676C123.524 43.8611 123.359 44.0118 123.145 44.1197C122.932 44.225 122.688 44.2777 122.414 44.2777H121.289V41.7048ZM122.392 43.8734C122.581 43.8734 122.746 43.8379 122.888 43.7668C123.033 43.6933 123.143 43.5904 123.219 43.4581C123.297 43.3233 123.337 43.1677 123.337 42.9912C123.337 42.8148 123.297 42.6604 123.219 42.5281C123.143 42.3934 123.033 42.2904 122.888 42.2194C122.746 42.1459 122.581 42.1091 122.392 42.1091H121.767V43.8734H122.392ZM125.032 42.2929C125.321 42.2929 125.541 42.3627 125.693 42.5024C125.848 42.6396 125.925 42.8479 125.925 43.1272V44.2777H125.491V44.0388C125.435 44.1246 125.354 44.1907 125.248 44.2373C125.146 44.2814 125.021 44.3034 124.874 44.3034C124.727 44.3034 124.598 44.2789 124.488 44.2299C124.377 44.1785 124.292 44.1086 124.23 44.0204C124.172 43.9298 124.142 43.8281 124.142 43.7153C124.142 43.5389 124.207 43.398 124.337 43.2926C124.469 43.1848 124.676 43.1309 124.958 43.1309H125.465V43.1015C125.465 42.9643 125.424 42.8589 125.34 42.7854C125.26 42.7119 125.138 42.6751 124.976 42.6751C124.866 42.6751 124.757 42.6923 124.649 42.7266C124.544 42.7609 124.455 42.8087 124.381 42.87L124.201 42.5355C124.304 42.4571 124.428 42.397 124.572 42.3554C124.717 42.3137 124.87 42.2929 125.032 42.2929ZM124.969 43.969C125.084 43.969 125.186 43.9432 125.274 43.8918C125.365 43.8379 125.429 43.7619 125.465 43.6639V43.436H124.991C124.727 43.436 124.594 43.523 124.594 43.697C124.594 43.7803 124.627 43.8464 124.693 43.8954C124.76 43.9445 124.852 43.969 124.969 43.969ZM127.694 44.1711C127.64 44.2152 127.574 44.2483 127.496 44.2704C127.42 44.2924 127.339 44.3034 127.253 44.3034C127.038 44.3034 126.871 44.2471 126.753 44.1344C126.636 44.0216 126.577 43.8575 126.577 43.6418V42.6972H126.253V42.3296H126.577V41.8812H127.036V42.3296H127.562V42.6972H127.036V43.6308C127.036 43.7264 127.06 43.7999 127.106 43.8513C127.153 43.9003 127.22 43.9249 127.308 43.9249C127.411 43.9249 127.497 43.8979 127.566 43.844L127.694 44.1711ZM129.853 43.3074C129.853 43.3392 129.85 43.3845 129.845 43.4433H128.305C128.332 43.5879 128.402 43.7031 128.515 43.7889C128.63 43.8722 128.772 43.9138 128.941 43.9138C129.157 43.9138 129.335 43.8428 129.474 43.7006L129.72 43.9837C129.632 44.089 129.521 44.1687 129.386 44.2226C129.251 44.2765 129.099 44.3034 128.93 44.3034C128.715 44.3034 128.525 44.2606 128.361 44.1748C128.196 44.089 128.069 43.9702 127.978 43.8183C127.89 43.6639 127.846 43.4899 127.846 43.2963C127.846 43.1052 127.889 42.9337 127.975 42.7817C128.063 42.6274 128.184 42.5073 128.338 42.4215C128.493 42.3358 128.667 42.2929 128.86 42.2929C129.052 42.2929 129.222 42.3358 129.371 42.4215C129.523 42.5048 129.641 42.6237 129.724 42.7781C129.81 42.93 129.853 43.1064 129.853 43.3074ZM128.86 42.6604C128.713 42.6604 128.588 42.7046 128.485 42.7928C128.385 42.8785 128.324 42.9937 128.302 43.1383H129.415C129.396 42.9961 129.336 42.881 129.235 42.7928C129.135 42.7046 129.01 42.6604 128.86 42.6604ZM131.095 41.1829H131.507L130.294 44.6453H129.882L131.095 41.1829ZM132.335 42.1091H131.483V41.7048H133.666V42.1091H132.813V44.2777H132.335V42.1091ZM133.934 42.3149H134.393V44.2777H133.934V42.3149ZM134.165 41.9915C134.082 41.9915 134.012 41.9658 133.956 41.9143C133.9 41.8604 133.871 41.7942 133.871 41.7158C133.871 41.6374 133.9 41.5725 133.956 41.521C134.012 41.4671 134.082 41.4401 134.165 41.4401C134.249 41.4401 134.319 41.4659 134.375 41.5173C134.431 41.5663 134.459 41.6288 134.459 41.7048C134.459 41.7857 134.431 41.8543 134.375 41.9106C134.321 41.9645 134.251 41.9915 134.165 41.9915ZM137.474 42.2929C137.721 42.2929 137.917 42.3652 138.062 42.5097C138.206 42.6519 138.279 42.8663 138.279 43.153V44.2777H137.819V43.2118C137.819 43.0403 137.781 42.9116 137.705 42.8258C137.629 42.7376 137.52 42.6935 137.378 42.6935C137.224 42.6935 137.1 42.745 137.007 42.8479C136.914 42.9484 136.867 43.0929 136.867 43.2816V44.2777H136.408V43.2118C136.408 43.0403 136.37 42.9116 136.294 42.8258C136.218 42.7376 136.109 42.6935 135.967 42.6935C135.81 42.6935 135.685 42.7438 135.592 42.8442C135.501 42.9447 135.456 43.0905 135.456 43.2816V44.2777H134.996V42.3149H135.434V42.5649C135.507 42.4767 135.599 42.4093 135.709 42.3627C135.82 42.3162 135.942 42.2929 136.077 42.2929C136.224 42.2929 136.354 42.3211 136.467 42.3774C136.582 42.4313 136.672 42.5122 136.739 42.62C136.819 42.5171 136.924 42.4375 137.051 42.3811C137.178 42.3223 137.319 42.2929 137.474 42.2929ZM140.729 43.3074C140.729 43.3392 140.726 43.3845 140.722 43.4433H139.181C139.208 43.5879 139.278 43.7031 139.391 43.7889C139.506 43.8722 139.648 43.9138 139.817 43.9138C140.033 43.9138 140.211 43.8428 140.35 43.7006L140.597 43.9837C140.508 44.089 140.397 44.1687 140.262 44.2226C140.127 44.2765 139.975 44.3034 139.806 44.3034C139.591 44.3034 139.401 44.2606 139.237 44.1748C139.072 44.089 138.945 43.9702 138.854 43.8183C138.766 43.6639 138.722 43.4899 138.722 43.2963C138.722 43.1052 138.765 42.9337 138.851 42.7817C138.939 42.6274 139.06 42.5073 139.215 42.4215C139.369 42.3358 139.543 42.2929 139.736 42.2929C139.928 42.2929 140.098 42.3358 140.247 42.4215C140.399 42.5048 140.517 42.6237 140.6 42.7781C140.686 42.93 140.729 43.1064 140.729 43.3074ZM139.736 42.6604C139.589 42.6604 139.464 42.7046 139.362 42.7928C139.261 42.8785 139.2 42.9937 139.178 43.1383H140.291C140.272 42.9961 140.212 42.881 140.111 42.7928C140.011 42.7046 139.886 42.6604 139.736 42.6604Z" fill="black"/>
<path d="M126.176 59.9296C125.978 59.9296 125.785 59.9014 125.599 59.845C125.415 59.7887 125.269 59.7139 125.162 59.6208L125.327 59.2496C125.432 59.3329 125.561 59.4015 125.713 59.4554C125.867 59.5069 126.022 59.5326 126.176 59.5326C126.367 59.5326 126.509 59.502 126.602 59.4407C126.698 59.3795 126.746 59.2986 126.746 59.1981C126.746 59.1246 126.719 59.0646 126.665 59.018C126.613 58.969 126.547 58.931 126.466 58.9041C126.386 58.8771 126.275 58.8465 126.136 58.8122C125.94 58.7656 125.78 58.7191 125.658 58.6725C125.538 58.626 125.434 58.5537 125.345 58.4557C125.26 58.3552 125.217 58.2204 125.217 58.0513C125.217 57.9092 125.255 57.7806 125.331 57.6654C125.409 57.5478 125.525 57.4547 125.68 57.3861C125.837 57.3174 126.028 57.2831 126.253 57.2831C126.41 57.2831 126.564 57.3027 126.716 57.342C126.868 57.3812 126.999 57.4375 127.11 57.511L126.959 57.8823C126.846 57.8161 126.729 57.7659 126.606 57.7316C126.484 57.6973 126.365 57.6801 126.25 57.6801C126.061 57.6801 125.92 57.712 125.827 57.7757C125.736 57.8394 125.691 57.9239 125.691 58.0293C125.691 58.1028 125.717 58.1628 125.768 58.2094C125.822 58.256 125.889 58.2927 125.97 58.3197C126.051 58.3466 126.161 58.3772 126.301 58.4116C126.492 58.4557 126.649 58.5022 126.771 58.5512C126.894 58.5978 126.998 58.6701 127.084 58.7681C127.172 58.8661 127.216 58.9984 127.216 59.1651C127.216 59.3072 127.177 59.4358 127.099 59.551C127.023 59.6662 126.906 59.7581 126.749 59.8267C126.593 59.8953 126.401 59.9296 126.176 59.9296ZM129.546 57.93V59.8928H129.109V59.6429C129.035 59.7311 128.943 59.7997 128.833 59.8487C128.723 59.8953 128.604 59.9186 128.477 59.9186C128.214 59.9186 128.007 59.8463 127.855 59.7017C127.706 59.5547 127.631 59.3378 127.631 59.0511V57.93H128.091V58.9886C128.091 59.1651 128.13 59.2974 128.208 59.3856C128.289 59.4714 128.403 59.5142 128.55 59.5142C128.714 59.5142 128.844 59.464 128.94 59.3635C129.038 59.2606 129.087 59.1136 129.087 58.9225V57.93H129.546ZM131.236 57.908C131.427 57.908 131.597 57.9497 131.747 58.033C131.899 58.1163 132.017 58.2339 132.103 58.3858C132.189 58.5377 132.232 58.713 132.232 58.9114C132.232 59.1099 132.189 59.2863 132.103 59.4407C132.017 59.5926 131.899 59.7103 131.747 59.7936C131.597 59.8769 131.427 59.9186 131.236 59.9186C131.101 59.9186 130.977 59.8953 130.865 59.8487C130.754 59.8022 130.661 59.7323 130.585 59.6392V59.8928H130.148V57.1655H130.607V58.169C130.686 58.0832 130.778 58.0183 130.883 57.9742C130.991 57.93 131.108 57.908 131.236 57.908ZM131.184 59.5253C131.353 59.5253 131.492 59.4689 131.6 59.3562C131.71 59.2435 131.765 59.0952 131.765 58.9114C131.765 58.7277 131.71 58.5794 131.6 58.4667C131.492 58.354 131.353 58.2976 131.184 58.2976C131.074 58.2976 130.975 58.3233 130.887 58.3748C130.798 58.4238 130.729 58.4949 130.677 58.588C130.626 58.6811 130.6 58.7889 130.6 58.9114C130.6 59.034 130.626 59.1418 130.677 59.2349C130.729 59.328 130.798 59.4003 130.887 59.4517C130.975 59.5008 131.074 59.5253 131.184 59.5253ZM132.465 60.6316C132.272 60.6316 132.125 60.5936 132.024 60.5177L132.157 60.1758C132.225 60.2273 132.315 60.253 132.425 60.253C132.511 60.253 132.576 60.2261 132.62 60.1722C132.666 60.1207 132.69 60.0435 132.69 59.9406V57.93H133.149V59.9296C133.149 60.1477 133.089 60.3192 132.969 60.4442C132.849 60.5691 132.681 60.6316 132.465 60.6316ZM132.918 57.6066C132.834 57.6066 132.764 57.5809 132.708 57.5294C132.652 57.4755 132.623 57.4093 132.623 57.3309C132.623 57.2525 132.652 57.1876 132.708 57.1361C132.764 57.0822 132.834 57.0553 132.918 57.0553C133.001 57.0553 133.071 57.081 133.127 57.1324C133.183 57.1815 133.212 57.2439 133.212 57.3199C133.212 57.4008 133.183 57.4694 133.127 57.5257C133.073 57.5796 133.003 57.6066 132.918 57.6066ZM135.597 58.9225C135.597 58.9543 135.594 58.9997 135.589 59.0585H134.049C134.076 59.203 134.146 59.3182 134.259 59.404C134.374 59.4873 134.516 59.5289 134.685 59.5289C134.901 59.5289 135.078 59.4579 135.218 59.3158L135.464 59.5988C135.376 59.7041 135.265 59.7838 135.13 59.8377C134.995 59.8916 134.843 59.9186 134.674 59.9186C134.459 59.9186 134.269 59.8757 134.104 59.7899C133.94 59.7041 133.813 59.5853 133.722 59.4334C133.634 59.279 133.59 59.105 133.59 58.9114C133.59 58.7203 133.633 58.5488 133.719 58.3969C133.807 58.2425 133.928 58.1224 134.082 58.0366C134.237 57.9509 134.411 57.908 134.604 57.908C134.795 57.908 134.966 57.9509 135.115 58.0366C135.267 58.12 135.385 58.2388 135.468 58.3932C135.554 58.5451 135.597 58.7215 135.597 58.9225ZM134.604 58.2756C134.457 58.2756 134.332 58.3197 134.229 58.4079C134.129 58.4936 134.068 58.6088 134.046 58.7534H135.159C135.14 58.6113 135.08 58.4961 134.979 58.4079C134.879 58.3197 134.754 58.2756 134.604 58.2756ZM136.939 59.9186C136.735 59.9186 136.553 59.8757 136.391 59.7899C136.229 59.7041 136.103 59.5853 136.012 59.4334C135.922 59.279 135.876 59.105 135.876 58.9114C135.876 58.7179 135.922 58.5451 136.012 58.3932C136.103 58.2413 136.228 58.1224 136.387 58.0366C136.549 57.9509 136.733 57.908 136.939 57.908C137.132 57.908 137.301 57.9472 137.446 58.0256C137.593 58.104 137.703 58.2167 137.777 58.3638L137.424 58.5696C137.367 58.4789 137.296 58.4116 137.211 58.3674C137.127 58.3209 137.035 58.2976 136.935 58.2976C136.763 58.2976 136.621 58.354 136.509 58.4667C136.396 58.577 136.339 58.7252 136.339 58.9114C136.339 59.0977 136.395 59.2471 136.505 59.3599C136.618 59.4701 136.761 59.5253 136.935 59.5253C137.035 59.5253 137.127 59.5032 137.211 59.4591C137.296 59.4125 137.367 59.3439 137.424 59.2533L137.777 59.4591C137.701 59.6061 137.589 59.7201 137.442 59.8009C137.298 59.8793 137.13 59.9186 136.939 59.9186ZM139.379 59.7862C139.325 59.8303 139.259 59.8634 139.18 59.8855C139.104 59.9075 139.023 59.9186 138.938 59.9186C138.722 59.9186 138.555 59.8622 138.438 59.7495C138.32 59.6368 138.261 59.4726 138.261 59.2569V58.3123H137.938V57.9448H138.261V57.4963H138.721V57.9448H139.246V58.3123H138.721V59.2459C138.721 59.3415 138.744 59.415 138.791 59.4665C138.837 59.5155 138.905 59.54 138.993 59.54C139.096 59.54 139.182 59.513 139.25 59.4591L139.379 59.7862Z" fill="black"/>
<path d="M150.784 75.8165H149.931V75.4122H152.114V75.8165H151.262V77.9851H150.784V75.8165ZM153.11 78.0108C152.911 78.0108 152.733 77.968 152.573 77.8822C152.414 77.7964 152.289 77.6776 152.198 77.5257C152.11 77.3713 152.066 77.1973 152.066 77.0037C152.066 76.8101 152.11 76.6374 152.198 76.4855C152.289 76.3335 152.414 76.2147 152.573 76.1289C152.733 76.0432 152.911 76.0003 153.11 76.0003C153.311 76.0003 153.491 76.0432 153.65 76.1289C153.81 76.2147 153.933 76.3335 154.021 76.4855C154.112 76.6374 154.157 76.8101 154.157 77.0037C154.157 77.1973 154.112 77.3713 154.021 77.5257C153.933 77.6776 153.81 77.7964 153.65 77.8822C153.491 77.968 153.311 78.0108 153.11 78.0108ZM153.11 77.6175C153.279 77.6175 153.419 77.5612 153.529 77.4485C153.639 77.3358 153.694 77.1875 153.694 77.0037C153.694 76.8199 153.639 76.6717 153.529 76.559C153.419 76.4463 153.279 76.3899 153.11 76.3899C152.941 76.3899 152.801 76.4463 152.691 76.559C152.583 76.6717 152.529 76.8199 152.529 77.0037C152.529 77.1875 152.583 77.3358 152.691 77.4485C152.801 77.5612 152.941 77.6175 153.11 77.6175ZM155.685 76.0003C155.876 76.0003 156.046 76.0419 156.196 76.1253C156.348 76.2086 156.466 76.3262 156.552 76.4781C156.638 76.63 156.681 76.8052 156.681 77.0037C156.681 77.2022 156.638 77.3786 156.552 77.533C156.466 77.6849 156.348 77.8026 156.196 77.8859C156.046 77.9692 155.876 78.0108 155.685 78.0108C155.42 78.0108 155.211 77.9226 155.056 77.7462V78.6982H154.597V76.0223H155.034V76.2796C155.11 76.1865 155.203 76.1167 155.314 76.0701C155.426 76.0236 155.55 76.0003 155.685 76.0003ZM155.633 77.6175C155.802 77.6175 155.941 77.5612 156.049 77.4485C156.159 77.3358 156.214 77.1875 156.214 77.0037C156.214 76.8199 156.159 76.6717 156.049 76.559C155.941 76.4463 155.802 76.3899 155.633 76.3899C155.523 76.3899 155.424 76.4156 155.336 76.4671C155.247 76.5161 155.178 76.5872 155.126 76.6803C155.075 76.7734 155.049 76.8812 155.049 77.0037C155.049 77.1262 155.075 77.2341 155.126 77.3272C155.178 77.4203 155.247 77.4926 155.336 77.544C155.424 77.593 155.523 77.6175 155.633 77.6175ZM157.117 76.0223H157.576V77.9851H157.117V76.0223ZM157.348 75.6989C157.265 75.6989 157.195 75.6732 157.139 75.6217C157.082 75.5678 157.054 75.5016 157.054 75.4232C157.054 75.3448 157.082 75.2799 157.139 75.2284C157.195 75.1745 157.265 75.1475 157.348 75.1475C157.431 75.1475 157.501 75.1733 157.558 75.2247C157.614 75.2737 157.642 75.3362 157.642 75.4122C157.642 75.493 157.614 75.5617 157.558 75.618C157.504 75.6719 157.434 75.6989 157.348 75.6989ZM159.08 78.0108C158.876 78.0108 158.694 77.968 158.532 77.8822C158.37 77.7964 158.244 77.6776 158.153 77.5257C158.063 77.3713 158.017 77.1973 158.017 77.0037C158.017 76.8101 158.063 76.6374 158.153 76.4855C158.244 76.3335 158.369 76.2147 158.528 76.1289C158.69 76.0432 158.874 76.0003 159.08 76.0003C159.273 76.0003 159.442 76.0395 159.587 76.1179C159.734 76.1963 159.844 76.309 159.918 76.4561L159.565 76.6619C159.508 76.5712 159.437 76.5038 159.352 76.4597C159.268 76.4132 159.176 76.3899 159.076 76.3899C158.904 76.3899 158.762 76.4463 158.65 76.559C158.537 76.6692 158.48 76.8175 158.48 77.0037C158.48 77.19 158.536 77.3394 158.646 77.4521C158.759 77.5624 158.902 77.6175 159.076 77.6175C159.176 77.6175 159.268 77.5955 159.352 77.5514C159.437 77.5048 159.508 77.4362 159.565 77.3456L159.918 77.5514C159.842 77.6984 159.73 77.8124 159.583 77.8932C159.439 77.9716 159.271 78.0108 159.08 78.0108Z" fill="black"/>
<path d="M175.563 74.8143V78.0122H174.824V75.4105H174.188V74.8143H175.563Z" fill="#263238"/>
<path d="M178.51 77.4091V78.0121H176.098V77.5311L177.331 76.3658C177.46 76.2438 177.548 76.1354 177.596 76.0406C177.643 75.9525 177.663 75.8644 177.663 75.7763C177.663 75.6476 177.623 75.5528 177.535 75.485C177.447 75.4173 177.318 75.3834 177.155 75.3834C177.013 75.3834 176.891 75.4105 176.776 75.4647C176.661 75.5189 176.566 75.6002 176.491 75.7018L175.949 75.3563C176.071 75.1734 176.247 75.0243 176.464 74.9227C176.681 74.821 176.932 74.7668 177.216 74.7668C177.453 74.7668 177.663 74.8075 177.839 74.882C178.016 74.9566 178.158 75.0717 178.253 75.214C178.348 75.3563 178.402 75.5189 178.402 75.7154C178.402 75.8915 178.368 76.0541 178.293 76.2032C178.219 76.3522 178.077 76.5284 177.867 76.7248L177.128 77.4159H178.503L178.51 77.4091Z" fill="#263238"/>
<path d="M188.035 76.5555C187.954 76.4539 187.852 76.3658 187.73 76.3049C187.805 76.2439 187.872 76.1694 187.92 76.0881C188.001 75.9525 188.049 75.7967 188.049 75.6206C188.049 75.336 187.933 75.1057 187.696 74.9363C187.473 74.7737 187.154 74.6924 186.741 74.6924H185.088V78.0799H186.836C187.269 78.0799 187.608 77.9986 187.839 77.836C188.082 77.6666 188.204 77.4227 188.204 77.1111C188.204 76.8943 188.143 76.7046 188.028 76.5555H188.035ZM186.016 76.7317H186.782C187.276 76.7317 187.276 76.9485 187.276 77.0366C187.276 77.1382 187.242 77.2059 187.168 77.2534C187.087 77.3076 186.951 77.3347 186.782 77.3347H186.016V76.7385V76.7317ZM187.019 75.9254C186.944 75.9796 186.822 76.0067 186.66 76.0067H186.023V75.4444H186.66C186.822 75.4444 186.944 75.4715 187.026 75.5189C187.093 75.5664 187.127 75.6273 187.127 75.7222C187.127 75.817 187.093 75.878 187.026 75.9254H187.019Z" fill="#263238"/>
<path d="M196.572 74.7872H197.311L196.633 77.9851H195.895L196.572 74.7872Z" fill="#263238"/>
<path d="M205.624 77.0095C205.366 76.7588 205.244 76.3929 205.244 75.9255V74.1368H205.983V75.8984C205.983 76.4675 206.22 76.7588 206.694 76.7588C206.924 76.7588 207.101 76.691 207.222 76.5488C207.344 76.4133 207.405 76.1965 207.405 75.8984V74.1368H208.137V75.9255C208.137 76.3929 208.008 76.752 207.758 77.0095C207.5 77.2602 207.148 77.3889 206.694 77.3889C206.24 77.3889 205.881 77.2602 205.63 77.0095H205.624Z" fill="#263238"/>
<path d="M246.131 76.0068L247.141 74.9973C247.595 74.5434 247.595 73.8049 247.141 73.351L246.816 73.0257C246.362 72.5718 245.623 72.5718 245.169 73.0257L244.16 74.0352C243.74 74.4553 243.713 75.1192 244.072 75.58L243.455 76.1965C243.001 75.8374 242.337 75.8577 241.91 76.2846L240.901 77.294C240.447 77.748 240.447 78.4865 240.901 78.9404L241.226 79.2656C241.68 79.7195 242.419 79.7195 242.873 79.2656L243.882 78.2561C244.302 77.836 244.329 77.1721 243.97 76.7114L244.587 76.0949C245.041 76.4539 245.705 76.4336 246.131 76.0068ZM244.675 74.5501L245.684 73.5407C245.854 73.3713 246.131 73.3713 246.301 73.5407L246.626 73.8659C246.795 74.0352 246.795 74.313 246.626 74.4824L245.616 75.4919C245.481 75.6274 245.278 75.6477 245.115 75.5664L245.271 75.4106L244.756 74.8957L244.6 75.0515C244.519 74.8889 244.539 74.6856 244.675 74.5501ZM243.374 77.7412L242.364 78.7507C242.195 78.9201 241.917 78.9201 241.748 78.7507L241.423 78.4255C241.253 78.2561 241.253 77.9783 241.423 77.809L242.432 76.7995C242.568 76.664 242.771 76.6436 242.934 76.7249L242.737 76.9214L243.252 77.4363L243.448 77.2398C243.53 77.4024 243.509 77.6057 243.374 77.7412Z" fill="#263238"/>
<path d="M235.276 73.08H230.141V73.8388H235.276V73.08Z" fill="#263238"/>
<path d="M236.795 74.8685H228.617V75.6273H236.795V74.8685Z" fill="#263238"/>
<path d="M235.276 76.6639H230.141V77.4227H235.276V76.6639Z" fill="#263238"/>
<path d="M236.037 78.4526H229.377V79.2114H236.037V78.4526Z" fill="#263238"/>
<path d="M216.315 73.4593C216.315 73.8658 215.983 74.1978 215.576 74.1978C215.17 74.1978 214.838 73.8658 214.838 73.4593C214.838 73.0528 215.17 72.7208 215.576 72.7208C215.983 72.7208 216.315 73.0528 216.315 73.4593Z" fill="#263238"/>
<path d="M216.315 76.149C216.315 76.5555 215.983 76.8875 215.576 76.8875C215.17 76.8875 214.838 76.5555 214.838 76.149C214.838 75.7425 215.17 75.4105 215.576 75.4105C215.983 75.4105 216.315 75.7425 216.315 76.149Z" fill="#263238"/>
<path d="M216.315 78.832C216.315 79.2385 215.983 79.5705 215.576 79.5705C215.17 79.5705 214.838 79.2385 214.838 78.832C214.838 78.4255 215.17 78.0935 215.576 78.0935C215.983 78.0935 216.315 78.4255 216.315 78.832Z" fill="#263238"/>
<path d="M222.995 73.08H217.859V73.8388H222.995V73.08Z" fill="#263238"/>
<path d="M222.995 75.7628H217.859V76.5216H222.995V75.7628Z" fill="#263238"/>
<path d="M222.995 78.4525H217.859V79.2113H222.995V78.4525Z" fill="#263238"/>
<path d="M172.025 76.1693L170.602 77.5921L169.18 76.1693H172.025Z" fill="#263238"/>
<path d="M208.137 77.809H205.244V78.3781H208.137V77.809Z" fill="#263238"/>
<path d="M148.793 88.9133H177.75C178.854 88.9133 178.854 87.1992 177.75 87.1992H148.793C147.689 87.1992 147.689 88.9133 148.793 88.9133Z" fill="#263238"/>
<path d="M182.27 88.9133H205.136C206.24 88.9133 206.24 87.1992 205.136 87.1992H182.27C181.165 87.1992 181.165 88.9133 182.27 88.9133Z" fill="#263238"/>
<path d="M209.762 88.9133H229.586C230.69 88.9133 230.69 87.1992 229.586 87.1992H209.762C208.658 87.1992 208.658 88.9133 209.762 88.9133Z" fill="#263238"/>
<path d="M234.01 88.9133H253.834C254.938 88.9133 254.938 87.1992 253.834 87.1992H234.01C232.906 87.1992 232.906 88.9133 234.01 88.9133Z" fill="#263238"/>
<path d="M148.793 97.3009H169.762C170.866 97.3009 170.866 95.5868 169.762 95.5868H148.793C147.689 95.5868 147.689 97.3009 148.793 97.3009Z" fill="#263238"/>
<path d="M174.281 97.3009H197.771C198.875 97.3009 198.875 95.5868 197.771 95.5868H174.281C173.177 95.5868 173.177 97.3009 174.281 97.3009Z" fill="#263238"/>
<path d="M202.397 97.3009H221.672C222.776 97.3009 222.776 95.5868 221.672 95.5868H202.397C201.292 95.5868 201.292 97.3009 202.397 97.3009Z" fill="#263238"/>
<path d="M226.09 97.3009H253.834C254.938 97.3009 254.938 95.5868 253.834 95.5868H226.09C224.986 95.5868 224.986 97.3009 226.09 97.3009Z" fill="#263238"/>
<path d="M148.793 105.688H175.487C176.591 105.688 176.591 103.974 175.487 103.974H148.793C147.689 103.974 147.689 105.688 148.793 105.688Z" fill="#263238"/>
<path d="M180.006 105.688H205.135C206.239 105.688 206.239 103.974 205.135 103.974H180.006C178.902 103.974 178.902 105.688 180.006 105.688Z" fill="#263238"/>
<path d="M209.762 105.688H238.231C239.335 105.688 239.335 103.974 238.231 103.974H209.762C208.658 103.974 208.658 105.688 209.762 105.688Z" fill="#263238"/>
<path d="M242.649 105.688H253.827C254.932 105.688 254.932 103.974 253.827 103.974H242.649C241.544 103.974 241.544 105.688 242.649 105.688Z" fill="#263238"/>
<path d="M148.793 114.083H171.164C172.269 114.083 172.269 112.369 171.164 112.369H148.793C147.689 112.369 147.689 114.083 148.793 114.083Z" fill="#263238"/>
<path d="M175.684 114.083H197.77C198.875 114.083 198.875 112.369 197.77 112.369H175.684C174.579 112.369 174.579 114.083 175.684 114.083Z" fill="#263238"/>
<path d="M202.397 114.083H217.464C218.569 114.083 218.569 112.369 217.464 112.369H202.397C201.292 112.369 201.292 114.083 202.397 114.083Z" fill="#263238"/>
<path d="M221.883 114.083H253.827C254.932 114.083 254.932 112.369 253.827 112.369H221.883C220.779 112.369 220.779 114.083 221.883 114.083Z" fill="#263238"/>
<g opacity="0.3">
<path d="M148.793 88.9133H177.75C178.854 88.9133 178.854 87.1992 177.75 87.1992H148.793C147.689 87.1992 147.689 88.9133 148.793 88.9133Z" fill="white"/>
<path d="M182.27 88.9133H205.136C206.24 88.9133 206.24 87.1992 205.136 87.1992H182.27C181.165 87.1992 181.165 88.9133 182.27 88.9133Z" fill="white"/>
<path d="M209.762 88.9133H229.586C230.69 88.9133 230.69 87.1992 229.586 87.1992H209.762C208.658 87.1992 208.658 88.9133 209.762 88.9133Z" fill="white"/>
<path d="M234.01 88.9133H253.834C254.938 88.9133 254.938 87.1992 253.834 87.1992H234.01C232.906 87.1992 232.906 88.9133 234.01 88.9133Z" fill="white"/>
<path d="M148.793 97.3009H169.762C170.866 97.3009 170.866 95.5868 169.762 95.5868H148.793C147.689 95.5868 147.689 97.3009 148.793 97.3009Z" fill="white"/>
<path d="M174.281 97.3009H197.771C198.875 97.3009 198.875 95.5868 197.771 95.5868H174.281C173.177 95.5868 173.177 97.3009 174.281 97.3009Z" fill="white"/>
<path d="M202.397 97.3009H221.672C222.776 97.3009 222.776 95.5868 221.672 95.5868H202.397C201.292 95.5868 201.292 97.3009 202.397 97.3009Z" fill="white"/>
<path d="M226.09 97.3009H253.834C254.938 97.3009 254.938 95.5868 253.834 95.5868H226.09C224.986 95.5868 224.986 97.3009 226.09 97.3009Z" fill="white"/>
<path d="M148.793 105.688H175.487C176.591 105.688 176.591 103.974 175.487 103.974H148.793C147.689 103.974 147.689 105.688 148.793 105.688Z" fill="white"/>
<path d="M180.006 105.688H205.135C206.239 105.688 206.239 103.974 205.135 103.974H180.006C178.902 103.974 178.902 105.688 180.006 105.688Z" fill="white"/>
<path d="M209.762 105.688H238.231C239.335 105.688 239.335 103.974 238.231 103.974H209.762C208.658 103.974 208.658 105.688 209.762 105.688Z" fill="white"/>
<path d="M242.649 105.688H253.827C254.932 105.688 254.932 103.974 253.827 103.974H242.649C241.544 103.974 241.544 105.688 242.649 105.688Z" fill="white"/>
<path d="M148.793 114.083H171.164C172.269 114.083 172.269 112.369 171.164 112.369H148.793C147.689 112.369 147.689 114.083 148.793 114.083Z" fill="white"/>
<path d="M175.684 114.083H197.77C198.875 114.083 198.875 112.369 197.77 112.369H175.684C174.579 112.369 174.579 114.083 175.684 114.083Z" fill="white"/>
<path d="M202.397 114.083H217.464C218.569 114.083 218.569 112.369 217.464 112.369H202.397C201.292 112.369 201.292 114.083 202.397 114.083Z" fill="white"/>
<path d="M221.883 114.083H253.827C254.932 114.083 254.932 112.369 253.827 112.369H221.883C220.779 112.369 220.779 114.083 221.883 114.083Z" fill="white"/>
</g>
<path d="M177.546 94.9025H143.386C141.441 94.9025 139.863 96.4798 139.863 98.4255V130.309C139.863 132.255 141.441 133.832 143.386 133.832H177.546C179.492 133.832 181.069 132.255 181.069 130.309V98.4255C181.069 96.4798 179.492 94.9025 177.546 94.9025Z" fill="#A55DDE"/>
<path d="M176.023 94.9025H141.863C139.917 94.9025 138.34 96.4798 138.34 98.4255V130.309C138.34 132.255 139.917 133.832 141.863 133.832H176.023C177.968 133.832 179.546 132.255 179.546 130.309V98.4255C179.546 96.4798 177.968 94.9025 176.023 94.9025Z" fill="#A55DDE"/>
<path opacity="0.6" d="M176.023 94.9025H141.863C139.917 94.9025 138.34 96.4798 138.34 98.4255V130.309C138.34 132.255 139.917 133.832 141.863 133.832H176.023C177.968 133.832 179.546 132.255 179.546 130.309V98.4255C179.546 96.4798 177.968 94.9025 176.023 94.9025Z" fill="white"/>
<path d="M144.715 105.688H173.184C174.288 105.688 174.288 103.974 173.184 103.974H144.715C143.611 103.974 143.611 105.688 144.715 105.688Z" fill="#263238"/>
<path d="M144.715 122.694H173.184C174.288 122.694 174.288 120.98 173.184 120.98H144.715C143.611 120.98 143.611 122.694 144.715 122.694Z" fill="#263238"/>
<path d="M144.715 114.083H173.184C174.288 114.083 174.288 112.369 173.184 112.369H144.715C143.611 112.369 143.611 114.083 144.715 114.083Z" fill="#263238"/>
<g opacity="0.1">
<path d="M144.715 105.688H173.184C174.288 105.688 174.288 103.974 173.184 103.974H144.715C143.611 103.974 143.611 105.688 144.715 105.688Z" fill="white"/>
<path d="M144.715 122.694H173.184C174.288 122.694 174.288 120.98 173.184 120.98H144.715C143.611 120.98 143.611 122.694 144.715 122.694Z" fill="white"/>
<path d="M144.715 114.083H173.184C174.288 114.083 174.288 112.369 173.184 112.369H144.715C143.611 112.369 143.611 114.083 144.715 114.083Z" fill="white"/>
</g>
<path d="M172.222 126.291H167.927C167.396 126.291 166.965 126.722 166.965 127.253V129.516C166.965 130.048 167.396 130.478 167.927 130.478H172.222C172.754 130.478 173.184 130.048 173.184 129.516V127.253C173.184 126.722 172.754 126.291 172.222 126.291Z" fill="#A55DDE"/>
<path opacity="0.8" d="M164.207 126.291H159.911C159.38 126.291 158.949 126.722 158.949 127.253V129.516C158.949 130.048 159.38 130.478 159.911 130.478H164.207C164.738 130.478 165.169 130.048 165.169 129.516V127.253C165.169 126.722 164.738 126.291 164.207 126.291Z" fill="white"/>
<path d="M234.065 222.226C234.065 222.226 236.186 190.133 231.735 182.511C231.735 182.511 226.782 189.103 228.666 222.226H234.065Z" fill="#A55DDE"/>
<path d="M228.666 222.226C228.666 222.226 227.663 193.358 213.47 188.669C213.47 188.669 221.884 203.175 222.514 222.226H228.666Z" fill="#A55DDE"/>
<path d="M233.591 222.226C233.591 222.226 234.593 193.358 248.787 188.669C248.787 188.669 240.372 203.175 239.742 222.226H233.591Z" fill="#A55DDE"/>
<g opacity="0.3">
<path d="M234.065 222.226C234.065 222.226 236.186 190.133 231.735 182.511C231.735 182.511 226.782 189.103 228.666 222.226H234.065Z" fill="white"/>
<path d="M228.666 222.226C228.666 222.226 227.663 193.358 213.47 188.669C213.47 188.669 221.884 203.175 222.514 222.226H228.666Z" fill="white"/>
<path d="M233.591 222.226C233.591 222.226 234.593 193.358 248.787 188.669C248.787 188.669 240.372 203.175 239.742 222.226H233.591Z" fill="white"/>
</g>
<path d="M242.642 223.256C242.642 223.256 245.948 200.133 256.734 193.71C256.734 193.71 238.015 192.165 238.455 223.256H242.642Z" fill="#A55DDE"/>
<path d="M236.945 222.484C236.945 222.484 233.016 197.558 245.428 185.743C245.428 185.743 227.887 189.598 232.514 223.256L236.945 222.484Z" fill="#A55DDE"/>
<path d="M219.946 223.256C219.946 223.256 216.64 200.133 205.854 193.71C205.854 193.71 224.573 192.165 224.133 223.256H219.946Z" fill="#A55DDE"/>
<path d="M225.643 222.484C225.643 222.484 229.573 197.558 217.161 185.743C217.161 185.743 234.701 189.598 230.074 223.256L225.643 222.484Z" fill="#A55DDE"/>
<g opacity="0.5">
<path d="M242.642 223.256C242.642 223.256 245.948 200.133 256.734 193.71C256.734 193.71 238.015 192.165 238.455 223.256H242.642Z" fill="white"/>
<path d="M236.945 222.484C236.945 222.484 233.016 197.558 245.428 185.743C245.428 185.743 227.887 189.598 232.514 223.256L236.945 222.484Z" fill="white"/>
<path d="M219.946 223.256C219.946 223.256 216.64 200.133 205.854 193.71C205.854 193.71 224.573 192.165 224.133 223.256H219.946Z" fill="white"/>
<path d="M225.643 222.484C225.643 222.484 229.573 197.558 217.161 185.743C217.161 185.743 234.701 189.598 230.074 223.256L225.643 222.484Z" fill="white"/>
</g>
<path d="M219.553 241.088H242.893L247.412 216.237H215.027L219.553 241.088Z" fill="#263238"/>
<path d="M177.595 138.06H186.138C186.714 138.06 187.155 138.588 187.046 139.157L187.033 139.232C187.426 139.13 187.859 139.137 188.32 139.272C189.865 139.733 189.905 141.108 189.445 142.646C188.984 144.191 188.191 145.316 186.653 144.855C186.389 144.774 186.152 144.665 185.949 144.523C185.637 145.255 185.136 145.878 184.512 146.332V147.463H179.214V146.332C178.347 145.702 177.717 144.753 177.507 143.636L176.68 139.15C176.572 138.581 177.012 138.053 177.588 138.053L177.595 138.06ZM186.87 143.873C187.886 144.178 188.401 143.439 188.706 142.423C189.011 141.407 188.984 140.505 187.968 140.201C187.548 140.072 187.168 140.119 186.843 140.282L186.247 143.52C186.416 143.669 186.619 143.791 186.877 143.866L186.87 143.873Z" fill="#263238"/>
<path opacity="0.7" d="M177.595 138.06H186.138C186.714 138.06 187.155 138.588 187.046 139.157L187.033 139.232C187.426 139.13 187.859 139.137 188.32 139.272C189.865 139.733 189.905 141.108 189.445 142.646C188.984 144.191 188.191 145.316 186.653 144.855C186.389 144.774 186.152 144.665 185.949 144.523C185.637 145.255 185.136 145.878 184.512 146.332V147.463H179.214V146.332C178.347 145.702 177.717 144.753 177.507 143.636L176.68 139.15C176.572 138.581 177.012 138.053 177.588 138.053L177.595 138.06ZM186.87 143.873C187.886 144.178 188.401 143.439 188.706 142.423C189.011 141.407 188.984 140.505 187.968 140.201C187.548 140.072 187.168 140.119 186.843 140.282L186.247 143.52C186.416 143.669 186.619 143.791 186.877 143.866L186.87 143.873Z" fill="white"/>
<path opacity="0.5" d="M186.871 143.873C187.887 144.178 188.402 143.439 188.707 142.423C189.012 141.407 188.985 140.505 187.968 140.201C187.548 140.072 187.169 140.119 186.844 140.282L186.248 143.52C186.417 143.669 186.62 143.791 186.878 143.866L186.871 143.873Z" fill="white"/>
<path d="M178.99 148.785H184.742C185.094 148.785 185.44 148.697 185.745 148.527L187.689 147.463C188.048 147.267 187.906 146.725 187.499 146.725H176.219C175.812 146.725 175.677 147.267 176.029 147.463L177.974 148.527C178.279 148.697 178.624 148.785 178.976 148.785H178.99Z" fill="#263238"/>
<path opacity="0.6" d="M178.99 148.785H184.742C185.094 148.785 185.44 148.697 185.745 148.527L187.689 147.463C188.048 147.267 187.906 146.725 187.499 146.725H176.219C175.812 146.725 175.677 147.267 176.029 147.463L177.974 148.527C178.279 148.697 178.624 148.785 178.976 148.785H178.99Z" fill="white"/>
<path d="M136.301 240.695H139.553L135.759 190.221H131.429L136.301 240.695Z" fill="#A55DDE"/>
<path opacity="0.7" d="M136.301 240.695H139.553L135.759 190.221H131.429L136.301 240.695Z" fill="white"/>
<g opacity="0.4">
<path d="M109.641 240.695H112.893L109.099 190.221H104.769L109.641 240.695Z" fill="#A55DDE"/>
</g>
<path d="M77.4735 240.695H74.2283L78.0155 190.221H82.3516L77.4735 240.695Z" fill="#A55DDE"/>
<g opacity="0.4">
<path d="M77.4735 240.695H74.2283L78.0155 190.221H82.3516L77.4735 240.695Z" fill="white"/>
</g>
<path d="M80.0143 190.221H133.348V194.936H80.0143V190.221Z" fill="#A55DDE"/>
<path opacity="0.5" d="M80.0143 190.221H133.348V194.936H80.0143V190.221Z" fill="white"/>
<path d="M104.134 240.695H100.888L104.676 190.221H109.012L104.134 240.695Z" fill="#A55DDE"/>
<path opacity="0.7" d="M104.134 240.695H100.888L104.676 190.221H109.012L104.134 240.695Z" fill="white"/>
<path d="M76.7766 131.318H85.6112C90.2522 131.318 94.473 133.981 96.4785 138.168L121.363 190.228H79.3036C76.431 190.228 74.0191 188.066 73.7007 185.207L68.7481 140.289C68.2197 135.505 71.9663 131.318 76.7833 131.318H76.7766Z" fill="#263238"/>
<path opacity="0.4" d="M76.7766 131.318H85.6112C90.2522 131.318 94.473 133.981 96.4785 138.168L121.363 190.228H79.3036C76.431 190.228 74.0191 188.066 73.7007 185.207L68.7481 140.289C68.2197 135.505 71.9663 131.318 76.7833 131.318H76.7766Z" fill="white"/>
<path d="M82.1691 131.318H91.0038C95.6448 131.318 99.8656 133.981 101.871 138.168L126.756 190.228H85.516C82.1759 190.228 79.371 187.714 79.0052 184.394L74.1407 140.289C73.6122 135.505 77.3589 131.318 82.1759 131.318H82.1691Z" fill="#263238"/>
<path opacity="0.3" d="M82.1691 131.318H91.0038C95.6448 131.318 99.8656 133.981 101.871 138.168L126.756 190.228H85.516C82.1759 190.228 79.371 187.714 79.0052 184.394L74.1407 140.289C73.6122 135.505 77.3589 131.318 82.1759 131.318H82.1691Z" fill="white"/>
<path d="M100.048 190.221H134.614C137.805 190.221 140.387 187.64 140.387 184.448C140.387 181.257 137.805 178.676 134.614 178.676H100.048V190.221Z" fill="#263238"/>
<path opacity="0.3" d="M100.048 190.221H134.614C137.805 190.221 140.387 187.64 140.387 184.448C140.387 181.257 137.805 178.676 134.614 178.676H100.048V190.221Z" fill="white"/>
<path d="M78.9172 190.221H101.248C104.297 190.221 106.77 187.748 106.77 184.699V184.198C106.77 181.149 104.297 178.676 101.248 178.676H78.9172C75.7262 178.676 73.1449 181.257 73.1449 184.448C73.1449 187.64 75.7262 190.221 78.9172 190.221Z" fill="#263238"/>
<path opacity="0.4" d="M78.9172 190.221H101.248C104.297 190.221 106.77 187.748 106.77 184.699V184.198C106.77 181.149 104.297 178.676 101.248 178.676H78.9172C75.7262 178.676 73.1449 181.257 73.1449 184.448C73.1449 187.64 75.7262 190.221 78.9172 190.221Z" fill="white"/>
<path d="M111.633 100.878C111.633 100.878 114.607 110.201 111.633 107.077C111.633 107.077 113.808 117.457 109.797 110.58C109.797 110.58 111.701 119.835 108.578 119.916C105.454 119.997 96.4299 119.577 96.4299 119.577L94.0519 115.438L93.1169 112.985C93.1169 112.985 88.5099 113.663 89.7633 109.184C91.0167 104.706 93.8893 98.3916 93.8893 98.3916L96.9448 94.6586L109.763 97.0502L111.64 100.871L111.633 100.878Z" fill="#263238"/>
<path opacity="0.6" d="M111.633 100.878C111.633 100.878 114.607 110.201 111.633 107.077C111.633 107.077 113.808 117.457 109.797 110.58C109.797 110.58 111.701 119.835 108.578 119.916C105.454 119.997 96.4299 119.577 96.4299 119.577L94.0519 115.438L93.1169 112.985C93.1169 112.985 88.5099 113.663 89.7633 109.184C91.0167 104.706 93.8893 98.3916 93.8893 98.3916L96.9448 94.6586L109.763 97.0502L111.64 100.871L111.633 100.878Z" fill="black"/>
<path d="M118.503 126.237C118.503 126.237 118.103 134.11 122.473 137.843C126.45 141.244 132.723 143.893 132.723 143.893L138.049 142.314C138.564 142.165 139.112 142.321 139.465 142.721L142.039 145.654C142.554 146.237 142.473 147.138 141.87 147.626C141.585 147.856 141.213 147.958 140.847 147.917L138.028 147.572C138.028 147.572 135.488 148.046 134.641 147.985C133.97 147.938 132.059 147.274 132.059 147.274C132.059 147.274 122.371 146.447 118.049 142.335C113.726 138.222 112.242 129.692 112.242 129.692L118.509 126.237H118.503Z" fill="#EBB376"/>
<path d="M113.157 112.009C116.612 111.488 119.038 120.065 119.641 128.168L111.524 131.075C111.524 131.075 106.687 112.985 113.157 112.009Z" fill="#A55DDE"/>
<path opacity="0.1" d="M111.525 131.075C111.525 131.075 109.106 122.016 109.987 116.373L115.055 114.489C115.055 114.489 118.747 122.436 116.843 141.007C114.249 137.673 112.934 132.856 112.453 130.749L111.525 131.081V131.075Z" fill="black"/>
<path d="M147.066 218.764L146.47 237.138H142.358L140.434 218.439L147.066 218.764Z" fill="#EBB376"/>
<path d="M146.531 235.255L141.843 235.282C141.639 235.282 141.463 235.424 141.416 235.621L140.447 240.031C140.359 240.424 140.603 240.81 140.996 240.898C141.043 240.912 141.097 240.919 141.152 240.919C143.103 240.878 144.837 240.77 147.27 240.77C150.135 240.77 149.411 241.108 152.784 241.149C154.817 241.169 155.183 238.859 154.322 238.751C150.379 238.263 149.234 237.064 147.71 235.654C147.378 235.383 146.958 235.248 146.531 235.262V235.255Z" fill="#263238"/>
<path opacity="0.1" d="M141.943 233.107L141.476 228.608H146.74L146.598 233.107H141.943Z" fill="#263238"/>
<path d="M98.9303 149.72C98.9303 149.72 86.1118 178.832 98.4221 178.832H133.937C133.937 178.832 135.475 186.576 141.01 229.13H146.952C146.952 229.13 149.784 179.286 146.505 171.854C143.93 166.027 125.597 161.86 117.792 160.336C115.692 159.923 114.086 158.229 113.795 156.102L112.06 148.947L98.9303 149.713V149.72Z" fill="#FAAE55"/>
<path d="M148.082 228.114L147.608 231.345H140.548L139.898 228.114H148.082Z" fill="#263238"/>
<path opacity="0.3" d="M148.082 228.114L147.608 231.345H140.548L139.898 228.114H148.082Z" fill="white"/>
<path opacity="0.4" d="M123.705 173.812L101.239 162.734V156.65L104.62 149.923C104.62 149.923 105.013 156.752 109.782 159.184C114.552 161.623 132.662 162.734 136.944 168.473C140.372 173.073 137.519 188.093 136.252 193.879C134.525 181.759 133.942 178.832 133.942 178.832H128.712L128.271 177.091L123.712 173.812H123.705Z" fill="#E19843"/>
<path d="M130.604 218.778L128.964 236.901L125.028 236.894L123.178 218.446L130.604 218.778Z" fill="#EBB376"/>
<path d="M129.355 235.255L124.667 235.282C124.464 235.282 124.288 235.424 124.24 235.621L123.271 240.031C123.183 240.424 123.427 240.81 123.82 240.898C123.868 240.912 123.922 240.919 123.976 240.919C125.927 240.878 127.662 240.77 130.094 240.77C132.96 240.77 132.235 241.108 135.609 241.149C137.641 241.169 138.007 238.859 137.147 238.751C133.204 238.263 132.059 237.064 130.534 235.654C130.202 235.383 129.782 235.248 129.355 235.262V235.255Z" fill="#263238"/>
<path opacity="0.1" d="M124.647 233.107L124.193 228.608H129.715L129.308 233.107H124.647Z" fill="#263238"/>
<path d="M89.6952 150.228C89.6952 150.228 88.6925 153.141 87.3917 157.104C84.6004 165.566 83.0895 178.832 91.4703 178.832H121.409C121.409 178.832 118.137 181.989 123.916 229.13H129.858C129.858 229.13 137.758 177.768 134.478 170.336C131.951 164.611 116.606 161.996 109.688 161.095C107.717 160.837 106.193 159.238 106.03 157.26L105.352 148.961L89.6885 150.234L89.6952 150.228Z" fill="#FAAE55"/>
<path d="M130.928 228.114L130.243 231.345H123.394L122.737 228.114H130.928Z" fill="#263238"/>
<path opacity="0.3" d="M130.928 228.114L130.243 231.345H123.394L122.737 228.114H130.928Z" fill="white"/>
<path d="M113.055 152.098C113.055 152.098 112.946 146.352 113.705 139.089C114.579 130.749 116.286 120.417 115.209 114.482C114.918 112.883 113.563 111.772 111.91 111.772H89.2878C87.8447 111.772 86.6727 113.134 86.9166 114.523C88.0277 120.878 90.8664 137.667 88.6577 152.599C88.6577 152.599 106.009 153.974 113.055 152.091V152.098Z" fill="#A55DDE"/>
<path opacity="0.1" d="M89.01 141.996C89.0777 139.916 89.0777 137.863 89.0303 135.858L92.6821 135.532L99.3216 142.118L105.114 143.73L108.055 146.481C108.055 146.481 94.5655 146.115 90.7579 143.419C90.1414 142.985 89.5655 142.504 89.0168 142.003L89.01 141.996Z" fill="black"/>
<path d="M99.4036 100.079C99.7627 103.351 98.8684 110.316 96.4294 112.267C96.4294 112.267 97.3305 116.535 104.648 117.206C109.106 115.241 107.446 111.617 107.446 111.617C103.936 110.424 103.584 108.297 104.39 105.851L99.4036 100.079Z" fill="#EBB376"/>
<path d="M106.456 111.047C106.456 111.047 108.414 116.095 103.414 116.115C97.6688 116.136 97.1674 111.047 97.1674 111.047L95.6227 111.779C95.6227 111.779 95.8802 121.874 104.349 117.633C104.349 117.633 107.621 119.916 108.055 116.115C108.489 112.314 107.75 111.779 107.75 111.779L106.463 111.047H106.456Z" fill="#A55DDE"/>
<path opacity="0.3" d="M106.456 111.047C106.456 111.047 108.414 116.095 103.414 116.115C97.6688 116.136 97.1674 111.047 97.1674 111.047L95.6227 111.779C95.6227 111.779 95.8802 121.874 104.349 117.633C104.349 117.633 107.621 119.916 108.055 116.115C108.489 112.314 107.75 111.779 107.75 111.779L106.463 111.047H106.456Z" fill="white"/>
<path opacity="0.1" d="M104.539 109.659C103.238 109.659 100.657 109.089 99.6814 104.902C98.3534 99.2046 104.383 105.851 104.383 105.851C103.916 107.267 103.841 108.575 104.539 109.659Z" fill="black"/>
<path d="M97.2894 93.9268C96.8016 99.313 96.4696 101.583 98.746 104.733C102.167 109.476 108.882 108.907 110.975 103.778C112.858 99.164 113.346 91.1355 108.455 88.2087C104.972 86.1016 100.433 87.2127 98.326 90.7019C97.7298 91.6843 97.3774 92.7886 97.2826 93.9336L97.2894 93.9268Z" fill="#EBB376"/>
<path d="M108.625 99.0217C108.835 100.079 109.18 101.102 109.668 102.064C109.167 102.308 108.584 102.314 108.076 102.084L108.625 99.0285V99.0217Z" fill="#D58745"/>
<path d="M105.278 95.6273C105.244 95.6138 105.21 95.5867 105.19 95.5596C105.115 95.4648 105.136 95.3293 105.231 95.2615C105.867 94.7466 106.707 94.5704 107.493 94.794C107.602 94.8347 107.663 94.9566 107.622 95.065C107.581 95.1734 107.466 95.2344 107.351 95.1937C106.701 95.0176 106.003 95.1666 105.481 95.5935C105.42 95.6409 105.339 95.6477 105.271 95.6206L105.278 95.6273Z" fill="#2E353A"/>
<path d="M112.751 96.7588C112.792 96.7588 112.825 96.7452 112.859 96.7249C112.954 96.6571 112.981 96.5284 112.914 96.4268C112.473 95.7357 111.721 95.3089 110.908 95.275C110.793 95.275 110.698 95.3767 110.698 95.4918C110.698 95.607 110.793 95.7019 110.915 95.7019C111.586 95.7425 112.202 96.0948 112.568 96.6639C112.609 96.7249 112.683 96.7588 112.758 96.752L112.751 96.7588Z" fill="#2E353A"/>
<path d="M105.705 97.7547C105.624 98.1815 105.793 98.5745 106.078 98.6287C106.362 98.6829 106.647 98.3712 106.728 97.9376C106.803 97.4972 106.64 97.1178 106.362 97.0636C106.084 97.0094 105.793 97.3211 105.712 97.7547H105.705Z" fill="#2E353A"/>
<path d="M110.59 98.6355C110.509 99.0624 110.678 99.4553 110.956 99.5095C111.234 99.5637 111.532 99.2521 111.607 98.8185C111.688 98.3849 111.518 97.9987 111.241 97.9445C110.963 97.8903 110.665 98.1951 110.59 98.6355Z" fill="#2E353A"/>
<path d="M111.118 97.9445L112.209 97.8361C112.209 97.8361 111.531 98.5474 111.118 97.9445Z" fill="#2E353A"/>
<path d="M106.228 97.0704L107.318 96.962C107.318 96.962 106.641 97.6734 106.228 97.0704Z" fill="#2E353A"/>
<path d="M101.218 91.5352C101.218 91.5352 112.756 96.7588 109.206 91.5352C109.206 91.5352 115.839 96.0136 113.983 92.5041C112.126 89.0014 110.595 88.6558 110.595 88.6558C110.595 88.6558 112.343 89.252 112.194 87.9038C112.045 86.5556 108.292 84.523 105.141 85.6206C105.141 85.6206 106.124 84.103 105.073 83.5068C104.023 82.9174 101.916 86.0407 101.916 86.0407C101.916 86.0407 96.957 84.9431 96.4353 86.122C95.9136 87.3076 97.5328 87.1314 97.5328 87.1314C97.5328 87.1314 92.0315 88.9133 92.4515 90.2615C92.8716 91.6098 93.8404 90.7697 93.8404 90.7697C93.8404 90.7697 89.3147 96.0949 90.2496 97.9512C91.1846 99.8076 92.8784 97.626 92.8784 97.626C92.8784 97.626 88.3052 104.577 90.2496 106.115C92.2009 107.66 93.8878 103.432 93.8878 103.432C93.8878 103.432 91.2524 110.018 93.1223 110.526C94.9854 111.034 95.6426 106.115 95.6426 106.115C95.6426 106.115 94.9448 110.112 96.4421 110.106C97.9394 110.099 98.5491 97.5922 98.5491 97.5922C98.5491 97.5922 99.9583 102.504 101.232 91.5217L101.218 91.5352Z" fill="#263238"/>
<path d="M95.3795 97.9512C95.5218 98.9878 96.0706 99.9228 96.9039 100.553C98.015 101.379 99.0652 100.505 99.1736 99.1978C99.2684 98.0258 98.8077 96.1694 97.4866 95.8577C96.5178 95.6612 95.576 96.2846 95.3795 97.2466C95.3321 97.477 95.3321 97.7141 95.3795 97.9444V97.9512Z" fill="#EBB376"/>
<path d="M106.591 104.266C106.747 104.313 106.903 104.354 107.065 104.374C107.12 104.381 107.167 104.354 107.174 104.3C107.174 104.245 107.14 104.198 107.086 104.184C106.259 104.076 105.541 103.581 105.135 102.856C105.114 102.809 105.053 102.789 105.006 102.809C104.958 102.829 104.938 102.89 104.958 102.938C105.297 103.581 105.887 104.062 106.584 104.266H106.591Z" fill="#263238"/>
<path opacity="0.1" d="M91.6739 117.863C91.6739 117.863 93.4761 127.037 94.8379 129.557L90.7525 130.065L89.0181 118.676L91.6807 117.863H91.6739Z" fill="black"/>
<path d="M91.9572 124.076C91.9572 124.076 90.9409 133.398 95.6293 136.298C100.318 139.198 110.446 143.175 110.446 143.175L116.503 141.874C116.828 141.806 117.16 141.942 117.343 142.213L120.006 146.183C120.202 146.474 120.189 146.854 119.972 147.131C119.803 147.348 119.532 147.463 119.254 147.436L115.521 147.05C115.521 147.05 113.617 147.504 112.967 147.484C112.14 147.457 109.742 146.732 109.742 146.732C109.742 146.732 95.4938 145.35 90.9342 141.02C86.3813 136.691 85.3583 127.707 85.3583 127.707L91.9572 124.069V124.076Z" fill="#EBB376"/>
<path d="M88.4877 111.976C92.8576 111.454 92.2073 121.285 93.1016 128.168L84.9782 130.065C84.9782 130.065 81.9837 112.755 88.481 111.976H88.4877Z" fill="#A55DDE"/>
<path d="M140.753 148.73C141.267 148.73 141.688 148.31 141.688 147.795C141.688 147.281 141.267 146.86 140.753 146.86H115.251C114.736 146.86 114.316 147.281 114.316 147.795C114.316 148.31 114.736 148.73 115.251 148.73H140.753Z" fill="#263238"/>
<path d="M138.592 147.111L141.986 122.958C142.108 122.07 142.935 121.352 143.822 121.352H147.074V148.724H139.974C139.086 148.724 138.463 148.005 138.592 147.118V147.111Z" fill="#263238"/>
<g opacity="0.1">
<path d="M140.753 148.73C141.267 148.73 141.688 148.31 141.688 147.795C141.688 147.281 141.267 146.86 140.753 146.86H115.251C114.736 146.86 114.316 147.281 114.316 147.795C114.316 148.31 114.736 148.73 115.251 148.73H140.753Z" fill="white"/>
<path d="M138.592 147.111L141.986 122.958C142.108 122.07 142.935 121.352 143.822 121.352H147.074V148.724H139.974C139.086 148.724 138.463 148.005 138.592 147.118V147.111Z" fill="white"/>
</g>
<path d="M141.377 148.724H170.211C171.099 148.724 171.919 148.005 172.047 147.118L175.442 122.965C175.564 122.077 174.947 121.359 174.06 121.359H145.225C144.337 121.359 143.518 122.077 143.389 122.965L139.995 147.118C139.873 148.005 140.489 148.724 141.377 148.724Z" fill="#263238"/>
<path opacity="0.7" d="M141.377 148.724H170.211C171.099 148.724 171.919 148.005 172.047 147.118L175.442 122.965C175.564 122.077 174.947 121.359 174.06 121.359H145.225C144.337 121.359 143.518 122.077 143.389 122.965L139.995 147.118C139.873 148.005 140.489 148.724 141.377 148.724Z" fill="white"/>
<path opacity="0.7" d="M156.31 134.381C156.194 135.194 156.763 135.851 157.576 135.851C158.389 135.851 159.141 135.194 159.257 134.381C159.372 133.568 158.803 132.911 157.99 132.911C157.177 132.911 156.425 133.568 156.31 134.381Z" fill="white"/>
<path d="M212.723 241.454H216.009L217.445 154.557H211.287L212.723 241.454Z" fill="#A55DDE"/>
<path opacity="0.7" d="M212.723 241.454H216.009L217.445 154.557H211.287L212.723 241.454Z" fill="white"/>
<path d="M176.485 241.454H179.771L181.207 154.557H175.042L176.485 241.454Z" fill="#A55DDE"/>
<path opacity="0.4" d="M176.485 241.454H179.771L181.207 154.557H175.042L176.485 241.454Z" fill="white"/>
<path d="M152.413 153.1H214.371V159.896H152.413V153.1Z" fill="#A55DDE"/>
<path opacity="0.3" d="M152.413 153.1H214.371V159.896H152.413V153.1Z" fill="white"/>
<path d="M116.072 153.1H152.406V159.896H116.072V153.1Z" fill="#A55DDE"/>
<path opacity="0.5" d="M116.072 153.1H152.406V159.896H116.072V153.1Z" fill="white"/>
<path d="M114.526 241.454H117.805L119.248 154.557H113.083L114.526 241.454Z" fill="#A55DDE"/>
<path opacity="0.4" d="M114.526 241.454H117.805L119.248 154.557H113.083L114.526 241.454Z" fill="white"/>
<path d="M159.546 148.73H111.118C110.129 148.73 109.323 149.537 109.323 150.526V152.762C109.323 153.751 110.129 154.557 111.118 154.557H159.546C160.536 154.557 161.342 153.751 161.342 152.762V150.526C161.342 149.537 160.536 148.73 159.546 148.73Z" fill="#263238"/>
<path opacity="0.4" d="M159.546 148.73H111.118C110.129 148.73 109.323 149.537 109.323 150.526V152.762C109.323 153.751 110.129 154.557 111.118 154.557H159.546C160.536 154.557 161.342 153.751 161.342 152.762V150.526C161.342 149.537 160.536 148.73 159.546 148.73Z" fill="white"/>
<path d="M220.759 148.73H155.041C154.052 148.73 153.246 149.537 153.246 150.526V152.762C153.246 153.751 154.052 154.557 155.041 154.557H220.759C221.748 154.557 222.555 153.751 222.555 152.762V150.526C222.555 149.537 221.748 148.73 220.759 148.73Z" fill="#263238"/>
<path opacity="0.3" d="M220.759 148.73H155.041C154.052 148.73 153.246 149.537 153.246 150.526V152.762C153.246 153.751 154.052 154.557 155.041 154.557H220.759C221.748 154.557 222.555 153.751 222.555 152.762V150.526C222.555 149.537 221.748 148.73 220.759 148.73Z" fill="white"/>
<path d="M150.766 241.454H154.052L155.488 154.557H149.33L150.766 241.454Z" fill="#A55DDE"/>
<path opacity="0.7" d="M150.766 241.454H154.052L155.488 154.557H149.33L150.766 241.454Z" fill="white"/>
</g>
<defs>
<clipPath id="clip0_615_10475">
<rect width="338.753" height="250" fill="white" transform="matrix(-1 0 0 1 338.754 1)"/>
</clipPath>
</defs>
</svg>
