<svg width="313" height="250" viewBox="0 0 313 250" fill="none" xmlns="http://www.w3.org/2000/svg">
<rect width="312" height="250" fill="#FBFBFE"/>
<mask id="mask0_615_10215" style="mask-type:alpha" maskUnits="userSpaceOnUse" x="0" y="0" width="312" height="250">
<rect width="312" height="250" fill="#FBFBFE"/>
</mask>
<g mask="url(#mask0_615_10215)">
</g>
<g clip-path="url(#clip0_615_10215)">
<path d="M313 212.514H1V212.669H313V212.514Z" fill="#EBEBEB"/>
<path d="M281.737 222.514H261.07V222.67H281.737V222.514Z" fill="#EBEBEB"/>
<path d="M207.68 224.205H202.258V224.36H207.68V224.205Z" fill="#EBEBEB"/>
<path d="M260.447 216.746H248.473V216.902H260.447V216.746Z" fill="#EBEBEB"/>
<path d="M60.6849 217.791H33.7344V217.946H60.6849V217.791Z" fill="#EBEBEB"/>
<path d="M70.196 217.791H66.2461V217.946H70.196V217.791Z" fill="#EBEBEB"/>
<path d="M141.493 220.413H83.0371V220.569H141.493V220.413Z" fill="#EBEBEB"/>
<path d="M148.895 184.795H28.4068C26.4412 184.795 24.8438 183.203 24.8438 181.246V12.5488C24.8438 10.5911 26.4412 9 28.4068 9H148.901C150.867 9 152.464 10.5911 152.464 12.5488V181.246C152.458 183.203 150.861 184.795 148.895 184.795ZM28.4068 9.15538C26.5285 9.15538 24.9997 10.6781 24.9997 12.5488V181.246C24.9997 183.116 26.5285 184.639 28.4068 184.639H148.901C150.779 184.639 152.308 183.116 152.308 181.246V12.5488C152.308 10.6781 150.779 9.15538 148.901 9.15538H28.4068Z" fill="#EBEBEB"/>
<path d="M283.866 184.795H163.372C161.406 184.795 159.809 183.203 159.809 181.246V12.5488C159.809 10.5911 161.406 9 163.372 9H283.866C285.832 9 287.429 10.5911 287.429 12.5488V181.246C287.429 183.203 285.832 184.795 283.866 184.795ZM163.372 9.15538C161.493 9.15538 159.965 10.6781 159.965 12.5488V181.246C159.965 183.116 161.493 184.639 163.372 184.639H283.866C285.744 184.639 287.273 183.116 287.273 181.246V12.5488C287.273 10.6781 285.744 9.15538 283.866 9.15538H163.372Z" fill="#EBEBEB"/>
<g opacity="0.2">
<path d="M126.045 45.781H44.6504V49.9451H126.045V45.781Z" fill="#7F34BB"/>
<path d="M51.9825 30.4296H48.3945V45.7809H51.9825V30.4296Z" fill="#A55DDE"/>
<path d="M69.3224 30.4296H65.7344V45.7809H69.3224V30.4296Z" fill="#A55DDE"/>
<path d="M89.0067 30.0491L85.4707 30.6559L88.0878 45.7846L91.6238 45.1778L89.0067 30.0491Z" fill="#A55DDE"/>
<path d="M56.4259 32.4496H52.8379V45.781H56.4259V32.4496Z" fill="#A55DDE"/>
<path d="M64.6681 32.4496H61.0801V45.781H64.6681V32.4496Z" fill="#A55DDE"/>
<path d="M85.4728 32.4496H81.8848V45.781H85.4728V32.4496Z" fill="#A55DDE"/>
<path d="M74.0319 31.9904L70.5293 32.7655L73.4325 45.7796L76.9351 45.0045L74.0319 31.9904Z" fill="#A55DDE"/>
<path d="M59.5272 29.6652H57.7363V45.781H59.5272V29.6652Z" fill="#A55DDE"/>
<path d="M80.8553 29.6652H79.0645V45.781H80.8553V29.6652Z" fill="#A55DDE"/>
<path d="M118.232 33.6304H100.76V45.6442H118.232V33.6304Z" fill="#A55DDE"/>
</g>
<g opacity="0.2">
<path d="M44.6464 81.0417L126.041 81.0417V76.8776L44.6464 76.8776V81.0417Z" fill="#7F34BB"/>
<path d="M118.705 76.874H122.293V61.5227H118.705V76.874Z" fill="#A55DDE"/>
<path d="M101.369 76.874H104.957V61.5227H101.369V76.874Z" fill="#A55DDE"/>
<path d="M79.0597 76.2697L82.5957 76.8765L85.2128 61.7477L81.6768 61.1409L79.0597 76.2697Z" fill="#A55DDE"/>
<path d="M114.262 76.8774H117.85V63.546H114.262V76.8774Z" fill="#A55DDE"/>
<path d="M106.021 76.8774H109.609V63.546H106.021V76.8774Z" fill="#A55DDE"/>
<path d="M85.2167 76.8774H88.8047V63.546H85.2167V76.8774Z" fill="#A55DDE"/>
<path d="M93.7533 76.1023L97.2559 76.8774L100.159 63.8633L96.6564 63.0882L93.7533 76.1023Z" fill="#A55DDE"/>
<path d="M111.166 76.8763H112.957V60.7605H111.166V76.8763Z" fill="#A55DDE"/>
<path d="M89.838 76.8763H91.6289V60.7605H89.838V76.8763Z" fill="#A55DDE"/>
<path d="M52.4616 76.7372H69.9336V64.7234H52.4616V76.7372Z" fill="#A55DDE"/>
</g>
<path d="M267.298 31.3059H185.604V121.344H267.298V31.3059Z" fill="#E9E9E9"/>
<path opacity="0.2" d="M263.915 34.8734H189.197V117.963H263.915V34.8734Z" fill="#A55DDE"/>
<path d="M210.313 34.8734L189.197 113.644V70.9957L198.863 34.8734H210.313Z" fill="white"/>
<path d="M219.755 34.8734L197.485 117.963H193.285L215.556 34.8734H219.755Z" fill="white"/>
<path d="M263.915 57.5337V100.182L259.185 117.963H247.729L263.915 57.5337Z" fill="white"/>
<path d="M227.898 31.3059H224.996V121.344H227.898V31.3059Z" fill="#E9E9E9"/>
<path d="M265.725 49.5782H187.02V52.4683H265.725V49.5782Z" fill="#E9E9E9"/>
<path d="M277.825 168.902C276.702 167.063 274.855 168.66 274.855 168.66C275.117 165.13 271.86 162.718 271.86 162.718C271.86 162.718 275.647 162.718 276.178 159.12C276.708 155.521 274.855 157.193 273.12 157.168C271.386 157.143 269.57 162.196 271.86 165.03C274.15 167.871 273.532 172.718 268.253 177.38C266.961 178.517 266.088 180.034 265.495 181.668C265.894 177.386 266.119 171.351 264.852 167.324C262.706 160.481 266.799 158.641 267.985 155.217C269.177 151.792 264.852 148.902 264.852 148.902C264.852 148.902 268.915 147.062 266.93 144.956C264.946 142.849 260.852 143.134 260.852 145.888C260.852 148.641 263.629 149.691 263.629 149.691C263.629 149.691 266.799 152.979 266.799 154.695C266.799 156.404 263.629 160.089 263.629 160.089C263.629 160.089 265.083 156.938 262.175 156.802C259.267 156.665 258.344 160.481 259.536 162.196C260.728 163.905 262.706 162.457 262.706 162.457C262.706 162.457 262.937 166.143 263.617 168.38C263.916 169.362 263.773 173.222 263.523 177.237C262.937 175.789 262.107 174.459 260.952 173.433C255.667 168.772 255.055 163.924 257.346 161.084C259.636 158.243 257.82 153.197 256.085 153.222C254.35 153.246 252.497 151.568 253.027 155.173C253.558 158.772 257.346 158.772 257.346 158.772C257.346 158.772 254.082 161.189 254.35 164.713C254.35 164.713 252.503 163.11 251.38 164.956C249.377 168.244 254.02 170.282 254.806 168.666C254.806 168.666 264.659 175.615 262.281 185.615L262.837 186.429C262.768 187.237 262.718 187.722 262.718 187.722L263.492 187.392L264.372 188.679C264.328 191.177 264.596 193.023 264.596 193.023L266.955 189.561C264.578 179.561 274.431 172.613 274.431 172.613C275.179 174.235 279.828 172.19 277.825 168.902Z" fill="#A55DDE"/>
<path opacity="0.2" d="M277.825 168.902C276.702 167.063 274.855 168.66 274.855 168.66C275.117 165.13 271.86 162.718 271.86 162.718C271.86 162.718 275.647 162.718 276.178 159.12C276.708 155.521 274.855 157.193 273.12 157.168C271.386 157.143 269.57 162.196 271.86 165.03C274.15 167.871 273.532 172.718 268.253 177.38C266.961 178.517 266.088 180.034 265.495 181.668C265.894 177.386 266.119 171.351 264.852 167.324C262.706 160.481 266.799 158.641 267.985 155.217C269.177 151.792 264.852 148.902 264.852 148.902C264.852 148.902 268.915 147.062 266.93 144.956C264.946 142.849 260.852 143.134 260.852 145.888C260.852 148.641 263.629 149.691 263.629 149.691C263.629 149.691 266.799 152.979 266.799 154.695C266.799 156.404 263.629 160.089 263.629 160.089C263.629 160.089 265.083 156.938 262.175 156.802C259.267 156.665 258.344 160.481 259.536 162.196C260.728 163.905 262.706 162.457 262.706 162.457C262.706 162.457 262.937 166.143 263.617 168.38C263.916 169.362 263.773 173.222 263.523 177.237C262.937 175.789 262.107 174.459 260.952 173.433C255.667 168.772 255.055 163.924 257.346 161.084C259.636 158.243 257.82 153.197 256.085 153.222C254.35 153.246 252.497 151.568 253.027 155.173C253.558 158.772 257.346 158.772 257.346 158.772C257.346 158.772 254.082 161.189 254.35 164.713C254.35 164.713 252.503 163.11 251.38 164.956C249.377 168.244 254.02 170.282 254.806 168.666C254.806 168.666 264.659 175.615 262.281 185.615L262.837 186.429C262.768 187.237 262.718 187.722 262.718 187.722L263.492 187.392L264.372 188.679C264.328 191.177 264.596 193.023 264.596 193.023L266.955 189.561C264.578 179.561 274.431 172.613 274.431 172.613C275.179 174.235 279.828 172.19 277.825 168.902Z" fill="#A55DDE"/>
<path d="M275.899 211.563H253.322L250.889 186.951H278.332L275.899 211.563Z" fill="#171E4A"/>
<path d="M279.536 184.235H249.684V189.667H279.536V184.235Z" fill="#F0F0F0"/>
<path d="M156.999 240.581C223.819 240.581 277.986 237.431 277.986 233.546C277.986 229.66 223.819 226.51 156.999 226.51C90.1796 226.51 36.0117 229.66 36.0117 233.546C36.0117 237.431 90.1796 240.581 156.999 240.581Z" fill="#F5F5F5"/>
<path d="M42.4682 232.694H152.305L152.305 95.4646H42.4682L42.4682 232.694Z" fill="#FAAE55"/>
<path opacity="0.5" d="M152.364 95.4647H42.4648V232.34H152.364V95.4647Z" fill="white"/>
<path opacity="0.2" d="M149.057 99.7717H61.9531V125.049H149.057V99.7717Z" fill="#E19843"/>
<path opacity="0.5" d="M66.9014 103.861H61.9531V125.049H66.9014V103.861Z" fill="#A55DDE"/>
<path opacity="0.5" d="M90.8253 103.861H85.877V125.049H90.8253V103.861Z" fill="#A55DDE"/>
<path opacity="0.5" d="M117.986 103.344L113.109 104.18L116.721 125.061L121.598 124.224L117.986 103.344Z" fill="#A55DDE"/>
<path opacity="0.5" d="M73.0284 106.658H68.0801V125.055H73.0284V106.658Z" fill="#A55DDE"/>
<path opacity="0.5" d="M84.4054 106.658H79.457V125.055H84.4054V106.658Z" fill="#A55DDE"/>
<path opacity="0.5" d="M113.114 106.658H108.166V125.055H113.114V106.658Z" fill="#A55DDE"/>
<path opacity="0.5" d="M97.3247 106.027L92.4941 107.096L96.5004 125.055L101.331 123.986L97.3247 106.027Z" fill="#A55DDE"/>
<path opacity="0.5" d="M77.3089 102.811H74.8379V125.049H77.3089V102.811Z" fill="#A55DDE"/>
<path opacity="0.5" d="M106.737 102.811H104.266V125.049H106.737V102.811Z" fill="#A55DDE"/>
<path opacity="0.2" d="M61.9505 154.335H149.055V129.059H61.9505V154.335Z" fill="#E19843"/>
<path opacity="0.5" d="M144.108 154.332H149.057V133.145H144.108V154.332Z" fill="#A55DDE"/>
<path opacity="0.5" d="M120.181 154.332H125.129V133.145H120.181V154.332Z" fill="#A55DDE"/>
<path opacity="0.5" d="M89.3969 153.497L94.2734 154.334L97.8854 133.454L93.0089 132.617L89.3969 153.497Z" fill="#A55DDE"/>
<path opacity="0.5" d="M137.979 154.333H142.928V135.937H137.979V154.333Z" fill="#A55DDE"/>
<path opacity="0.5" d="M126.602 154.333H131.551V135.937H126.602V154.333Z" fill="#A55DDE"/>
<path opacity="0.5" d="M97.8974 154.333H102.846V135.937H97.8974V154.333Z" fill="#A55DDE"/>
<path opacity="0.5" d="M109.675 153.264L114.506 154.333L118.512 136.374L113.682 135.305L109.675 153.264Z" fill="#A55DDE"/>
<path opacity="0.5" d="M133.699 154.331H136.17V132.093H133.699V154.331Z" fill="#A55DDE"/>
<path opacity="0.5" d="M104.271 154.331H106.742V132.093H104.271V154.331Z" fill="#A55DDE"/>
<path opacity="0.5" d="M66.9014 133.147H61.9531V154.334H66.9014V133.147Z" fill="#A55DDE"/>
<path opacity="0.5" d="M73.0284 135.938H68.0801V154.334H73.0284V135.938Z" fill="#A55DDE"/>
<path opacity="0.5" d="M84.4034 135.938H79.4551V154.334H84.4034V135.938Z" fill="#A55DDE"/>
<path opacity="0.5" d="M77.3089 132.097H74.8379V154.334H77.3089V132.097Z" fill="#A55DDE"/>
<path opacity="0.2" d="M149.057 158.337H61.9531V183.614H149.057V158.337Z" fill="#E19843"/>
<g opacity="0.5">
<path d="M116.896 162.426H111.947V183.614H116.896V162.426Z" fill="#A55DDE"/>
<path d="M144.054 161.911L139.178 162.748L142.79 183.628L147.666 182.791L144.054 161.911Z" fill="#A55DDE"/>
<path d="M99.1007 165.217H94.1523V183.614H99.1007V165.217Z" fill="#A55DDE"/>
<path d="M110.476 165.217H105.527V183.614H110.476V165.217Z" fill="#A55DDE"/>
<path d="M139.179 165.217H134.23V183.614H139.179V165.217Z" fill="#A55DDE"/>
<path d="M123.395 164.593L118.564 165.662L122.571 183.621L127.401 182.552L123.395 164.593Z" fill="#A55DDE"/>
<path d="M103.373 161.376H100.902V183.614H103.373V161.376Z" fill="#A55DDE"/>
<path d="M132.809 161.376H130.338V183.614H132.809V161.376Z" fill="#A55DDE"/>
<path d="M87.1266 161.909L82.25 162.746L85.862 183.626L90.7386 182.789L87.1266 161.909Z" fill="#A55DDE"/>
<path d="M82.2511 165.217H77.3027V183.614H82.2511V165.217Z" fill="#A55DDE"/>
<path d="M66.4673 164.592L61.6367 165.661L65.6429 183.62L70.4735 182.551L66.4673 164.592Z" fill="#A55DDE"/>
<path d="M75.8792 161.376H73.4082V183.614H75.8792V161.376Z" fill="#A55DDE"/>
</g>
<path opacity="0.2" d="M42.4728 232.694H58.6406L58.6406 95.4646H42.4728L42.4728 232.694Z" fill="#FAAE55"/>
<path opacity="0.1" d="M148.407 188.101H107.18V226.989H148.407V188.101Z" fill="#E19843"/>
<path opacity="0.1" d="M103.892 188.101H61.9531V226.989H103.892V188.101Z" fill="#E19843"/>
<path opacity="0.2" d="M101.383 205.572C101.383 206.659 100.497 207.548 99.3984 207.548C98.3064 207.548 97.4141 206.665 97.4141 205.572C97.4141 204.478 98.3001 203.595 99.3984 203.595C100.497 203.595 101.383 204.478 101.383 205.572Z" fill="#7F34BB"/>
<path opacity="0.2" d="M113.238 205.572C113.238 206.659 112.352 207.548 111.254 207.548C110.162 207.548 109.27 206.665 109.27 205.572C109.27 204.478 110.156 203.595 111.254 203.595C112.352 203.595 113.238 204.478 113.238 205.572Z" fill="#7F34BB"/>
<path d="M225.043 108.69H217.018L219.158 131.556L206.479 133.451V135.043H233.186V133.451L227.713 131.556L225.043 108.69Z" fill="#263238"/>
<path d="M193.911 123.203C193.767 124.738 194.897 125.981 196.425 125.981H244.966C246.508 125.981 247.868 124.738 248.005 123.203L250.888 92.2514C250.919 91.9345 250.894 91.6299 250.826 91.3502C250.551 90.2626 249.59 89.4733 248.373 89.4733H199.833C198.291 89.4733 196.931 90.7163 196.794 92.2514L193.911 123.203Z" fill="#263238"/>
<path d="M244.967 124.421C245.704 124.421 246.384 123.793 246.452 123.06L249.335 92.1085C249.348 91.9656 249.341 91.8413 249.31 91.7294C249.204 91.3006 248.842 91.0333 248.374 91.0333H199.833C199.097 91.0333 198.417 91.661 198.348 92.3944L195.465 123.346C195.44 123.65 195.521 123.93 195.702 124.129C195.827 124.266 196.052 124.427 196.42 124.427H244.967V124.421Z" fill="#A55DDE"/>
<path opacity="0.6" d="M244.967 124.421C245.704 124.421 246.384 123.793 246.452 123.06L249.335 92.1085C249.348 91.9656 249.341 91.8413 249.31 91.7294C249.204 91.3006 248.842 91.0333 248.374 91.0333H199.833C199.097 91.0333 198.417 91.661 198.348 92.3944L195.465 123.346C195.44 123.65 195.521 123.93 195.702 124.129C195.827 124.266 196.052 124.427 196.42 124.427H244.967V124.421Z" fill="white"/>
<path d="M211.233 116.229C211.233 116.229 210.247 98.9264 214.521 94.9799C218.802 91.027 224.574 92.1706 227.613 94.2838C230.652 96.3969 234.028 101.891 230.983 118.2L211.233 116.229Z" fill="#171E4A"/>
<path d="M230.889 124.421C230.896 124.396 230.902 124.371 230.914 124.34C231.283 123.159 231.694 121.885 232.15 120.518C232.493 119.48 232.861 118.38 233.273 117.218C230.827 116.441 228.337 115.838 225.81 115.421C223.146 114.949 220.444 114.669 217.736 114.576C214.235 114.551 210.216 114.943 210.216 114.943C210.216 114.943 209.642 115.08 209.287 118.778C209.162 120.108 209.037 121.954 208.975 124.427H230.889V124.421Z" fill="#A55DDE"/>
<path d="M230.889 124.421C230.895 124.396 230.901 124.371 230.914 124.34C231.282 123.159 231.694 121.885 232.149 120.518C232.492 119.48 232.861 118.38 233.272 117.218C230.826 116.441 228.337 115.838 225.809 115.421C223.145 114.949 220.443 114.669 217.735 114.576C214.234 114.551 210.216 114.943 210.216 114.943C210.216 114.943 209.642 115.08 209.286 118.778C209.174 119.971 209.074 121.898 209.018 124.427H230.889V124.421Z" fill="#A55DDE"/>
<path d="M230.889 124.421C230.896 124.396 230.902 124.371 230.914 124.34C231.283 123.159 231.694 121.885 232.15 120.518C232.493 119.48 232.861 118.38 233.273 117.218C230.827 116.441 228.337 115.838 225.81 115.421C223.146 114.949 220.444 114.669 217.736 114.576C214.235 114.551 210.216 114.943 210.216 114.943C210.216 114.943 209.642 115.08 209.287 118.778C209.162 120.108 209.037 121.954 208.975 124.427H230.889V124.421Z" fill="#7F34BB"/>
<path d="M230.889 124.421C230.895 124.396 230.901 124.371 230.914 124.34C231.282 123.159 231.694 121.885 232.149 120.518C232.492 119.48 232.861 118.38 233.272 117.218C230.826 116.441 228.337 115.838 225.809 115.421C223.145 114.949 220.443 114.669 217.735 114.576C214.234 114.551 210.216 114.943 210.216 114.943C210.216 114.943 209.642 115.08 209.286 118.778C209.174 119.971 209.074 121.898 209.018 124.427H230.889V124.421Z" fill="#7F34BB"/>
<path d="M209.836 124.421L209.524 119.287L209.256 114.943C208.182 115.148 205.331 120.02 202.953 124.421H209.836Z" fill="#A55DDE"/>
<path opacity="0.2" d="M209.836 124.421L209.524 119.287C208.894 120.02 207.446 121.866 206.348 124.421H209.836Z" fill="black"/>
<path d="M236.368 124.421C234.459 118.865 233.279 117.224 233.279 117.224L230.715 124.421H236.368Z" fill="#A55DDE"/>
<path d="M219.215 118.535C223.646 117.97 224.981 116.086 224.981 116.086C222.167 113.445 224.507 108.864 224.507 108.864L219.172 109.859C219.309 110.735 219.371 111.475 219.378 112.096C219.415 115.322 217.955 115.353 217.955 115.353C217.019 117.093 219.215 118.535 219.215 118.535Z" fill="#EEC1BB"/>
<path opacity="0.2" d="M219.17 109.853C219.307 110.729 219.37 111.469 219.376 112.09C222.983 112.09 224.505 108.858 224.505 108.858L219.17 109.853Z" fill="black"/>
<path d="M222.116 94.9922C217.479 94.7374 215.851 97.1302 215.245 101.872C214.497 107.802 215.589 112.096 221.454 111.145C229.429 109.853 229.822 95.4148 222.116 94.9922Z" fill="#EEC1BB"/>
<path d="M218.259 101.779C218.259 101.779 217.547 102.954 216.805 103.619C216.805 103.619 217.167 104.271 217.997 104.209L218.259 101.779Z" fill="#D4827D"/>
<path d="M221.342 98.3671C221.342 98.3671 222.652 98.2677 223.314 99.1751" stroke="#263238" stroke-width="0.7247" stroke-miterlimit="10" stroke-linecap="round" stroke-linejoin="round"/>
<path d="M217.985 97.9878C217.985 97.9878 217.18 97.6398 216.113 98.2675" stroke="#263238" stroke-width="0.7247" stroke-miterlimit="10" stroke-linecap="round" stroke-linejoin="round"/>
<path d="M218.578 106.068C218.815 106.639 219.034 107.702 219.034 107.702C219.133 107.702 219.233 107.696 219.333 107.69C220.693 107.628 221.299 107.149 221.561 106.646C221.704 106.366 221.742 106.074 221.742 105.838C221.742 105.564 221.679 105.371 221.679 105.371C220.981 105.831 219.72 105.987 219.04 106.043C218.759 106.061 218.578 106.068 218.578 106.068Z" fill="#263238"/>
<path d="M219.039 106.036L219.183 106.515C220.462 106.453 221.354 106.242 221.735 105.831C221.735 105.558 221.672 105.365 221.672 105.365C220.98 105.825 219.713 105.981 219.039 106.036Z" fill="white"/>
<path d="M219.326 107.69C220.686 107.628 221.292 107.149 221.554 106.646C221.092 106.683 220.537 106.782 220.062 107.012C219.701 107.18 219.476 107.435 219.326 107.69Z" fill="#DE5753"/>
<path d="M226.758 103.053C226.758 103.053 224.799 99.1377 225.285 96.2291C225.285 96.2291 216.3 91.9903 215.333 101.257C215.333 101.257 214.89 92.9537 222.87 93.2085C230.839 93.4571 230.184 105.079 225.872 108.311C225.878 108.311 227.969 105.502 226.758 103.053Z" fill="#263238"/>
<path d="M225.948 103.992C226.023 103.252 226.859 102.034 228.238 102.258C229.667 102.494 230.191 105.471 226.578 105.981C226.06 106.055 225.798 105.539 225.948 103.992Z" fill="#EEC1BB"/>
<path d="M220.156 101.599C220.156 101.599 221.298 100.598 222.178 101.419C222.178 101.412 220.818 101.661 220.156 101.599Z" fill="#263238"/>
<path d="M217.966 101.537C217.966 101.537 216.923 100.43 215.969 101.164C215.969 101.164 217.304 101.543 217.966 101.537Z" fill="#263238"/>
<path d="M229.093 116.577C229.093 116.577 223.888 120.785 219.04 120.717C214.191 120.648 212.494 115.223 212.494 115.223C212.494 115.223 220.007 113.004 229.093 116.577Z" fill="#EEC1BB"/>
<path d="M231.651 124.421C232.119 121.922 232.662 119.455 233.273 117.224L228.649 115.782C228.649 115.782 226.671 119.312 225.623 124.421H231.651Z" fill="#A55DDE"/>
<path d="M212.374 124.421C212.93 119.871 212.967 114.576 212.967 114.576L209.254 114.943C208.337 117.423 207.85 120.86 207.613 124.421H212.374Z" fill="#A55DDE"/>
<path d="M220.156 93.9357C215.582 94.3583 214.646 98.5659 214.646 98.5659C215.932 97.702 217.579 97.5218 219.164 97.6399C219.551 96.7884 220.156 95.9618 220.156 95.9618C219.882 96.4031 219.713 97.0929 219.614 97.6772C220.506 97.7766 221.361 97.9568 222.103 98.1557C222.446 97.4472 222.964 96.8879 222.964 96.8879C222.777 97.3416 222.702 97.8761 222.677 98.3173C223.776 98.6467 224.506 98.9699 224.506 98.9699C224.649 97.4969 225.91 95.7753 225.91 95.7753C225.91 95.7753 224.737 93.513 220.156 93.9357Z" fill="#263238"/>
<path d="M226.803 105.272C226.791 105.253 226.772 105.229 226.759 105.21C226.628 104.992 226.597 104.725 226.628 104.47C226.697 103.93 227.502 102.6 228.138 103.37C228.294 103.563 228.332 103.824 228.326 104.066C228.313 104.402 228.22 104.738 228.057 105.03C227.914 105.284 227.689 105.527 227.402 105.552C227.171 105.583 226.94 105.459 226.803 105.272Z" fill="#A55DDE"/>
<path d="M226.803 105.272C226.791 105.253 226.772 105.229 226.759 105.21C226.628 104.992 226.597 104.725 226.628 104.47C226.697 103.93 227.502 102.6 228.138 103.37C228.294 103.563 228.332 103.824 228.326 104.066C228.313 104.402 228.22 104.738 228.057 105.03C227.914 105.284 227.689 105.527 227.402 105.552C227.171 105.583 226.94 105.459 226.803 105.272Z" fill="#7F34BB"/>
<path d="M226.877 104.421C226.877 104.421 227.433 103.252 227.801 103.47C228.169 103.687 228.032 104.731 227.67 104.912C227.308 105.098 227.183 105.496 227.183 105.496C227.183 105.496 225.642 107.367 225.236 107.168V106.646C225.243 106.639 226.478 105.738 226.877 104.421Z" fill="#A55DDE"/>
<path d="M217.055 234.739H220.88L227.75 139.492H222.677L217.055 234.739Z" fill="#171E4A"/>
<path opacity="0.4" d="M217.055 234.739H220.88L227.413 144.228L227.75 139.648H222.677L222.402 144.228L217.055 234.739Z" fill="#171E4A"/>
<path opacity="0.2" d="M222.402 143.998H227.413L227.75 139.648H222.677L222.402 143.998Z" fill="#171E4A"/>
<path d="M188.999 234.739H192.824L193.448 139.492H188.375L188.999 234.739Z" fill="#171E4A"/>
<path opacity="0.5" d="M188.375 139.648L188.475 155.018L188.999 234.739H192.824L193.348 155.018L193.448 139.648H188.375Z" fill="#171E4A"/>
<path opacity="0.2" d="M188.375 139.648L188.475 155.186H193.348L193.448 139.648H188.375Z" fill="#171E4A"/>
<path d="M148.414 234.739H152.239L159.109 139.492H154.036L148.414 234.739Z" fill="#263238"/>
<path opacity="0.5" d="M148.414 234.739H152.239L158.772 144.228L159.109 139.648H154.036L153.762 144.228L148.414 234.739Z" fill="white"/>
<path opacity="0.2" d="M153.762 143.998H158.772L159.109 139.648H154.036L153.762 143.998Z" fill="black"/>
<path d="M260.79 234.739H264.609L258.993 139.492H253.92L260.79 234.739Z" fill="#171E4A"/>
<path opacity="0.5" d="M253.92 139.648L254.257 144.228L260.79 234.739H264.609L259.268 144.228L258.993 139.648H253.92Z" fill="#171E4A"/>
<path opacity="0.2" d="M258.993 139.648H253.92L254.257 143.998H259.268L258.993 139.648Z" fill="#171E4A"/>
<path d="M151.365 141.879H261.664C262.406 141.879 263.012 141.276 263.012 140.537V137.112H150.018V140.537C150.018 141.276 150.617 141.879 151.365 141.879Z" fill="#A55DDE"/>
<path opacity="0.6" d="M151.365 141.879H261.664C262.406 141.879 263.012 141.276 263.012 140.537V137.112H150.018V140.537C150.018 141.276 150.617 141.879 151.365 141.879Z" fill="white"/>
<path opacity="0.2" d="M150.014 139.492H263.008V137.105H150.014V139.492Z" fill="black"/>
<path d="M147.647 137.734H265.383C266.126 137.734 266.731 137.131 266.731 136.391C266.731 135.652 266.126 135.049 265.383 135.049H147.647C146.904 135.049 146.299 135.652 146.299 136.391C146.299 137.131 146.904 137.734 147.647 137.734Z" fill="#A55DDE"/>
<path opacity="0.6" d="M147.647 137.734H265.383C266.126 137.734 266.731 137.131 266.731 136.391C266.731 135.652 266.126 135.049 265.383 135.049H147.647C146.904 135.049 146.299 135.652 146.299 136.391C146.299 137.131 146.904 137.734 147.647 137.734Z" fill="white"/>
<path d="M217.098 135.042L216.48 132.724H191.177L179.527 133.886L179.084 135.042H217.098Z" fill="#263238"/>
<path opacity="0.4" d="M191.178 132.724V135.042H217.099L216.481 132.724H191.178Z" fill="black"/>
<path d="M263.817 131.661C263.817 133.886 263.193 135.042 263.193 135.042H236.367V134.408H236.91V128.908H236.367V128.274H263.193C263.193 128.274 263.817 129.467 263.817 131.661Z" fill="#263238"/>
<path opacity="0.2" d="M263.817 131.661C263.817 133.886 263.193 135.042 263.193 135.042H236.367V134.408H236.91V128.908H236.367V128.274H263.193C263.193 128.274 263.817 129.467 263.817 131.661Z" fill="white"/>
<path opacity="0.2" d="M249.465 131.661C249.465 133.886 248.841 135.042 248.841 135.042H236.367V134.408H236.91V128.908H236.367V128.274H248.841C248.841 128.274 249.465 129.467 249.465 131.661Z" fill="black"/>
<path opacity="0.8" d="M248.142 131.661C248.142 133.47 247.637 134.408 247.637 134.408H236.91V128.908H247.637C247.637 128.908 248.142 129.878 248.142 131.661Z" fill="white"/>
<path opacity="0.6" d="M259.448 131.661C259.448 133.886 258.824 135.042 258.824 135.042H253.832C253.832 135.042 254.456 133.886 254.456 131.661C254.456 129.467 253.832 128.274 253.832 128.274H258.824C258.824 128.274 259.448 129.467 259.448 131.661Z" fill="white"/>
<path d="M266.206 124.893C266.206 127.118 265.582 128.274 265.582 128.274H238.756V127.64H239.299V122.14H238.756V121.506H265.582C265.582 121.506 266.206 122.699 266.206 124.893Z" fill="#A55DDE"/>
<path opacity="0.2" d="M251.854 124.893C251.854 127.118 251.23 128.274 251.23 128.274H238.756V127.64H239.299V122.14H238.756V121.506H251.23C251.23 121.506 251.854 122.699 251.854 124.893Z" fill="black"/>
<path opacity="0.8" d="M250.531 124.893C250.531 126.702 250.025 127.64 250.025 127.64H239.299V122.14H250.025C250.025 122.14 250.531 123.109 250.531 124.893Z" fill="white"/>
<path opacity="0.2" d="M261.837 124.893C261.837 127.118 261.213 128.274 261.213 128.274H256.221C256.221 128.274 256.845 127.118 256.845 124.893C256.845 122.699 256.221 121.506 256.221 121.506H261.213C261.213 121.506 261.837 122.699 261.837 124.893Z" fill="black"/>
<path d="M217.453 76.9188H198.69C197.647 76.9188 196.799 76.0736 196.799 75.0357V56.3468C196.799 55.3027 197.647 54.4636 198.69 54.4636H217.453C218.495 54.4636 219.344 55.3089 219.344 56.3468V75.0357C219.35 76.0736 218.502 76.9188 217.453 76.9188Z" fill="#A55DDE"/>
<path d="M205.49 74.9238C205.49 74.9238 206.645 81.2508 215.037 84.1036C215.037 84.1036 210.264 79.5168 210.264 74.9238H205.49Z" fill="#A55DDE"/>
<path d="M202.971 61.4805H213.179" stroke="white" stroke-width="2" stroke-miterlimit="10"/>
<path d="M206.366 59.0255C206.366 59.0255 205.48 64.7621 209.024 70.1692L206.366 59.0255Z" fill="#A55DDE"/>
<path d="M206.366 59.0255C206.366 59.0255 205.48 64.7621 209.024 70.1692" stroke="white" stroke-width="2" stroke-miterlimit="10"/>
<path d="M210.471 69.4731C210.471 69.4731 213.179 69.0194 212.505 66.5582C211.906 64.3767 205.84 63.2083 204.299 67.0119C203.114 69.9268 205.978 69.4482 207.65 68.5284C210.558 66.9311 211.157 63.2828 211.157 63.2828" fill="#A55DDE"/>
<path d="M210.471 69.4731C210.471 69.4731 213.179 69.0194 212.505 66.5582C211.906 64.3767 205.84 63.2083 204.299 67.0119C203.114 69.9268 205.978 69.4482 207.65 68.5284C210.558 66.9311 211.157 63.2828 211.157 63.2828" stroke="white" stroke-width="2" stroke-miterlimit="10"/>
<path d="M160.863 74.9238C160.863 74.9238 162.018 81.2508 170.41 84.1036C170.41 84.1036 165.637 79.5168 165.637 74.9238H160.863Z" fill="#FAAE55"/>
<path opacity="0.6" d="M160.863 74.9238C160.863 74.9238 162.018 81.2508 170.41 84.1036C170.41 84.1036 165.637 79.5168 165.637 74.9238H160.863Z" fill="white"/>
<path d="M172.844 76.9188H154.08C153.038 76.9188 152.189 76.0736 152.189 75.0357V56.3468C152.189 55.3027 153.038 54.4636 154.08 54.4636H172.844C173.886 54.4636 174.735 55.3089 174.735 56.3468V75.0357C174.735 76.0736 173.886 76.9188 172.844 76.9188Z" fill="#FAAE55"/>
<path opacity="0.6" d="M172.844 76.9188H154.08C153.038 76.9188 152.189 76.0736 152.189 75.0357V56.3468C152.189 55.3027 153.038 54.4636 154.08 54.4636H172.844C173.886 54.4636 174.735 55.3089 174.735 56.3468V75.0357C174.735 76.0736 173.886 76.9188 172.844 76.9188Z" fill="white"/>
<path d="M165.755 69.4732L164.993 67.3414H162.042L161.28 69.4732H159.596L162.747 60.6415H164.282L167.433 69.4732H165.755ZM163.514 63.1959L162.603 65.7814H164.438L163.514 63.1959Z" fill="#FAAE55"/>
<path d="M218.583 124.371L210.883 131.475L211.95 132.339L219.407 125.241C219.65 125.011 219.656 124.62 219.413 124.384C219.182 124.154 218.82 124.147 218.583 124.371Z" fill="#407BFF"/>
<path d="M207.744 130.145L212.268 128.094C212.268 128.094 216.056 127.392 217.616 127.74C219.182 128.094 222.633 132.768 222.552 133.34C222.471 133.911 216.561 135.304 216.43 135.304C216.299 135.304 213.735 133.855 213.735 133.855L209.554 135.304L207.744 130.145Z" fill="#E4897B"/>
<path d="M168.564 228.387L173.531 227.71L174.224 215.938L169.257 216.622L168.564 228.387Z" fill="#EBB376"/>
<path opacity="0.2" d="M169.256 216.622L174.223 215.945L173.824 222.669L168.869 223.104L169.256 216.622Z" fill="black"/>
<path d="M168.762 159.201L167.552 151.631L139.684 149.971C139.684 149.971 136.72 165.72 138.997 169.915C143.059 177.405 164.968 173.626 171.377 174.359C167.545 189.965 167.92 220.463 167.92 220.463L177.074 221.159C177.074 221.159 184.119 188.294 185.541 172.681C186.496 162.147 177.735 162.408 168.762 159.201Z" fill="#FAAE55"/>
<path d="M166.841 220.892L177.842 221.619L178.784 216.927L166.697 216.361L166.841 220.892Z" fill="#407BFF"/>
<path d="M166.841 220.892L177.842 221.619L178.784 216.927L166.697 216.361L166.841 220.892Z" fill="#E19843"/>
<path d="M173.904 227.113L168.288 226.765C168.094 226.747 167.92 226.883 167.895 227.082V227.088L167.346 231.501C167.314 231.986 167.683 232.402 168.163 232.433C170.122 232.52 171.065 232.471 173.536 232.601C175.052 232.694 178.041 233.011 180.138 232.812C182.228 232.614 181.972 230.556 181.067 230.457C178.921 230.215 176.088 228.642 174.746 227.455C174.515 227.25 174.216 227.126 173.904 227.113Z" fill="#A55DDE"/>
<path d="M180.025 228.344L185.03 228.711L188.169 217.343L183.17 216.983L180.025 228.344Z" fill="#EBB376"/>
<path d="M185.73 228.934C185.736 228.947 185.736 228.965 185.743 228.972C185.755 228.978 185.767 228.978 185.786 228.978C186.173 229.195 186.585 229.369 187.009 229.5C187.321 229.624 187.671 229.63 187.983 229.512C188.195 229.394 188.313 229.164 188.295 228.928C188.307 228.779 188.245 228.63 188.126 228.537C187.839 228.325 187.246 228.387 186.722 228.499C187.103 228.189 187.44 227.797 187.459 227.486C187.471 227.281 187.352 227.095 187.153 227.033C186.984 226.964 186.816 226.97 186.647 227.057C186.042 227.387 185.805 228.785 185.786 228.86H185.874L185.786 228.866C185.786 228.872 185.705 228.872 185.705 228.878C185.711 228.897 185.718 228.916 185.73 228.934ZM186.098 228.655C186.055 228.667 186.023 228.68 185.986 228.692C186.104 228.232 186.354 227.48 186.722 227.287C186.803 227.238 186.903 227.225 186.991 227.25L187.047 227.269C187.203 227.331 187.221 227.424 187.215 227.492C187.171 227.822 186.591 228.381 186.098 228.655ZM186.117 228.909C186.778 228.711 187.696 228.53 187.976 228.742C188.039 228.785 188.07 228.86 188.058 228.934C188.064 229.083 187.989 229.226 187.864 229.313C187.577 229.469 186.934 229.32 186.117 228.909Z" fill="#407BFF"/>
<path opacity="0.2" d="M183.17 216.983L188.169 217.349L186.371 223.844L181.436 223.241L183.17 216.983Z" fill="black"/>
<path d="M189.86 223.042L181.049 220.463C181.049 220.463 186.31 190.892 191.645 180.637C191.245 180.506 190.715 180.338 190.06 180.146C188.88 179.791 187.314 179.35 185.473 178.84C172.669 175.304 146.717 168.672 146.717 168.672L158.573 157.653C158.573 157.653 205.797 164.825 206.777 177.218C207.245 183.179 189.86 223.042 189.86 223.042Z" fill="#FAAE55"/>
<path d="M179.914 220.656L190.522 223.645L192.425 219.251L180.719 216.2L179.914 220.656Z" fill="#407BFF"/>
<path d="M179.914 220.656L190.522 223.645L192.425 219.251L180.719 216.2L179.914 220.656Z" fill="#E19843"/>
<path d="M185.523 228.201L180.101 226.697C179.914 226.635 179.714 226.734 179.652 226.921V226.927L178.191 231.128C178.06 231.594 178.329 232.079 178.797 232.21C180.694 232.707 181.63 232.844 184.02 233.49C185.486 233.894 188.344 234.826 190.428 235.062C192.518 235.299 192.699 233.235 191.832 232.949C189.785 232.266 187.339 230.146 186.272 228.698C186.091 228.462 185.823 228.288 185.523 228.201Z" fill="#A55DDE"/>
<path d="M174.029 227.722C174.029 227.729 174.135 227.729 174.135 227.735C174.142 227.753 174.248 227.772 174.26 227.784C174.266 227.797 174.266 227.809 174.279 227.822C174.291 227.828 174.31 227.822 174.323 227.816C174.747 227.946 175.184 228.033 175.627 228.07C175.957 228.126 176.294 228.064 176.581 227.884C176.762 227.722 176.831 227.474 176.762 227.244C176.744 227.095 176.65 226.964 176.513 226.896C176.188 226.747 175.614 226.933 175.121 227.151C175.433 226.765 175.658 226.318 175.614 226.007C175.583 225.802 175.396 225.646 175.19 225.628C175.009 225.597 174.772 225.64 174.635 225.758C174.11 226.206 174.029 227.617 174.029 227.704C174.029 227.71 174.029 227.716 174.029 227.722C174.029 227.716 174.029 227.716 174.029 227.722ZM174.566 227.43C174.528 227.449 174.497 227.467 174.466 227.486C174.485 227.014 174.572 226.224 174.89 225.957C174.959 225.895 175.053 225.858 175.146 225.864L175.202 225.87C175.365 225.901 175.408 225.982 175.415 226.05C175.433 226.399 174.99 227.064 174.566 227.43ZM174.635 227.679C175.24 227.349 176.095 226.983 176.419 227.132C176.488 227.163 176.532 227.231 176.538 227.3C176.575 227.443 176.532 227.598 176.425 227.71C176.182 227.921 175.521 227.909 174.635 227.679Z" fill="#407BFF"/>
<path d="M189.129 101.083C189.011 101.35 188.886 101.605 188.742 101.854C187.912 103.333 186.677 104.452 185.26 105.148C184.892 105.334 184.505 105.49 184.112 105.614C182.041 106.273 179.738 106.074 177.841 104.837C177.061 104.34 176.343 103.662 175.744 102.798C173.361 99.4174 174.003 96.0923 174.64 90.3744C174.758 89.1438 175.158 87.9505 175.825 86.9125C178.147 83.2394 183.02 82.1393 186.702 84.4451C191.887 87.6521 191.226 96.1979 189.129 101.083Z" fill="#E4897B"/>
<path opacity="0.2" d="M185.261 105.148C184.893 105.334 184.506 105.49 184.113 105.614C182.041 106.273 179.739 106.074 177.842 104.837C178.428 103.812 179.183 103.091 179.183 103.091C179.183 103.091 182.665 103.14 185.261 105.148Z" fill="black"/>
<path d="M170.223 106.664C171.209 110.356 177.561 113.321 177.561 113.321C177.561 113.321 181.848 114.676 181.823 113.047C179.907 111.313 179.514 109.641 179.913 108.094C180.144 107.193 180.656 106.329 181.28 105.508C181.604 105.073 181.973 104.663 182.347 104.259L178.584 94.29C177.249 98.4044 174.21 105.614 170.223 106.664Z" fill="#E4897B"/>
<path d="M188.319 88.5721C188.319 88.5721 189.928 93.973 184.369 97.8513C184.369 97.8513 182.029 102.842 180.731 103.457C179.427 104.073 176.481 103.706 175.483 103.457C174.484 103.209 169.361 98.97 170.84 89.0009C172.319 79.0319 180.724 82.1892 180.724 82.1892C180.724 82.1892 183.595 79.7155 188.93 82.792C193.392 85.3527 192.518 90.1694 188.319 88.5721Z" fill="#263238"/>
<path d="M183.614 95.2719C183.745 96.5584 184.269 97.5777 185.08 98.106C186.154 98.7897 187.19 97.2918 187.314 95.564C187.414 94.0289 186.99 91.7728 185.704 91.8474C184.413 91.922 183.471 93.6871 183.614 95.2719Z" fill="#E4897B"/>
<path d="M189.006 113.874C189.006 113.874 181.118 105.073 170.579 105.981C160.039 106.888 149.481 114.999 144.227 127.746C138.973 140.493 137.395 159.748 137.395 159.748C137.395 159.748 154.448 164.608 171.789 160.176C171.789 160.176 176.288 137.336 189.006 113.874Z" fill="#A55DDE"/>
<path d="M189.006 113.874C191.671 116.627 199.271 129.25 201.443 129.722C203.67 130.207 206.759 128.256 209.23 128.995C211.701 129.735 214.235 131.972 213.66 133.408C213.086 134.844 207.289 138.666 200.101 138.877C193.942 139.058 180.963 123.781 180.963 123.781C180.957 117.87 189.006 113.874 189.006 113.874Z" fill="#7F34BB"/>
<path d="M189.337 103.395L189.312 102.774C189.418 102.767 190.372 102.693 190.372 101.605C190.379 100.685 188.064 98.6841 186.604 97.6338L186.965 97.1304C187.377 97.4287 190.996 100.064 190.99 101.605C190.996 102.973 189.911 103.377 189.337 103.395Z" fill="#263238"/>
<path d="M188.975 95.0608C188.975 97.6338 187.471 99.7221 185.611 99.7221C183.752 99.7221 182.248 97.6338 182.248 95.0608C182.248 92.4877 183.752 90.3994 185.611 90.3994C187.471 90.3994 188.975 92.4877 188.975 95.0608Z" fill="#407BFF"/>
<path opacity="0.2" d="M188.975 95.0608C188.975 97.6338 187.471 99.7221 185.611 99.7221C183.752 99.7221 182.248 97.6338 182.248 95.0608C182.248 92.4877 183.752 90.3994 185.611 90.3994C187.471 90.3994 188.975 92.4877 188.975 95.0608Z" fill="black"/>
<path d="M186.789 98.131C188.013 98.131 189.005 96.7564 189.005 95.0607C189.005 93.3651 188.013 91.9905 186.789 91.9905C185.566 91.9905 184.574 93.3651 184.574 95.0607C184.574 96.7564 185.566 98.131 186.789 98.131Z" fill="#407BFF"/>
<path d="M187.845 92.8295C187.845 92.8295 188.019 79.3924 177.842 81.7169C177.842 81.7169 185.436 82.6305 185.929 93.2024L187.845 92.8295Z" fill="#407BFF"/>
<path d="M189.66 103.507L189.136 103.594C188.961 103.625 188.799 103.507 188.768 103.339L188.718 103.053C188.687 102.879 188.805 102.718 188.974 102.687L189.498 102.6C189.673 102.569 189.835 102.687 189.866 102.855L189.916 103.14C189.947 103.314 189.829 103.476 189.66 103.507Z" fill="#263238"/>
<path d="M174.671 171.979H132.913C131.191 171.979 129.793 173.371 129.793 175.087V179.245H177.791V175.087C177.791 173.371 176.4 171.979 174.671 171.979Z" fill="#FAAE55"/>
<path opacity="0.3" d="M174.671 171.979H132.913C131.191 171.979 129.793 173.371 129.793 175.087V179.245H177.791V175.087C177.791 173.371 176.4 171.979 174.671 171.979Z" fill="black"/>
<path d="M124.864 144.154H142.024C147.047 144.154 151.121 140.096 151.121 135.092V128.411C151.121 123.408 147.047 119.349 142.024 119.349H124.864C119.84 119.349 115.766 123.408 115.766 128.411V135.092C115.766 140.096 119.84 144.154 124.864 144.154Z" fill="#FAAE55"/>
<g opacity="0.3">
<path d="M124.864 144.154H142.024C147.047 144.154 151.121 140.096 151.121 135.092V128.411C151.121 123.408 147.047 119.349 142.024 119.349H124.864C119.84 119.349 115.766 123.408 115.766 128.411V135.092C115.766 140.096 119.84 144.154 124.864 144.154Z" fill="black"/>
</g>
<path d="M131.622 220.606L149.6 218.847V193.682H156.726V218.841L174.778 220.606C176.569 220.78 177.936 222.284 177.936 224.074V226.765H153.862H152.539H128.465V224.074C128.465 222.284 129.831 220.78 131.622 220.606Z" fill="#263238"/>
<path opacity="0.2" d="M131.622 220.606L149.6 218.847V193.682H156.726V218.841L174.778 220.606C176.569 220.78 177.936 222.284 177.936 224.074V226.765H153.862H152.539H128.465V224.074C128.465 222.284 129.831 220.78 131.622 220.606Z" fill="white"/>
<path d="M176.79 234.679C179.331 234.268 181.057 231.883 180.644 229.352C180.232 226.821 177.838 225.102 175.296 225.513C172.755 225.924 171.03 228.309 171.442 230.84C171.854 233.371 174.249 235.09 176.79 234.679Z" fill="#263238"/>
<path d="M133.659 233.38C135.48 231.567 135.48 228.628 133.659 226.815C131.839 225.002 128.888 225.001 127.067 226.815C125.247 228.628 125.247 231.567 127.067 233.38C128.888 235.193 131.839 235.193 133.659 233.38Z" fill="#263238"/>
<path d="M150.952 199.089H155.376C156.799 199.089 157.953 197.94 157.953 196.523V176.678H148.375V196.523C148.375 197.94 149.529 199.089 150.952 199.089Z" fill="#263238"/>
<path opacity="0.3" d="M150.952 199.089H155.376C156.799 199.089 157.953 197.94 157.953 196.523V176.678H148.375V196.523C148.375 197.94 149.529 199.089 150.952 199.089Z" fill="white"/>
<path d="M136.132 137.336C136.132 137.336 134.772 170.898 144.157 176.672H133.449C133.449 176.672 125.15 165.236 127.496 137.336H136.132Z" fill="#263238"/>
<path opacity="0.3" d="M136.132 137.336C136.132 137.336 134.772 170.898 144.157 176.672H133.449C133.449 176.672 125.15 165.236 127.496 137.336H136.132Z" fill="white"/>
<path d="M178.541 175.615H129.051C128.358 175.615 127.797 176.174 127.797 176.864V177.995C127.797 178.685 128.358 179.245 129.051 179.245H178.541C179.233 179.245 179.795 178.685 179.795 177.995V176.864C179.795 176.174 179.233 175.615 178.541 175.615Z" fill="#263238"/>
<path opacity="0.6" d="M178.541 175.615H129.051C128.358 175.615 127.797 176.174 127.797 176.864V177.995C127.797 178.685 128.358 179.245 129.051 179.245H178.541C179.233 179.245 179.795 178.685 179.795 177.995V176.864C179.795 176.174 179.233 175.615 178.541 175.615Z" fill="white"/>
<path d="M126.579 126.882H136.27C139.109 126.882 141.412 129.176 141.412 132.003V135.776C141.412 138.604 139.109 140.897 136.27 140.897H126.579C123.74 140.897 121.438 138.604 121.438 135.776V132.003C121.438 129.176 123.74 126.882 126.579 126.882Z" fill="#263238"/>
<path opacity="0.2" d="M126.579 126.882H136.27C139.109 126.882 141.412 129.176 141.412 132.003V135.776C141.412 138.604 139.109 140.897 136.27 140.897H126.579C123.74 140.897 121.438 138.604 121.438 135.776V132.003C121.438 129.176 123.74 126.882 126.579 126.882Z" fill="white"/>
</g>
<defs>
<clipPath id="clip0_615_10215">
<rect width="312" height="231.581" fill="white" transform="translate(1 9)"/>
</clipPath>
</defs>
</svg>
