<svg width="312" height="251" viewBox="0 0 312 251" fill="none" xmlns="http://www.w3.org/2000/svg">
<mask id="mask0_577_1061" style="mask-type:alpha" maskUnits="userSpaceOnUse" x="0" y="0" width="312" height="251">
<rect y="0.990479" width="312" height="250" fill="#FBFBFE"/>
</mask>
<g mask="url(#mask0_577_1061)">
</g>
<g clip-path="url(#clip0_577_1061)">
<path d="M312 214.329H0V214.485H312V214.329Z" fill="#EBEBEB"/>
<path d="M280.737 224.369H260.07V224.525H280.737V224.369Z" fill="#EBEBEB"/>
<path d="M206.681 226.066H201.259V226.222H206.681V226.066Z" fill="#EBEBEB"/>
<path d="M259.446 218.578H247.472V218.734H259.446V218.578Z" fill="#EBEBEB"/>
<path d="M59.6859 219.627H32.7354V219.783H59.6859V219.627Z" fill="#EBEBEB"/>
<path d="M69.195 219.627H65.2451V219.783H69.195V219.627Z" fill="#EBEBEB"/>
<path d="M140.493 222.26H82.0371V222.416H140.493V222.26Z" fill="#EBEBEB"/>
<path d="M147.894 186.498H27.4058C25.4402 186.498 23.8428 184.901 23.8428 182.935V13.563C23.8428 11.5974 25.4402 10 27.4058 10H147.9C149.866 10 151.463 11.5974 151.463 13.563V182.935C151.457 184.901 149.86 186.498 147.894 186.498ZM27.4058 10.156C25.5276 10.156 23.9988 11.6848 23.9988 13.563V182.935C23.9988 184.814 25.5276 186.342 27.4058 186.342H147.9C149.778 186.342 151.307 184.814 151.307 182.935V13.563C151.307 11.6848 149.778 10.156 147.9 10.156H27.4058Z" fill="#EBEBEB"/>
<path d="M282.865 186.498H162.371C160.405 186.498 158.808 184.901 158.808 182.935V13.563C158.808 11.5974 160.405 10 162.371 10H282.865C284.831 10 286.428 11.5974 286.428 13.563V182.935C286.428 184.901 284.831 186.498 282.865 186.498ZM162.371 10.156C160.492 10.156 158.964 11.6848 158.964 13.563V182.935C158.964 184.814 160.492 186.342 162.371 186.342H282.865C284.743 186.342 286.272 184.814 286.272 182.935V13.563C286.272 11.6848 284.743 10.156 282.865 10.156H162.371Z" fill="#EBEBEB"/>
<path d="M168.954 213.652H253.381L253.381 89.8632L168.954 89.8632V213.652Z" fill="#F0F0F0"/>
<path d="M171.937 116.628L250.398 116.628V93.7642L171.937 93.7642V116.628Z" fill="#E0E0E0"/>
<path d="M245.941 116.628H250.396V97.4651H245.941V116.628Z" fill="#EBEBEB"/>
<path d="M224.39 116.628H228.846V97.4651H224.39V116.628Z" fill="#EBEBEB"/>
<path d="M196.662 115.874L201.053 116.63L204.307 97.7452L199.916 96.9887L196.662 115.874Z" fill="#EBEBEB"/>
<path d="M240.418 116.626H244.873V99.9903H240.418V116.626Z" fill="#EBEBEB"/>
<path d="M230.175 116.626H234.63V99.9903H230.175V116.626Z" fill="#EBEBEB"/>
<path d="M204.315 116.626H208.771V99.9903H204.315V116.626Z" fill="#EBEBEB"/>
<path d="M214.927 115.661L219.276 116.628L222.885 100.388L218.535 99.4214L214.927 115.661Z" fill="#EBEBEB"/>
<path d="M236.565 116.625H238.793V96.514H236.565V116.625Z" fill="#EBEBEB"/>
<path d="M210.056 116.625H212.284V96.514H210.056V116.625Z" fill="#EBEBEB"/>
<path d="M250.398 120.248H171.937V143.112H250.398V120.248Z" fill="#E0E0E0"/>
<path d="M176.392 123.949H171.937V143.112H176.392V123.949Z" fill="#EBEBEB"/>
<path d="M197.945 123.949H193.489V143.112H197.945V123.949Z" fill="#EBEBEB"/>
<path d="M222.416 123.48L218.025 124.237L221.279 143.122L225.67 142.365L222.416 123.48Z" fill="#EBEBEB"/>
<path d="M181.914 126.476H177.459V143.112H181.914V126.476Z" fill="#EBEBEB"/>
<path d="M192.16 126.476H187.705V143.112H192.16V126.476Z" fill="#EBEBEB"/>
<path d="M218.019 126.476H213.563V143.112H218.019V126.476Z" fill="#EBEBEB"/>
<path d="M203.802 125.902L199.453 126.868L203.061 143.108L207.411 142.141L203.802 125.902Z" fill="#EBEBEB"/>
<path d="M185.771 123H183.543V143.112H185.771V123Z" fill="#EBEBEB"/>
<path d="M212.278 123H210.051V143.112H212.278V123Z" fill="#EBEBEB"/>
<path d="M245.941 143.109H250.396V123.946H245.941V143.109Z" fill="#EBEBEB"/>
<path d="M240.418 143.107H244.873V126.471H240.418V143.107Z" fill="#EBEBEB"/>
<path d="M230.175 143.107H234.63V126.471H230.175V143.107Z" fill="#EBEBEB"/>
<path d="M236.565 143.107H238.793V122.995H236.565V143.107Z" fill="#EBEBEB"/>
<path d="M171.937 169.59H250.398V146.727H171.937V169.59Z" fill="#E0E0E0"/>
<path d="M200.906 169.591H205.361V150.428H200.906V169.591Z" fill="#EBEBEB"/>
<path d="M173.177 168.834L177.567 169.591L180.821 150.706L176.431 149.949L173.177 168.834Z" fill="#EBEBEB"/>
<path d="M216.94 169.589H221.396V152.953H216.94V169.589Z" fill="#EBEBEB"/>
<path d="M206.69 169.589H211.146V152.953H206.69V169.589Z" fill="#EBEBEB"/>
<path d="M180.832 169.589H185.287V152.953H180.832V169.589Z" fill="#EBEBEB"/>
<path d="M191.443 168.624L195.792 169.59L199.4 153.35L195.051 152.384L191.443 168.624Z" fill="#EBEBEB"/>
<path d="M213.081 169.594H215.309V149.483H213.081V169.594Z" fill="#EBEBEB"/>
<path d="M186.573 169.594H188.801V149.483H186.573V169.594Z" fill="#EBEBEB"/>
<path d="M224.457 168.837L228.848 169.593L232.102 150.708L227.711 149.951L224.457 168.837Z" fill="#EBEBEB"/>
<path d="M232.113 169.589H236.568V152.953H232.113V169.589Z" fill="#EBEBEB"/>
<path d="M242.724 168.625L247.073 169.591L250.682 153.351L246.332 152.385L242.724 168.625Z" fill="#EBEBEB"/>
<path d="M237.849 169.594H240.076V149.483H237.849V169.594Z" fill="#EBEBEB"/>
<path d="M267.945 89.8721H253.381V213.979H267.945V89.8721Z" fill="#E0E0E0"/>
<path d="M65.1586 63.2209C65.1586 63.2209 64.4286 58.3974 67.9417 55.3086C71.461 52.2198 71.149 50.379 70.1444 50.1357C69.1398 49.8985 68.21 52.9873 66.6687 53.836C66.6687 53.836 66.6188 49.4305 68.1913 47.8081C69.7638 46.1857 70.5874 42.0049 69.0898 41.9301C67.5985 41.8552 67.4425 44.4136 67.1305 46.2232C66.8185 48.039 65.1586 50.5849 65.1586 50.5849C65.1586 50.5849 64.8342 46.6413 63.817 45.0189C62.7999 43.3965 65.5081 39.6837 64.466 38.0613C63.4239 36.4389 61.5706 39.5277 61.7204 43.0096C61.8764 46.4853 64.1914 50.1981 63.6548 53.8297C63.6548 53.8297 62.6314 51.2776 61.7142 51.0467C60.7969 50.8158 59.8671 49.131 59.2494 48.5008C58.6316 47.8768 57.8578 50.0421 59.2494 52.0513C60.6409 54.0606 64.1977 59.4333 63.6548 63.7825L65.1586 63.2209Z" fill="#E6E6E6"/>
<path d="M67.2611 61.0244L68.4155 68.2503C68.7712 70.4843 67.0489 72.4998 64.7901 72.4998H63.5608C61.3019 72.4998 59.5797 70.478 59.9353 68.2503L61.0897 61.0244H67.2611Z" fill="#E6E6E6"/>
<path d="M49.8418 74.0232L131.236 74.0232V69.8424L49.8418 69.8424V74.0232Z" fill="#E0E0E0"/>
<path d="M123.901 69.8389H127.489V54.4261H123.901V69.8389Z" fill="#EBEBEB"/>
<path d="M106.564 69.8389H110.152V54.4261H106.564V69.8389Z" fill="#EBEBEB"/>
<path d="M84.255 69.2322L87.791 69.8414L90.4081 54.6521L86.8721 54.0429L84.255 69.2322Z" fill="#EBEBEB"/>
<path d="M119.457 69.8361H123.045V56.4513H119.457V69.8361Z" fill="#EBEBEB"/>
<path d="M111.216 69.8361H114.804V56.4513H111.216V69.8361Z" fill="#EBEBEB"/>
<path d="M90.413 69.8361H94.001V56.4513H90.413V69.8361Z" fill="#EBEBEB"/>
<path d="M98.9495 69.0579L102.452 69.8362L105.355 56.7699L101.853 55.9917L98.9495 69.0579Z" fill="#EBEBEB"/>
<path d="M116.361 69.8411H118.152V53.6607H116.361V69.8411Z" fill="#EBEBEB"/>
<path d="M95.0324 69.8411H96.8232V53.6607H95.0324V69.8411Z" fill="#EBEBEB"/>
<path d="M131.24 101.06H49.8457V105.241H131.24V101.06Z" fill="#E0E0E0"/>
<path d="M57.1778 85.6412H53.5898V101.054H57.1778V85.6412Z" fill="#EBEBEB"/>
<path d="M74.5187 85.6412H70.9307V101.054H74.5187V85.6412Z" fill="#EBEBEB"/>
<path d="M94.1991 85.2615L90.6631 85.8707L93.2802 101.06L96.8162 100.451L94.1991 85.2615Z" fill="#EBEBEB"/>
<path d="M61.6202 87.6755H58.0322V101.06H61.6202V87.6755Z" fill="#EBEBEB"/>
<path d="M69.8634 87.6755H66.2754V101.06H69.8634V87.6755Z" fill="#EBEBEB"/>
<path d="M90.6681 87.6755H87.0801V101.06H90.6681V87.6755Z" fill="#EBEBEB"/>
<path d="M79.2282 87.2146L75.7256 87.9928L78.6287 101.059L82.1314 100.281L79.2282 87.2146Z" fill="#EBEBEB"/>
<path d="M64.7157 84.88H62.9248V101.06H64.7157V84.88Z" fill="#EBEBEB"/>
<path d="M86.0438 84.88H84.2529V101.06H86.0438V84.88Z" fill="#EBEBEB"/>
<path d="M123.428 88.8549H105.956V100.917H123.428V88.8549Z" fill="#EBEBEB"/>
<path d="M215.698 63.1087C222.429 63.1087 227.885 57.6525 227.885 50.922C227.885 44.1914 222.429 38.7352 215.698 38.7352C208.968 38.7352 203.512 44.1914 203.512 50.922C203.512 57.6525 208.968 63.1087 215.698 63.1087Z" fill="#E0E0E0"/>
<path d="M215.699 61.2865C221.423 61.2865 226.063 56.6461 226.063 50.9219C226.063 45.1977 221.423 40.5573 215.699 40.5573C209.974 40.5573 205.334 45.1977 205.334 50.9219C205.334 56.6461 209.974 61.2865 215.699 61.2865Z" fill="#F0F0F0"/>
<path d="M215.212 43.8083V51.053L210.407 48.3386" fill="#F0F0F0"/>
<path d="M215.212 43.8083V51.053L210.407 48.3386" stroke="#E0E0E0" stroke-width="2" stroke-miterlimit="10" stroke-linecap="round" stroke-linejoin="round"/>
<path d="M156 242.509C222.82 242.509 276.987 239.346 276.987 235.445C276.987 231.544 222.82 228.381 156 228.381C89.1806 228.381 35.0127 231.544 35.0127 235.445C35.0127 239.346 89.1806 242.509 156 242.509Z" fill="#F5F5F5"/>
<path d="M263.646 55.3835H139.458V172.97H263.646V55.3835Z" fill="#7531AB"/>
<path opacity="0.7" d="M263.646 55.3835H139.458V172.97H263.646V55.3835Z" fill="white"/>
<path d="M263.646 55.3835H139.458V61.3677H263.646V55.3835Z" fill="#7531AB"/>
<path opacity="0.2" d="M263.647 61.3739H259.541V173.082H263.647V61.3739Z" fill="black"/>
<path opacity="0.6" d="M261.824 79.576H261.45C260.869 79.576 260.401 79.108 260.401 78.5277V65.068C260.401 64.4877 260.869 64.0197 261.45 64.0197H261.824C262.404 64.0197 262.872 64.4877 262.872 65.068V78.5277C262.872 79.108 262.404 79.576 261.824 79.576Z" fill="white"/>
<path opacity="0.2" d="M142.035 138.263H256.826" stroke="black" stroke-miterlimit="10" stroke-linecap="round" stroke-linejoin="round"/>
<path opacity="0.2" d="M142.035 111.431H256.826" stroke="black" stroke-miterlimit="10" stroke-linecap="round" stroke-linejoin="round"/>
<path d="M256.826 64.0072H142.035V81.5603H256.826V64.0072Z" fill="#7531AB"/>
<path opacity="0.6" d="M262.218 58.3787C262.218 59.2086 261.544 59.8826 260.714 59.8826C259.884 59.8826 259.21 59.2086 259.21 58.3787C259.21 57.5488 259.884 56.8749 260.714 56.8749C261.544 56.8749 262.218 57.5488 262.218 58.3787Z" fill="white"/>
<path opacity="0.6" d="M256.914 58.3787C256.914 59.2086 256.24 59.8826 255.41 59.8826C254.58 59.8826 253.906 59.2086 253.906 58.3787C253.906 57.5488 254.58 56.8749 255.41 56.8749C256.24 56.8749 256.914 57.5488 256.914 58.3787Z" fill="white"/>
<path opacity="0.6" d="M251.609 58.3787C251.609 59.2086 250.935 59.8826 250.105 59.8826C249.275 59.8826 248.602 59.2086 248.602 58.3787C248.602 57.5488 249.275 56.8749 250.105 56.8749C250.935 56.8749 251.609 57.5488 251.609 58.3787Z" fill="white"/>
<path opacity="0.4" d="M146.959 93.3165C144.931 93.3165 143.283 91.6692 143.283 89.6412C143.283 87.6132 144.931 85.9658 146.959 85.9658C148.987 85.9658 150.634 87.6132 150.634 89.6412C150.634 91.6692 148.987 93.3165 146.959 93.3165Z" fill="black"/>
<path d="M147.408 88.2496V91.0327H146.765V88.7613H146.21V88.2434H147.408V88.2496Z" fill="white"/>
<path opacity="0.4" d="M251.866 87.9501H154.091C153.698 87.9501 153.38 87.6319 153.38 87.2388V86.7895C153.38 86.3964 153.698 86.0781 154.091 86.0781H251.866C252.259 86.0781 252.577 86.3964 252.577 86.7895V87.2388C252.577 87.6319 252.259 87.9501 251.866 87.9501Z" fill="black"/>
<path opacity="0.4" d="M251.866 92.7986H154.091C153.698 92.7986 153.38 92.4804 153.38 92.0873V91.638C153.38 91.2449 153.698 90.9266 154.091 90.9266H251.866C252.259 90.9266 252.577 91.2449 252.577 91.638V92.0873C252.577 92.4804 252.259 92.7986 251.866 92.7986Z" fill="black"/>
<path opacity="0.4" d="M218.051 97.6408H154.091C153.698 97.6408 153.38 97.3226 153.38 96.9294V96.4802C153.38 96.087 153.698 95.7688 154.091 95.7688H218.051C218.444 95.7688 218.763 96.087 218.763 96.4802V96.9294C218.763 97.3226 218.444 97.6408 218.051 97.6408Z" fill="black"/>
<path opacity="0.2" d="M155.089 106.776C156.03 106.776 156.793 106.013 156.793 105.073C156.793 104.132 156.03 103.369 155.089 103.369C154.148 103.369 153.386 104.132 153.386 105.073C153.386 106.013 154.148 106.776 155.089 106.776Z" fill="black"/>
<path d="M156.262 105.073C156.262 105.722 155.738 106.252 155.083 106.252C154.434 106.252 153.903 105.728 153.903 105.073C153.903 104.424 154.427 103.893 155.083 103.893C155.738 103.9 156.262 104.424 156.262 105.073Z" fill="white"/>
<path opacity="0.4" d="M177.173 106.009H160.656C160.263 106.009 159.944 105.69 159.944 105.297V104.848C159.944 104.455 160.263 104.137 160.656 104.137H177.173C177.566 104.137 177.884 104.455 177.884 104.848V105.297C177.884 105.69 177.566 106.009 177.173 106.009Z" fill="black"/>
<path opacity="0.2" d="M191.406 105.035C191.406 105.978 190.645 106.739 189.703 106.739C188.76 106.739 187.999 105.978 187.999 105.035C187.999 104.093 188.76 103.332 189.703 103.332C190.645 103.332 191.406 104.093 191.406 105.035Z" fill="black"/>
<path d="M190.882 105.035C190.882 105.684 190.358 106.215 189.703 106.215C189.054 106.215 188.523 105.691 188.523 105.035C188.523 104.386 189.048 103.856 189.703 103.856C190.352 103.856 190.882 104.386 190.882 105.035Z" fill="#7531AB"/>
<path opacity="0.4" d="M211.792 105.965H195.275C194.882 105.965 194.563 105.647 194.563 105.254V104.804C194.563 104.411 194.882 104.093 195.275 104.093H211.792C212.185 104.093 212.503 104.411 212.503 104.804V105.254C212.503 105.647 212.185 105.965 211.792 105.965Z" fill="black"/>
<path opacity="0.2" d="M226.025 104.998C226.025 105.94 225.264 106.701 224.322 106.701C223.379 106.701 222.618 105.94 222.618 104.998C222.618 104.056 223.379 103.294 224.322 103.294C225.264 103.294 226.025 104.056 226.025 104.998Z" fill="black"/>
<path d="M225.501 104.998C225.501 105.647 224.977 106.177 224.322 106.177C223.673 106.177 223.143 105.653 223.143 104.998C223.143 104.349 223.667 103.818 224.322 103.818C224.971 103.818 225.501 104.349 225.501 104.998Z" fill="white"/>
<path opacity="0.4" d="M246.411 105.928H229.894C229.501 105.928 229.183 105.609 229.183 105.216V104.767C229.183 104.374 229.501 104.056 229.894 104.056H246.411C246.804 104.056 247.123 104.374 247.123 104.767V105.216C247.116 105.609 246.798 105.928 246.411 105.928Z" fill="black"/>
<path opacity="0.4" d="M146.959 124.41C148.988 124.41 150.634 122.765 150.634 120.735C150.634 118.705 148.988 117.06 146.959 117.06C144.929 117.06 143.283 118.705 143.283 120.735C143.283 122.765 144.929 124.41 146.959 124.41Z" fill="black"/>
<path d="M148.02 121.627V122.152H145.917V121.733L146.99 120.716C147.24 120.479 147.283 120.336 147.283 120.205C147.283 119.986 147.134 119.855 146.84 119.855C146.603 119.855 146.397 119.949 146.26 120.136L145.792 119.837C146.004 119.525 146.397 119.319 146.896 119.319C147.52 119.319 147.932 119.637 147.932 120.142C147.932 120.411 147.857 120.66 147.464 121.022L146.822 121.627H148.02Z" fill="white"/>
<path opacity="0.4" d="M251.866 119.056H154.091C153.698 119.056 153.38 118.738 153.38 118.345V117.896C153.38 117.503 153.698 117.184 154.091 117.184H251.866C252.259 117.184 252.577 117.503 252.577 117.896V118.345C252.577 118.738 252.259 119.056 251.866 119.056Z" fill="black"/>
<path opacity="0.4" d="M172.68 123.899H154.097C153.704 123.899 153.386 123.58 153.386 123.187V122.738C153.386 122.345 153.704 122.027 154.097 122.027H172.68C173.073 122.027 173.391 122.345 173.391 122.738V123.187C173.385 123.58 173.073 123.899 172.68 123.899Z" fill="black"/>
<path opacity="0.2" d="M155.089 132.959C156.03 132.959 156.793 132.196 156.793 131.256C156.793 130.315 156.03 129.552 155.089 129.552C154.148 129.552 153.386 130.315 153.386 131.256C153.386 132.196 154.148 132.959 155.089 132.959Z" fill="black"/>
<path d="M155.09 132.435C155.741 132.435 156.269 131.907 156.269 131.256C156.269 130.604 155.741 130.076 155.09 130.076C154.438 130.076 153.91 130.604 153.91 131.256C153.91 131.907 154.438 132.435 155.09 132.435Z" fill="white"/>
<path opacity="0.4" d="M177.173 132.185H160.656C160.263 132.185 159.944 131.867 159.944 131.474V131.025C159.944 130.632 160.263 130.313 160.656 130.313H177.173C177.566 130.313 177.884 130.632 177.884 131.025V131.474C177.884 131.867 177.566 132.185 177.173 132.185Z" fill="black"/>
<path opacity="0.2" d="M189.703 132.922C190.643 132.922 191.406 132.159 191.406 131.218C191.406 130.277 190.643 129.515 189.703 129.515C188.762 129.515 187.999 130.277 187.999 131.218C187.999 132.159 188.762 132.922 189.703 132.922Z" fill="black"/>
<path d="M189.703 132.398C190.354 132.398 190.882 131.87 190.882 131.218C190.882 130.567 190.354 130.039 189.703 130.039C189.051 130.039 188.523 130.567 188.523 131.218C188.523 131.87 189.051 132.398 189.703 132.398Z" fill="white"/>
<path opacity="0.4" d="M211.792 132.148H195.275C194.882 132.148 194.563 131.83 194.563 131.437V130.987C194.563 130.594 194.882 130.276 195.275 130.276H211.792C212.185 130.276 212.503 130.594 212.503 130.987V131.437C212.503 131.83 212.185 132.148 211.792 132.148Z" fill="black"/>
<path opacity="0.2" d="M226.025 131.175C226.025 132.117 225.264 132.878 224.322 132.878C223.379 132.878 222.618 132.117 222.618 131.175C222.618 130.232 223.379 129.471 224.322 129.471C225.264 129.471 226.025 130.239 226.025 131.175Z" fill="black"/>
<path d="M225.501 131.175C225.501 131.824 224.977 132.354 224.322 132.354C223.673 132.354 223.143 131.83 223.143 131.175C223.143 130.519 223.667 129.995 224.322 129.995C224.971 130.001 225.501 130.526 225.501 131.175Z" fill="#7531AB"/>
<path opacity="0.4" d="M246.411 132.111H229.894C229.501 132.111 229.183 131.792 229.183 131.399V130.95C229.183 130.557 229.501 130.239 229.894 130.239H246.411C246.804 130.239 247.123 130.557 247.123 130.95V131.399C247.116 131.792 246.798 132.111 246.411 132.111Z" fill="black"/>
<path opacity="0.4" d="M146.959 151.405C144.931 151.405 143.283 149.757 143.283 147.729C143.283 145.701 144.931 144.054 146.959 144.054C148.987 144.054 150.634 145.701 150.634 147.729C150.634 149.751 148.987 151.405 146.959 151.405Z" fill="black"/>
<path d="M147.994 148.247C147.994 148.715 147.633 149.146 146.84 149.146C146.447 149.146 146.048 149.04 145.779 148.846L146.029 148.353C146.241 148.509 146.534 148.603 146.828 148.603C147.152 148.603 147.352 148.472 147.352 148.247C147.352 148.035 147.196 147.904 146.828 147.904H146.534V147.48L147.108 146.831H145.923V146.313H147.876V146.731L147.246 147.449C147.739 147.523 147.994 147.835 147.994 148.247Z" fill="white"/>
<path opacity="0.4" d="M251.866 146.02H154.091C153.698 146.02 153.38 145.701 153.38 145.308V144.859C153.38 144.466 153.698 144.148 154.091 144.148H251.866C252.259 144.148 252.577 144.466 252.577 144.859V145.308C252.577 145.701 252.259 146.02 251.866 146.02Z" fill="black"/>
<path opacity="0.4" d="M251.866 150.868H154.091C153.698 150.868 153.38 150.55 153.38 150.157V149.707C153.38 149.314 153.698 148.996 154.091 148.996H251.866C252.259 148.996 252.577 149.314 252.577 149.707V150.157C252.577 150.55 252.259 150.868 251.866 150.868Z" fill="black"/>
<path opacity="0.4" d="M203.075 155.71H154.091C153.698 155.71 153.38 155.392 153.38 154.999V154.55C153.38 154.156 153.698 153.838 154.091 153.838H203.075C203.468 153.838 203.787 154.156 203.787 154.55V154.999C203.787 155.392 203.468 155.71 203.075 155.71Z" fill="black"/>
<path opacity="0.4" d="M191.162 164.971H188.254C188.117 164.971 188.005 164.858 188.005 164.721V161.813C188.005 161.676 188.117 161.563 188.254 161.563H191.162C191.3 161.563 191.412 161.676 191.412 161.813V164.721C191.406 164.858 191.3 164.971 191.162 164.971Z" fill="black"/>
<path d="M190.996 164.562V161.973H188.406V164.562H190.996Z" fill="white"/>
<path opacity="0.4" d="M211.792 164.197H195.275C194.882 164.197 194.563 163.878 194.563 163.485V163.036C194.563 162.643 194.882 162.325 195.275 162.325H211.792C212.185 162.325 212.503 162.643 212.503 163.036V163.485C212.503 163.885 212.185 164.197 211.792 164.197Z" fill="black"/>
<path d="M188.916 163.267L189.565 163.86L190.576 162.662" stroke="#7531AB" stroke-width="0.5" stroke-miterlimit="10" stroke-linecap="round" stroke-linejoin="round"/>
<path opacity="0.4" d="M225.776 164.933H222.868C222.73 164.933 222.618 164.821 222.618 164.683V161.776C222.618 161.638 222.73 161.526 222.868 161.526H225.776C225.913 161.526 226.025 161.638 226.025 161.776V164.683C226.025 164.821 225.913 164.933 225.776 164.933Z" fill="black"/>
<path d="M225.619 164.525V161.935H223.03V164.525H225.619Z" fill="white"/>
<path opacity="0.4" d="M246.411 164.159H229.894C229.501 164.159 229.183 163.841 229.183 163.448V162.999C229.183 162.605 229.501 162.287 229.894 162.287H246.411C246.804 162.287 247.123 162.605 247.123 162.999V163.448C247.116 163.841 246.798 164.159 246.411 164.159Z" fill="black"/>
<path d="M223.535 163.23L224.184 163.816L225.195 162.624" stroke="#7531AB" stroke-width="0.5" stroke-miterlimit="10" stroke-linecap="round" stroke-linejoin="round"/>
<path opacity="0.4" d="M156.543 165.008H153.635C153.498 165.008 153.386 164.896 153.386 164.758V161.85C153.386 161.713 153.498 161.601 153.635 161.601H156.543C156.68 161.601 156.793 161.713 156.793 161.85V164.758C156.793 164.896 156.68 165.008 156.543 165.008Z" fill="black"/>
<path d="M156.379 164.6V162.011H153.789V164.6H156.379Z" fill="white"/>
<path opacity="0.4" d="M177.173 164.24H160.656C160.263 164.24 159.944 163.922 159.944 163.529V163.08C159.944 162.687 160.263 162.368 160.656 162.368H177.173C177.566 162.368 177.884 162.687 177.884 163.08V163.529C177.884 163.922 177.566 164.24 177.173 164.24Z" fill="black"/>
<path d="M250.152 76.3578C252.085 74.4254 252.085 71.2924 250.152 69.3599C248.22 67.4275 245.087 67.4275 243.154 69.3599C241.222 71.2924 241.222 74.4254 243.154 76.3578C245.087 78.2903 248.22 78.2903 250.152 76.3578Z" fill="white"/>
<path opacity="0.2" d="M251.036 70.5467L246.655 72.8555V67.9072C248.552 67.9072 250.206 68.9743 251.036 70.5467Z" fill="black"/>
<path d="M237.363 225.168C237.363 225.168 240.059 212.426 235.148 205.518C230.237 198.616 239.585 205.437 240.664 211.901C240.664 211.901 242.274 200.345 237.513 192.22C232.752 184.09 241.663 190.767 242.418 199.141C242.418 199.141 243.878 188.832 241.688 183.041C239.497 177.251 243.304 180.976 244.77 184.608C246.237 188.239 244.315 197.231 244.315 197.231C244.315 197.231 248.134 180.608 251.753 181.931C255.372 183.254 246.349 194.149 245.095 199.815C245.095 199.815 249.357 192.189 252.595 193.774C255.827 195.359 247.584 196.152 243.809 207.521L242.48 212.85C242.48 212.85 246.405 205.324 248.97 207.696C251.534 210.067 241.363 214.167 238.998 225.573L237.363 225.168Z" fill="#7531AB"/>
<path d="M237.893 225.904C237.893 225.904 238.461 209.836 246.398 203.034C254.336 196.227 241.107 201.618 237.893 209.037C237.893 209.037 239.403 194.716 247.534 186.399C255.665 178.081 242.997 183.422 239.597 193.225C239.597 193.225 240.92 180.446 245.269 174.156C249.618 167.872 243.946 171.198 241.113 175.11C238.28 179.023 237.899 190.367 237.899 190.367C237.899 190.367 238.28 169.313 233.55 169.825C228.826 170.331 236.383 186.068 236.196 193.225C236.196 193.225 233.363 182.823 229.014 183.759C224.664 184.695 234.305 188.102 235.441 202.841V209.624C235.441 209.624 232.982 199.44 229.201 201.518C225.419 203.596 236.383 211.539 235.815 225.904H237.893Z" fill="#263238"/>
<path d="M237.893 225.904C237.893 225.904 238.461 209.836 246.398 203.034C254.336 196.227 241.107 201.618 237.893 209.037C237.893 209.037 239.403 194.716 247.534 186.399C255.665 178.081 242.997 183.422 239.597 193.225C239.597 193.225 240.92 180.446 245.269 174.156C249.618 167.872 243.946 171.198 241.113 175.11C238.28 179.023 237.899 190.367 237.899 190.367C237.899 190.367 238.28 169.313 233.55 169.825C228.826 170.331 236.383 186.068 236.196 193.225C236.196 193.225 233.363 182.823 229.014 183.759C224.664 184.695 234.305 188.102 235.441 202.841V209.624C235.441 209.624 232.982 199.44 229.201 201.518C225.419 203.596 236.383 211.539 235.815 225.904H237.893Z" fill="#7531AB"/>
<path d="M232.184 237.211H241.806C245.594 237.211 248.664 234.141 248.664 230.353V229.061H225.326V230.353C225.326 234.141 228.396 237.211 232.184 237.211Z" fill="#171E4A"/>
<path d="M224.896 231.657H249.094C250.548 231.657 251.721 230.478 251.721 229.03V226.983C251.721 225.53 250.542 224.356 249.094 224.356H224.896C223.442 224.356 222.269 225.536 222.269 226.983V229.03C222.269 230.478 223.448 231.657 224.896 231.657Z" fill="#407BFF"/>
<path d="M224.896 231.657H249.094C250.548 231.657 251.721 230.478 251.721 229.03V226.983C251.721 225.53 250.542 224.356 249.094 224.356H224.896C223.442 224.356 222.269 225.536 222.269 226.983V229.03C222.269 230.478 223.448 231.657 224.896 231.657Z" fill="#212957"/>
<path d="M107.146 149.476C106.841 150.369 107.34 151.093 108.276 151.093H137.822C138.758 151.093 139.769 150.369 140.075 149.476L146.334 131.443C146.396 131.256 146.427 131.081 146.427 130.919C146.421 130.282 145.947 129.827 145.204 129.827H115.658C114.722 129.827 113.711 130.55 113.405 131.443L107.146 149.476Z" fill="#171E4A"/>
<path d="M138.047 150.188C138.497 150.188 139.002 149.826 139.152 149.395L145.41 131.362C145.442 131.281 145.454 131.206 145.454 131.137C145.454 130.887 145.273 130.731 144.986 130.731H115.44C114.99 130.731 114.485 131.093 114.335 131.524L108.077 149.558C108.014 149.732 108.027 149.894 108.108 150.013C108.164 150.094 108.276 150.188 108.501 150.188H138.047Z" fill="#407BFF"/>
<path opacity="0.8" d="M138.047 150.188C138.497 150.188 139.002 149.826 139.152 149.395L145.41 131.362C145.442 131.281 145.454 131.206 145.454 131.137C145.454 130.887 145.273 130.731 144.986 130.731H115.44C114.99 130.731 114.485 131.093 114.335 131.524L108.077 149.558C108.014 149.732 108.027 149.894 108.108 150.013C108.164 150.094 108.276 150.188 108.501 150.188H138.047Z" fill="white"/>
<path d="M94.498 149.751V150.587L100.351 152.085H137.685C138.259 152.085 138.727 151.623 138.727 151.043V149.751H94.498Z" fill="#171E4A"/>
<path opacity="0.2" d="M125.735 149.751V150.587L131.595 152.091H100.351L94.498 150.587V149.751H125.735Z" fill="white"/>
<g opacity="0.2">
<path d="M143.532 134.968H113.661L114.822 131.711H144.693L143.532 134.968Z" fill="#407BFF"/>
</g>
<g opacity="0.1">
<path d="M142.034 139.162H112.164C112.076 139.162 112.033 139.087 112.064 139C112.095 138.912 112.195 138.837 112.276 138.837H142.147C142.234 138.837 142.278 138.912 142.247 139C142.215 139.087 142.122 139.162 142.034 139.162Z" fill="black"/>
</g>
<g opacity="0.1">
<path d="M140.4 143.736H110.529C110.441 143.736 110.398 143.661 110.429 143.573C110.46 143.486 110.56 143.411 110.641 143.411H140.512C140.599 143.411 140.643 143.486 140.612 143.573C140.587 143.661 140.487 143.736 140.4 143.736Z" fill="black"/>
</g>
<g opacity="0.1">
<path d="M138.771 148.303H108.9C108.813 148.303 108.769 148.228 108.8 148.141C108.831 148.054 108.931 147.979 109.012 147.979H138.883C138.97 147.979 139.014 148.054 138.983 148.141C138.952 148.235 138.858 148.303 138.771 148.303Z" fill="black"/>
</g>
<path d="M128.837 237.142H132.088L137.935 155.754H133.617L128.837 237.142Z" fill="#171E4A"/>
<path opacity="0.2" d="M128.831 237.142H132.088L137.648 159.797L137.935 155.885H133.617L133.386 159.797L128.831 237.142Z" fill="white"/>
<path opacity="0.2" d="M133.387 159.598H137.649L137.936 155.885H133.618L133.387 159.598Z" fill="black"/>
<path d="M104.956 237.142H108.207L108.744 155.754H104.426L104.956 237.142Z" fill="#171E4A"/>
<path opacity="0.3" d="M104.42 155.885L104.507 169.014L104.957 237.142H108.208L108.657 169.014L108.738 155.885H104.42Z" fill="white"/>
<path opacity="0.2" d="M104.42 155.885L104.507 169.164H108.657L108.738 155.885H104.42Z" fill="black"/>
<path d="M70.4121 237.142H73.6632L79.51 155.754H75.192L70.4121 237.142Z" fill="#171E4A"/>
<path opacity="0.3" d="M70.4121 237.142H73.6632L79.223 159.797L79.51 155.885H75.192L74.9611 159.797L70.4121 237.142Z" fill="white"/>
<path opacity="0.2" d="M74.9609 159.598H79.2229L79.5099 155.885H75.1918L74.9609 159.598Z" fill="black"/>
<path d="M166.059 237.142H169.31L164.53 155.754H160.212L166.059 237.142Z" fill="#171E4A"/>
<path opacity="0.3" d="M160.212 155.885L160.499 159.797L166.059 237.142H169.31L164.761 159.797L164.53 155.885H160.212Z" fill="white"/>
<path opacity="0.2" d="M164.53 155.885H160.212L160.499 159.598H164.761L164.53 155.885Z" fill="black"/>
<path d="M73.1203 157.788H166.596C167.338 157.788 167.943 157.183 167.943 156.44V153.713H71.7725V156.44C71.7725 157.183 72.3777 157.788 73.1203 157.788Z" fill="#FAAE55"/>
<path d="M71.7721 155.751H167.949V153.711H71.7721V155.751Z" fill="#E19843"/>
<path d="M69.7566 154.244H169.965C170.601 154.244 171.113 153.732 171.113 153.096C171.113 152.459 170.601 151.948 169.965 151.948H69.7566C69.1201 151.948 68.6084 152.459 68.6084 153.096C68.6084 153.732 69.1201 154.244 69.7566 154.244Z" fill="#FAAE55"/>
<path d="M166.764 149.058C166.764 150.962 166.234 151.947 166.234 151.947H143.401V151.405H143.863V146.706H143.401V146.163H166.234C166.234 146.163 166.764 147.18 166.764 149.058Z" fill="#7F34BB"/>
<path opacity="0.2" d="M166.764 149.058C166.764 150.962 166.234 151.947 166.234 151.947H143.401V151.405H143.863V146.706H143.401V146.163H166.234C166.234 146.163 166.764 147.18 166.764 149.058Z" fill="white"/>
<path opacity="0.2" d="M154.546 149.058C154.546 150.962 154.016 151.947 154.016 151.947H143.401V151.405H143.863V146.706H143.401V146.163H154.016C154.016 146.163 154.546 147.18 154.546 149.058Z" fill="black"/>
<path opacity="0.8" d="M153.423 149.058C153.423 150.606 152.992 151.405 152.992 151.405H143.863V146.706H152.992C152.992 146.706 153.423 147.529 153.423 149.058Z" fill="white"/>
<path opacity="0.6" d="M163.044 149.058C163.044 150.962 162.514 151.947 162.514 151.947H158.265C158.265 151.947 158.795 150.962 158.795 149.058C158.795 147.186 158.265 146.163 158.265 146.163H162.514C162.514 146.163 163.044 147.18 163.044 149.058Z" fill="white"/>
<path d="M168.798 143.274C168.798 145.177 168.268 146.163 168.268 146.163H145.436V145.62H145.897V140.921H145.436V140.379H168.268C168.268 140.379 168.798 141.396 168.798 143.274Z" fill="#FAAE55"/>
<path opacity="0.2" d="M156.58 143.274C156.58 145.177 156.05 146.163 156.05 146.163H145.436V145.62H145.897V140.921H145.436V140.379H156.05C156.05 140.379 156.58 141.396 156.58 143.274Z" fill="black"/>
<path opacity="0.8" d="M155.457 143.274C155.457 144.821 155.027 145.62 155.027 145.62H145.897V140.921H155.027C155.027 140.921 155.457 141.745 155.457 143.274Z" fill="white"/>
<path opacity="0.2" d="M165.079 143.274C165.079 145.177 164.548 146.163 164.548 146.163H160.299C160.299 146.163 160.829 145.177 160.829 143.274C160.829 141.402 160.299 140.379 160.299 140.379H164.548C164.548 140.379 165.079 141.396 165.079 143.274Z" fill="black"/>
<path d="M92.1962 223.233L90.1931 232.531L85.4258 232.444L87.4163 223.233H92.1962Z" fill="#EBB376"/>
<path opacity="0.2" d="M92.2022 223.233L91.2038 227.826L86.4863 227.514L87.4161 223.233H92.2022Z" fill="black"/>
<path d="M90.9047 232.294C90.9047 232.3 91.0045 232.3 91.0045 232.306C91.0108 232.325 91.1106 232.338 91.1231 232.35C91.1293 232.362 91.1293 232.375 91.1418 232.381C91.1543 232.387 91.1668 232.381 91.1792 232.375C91.5848 232.5 91.9967 232.587 92.421 232.618C92.733 232.674 93.0575 232.612 93.3258 232.437C93.4943 232.288 93.5629 232.05 93.5005 231.826C93.4818 231.682 93.3944 231.558 93.2634 231.495C92.9576 231.358 92.4085 231.533 91.9405 231.738C92.2338 231.377 92.4522 230.946 92.4085 230.653C92.3773 230.459 92.1964 230.31 92.0029 230.291C91.8344 230.26 91.6098 230.303 91.4725 230.416C90.9733 230.846 90.8984 232.194 90.8984 232.275C90.9047 232.288 90.9047 232.288 90.9047 232.294C90.9047 232.288 90.9047 232.288 90.9047 232.294ZM91.4164 232.019C91.3789 232.038 91.3477 232.057 91.3165 232.075C91.3352 231.626 91.4226 230.871 91.7159 230.622C91.7783 230.559 91.8719 230.528 91.9592 230.534L92.0154 230.54C92.1714 230.572 92.2088 230.646 92.2151 230.715C92.2463 231.033 91.822 231.67 91.4164 232.019ZM91.485 232.256C92.0591 231.938 92.8765 231.589 93.176 231.732C93.2384 231.763 93.2821 231.826 93.2884 231.894C93.3258 232.032 93.2884 232.182 93.1823 232.281C92.9514 232.487 92.3274 232.475 91.485 232.256Z" fill="#407BFF"/>
<path d="M90.7923 231.713L85.4571 231.383C85.2699 231.364 85.1077 231.495 85.0827 231.682V231.689L84.5586 235.901C84.5274 236.362 84.8768 236.755 85.3386 236.793C87.2043 236.88 88.0967 236.824 90.4491 236.955C91.8906 237.042 94.7298 237.348 96.7203 237.155C98.7109 236.961 98.4675 235.002 97.6064 234.908C95.5722 234.677 92.8703 233.18 91.5973 232.044C91.3664 231.845 91.0856 231.732 90.7923 231.713Z" fill="#A55DDE"/>
<path d="M120.071 223.233L118.061 232.531L113.294 232.444L115.291 223.233H120.071Z" fill="#EBB376"/>
<path opacity="0.2" d="M120.07 223.233L119.078 227.826L114.354 227.514L115.284 223.233H120.07Z" fill="black"/>
<path d="M118.772 232.294C118.772 232.3 118.872 232.3 118.872 232.306C118.878 232.325 118.978 232.338 118.99 232.35C118.997 232.362 118.997 232.375 119.009 232.381C119.021 232.387 119.034 232.381 119.046 232.375C119.452 232.5 119.864 232.587 120.288 232.618C120.6 232.674 120.925 232.612 121.193 232.437C121.361 232.288 121.43 232.05 121.368 231.826C121.349 231.682 121.262 231.558 121.131 231.495C120.825 231.358 120.276 231.533 119.808 231.738C120.101 231.377 120.319 230.946 120.276 230.653C120.245 230.459 120.064 230.31 119.87 230.291C119.702 230.26 119.477 230.303 119.34 230.416C118.841 230.846 118.766 232.194 118.766 232.275C118.772 232.288 118.772 232.288 118.772 232.294C118.772 232.288 118.772 232.288 118.772 232.294ZM119.284 232.019C119.246 232.038 119.215 232.057 119.184 232.075C119.202 231.626 119.29 230.871 119.583 230.622C119.645 230.559 119.739 230.528 119.826 230.534L119.883 230.54C120.039 230.572 120.076 230.646 120.082 230.715C120.113 231.033 119.689 231.67 119.284 232.019ZM119.352 232.256C119.926 231.938 120.744 231.589 121.043 231.732C121.106 231.763 121.149 231.826 121.156 231.894C121.193 232.032 121.156 232.182 121.049 232.281C120.819 232.487 120.195 232.475 119.352 232.256Z" fill="#407BFF"/>
<path d="M118.66 231.713L113.324 231.383C113.137 231.364 112.975 231.495 112.95 231.682V231.689L112.426 235.901C112.395 236.362 112.744 236.755 113.206 236.793C115.072 236.88 115.964 236.824 118.316 236.955C119.758 237.042 122.597 237.348 124.588 237.155C126.578 236.961 126.335 235.002 125.474 234.908C123.439 234.677 120.737 233.18 119.464 232.044C119.24 231.845 118.959 231.732 118.66 231.713Z" fill="#A55DDE"/>
<path d="M100.738 205.537C97.5933 217.486 93.7932 226.041 93.7932 226.041L85.0946 225.38C85.0946 225.38 88.6639 211.44 89.9556 198.673C90.7543 190.792 90.6857 184.271 88.3769 183.765C86.9229 183.447 83.5284 183.46 79.1729 183.559V167.335C91.3908 169.844 103.546 174.574 104.47 178.368C105.768 183.709 103.509 195.016 100.738 205.537Z" fill="#407BFF"/>
<path d="M100.738 205.537C97.5933 217.486 93.7932 226.041 93.7932 226.041L85.0946 225.38C85.0946 225.38 88.6639 211.44 89.9556 198.673C90.7543 190.792 90.6857 184.271 88.3769 183.765C86.9229 183.447 83.5284 183.46 79.1729 183.559V167.335C91.3908 169.844 103.546 174.574 104.47 178.368C105.768 183.709 103.509 195.016 100.738 205.537Z" fill="#FAAE55"/>
<path d="M100.738 205.537C97.4873 203.478 93.6871 201.063 89.9556 198.673C90.7543 190.792 90.6857 184.271 88.3769 183.765C86.9229 183.447 83.5284 183.46 79.1729 183.559V167.335C91.3908 169.844 103.546 174.574 104.47 178.368C105.768 183.709 103.509 195.016 100.738 205.537Z" fill="#FAAE55"/>
<path d="M95.9838 165.738L96.7513 159.579L71.8537 155.479C71.8537 155.479 63.7105 171.61 67.6978 179.516C71.3545 186.767 110.267 182.449 116.258 183.759C122.31 185.082 112.975 225.374 112.975 225.374L121.674 226.035C121.674 226.035 135.115 189.774 132.35 178.368C131.14 173.394 110.623 166.805 95.9838 165.738Z" fill="#407BFF"/>
<path d="M95.9838 165.738L96.7513 159.579L71.8537 155.479C71.8537 155.479 63.7105 171.61 67.6978 179.516C71.3545 186.767 110.267 182.449 116.258 183.759C122.31 185.082 112.975 225.374 112.975 225.374L121.674 226.035C121.674 226.035 135.115 189.774 132.35 178.368C131.14 173.394 110.623 166.805 95.9838 165.738Z" fill="#FAAE55"/>
<path d="M109.68 115.631C109.468 115.999 109.493 116.417 109.736 116.554C109.98 116.692 110.342 116.504 110.554 116.136C110.766 115.768 110.741 115.356 110.504 115.213C110.267 115.069 109.911 115.281 109.68 115.631Z" fill="#263238"/>
<path d="M109.288 113.646C109.238 113.628 109.194 113.584 109.169 113.534C109.113 113.409 109.169 113.26 109.3 113.203C110.037 112.866 110.891 112.91 111.59 113.316C111.703 113.384 111.74 113.534 111.671 113.646C111.671 113.653 111.665 113.659 111.659 113.659C111.578 113.771 111.428 113.802 111.309 113.728C110.754 113.416 110.08 113.384 109.5 113.653C109.425 113.684 109.35 113.678 109.288 113.646Z" fill="#263238"/>
<path d="M110.03 115.163C109.824 116.548 109.811 117.958 109.986 119.35C108.963 119.581 108.021 118.663 108.021 118.663L110.03 115.163Z" fill="#DE5753"/>
<path d="M107.796 120.373C107.646 120.554 107.496 120.735 107.34 120.891C106.392 121.877 105.2 122.501 103.952 122.751C103.628 122.819 103.297 122.863 102.96 122.882C101.213 122.969 99.4654 122.345 98.2424 120.991C97.737 120.448 97.3189 119.768 97.0256 118.969C95.865 115.837 97.0506 113.372 98.7166 109.035C99.0598 108.099 99.6152 107.25 100.352 106.57C102.91 104.174 106.935 104.311 109.325 106.87C112.707 110.445 110.429 116.985 107.796 120.373Z" fill="#E4897B"/>
<path opacity="0.2" d="M103.953 122.757C103.628 122.825 103.298 122.869 102.961 122.888C101.213 122.975 99.4662 122.351 98.2432 120.997C98.9108 120.317 99.6472 119.905 99.6472 119.905C99.6472 119.905 102.343 120.654 103.953 122.757Z" fill="black"/>
<path d="M89.8936 122.919C90.3179 125.977 97.0009 127.119 97.0009 127.119C97.0009 127.119 100.296 128.616 100.433 127.312C99.0726 125.733 98.9166 124.361 99.3908 123.15C99.6654 122.445 100.152 121.808 100.732 121.209C101.032 120.891 101.369 120.598 101.706 120.311L99.6716 111.949C98.1928 115.125 93.1758 122.464 89.8936 122.919Z" fill="#E4897B"/>
<path d="M108.951 104.517C108.951 104.517 110.38 104.343 111.472 107.001C112.395 109.241 110.224 109.728 110.317 112.111C110.411 114.495 108.233 115.818 108.233 115.818C108.233 115.818 106.405 117.397 104.845 116.542C104.845 116.542 102.811 117.54 102.274 119.281C101.737 121.022 98.5862 117.877 95.747 118.351C95.747 118.351 93.8251 116.554 93.9686 112.199C94.0622 109.322 95.3352 106.733 95.3352 106.733C95.3352 106.733 96.1651 104.137 99.4099 102.689C102.655 101.235 108.339 102.34 108.951 104.517Z" fill="#212957"/>
<path d="M104.452 115.25C104.289 116.286 104.489 117.185 105.007 117.765C105.7 118.52 106.816 117.565 107.266 116.236C107.659 115.057 107.79 113.21 106.773 113.004C105.762 112.792 104.67 113.977 104.452 115.25Z" fill="#E4897B"/>
<path d="M99.6592 124.03C99.6592 124.03 96.9323 121.44 93.1321 120.991C89.3257 120.535 88.084 124.03 88.084 124.03L99.2785 126.295L99.6592 124.03Z" fill="#7F34BB"/>
<path d="M97.7559 147.661L102.317 148.341C102.317 148.341 103.865 147.829 105.5 147.661C107.135 147.486 109.025 147.661 109.025 147.661C109.025 147.661 111.091 148.434 111.091 150.413C111.091 150.413 106.273 151.704 104.426 150.93L97.7621 150.413V147.661H97.7559Z" fill="#E4897B"/>
<path opacity="0.2" d="M97.7559 147.661L102.317 148.341C102.317 148.341 103.865 147.829 105.5 147.661C107.135 147.486 109.025 147.661 109.025 147.661C109.025 147.661 111.091 148.434 111.091 150.413C111.091 150.413 106.273 151.704 104.426 150.93L97.7621 150.413V147.661H97.7559Z" fill="black"/>
<path d="M105.169 125.44C104.239 128.036 103.403 130.538 102.667 132.941C102.199 134.426 101.768 135.88 101.369 137.284C101.038 138.463 100.733 139.605 100.446 140.716C100.308 141.252 100.171 141.776 100.04 142.301C99.3224 145.177 98.7421 147.798 98.2865 150.107C96.92 156.983 96.5955 161.108 96.5955 161.108L70.999 157.907C71.8851 153.514 72.5777 149.67 73.5449 145.527C74.0816 143.255 74.6869 140.897 75.4669 138.307C76.016 136.447 76.6525 134.469 77.4075 132.329C79.9784 124.96 82.3433 122.919 82.3433 122.919C92.1901 121.34 105.169 125.44 105.169 125.44Z" fill="#407BFF"/>
<path d="M113.681 148.135L118.242 148.815C118.242 148.815 119.79 148.303 121.425 148.135C123.059 147.96 124.95 148.135 124.95 148.135C124.95 148.135 127.016 148.909 127.016 150.887C127.016 150.887 122.198 152.178 120.351 151.405L113.687 150.887V148.135H113.681Z" fill="#E4897B"/>
<path d="M84.1777 225.785L94.5299 226.472L96.0587 221.992L84.6457 221.461L84.1777 225.785Z" fill="#E19843"/>
<path opacity="0.2" d="M84.1777 225.785L94.5299 226.472L96.0587 221.992L84.6457 221.461L84.1777 225.785Z" fill="#E19843"/>
<path d="M112.046 225.785L122.404 226.472L123.927 221.992L112.514 221.461L112.046 225.785Z" fill="#E19843"/>
<path opacity="0.2" d="M112.046 225.785L122.404 226.472L123.927 221.992L112.514 221.461L112.046 225.785Z" fill="#E19843"/>
<path d="M70.9365 158.281L82.4743 159.797L82.8487 158.094L71.2922 156.415L70.9365 158.281Z" fill="black"/>
<path d="M83.8095 158.106L83.666 159.797L94.3302 161.264V159.592L83.8095 158.106Z" fill="black"/>
<path d="M94.9922 159.685V161.264L96.5397 161.47V159.941L94.9922 159.685Z" fill="black"/>
<path opacity="0.2" d="M102.667 132.94C102.199 134.426 101.768 135.879 101.369 137.283C101.038 138.463 100.732 139.605 100.445 140.715C99.6403 136.347 101.1 131.131 101.1 131.131L102.667 132.94Z" fill="black"/>
<path d="M104.395 126.938C106.479 127.362 107.559 141.833 108.021 143.748C108.426 145.421 118.235 148.815 118.235 148.815V151.174C118.235 151.174 107.378 150.413 104.844 149.377C102.311 148.341 100.751 134.033 100.751 134.033L104.395 126.938Z" fill="#E4897B"/>
<path d="M105.169 125.44C104.239 128.036 103.403 130.538 102.667 132.941C102.199 134.426 101.768 135.88 101.369 137.284C101.038 138.463 100.733 139.605 100.446 140.716C100.308 141.252 100.171 141.776 100.04 142.301C99.3224 145.177 98.7421 147.798 98.2865 150.107C96.92 156.983 96.5955 161.108 96.5955 161.108L70.999 157.907C71.8851 153.514 72.5777 149.67 73.5449 145.527C74.0816 143.255 74.6869 140.897 75.4669 138.307C76.016 136.447 76.6525 134.469 77.4075 132.329C79.9784 124.96 82.3433 122.919 82.3433 122.919C92.1901 121.34 105.169 125.44 105.169 125.44Z" fill="#A55DDE"/>
<path d="M105.169 125.44C107.078 126.033 108.027 138.532 108.027 138.532L101.1 139.493L99.665 134.37C99.665 134.37 100.239 131.948 101.063 129.402C102.248 125.721 105.169 125.44 105.169 125.44Z" fill="#7F34BB"/>
<path d="M60.4469 235.021C60.4469 233.81 59.4672 232.83 58.2566 232.83C57.0461 232.83 56.0664 233.81 56.0664 235.021C56.0664 236.231 57.0461 237.211 58.2566 237.211C59.4672 237.211 60.4469 236.231 60.4469 235.021Z" fill="#263238"/>
<path opacity="0.2" d="M60.4469 235.021C60.4469 233.81 59.4672 232.83 58.2566 232.83C57.0461 232.83 56.0664 233.81 56.0664 235.021C56.0664 236.231 57.0461 237.211 58.2566 237.211C59.4672 237.211 60.4469 236.231 60.4469 235.021Z" fill="white"/>
<path d="M113.244 235.021C113.244 233.81 112.264 232.83 111.054 232.83C109.843 232.83 108.863 233.81 108.863 235.021C108.863 236.231 109.843 237.211 111.054 237.211C112.264 237.211 113.244 236.231 113.244 235.021Z" fill="#263238"/>
<path opacity="0.2" d="M113.244 235.021C113.244 233.81 112.264 232.83 111.054 232.83C109.843 232.83 108.863 233.81 108.863 235.021C108.863 236.231 109.843 237.211 111.054 237.211C112.264 237.211 113.244 236.231 113.244 235.021Z" fill="white"/>
<path opacity="0.2" d="M59.3488 235.021C59.3488 234.415 58.8559 233.922 58.2506 233.922C57.6453 233.922 57.1523 234.415 57.1523 235.021C57.1523 235.626 57.6453 236.119 58.2506 236.119C58.8621 236.119 59.3488 235.626 59.3488 235.021Z" fill="white"/>
<path opacity="0.2" d="M111.047 236.119C111.654 236.119 112.146 235.627 112.146 235.021C112.146 234.414 111.654 233.922 111.047 233.922C110.441 233.922 109.949 234.414 109.949 235.021C109.949 235.627 110.441 236.119 111.047 236.119Z" fill="white"/>
<path d="M86.4678 225.399V201.805H82.8361V225.399C68.7088 225.761 60.1225 230.703 58.4003 231.782C58.2006 231.907 58.082 232.132 58.082 232.369V234.328C58.082 234.709 58.394 235.021 58.7747 235.021C59.0243 235.021 59.2552 234.89 59.38 234.671L60.2161 233.199C60.2161 233.199 69.938 229.735 82.8361 229.455V233.33C82.8361 233.823 83.2355 234.228 83.7347 234.228H85.5692C86.0622 234.228 86.4678 233.829 86.4678 233.33V229.455C99.3659 229.735 109.088 233.199 109.088 233.199L109.924 234.671C110.049 234.89 110.28 235.021 110.529 235.021C110.91 235.021 111.222 234.709 111.222 234.328V232.369C111.222 232.132 111.103 231.913 110.904 231.782C109.181 230.696 100.595 225.761 86.4678 225.399Z" fill="#263238"/>
<path opacity="0.2" d="M86.4678 225.399V201.805H82.8361V225.399C68.7088 225.761 60.1225 230.703 58.4003 231.782C58.2006 231.907 58.082 232.132 58.082 232.369V234.328C58.082 234.709 58.394 235.021 58.7747 235.021C59.0243 235.021 59.2552 234.89 59.38 234.671L60.2161 233.199C60.2161 233.199 69.938 229.735 82.8361 229.455V233.33C82.8361 233.823 83.2355 234.228 83.7347 234.228H85.5692C86.0622 234.228 86.4678 233.829 86.4678 233.33V229.455C99.3659 229.735 109.088 233.199 109.088 233.199L109.924 234.671C110.049 234.89 110.28 235.021 110.529 235.021C110.91 235.021 111.222 234.709 111.222 234.328V232.369C111.222 232.132 111.103 231.913 110.904 231.782C109.181 230.696 100.595 225.761 86.4678 225.399Z" fill="black"/>
<path d="M85.3632 237.211H83.9404C83.6784 237.211 83.46 236.999 83.46 236.73V233.298C83.46 233.036 83.6721 232.818 83.9404 232.818H85.3632C85.6252 232.818 85.8436 233.03 85.8436 233.298V236.73C85.8436 236.999 85.6315 237.211 85.3632 237.211Z" fill="#263238"/>
<path opacity="0.2" d="M85.3632 237.211H83.9404C83.6784 237.211 83.46 236.999 83.46 236.73V233.298C83.46 233.036 83.6721 232.818 83.9404 232.818H85.3632C85.6252 232.818 85.8436 233.03 85.8436 233.298V236.73C85.8436 236.999 85.6315 237.211 85.3632 237.211Z" fill="white"/>
<path d="M113.374 186.499H55.9287V183.516C55.9287 180.789 58.1377 178.58 60.8646 178.58H108.432C111.159 178.58 113.368 180.789 113.368 183.516V186.499H113.374Z" fill="#171E4A"/>
<path d="M76.415 158.974H108.039C109.668 158.974 110.872 160.49 110.504 162.075L104.851 186.505H103.547L108.364 165.095C108.72 163.517 107.515 162.013 105.899 162.013H77.064L76.415 158.974Z" fill="#263238"/>
<path d="M88.3836 187.353V207.995C88.3836 208.663 87.8407 209.193 87.1855 209.193H82.1248C81.4572 209.193 80.9268 208.657 80.9268 207.995V187.353H88.3836Z" fill="#263238"/>
<path opacity="0.2" d="M88.3898 187.353H80.9268V195.927H88.3898V187.353Z" fill="black"/>
<path d="M114.578 184.26V186.725C114.578 187.424 114.01 187.986 113.311 187.986H55.2605C54.5616 187.986 54 187.424 54 186.725V184.26C54 183.568 54.5616 183 55.2605 183H113.311C114.01 183 114.578 183.568 114.578 184.26Z" fill="#002147"/>
<path d="M88.2333 186.498H54.3626C54.3626 186.498 43.5986 168.602 43.5986 139.031V128.173C43.5986 123.712 47.2178 120.092 51.6857 120.092H66.0501C70.4244 120.092 74.0062 123.568 74.131 127.942C74.549 143.18 76.7954 176.178 88.2333 186.498Z" fill="#171E4A"/>
<path d="M80.7824 186.498H55.8973C54.9363 186.498 54.0503 185.968 53.6072 185.113C51.1549 180.39 43.6045 163.81 43.6045 139.031V128.173C43.6045 123.712 47.2237 120.092 51.6853 120.092H64.0967C68.4709 120.092 72.0527 123.568 72.1775 127.942C72.5519 141.552 74.3802 169.338 82.9227 182.474C84.0522 184.208 82.8541 186.498 80.7824 186.498Z" fill="#273270"/>
<path d="M114.578 184.26V186.725C114.578 187.418 114.017 187.986 113.318 187.986H87.3031C86.3609 187.986 85.5996 187.224 85.5996 186.282V184.704C85.5996 183.761 86.3609 183 87.3031 183H113.311C114.01 183 114.578 183.568 114.578 184.26Z" fill="#11152D"/>
<path d="M151.472 75.064C152.952 75.064 153.64 74.328 153.64 73.472C153.64 71.416 150.248 72.272 150.248 70.904C150.248 70.416 150.656 70.016 151.608 70.016C152.104 70.016 152.656 70.16 153.144 70.472L153.408 69.832C152.944 69.512 152.264 69.336 151.608 69.336C150.136 69.336 149.464 70.072 149.464 70.936C149.464 73.016 152.856 72.152 152.856 73.52C152.856 74.008 152.44 74.384 151.472 74.384C150.752 74.384 150.04 74.112 149.624 73.736L149.328 74.36C149.776 74.776 150.616 75.064 151.472 75.064ZM159.249 72.904C159.249 71.6 158.377 70.72 157.153 70.72C155.929 70.72 155.025 71.624 155.025 72.88C155.025 74.144 155.937 75.048 157.305 75.048C158.009 75.048 158.593 74.808 158.977 74.36L158.553 73.864C158.241 74.208 157.825 74.376 157.329 74.376C156.489 74.376 155.889 73.88 155.793 73.136H159.233C159.241 73.064 159.249 72.968 159.249 72.904ZM157.153 71.368C157.897 71.368 158.433 71.872 158.513 72.584H155.793C155.873 71.864 156.417 71.368 157.153 71.368ZM161.035 75H161.803V69.064H161.035V75ZM167.822 72.904C167.822 71.6 166.95 70.72 165.726 70.72C164.502 70.72 163.598 71.624 163.598 72.88C163.598 74.144 164.51 75.048 165.878 75.048C166.582 75.048 167.166 74.808 167.55 74.36L167.126 73.864C166.814 74.208 166.398 74.376 165.902 74.376C165.062 74.376 164.462 73.88 164.366 73.136H167.806C167.814 73.064 167.822 72.968 167.822 72.904ZM165.726 71.368C166.47 71.368 167.006 71.872 167.086 72.584H164.366C164.446 71.864 164.99 71.368 165.726 71.368ZM171.456 75.048C172.216 75.048 172.848 74.728 173.184 74.136L172.6 73.768C172.328 74.184 171.912 74.376 171.448 74.376C170.616 74.376 169.992 73.8 169.992 72.88C169.992 71.976 170.616 71.392 171.448 71.392C171.912 71.392 172.328 71.584 172.6 72L173.184 71.624C172.848 71.032 172.216 70.72 171.456 70.72C170.152 70.72 169.216 71.616 169.216 72.88C169.216 74.144 170.152 75.048 171.456 75.048ZM177.097 74.2C176.937 74.328 176.721 74.4 176.497 74.4C176.073 74.4 175.833 74.144 175.833 73.688V71.392H177.049V70.76H175.833V69.832H175.065V70.76H174.345V71.392H175.065V73.72C175.065 74.576 175.553 75.048 176.409 75.048C176.753 75.048 177.105 74.952 177.337 74.752L177.097 74.2ZM183.598 75.064C185.078 75.064 185.766 74.328 185.766 73.472C185.766 71.416 182.374 72.272 182.374 70.904C182.374 70.416 182.782 70.016 183.734 70.016C184.23 70.016 184.782 70.16 185.27 70.472L185.534 69.832C185.07 69.512 184.39 69.336 183.734 69.336C182.262 69.336 181.59 70.072 181.59 70.936C181.59 73.016 184.982 72.152 184.982 73.52C184.982 74.008 184.566 74.384 183.598 74.384C182.878 74.384 182.166 74.112 181.75 73.736L181.454 74.36C181.902 74.776 182.742 75.064 183.598 75.064ZM190.727 70.76V72.952C190.727 73.864 190.215 74.36 189.415 74.36C188.687 74.36 188.271 73.944 188.271 73.112V70.76H187.503V73.2C187.503 74.448 188.231 75.048 189.327 75.048C189.927 75.048 190.455 74.8 190.767 74.36V75H191.495V70.76H190.727ZM195.925 70.72C195.325 70.72 194.797 70.944 194.445 71.4V69.064H193.677V75H194.413V74.328C194.757 74.808 195.301 75.048 195.925 75.048C197.165 75.048 198.069 74.176 198.069 72.88C198.069 71.584 197.165 70.72 195.925 70.72ZM195.861 74.376C195.053 74.376 194.437 73.784 194.437 72.88C194.437 71.976 195.053 71.392 195.861 71.392C196.677 71.392 197.293 71.976 197.293 72.88C197.293 73.784 196.677 74.376 195.861 74.376ZM200.274 69.944C200.578 69.944 200.794 69.72 200.794 69.432C200.794 69.16 200.57 68.944 200.274 68.944C199.978 68.944 199.754 69.168 199.754 69.448C199.754 69.728 199.978 69.944 200.274 69.944ZM199.306 76.6C200.178 76.6 200.658 76.056 200.658 75.192V70.76H199.89V75.208C199.89 75.696 199.666 75.952 199.258 75.952C199.01 75.952 198.786 75.88 198.634 75.752L198.386 76.344C198.602 76.52 198.954 76.6 199.306 76.6ZM206.675 72.904C206.675 71.6 205.803 70.72 204.579 70.72C203.355 70.72 202.451 71.624 202.451 72.88C202.451 74.144 203.363 75.048 204.731 75.048C205.435 75.048 206.019 74.808 206.403 74.36L205.979 73.864C205.667 74.208 205.251 74.376 204.755 74.376C203.915 74.376 203.315 73.88 203.219 73.136H206.659C206.667 73.064 206.675 72.968 206.675 72.904ZM204.579 71.368C205.323 71.368 205.859 71.872 205.939 72.584H203.219C203.299 71.864 203.843 71.368 204.579 71.368ZM210.31 75.048C211.07 75.048 211.702 74.728 212.038 74.136L211.454 73.768C211.182 74.184 210.766 74.376 210.302 74.376C209.47 74.376 208.846 73.8 208.846 72.88C208.846 71.976 209.47 71.392 210.302 71.392C210.766 71.392 211.182 71.584 211.454 72L212.038 71.624C211.702 71.032 211.07 70.72 210.31 70.72C209.006 70.72 208.07 71.616 208.07 72.88C208.07 74.144 209.006 75.048 210.31 75.048ZM215.951 74.2C215.791 74.328 215.575 74.4 215.351 74.4C214.927 74.4 214.687 74.144 214.687 73.688V71.392H215.903V70.76H214.687V69.832H213.919V70.76H213.199V71.392H213.919V73.72C213.919 74.576 214.407 75.048 215.263 75.048C215.607 75.048 215.959 74.952 216.191 74.752L215.951 74.2Z" fill="white"/>
</g>
<defs>
<clipPath id="clip0_577_1061">
<rect width="312" height="232.509" fill="white" transform="translate(0 10)"/>
</clipPath>
</defs>
</svg>
