<svg width="312" height="233" viewBox="0 0 312 233" fill="none" xmlns="http://www.w3.org/2000/svg">
<path d="M312 204.329H0V204.485H312V204.329Z" fill="#EBEBEB"/>
<path d="M280.737 214.369H260.07V214.525H280.737V214.369Z" fill="#EBEBEB"/>
<path d="M206.681 216.066H201.259V216.222H206.681V216.066Z" fill="#EBEBEB"/>
<path d="M259.446 208.578H247.472V208.734H259.446V208.578Z" fill="#EBEBEB"/>
<path d="M59.6859 209.627H32.7354V209.783H59.6859V209.627Z" fill="#EBEBEB"/>
<path d="M69.195 209.627H65.2451V209.783H69.195V209.627Z" fill="#EBEBEB"/>
<path d="M140.493 212.26H82.0371V212.416H140.493V212.26Z" fill="#EBEBEB"/>
<path d="M147.894 176.498H27.4058C25.4402 176.498 23.8428 174.901 23.8428 172.935V3.56304C23.8428 1.59744 25.4402 0 27.4058 0H147.9C149.866 0 151.463 1.59744 151.463 3.56304V172.935C151.457 174.901 149.86 176.498 147.894 176.498ZM27.4058 0.156C25.5276 0.156 23.9988 1.6848 23.9988 3.56304V172.935C23.9988 174.814 25.5276 176.342 27.4058 176.342H147.9C149.778 176.342 151.307 174.814 151.307 172.935V3.56304C151.307 1.6848 149.778 0.156 147.9 0.156H27.4058Z" fill="#EBEBEB"/>
<path d="M282.865 176.498H162.371C160.405 176.498 158.808 174.901 158.808 172.935V3.56304C158.808 1.59744 160.405 0 162.371 0H282.865C284.831 0 286.428 1.59744 286.428 3.56304V172.935C286.428 174.901 284.831 176.498 282.865 176.498ZM162.371 0.156C160.492 0.156 158.964 1.6848 158.964 3.56304V172.935C158.964 174.814 160.492 176.342 162.371 176.342H282.865C284.743 176.342 286.272 174.814 286.272 172.935V3.56304C286.272 1.6848 284.743 0.156 282.865 0.156H162.371Z" fill="#EBEBEB"/>
<path d="M37.9739 88.5663H83.7256L83.7256 12.9188H37.9739L37.9739 88.5663Z" fill="#F5F5F5"/>
<path d="M37.9702 12.9167H37.0654V88.5643H37.9702V12.9167Z" fill="#E0E0E0"/>
<path d="M42.6161 85.2341H79.0889L79.0889 16.2447H42.6161L42.6161 85.2341Z" fill="#FAFAFA"/>
<path d="M94.5237 115.125H140.275V39.4775H94.5237V115.125Z" fill="#F5F5F5"/>
<path d="M94.5239 39.4742H93.6191V115.122H94.5239V39.4742Z" fill="#E0E0E0"/>
<path d="M99.1659 111.793H135.639V42.8034H99.1659V111.793Z" fill="#FAFAFA"/>
<path d="M65.0208 184.773C66.1565 164.199 63.1551 131.09 59.904 119.639C59.4735 118.123 58.9805 116.357 58.2442 116.126C56.1164 115.452 55.1616 118.785 55.43 119.927C56.7029 125.461 57.8448 139.177 58.9868 163.045C59.5546 174.926 58.9743 183.063 60.5093 184.779L65.0208 184.773Z" fill="#E6E6E6"/>
<path d="M61.6388 138.884C64.6215 129.243 102.804 119.34 91.8092 129.711C89.0698 132.294 76.3152 139.102 71.0799 146.259C67.0114 151.819 62.8992 161.167 61.8135 166.358C61.3392 155.445 59.6544 145.311 61.6388 138.884Z" fill="#E6E6E6"/>
<path d="M65.9881 151.108C72.64 136.437 93.9184 133.804 88.1963 141.548C85.9499 144.587 77.7131 148.05 72.4715 155.214C68.403 160.773 64.2908 170.121 63.2051 175.313C62.7308 164.399 63.2113 157.235 65.9881 151.108Z" fill="#E6E6E6"/>
<path d="M57.6269 149.86C49.752 130.984 21.3038 129.486 28.8729 138.253C31.7496 141.586 41.8022 147.701 49.3963 155.576C55.2994 161.691 61.9512 171.825 64.2163 177.384C62.7499 165.84 60.803 157.473 57.6269 149.86Z" fill="#E6E6E6"/>
<path d="M60.9332 128.744C67.9844 115.814 89.3252 114.435 83.2349 121.505C80.845 124.282 73.0637 127.814 67.9844 134.759C64.0344 140.15 59.292 147.189 58.2375 152.218C57.7757 141.635 57.8069 134.472 60.9332 128.744Z" fill="#E6E6E6"/>
<path d="M54.7933 128.999C49.2273 120.968 24.2985 112.126 30.7943 119.408C37.6021 127.04 42.4381 125.723 48.8716 132.394C53.8698 137.573 59.5045 146.153 61.4202 150.864C60.1847 141.08 58.7745 134.74 54.7933 128.999Z" fill="#E6E6E6"/>
<path d="M61.4016 119.746C64.9272 113.393 79.5164 108.719 75.6912 113.593C73.0392 116.975 69.8568 119.296 66.4872 123.901C63.8664 127.477 60.3096 131.982 59.6108 135.314C59.3112 128.294 59.2988 123.527 61.4016 119.746Z" fill="#E6E6E6"/>
<path d="M55.6545 121.667C52.0977 117.73 33.0782 108.364 37.4213 114.379C39.1248 116.738 46.3819 122.497 51.2741 127.564C55.0742 131.502 59.2425 134.703 60.6965 138.278C59.748 130.846 59.2176 125.605 55.6545 121.667Z" fill="#E6E6E6"/>
<path d="M60.528 135.508C55.3301 129.754 17.4346 122.341 27.1752 128.687C30.5136 130.859 45.1589 134.597 52.3037 141.997C57.8511 147.751 59.8479 157.279 61.9757 162.508C67.5792 153.329 65.7322 141.267 60.528 135.508Z" fill="#E6E6E6"/>
<path d="M54.038 183.943L54.5247 201.159C54.5808 204.422 55.3359 204.329 56.2594 204.329H68.5085C69.432 204.329 70.1933 204.429 70.2432 201.159L70.73 183.943C70.7861 180.398 69.9936 177.416 68.9952 177.416H55.7727C54.7743 177.409 53.9818 180.398 54.038 183.943Z" fill="#F5F5F5"/>
<path d="M53.3081 180.542H71.4603C71.7286 180.542 71.9533 180.373 71.9782 180.149L72.4088 176.854C72.44 176.592 72.2029 176.367 71.8909 176.367H52.8713C52.5593 176.367 52.316 176.598 52.3534 176.854L52.784 180.149C52.8152 180.373 53.0398 180.542 53.3081 180.542Z" fill="#F5F5F5"/>
<path d="M181.503 107.702H167.763V200.154H181.503V107.702Z" fill="#F0F0F0"/>
<path d="M274.56 200.16H170.402V204.329H274.56V200.16Z" fill="#F0F0F0"/>
<path d="M181.503 200.161H277.199V107.709L181.503 107.709V200.161Z" fill="#F5F5F5"/>
<path d="M180.08 104.071H166.034V107.709H180.08V104.071Z" fill="#F0F0F0"/>
<path d="M180.078 107.703L278.926 107.703V104.065L180.078 104.065V107.703Z" fill="#FAFAFA"/>
<path d="M272.189 151.357H186.514V115.409H272.189V151.357ZM187.3 150.571H271.409V116.195H187.3V150.571Z" fill="#E0E0E0"/>
<path d="M272.189 192.454H186.514V157.011H272.189V192.454ZM187.3 191.668H271.409V157.791H187.3V191.668Z" fill="#E0E0E0"/>
<path d="M246.031 122.479H212.665C211.854 122.479 211.187 121.811 211.187 121C211.187 120.189 211.854 119.521 212.665 119.521H246.031C246.842 119.521 247.51 120.189 247.51 121C247.51 121.811 246.848 122.479 246.031 122.479Z" fill="#E0E0E0"/>
<path d="M246.031 164.081H212.665C211.854 164.081 211.187 163.413 211.187 162.602C211.187 161.791 211.854 161.123 212.665 161.123H246.031C246.842 161.123 247.51 161.791 247.51 162.602C247.51 163.413 246.848 164.081 246.031 164.081Z" fill="#E0E0E0"/>
<path d="M224.896 104.033H264.582L267.802 68.6462H228.115L224.896 104.033Z" fill="#E6E6E6"/>
<path d="M223.548 104.033H263.234L266.454 68.6462H226.768L223.548 104.033Z" fill="#F0F0F0"/>
<path d="M259.671 100.115L262.18 72.5649H230.331L227.822 100.115H259.671Z" fill="white"/>
<path d="M215.705 78.1935L213.353 104.033H232.372L234.725 78.1935H215.705Z" fill="#E6E6E6"/>
<path d="M214.719 78.1935L212.366 104.033H231.392L233.738 78.1935H214.719Z" fill="#F0F0F0"/>
<path d="M217.321 81.0514L215.486 101.169H228.79L230.618 81.0514H217.321Z" fill="white"/>
<path d="M156 232.509C222.82 232.509 276.987 229.346 276.987 225.445C276.987 221.544 222.82 218.381 156 218.381C89.1806 218.381 35.0127 221.544 35.0127 225.445C35.0127 229.346 89.1806 232.509 156 232.509Z" fill="#F5F5F5"/>
<path d="M184.904 36.6725C182.489 30.5636 175.475 27.6432 169.404 30.3202C164.094 32.6664 161.204 39.4868 163.207 44.9343C164.262 47.8047 166.327 50.0012 168.842 51.2804C169.915 51.8232 170.858 52.597 171.5 53.6204L173.148 56.2537C174.259 58.0383 176.486 58.7684 178.439 58.0008L182.595 56.3597C184.548 55.586 185.671 53.533 185.272 51.4676L184.648 48.3039C184.43 47.1869 184.579 46.045 184.979 44.978C185.952 42.3884 186.002 39.4431 184.904 36.6725Z" fill="#FAAE55"/>
<path d="M178.976 63.2549C178.714 63.2549 178.452 63.1988 178.202 63.0927C177.728 62.8868 177.36 62.5061 177.167 62.0257C176.774 61.0335 177.266 59.9041 178.259 59.5109L183.769 57.3332C184.249 57.146 184.779 57.1522 185.254 57.3581C185.728 57.5641 186.096 57.9447 186.29 58.4252C186.477 58.9057 186.47 59.4298 186.265 59.9103C186.059 60.3845 185.678 60.7527 185.198 60.9461L179.688 63.1239C179.457 63.205 179.213 63.2549 178.976 63.2549ZM184.48 57.8199C184.318 57.8199 184.155 57.8511 183.999 57.9135L178.489 60.0913C177.816 60.3596 177.479 61.1271 177.747 61.801C177.878 62.1255 178.128 62.3813 178.446 62.5248C178.77 62.6684 179.126 62.6746 179.45 62.5436L184.96 60.3658C185.285 60.2348 185.541 59.9852 185.684 59.6669C185.828 59.3425 185.834 58.9868 185.703 58.6623C185.572 58.3378 185.322 58.082 185.004 57.9385C184.836 57.8573 184.655 57.8199 184.48 57.8199Z" fill="#263238"/>
<path d="M181.784 66.6058C181.622 66.6058 181.459 66.5746 181.303 66.506C181.004 66.3749 180.779 66.1378 180.661 65.8445L180.567 65.6012C180.324 64.9834 180.629 64.2783 181.247 64.0349L184.692 62.6746C185.309 62.4313 186.015 62.737 186.258 63.3548L186.352 63.5981C186.47 63.8977 186.464 64.2221 186.333 64.5217C186.202 64.8212 185.971 65.0458 185.671 65.1644L182.227 66.5247C182.077 66.5809 181.934 66.6058 181.784 66.6058ZM185.122 63.2113C185.054 63.2113 184.979 63.2237 184.91 63.2549L181.466 64.6153C181.166 64.7338 181.016 65.077 181.135 65.3765L181.229 65.6199C181.285 65.7634 181.397 65.882 181.541 65.9381C181.684 66.0005 181.846 66.0005 181.99 65.9444L185.434 64.5841C185.578 64.5279 185.69 64.4156 185.753 64.2721C185.815 64.1285 185.815 63.9725 185.759 63.8228L185.665 63.5794C185.578 63.3548 185.359 63.2113 185.122 63.2113Z" fill="#263238"/>
<path d="M171.544 47.736C170.608 47.736 169.729 47.1744 169.367 46.2571C168.892 45.059 169.485 43.6925 170.683 43.2182C171.888 42.744 173.248 43.3368 173.722 44.5349L174.583 46.7126L172.406 47.5738C172.119 47.6861 171.831 47.736 171.544 47.736ZM171.538 43.68C171.326 43.68 171.114 43.7174 170.908 43.7986C170.028 44.148 169.591 45.1464 169.941 46.0262C170.29 46.9061 171.289 47.3429 172.168 46.9934L173.766 46.3632L173.136 44.7658C172.874 44.0918 172.225 43.68 171.538 43.68Z" fill="white"/>
<path d="M178.446 58.2129L173.772 46.3632L178.072 44.6659L182.746 56.5157L182.165 56.7403L177.716 45.4771L174.577 46.7126L179.027 57.9821L178.446 58.2129Z" fill="white"/>
<path d="M177.716 45.4771L176.855 43.2994C176.381 42.1013 176.974 40.7347 178.172 40.2605C179.37 39.7862 180.736 40.379 181.21 41.5771C181.685 42.7752 181.092 44.1418 179.894 44.616L177.716 45.4771ZM179.033 40.7222C178.821 40.7222 178.608 40.7597 178.402 40.8408C177.523 41.1902 177.086 42.1886 177.435 43.0685L178.066 44.6659L179.663 44.0357C180.543 43.6862 180.98 42.6878 180.63 41.808C180.368 41.1341 179.719 40.7222 179.033 40.7222Z" fill="white"/>
<path d="M187.406 75.217C185.047 75.217 182.695 75.0235 180.411 74.6491L180.511 74.0314C182.757 74.4058 185.079 74.593 187.406 74.593V75.217Z" fill="#FAAE55"/>
<path d="M200.317 81.6755L200.647 81.0015C202.014 78.2185 201.87 74.9487 201.303 72.8521C198.938 73.707 196.423 74.3435 193.827 74.7366L193.734 74.1188C196.404 73.7132 198.981 73.0518 201.396 72.1532L201.708 72.0409L201.808 72.3591C202.432 74.3871 202.688 77.6694 201.515 80.6022C209.184 77.5508 217.19 66.7182 217.19 53.8139C217.19 42.351 203.83 33.0284 187.412 33.0284C170.995 33.0284 157.635 42.351 157.635 53.8139C157.635 62.1443 164.73 69.6447 175.706 72.927L175.525 73.526C164.274 70.1627 157.005 62.4251 157.005 53.8139C157.005 42.0078 170.646 32.4044 187.406 32.4044C204.173 32.4044 217.807 42.0078 217.807 53.8139C217.807 67.3796 209.096 78.7177 201.022 81.4446L200.317 81.6755Z" fill="#FAAE55"/>
<path d="M220.802 55.4736L200.011 59.1864C198.525 59.4547 197.096 58.4563 196.828 56.9712L194.613 44.5848C194.345 43.0997 195.343 41.6707 196.828 41.4024L217.62 37.6896C219.105 37.4213 220.534 38.4197 220.802 39.9048L223.017 52.2912C223.286 53.7763 222.287 55.2115 220.802 55.4736Z" fill="#FAAE55"/>
<path d="M212.634 47.7609L205.271 45.0964L206.65 52.8028L212.634 47.7609Z" fill="white"/>
<path d="M134.328 157.641H81.307C80.215 157.641 79.3164 156.749 79.3164 155.651V152.818C79.3164 151.726 80.2087 150.827 81.307 150.827H134.328C135.42 150.827 136.319 151.719 136.319 152.818V155.651C136.313 156.743 135.42 157.641 134.328 157.641Z" fill="#212957"/>
<path d="M133.723 221.701H135.302L133.486 157.641H131.296L133.723 221.701Z" fill="#212957"/>
<path opacity="0.3" d="M133.723 221.701H135.302L133.486 157.641H131.296L133.723 221.701Z" fill="white"/>
<path d="M119.165 221.701H117.586L119.408 157.641H121.592L119.165 221.701Z" fill="#212957"/>
<path opacity="0.3" d="M119.165 221.701H117.586L119.408 157.641H121.592L119.165 221.701Z" fill="white"/>
<path d="M96.4635 221.701H98.0422L96.2264 157.641H94.0361L96.4635 221.701Z" fill="#212957"/>
<path opacity="0.3" d="M96.4635 221.701H98.0422L96.2264 157.641H94.0361L96.4635 221.701Z" fill="white"/>
<path d="M81.9121 221.701H80.3271L82.1492 157.641H84.3332L81.9121 221.701Z" fill="#212957"/>
<path opacity="0.3" d="M81.9121 221.701H80.3271L82.1492 157.641H84.3332L81.9121 221.701Z" fill="white"/>
<path d="M150.578 205.421L156.206 203.511L151.583 190.37L145.954 192.279L150.578 205.421Z" fill="#FFC3BD"/>
<path d="M155.788 201.346L149.617 204.054C149.392 204.154 149.305 204.373 149.411 204.591L151.751 209.346C151.994 209.839 152.731 210.082 153.242 209.851C155.37 208.872 156.331 208.304 159.039 207.112C160.712 206.382 164.075 205.071 166.159 203.736C168.193 202.426 166.609 200.454 165.585 200.847C163.158 201.77 159.127 201.733 156.918 201.259C156.518 201.165 156.119 201.203 155.788 201.346Z" fill="#A55DDE"/>
<path opacity="0.2" d="M145.954 192.286L151.583 190.376L154.222 197.889L148.5 199.53L145.954 192.286Z" fill="black"/>
<path d="M110.71 133.062C110.71 133.062 138.803 138.129 141.055 147.351C145.504 165.585 155.538 194.101 155.538 194.101L144.855 197.196C144.855 197.196 129.586 164.499 127.658 153.492C111.908 153.473 92.7016 154.764 90.2181 148.069C88.0278 142.153 88.8078 133.062 88.8078 133.062H110.71Z" fill="#FAAE55"/>
<path d="M144.269 199.087L156.749 194.969L155.682 189.334L142.072 194.126L144.269 199.087Z" fill="#FAAE55"/>
<path d="M126.116 207.418L132.331 207.892L128.681 192.554L122.884 193.864L126.116 207.418Z" fill="#FFC3BD"/>
<path d="M132.175 206.394L125.48 205.652C125.237 205.627 125.049 205.776 125.037 206.014L124.687 211.305C124.65 211.854 125.162 212.435 125.723 212.484C128.057 212.703 129.168 212.684 132.113 213.015C133.923 213.215 137.492 213.77 139.969 213.645C142.39 213.527 141.997 211.031 140.918 210.856C138.353 210.444 134.884 208.391 133.205 206.881C132.899 206.6 132.531 206.432 132.175 206.394Z" fill="#A55DDE"/>
<path opacity="0.2" d="M122.884 193.871L128.681 192.56L130.522 200.31L124.662 201.34L122.884 193.871Z" fill="black"/>
<path d="M96.1208 133.062C96.1208 133.062 130.26 138.172 128.694 151.095C126.441 169.728 132.225 196.679 132.225 196.679L121.274 198.638C121.274 198.638 113.218 165.142 113.15 153.966C102.043 153.966 82.6299 154.758 80.1526 148.069C77.9624 142.153 78.7424 133.062 78.7424 133.062H96.1208Z" fill="#FAAE55"/>
<path d="M120.494 200.46L133.342 197.664L132.868 191.949L118.828 195.293L120.494 200.46Z" fill="#FAAE55"/>
<path d="M114.104 97.1506C115.015 100.72 115.908 104.32 116.781 107.908C117.655 111.496 118.51 115.091 119.414 118.635L120.095 121.281L120.444 122.579L120.625 123.221L120.65 123.302L120.662 123.34C120.669 123.359 120.644 123.284 120.631 123.259C120.575 123.115 120.5 122.972 120.45 122.891C120.425 122.841 120.388 122.791 120.357 122.753C120.332 122.722 120.313 122.691 120.288 122.66C120.226 122.591 120.201 122.56 120.163 122.522C120.026 122.398 120.013 122.416 120.045 122.448C120.07 122.485 120.169 122.554 120.269 122.629C120.488 122.778 120.793 122.953 121.13 123.115C121.804 123.446 122.591 123.752 123.396 124.064C126.647 125.268 130.228 126.291 133.71 127.396L133.161 131.377C131.22 131.402 129.33 131.315 127.414 131.152C125.498 130.984 123.589 130.741 121.63 130.341C120.644 130.148 119.658 129.898 118.597 129.555C118.067 129.38 117.524 129.174 116.918 128.894C116.613 128.744 116.307 128.588 115.951 128.357C115.602 128.126 115.221 127.851 114.772 127.383C114.66 127.259 114.553 127.146 114.429 126.978L114.254 126.741C114.192 126.653 114.129 126.547 114.073 126.447C113.961 126.26 113.842 126.017 113.748 125.761L113.642 125.468L113.405 124.781L112.937 123.421C112.632 122.516 112.332 121.618 112.057 120.713C110.928 117.112 109.898 113.518 108.925 109.905C107.958 106.292 107.053 102.686 106.217 99.0289L114.104 97.1506Z" fill="#FFC3BD"/>
<path d="M105.331 92.8325C108.756 89.0136 114.192 91.6843 116.475 100.227C117.586 104.383 117.237 106.561 117.237 106.561L105.418 110.198C102.878 104.589 100.669 98.0304 105.331 92.8325Z" fill="#A55DDE"/>
<g opacity="0.2">
<path d="M105.331 92.8325C108.756 89.0136 114.192 91.6843 116.475 100.227C117.586 104.383 117.237 106.561 117.237 106.561L105.418 110.198C102.878 104.589 100.669 98.0304 105.331 92.8325Z" fill="black"/>
</g>
<path d="M139.869 125.767L138.808 125.443C138.166 125.243 137.492 125.187 136.824 125.262L134.546 125.53C133.018 125.917 131.732 126.903 131.071 128.195L130.297 129.698C130.684 132.488 136.325 131.589 136.325 131.589H141.629L141.454 127.808C141.417 126.865 140.78 126.048 139.869 125.767Z" fill="#FFC3BD"/>
<path d="M143.532 119.677C143.426 120.819 142.821 121.63 142.241 122.454C141.673 123.284 141.086 124.107 140.494 124.925C139.302 126.547 138.085 128.157 136.743 129.686C136.612 129.836 136.381 129.854 136.232 129.717C136.107 129.605 136.076 129.424 136.151 129.28C137.074 127.471 138.116 125.742 139.183 124.032C139.72 123.178 140.269 122.335 140.831 121.499C141.38 120.657 141.91 119.796 142.933 119.271C143.133 119.165 143.383 119.246 143.489 119.452C143.526 119.527 143.539 119.602 143.532 119.677Z" fill="#263238"/>
<path d="M106.123 89.1322L99.4652 87.2352L90.8977 86.8296C88.227 86.7048 85.8121 88.3834 84.9759 90.9231C83.3411 95.9026 81.8435 103.11 80.7452 109.331C79.5159 116.307 78.8795 123.533 78.7422 133.068H110.71C111.359 115.309 113.449 106.642 114.691 100.358C115.446 96.5204 113.511 92.6578 109.98 90.9792L106.123 89.1322Z" fill="#A55DDE"/>
<path d="M97.1943 90.3801C98.0055 92.4643 101.15 96.9134 104.801 98.6544C106.829 97.188 107.259 93.9931 107.571 92.4892L97.1943 90.3801Z" fill="#63179E"/>
<path d="M107.565 92.4955C107.74 91.6406 107.753 90.767 107.291 90.037C106.773 89.2258 106.904 88.296 107.422 87.3413C107.759 86.7173 108.689 85.3882 108.951 85.2634L104.764 80.365L101.35 76.415C101.057 80.1154 100.77 84.6955 97.8559 87.5722C96.8263 88.583 96.6141 88.895 97.1945 90.3864C98.0057 92.4706 100.907 95.3784 104.558 97.1194C106.586 95.653 107.26 93.9931 107.565 92.4955Z" fill="#FFC3BD"/>
<path opacity="0.2" d="M107.665 84.421L105.306 80.5834C105.256 80.677 105.2 80.7893 105.144 80.9016C104.957 81.3135 104.776 81.8251 104.638 82.3743C104.202 84.0778 105.649 86.5114 107.241 87.672C107.303 87.5597 107.359 87.4536 107.428 87.3413C107.727 86.7797 108.57 85.5629 108.857 85.3258C108.888 85.2946 108.919 85.2759 108.95 85.2571L107.665 84.421Z" fill="black"/>
<path d="M115.927 75.2482C116.476 78.7863 121.537 69.6821 118.71 67.6853C115.253 65.2393 114.891 68.5153 115.927 75.2482Z" fill="#263238"/>
<path d="M101.506 70.6305C101.182 76.3776 100.689 79.716 103.328 83.0356C107.297 88.0276 114.916 86.3803 117.019 80.8766C118.91 75.922 119.122 67.3607 113.599 64.3281C108.158 61.3454 101.831 64.8835 101.506 70.6305Z" fill="#FFC3BD"/>
<path d="M112.831 67.1799C112.831 67.1799 116.507 70.7866 119.127 69.2952C121.742 67.8039 122.285 63.9413 119.127 60.5592C117.611 58.9306 115.315 57.3394 110.81 57.4642C111.14 57.8947 112.082 58.2442 112.082 58.2442C112.082 58.2442 106.373 57.2894 102.386 58.9306C102.386 58.9306 102.903 59.7293 103.658 60.0912C99.7834 59.7979 96.0207 61.3142 98.6914 64.9771C95.1783 65.3141 94.3921 69.8131 96.2641 72.7771C98.1361 75.7411 98.4668 77.9626 100.969 79.3104C100.994 75.2731 101.899 74.3246 101.899 74.3246C103.702 73.5634 105.78 69.7133 105.368 67.7726C109.143 69.2952 113.256 69.8069 112.831 67.1799Z" fill="#212957"/>
<path d="M99.5401 64.8211C98.4419 63.9163 97.4934 63.0926 96.8007 61.3517C96.3515 63.361 98.4356 65.651 98.4356 65.651L99.5401 64.8211Z" fill="#263238"/>
<path d="M98.6356 73.7693C98.6668 75.1796 99.3032 76.4775 100.089 77.3074C101.281 78.5554 102.904 77.4946 103.185 75.8909C103.44 74.4495 102.829 72.2405 101.337 71.5916C99.8773 70.9551 98.5981 72.1594 98.6356 73.7693Z" fill="#FFC3BD"/>
<path d="M110.915 73.5946C110.822 74.0688 110.99 74.5118 111.296 74.5805C111.602 74.6554 111.926 74.3309 112.026 73.8567C112.12 73.3824 111.951 72.9394 111.646 72.8707C111.34 72.7959 111.009 73.1203 110.915 73.5946Z" fill="#263238"/>
<path d="M116.22 74.8551C116.127 75.3293 116.295 75.7724 116.601 75.841C116.907 75.9159 117.231 75.5914 117.331 75.1171C117.424 74.6429 117.256 74.1999 116.95 74.1312C116.638 74.0626 116.314 74.3871 116.22 74.8551Z" fill="#263238"/>
<path d="M114.454 74.8239C114.454 74.8239 114.722 77.3885 115.403 78.7925C114.529 79.2293 113.431 78.5679 113.431 78.5679L114.454 74.8239Z" fill="#ED847E"/>
<path d="M112.451 81.2199C110.598 80.8143 109.812 79.429 109.774 79.3666C109.737 79.298 109.762 79.2106 109.83 79.1732C109.899 79.1357 109.986 79.1607 110.024 79.2293C110.03 79.248 110.922 80.8205 113.032 81.0264C113.113 81.0327 113.169 81.1013 113.156 81.1824C113.15 81.2573 113.081 81.3197 113 81.3072C112.807 81.2823 112.626 81.2573 112.451 81.2199Z" fill="#263238"/>
<path d="M110.217 71.6851C110.173 71.6664 110.136 71.6414 110.105 71.604C110.005 71.4854 110.023 71.3045 110.142 71.2047C111.334 70.2187 112.588 70.6306 112.638 70.6493C112.782 70.6805 112.869 70.8615 112.813 71.0112C112.763 71.161 112.601 71.2359 112.457 71.1859C112.407 71.1672 111.44 70.8739 110.504 71.6477C110.423 71.7038 110.31 71.7226 110.217 71.6851Z" fill="#263238"/>
<path d="M116.875 71.7974C116.862 71.7538 116.862 71.7038 116.881 71.6539C116.925 71.5042 117.081 71.4168 117.231 71.4605C118.722 71.8786 119.096 73.139 119.109 73.1952C119.165 73.3325 119.065 73.501 118.915 73.5446C118.766 73.5883 118.61 73.501 118.566 73.3512C118.547 73.3013 118.248 72.3403 117.075 72.0096C116.975 71.9784 116.9 71.8973 116.875 71.7974Z" fill="#263238"/>
<path d="M92.2333 95.4221C91.029 98.8416 89.8372 102.411 88.7639 105.899C88.221 107.652 87.7343 109.406 87.285 111.134C86.8545 112.863 86.4863 114.591 86.2928 116.17C86.2741 116.363 86.2429 116.563 86.2305 116.744L86.2117 117.019C86.2055 117.106 86.1993 117.237 86.193 117.193C86.1743 117.181 86.1431 117.225 86.1805 117.356C86.2367 117.611 86.4988 118.129 86.9356 118.641C87.8092 119.689 89.1383 120.788 90.5548 121.774C93.4064 123.777 96.7136 125.561 99.946 127.227L98.6605 131.034C96.6762 130.609 94.8292 130.073 92.9447 129.424C91.0727 128.775 89.2256 128.02 87.3848 127.096C85.5565 126.135 83.722 125.087 81.9498 123.408C81.0762 122.554 80.1714 121.543 79.5037 120.039C79.173 119.296 78.9359 118.398 78.8797 117.443C78.861 117.162 78.8672 117.062 78.861 116.906L78.8548 116.47C78.8485 116.176 78.8673 115.908 78.8735 115.627C78.9609 113.424 79.2853 111.421 79.6597 109.443C80.0341 107.471 80.5021 105.562 81.0013 103.665C82.0247 99.8712 83.2103 96.2333 84.6268 92.5454L92.2333 95.4221Z" fill="#FFC3BD"/>
<path d="M90.4925 86.8234C96.5952 86.7672 97.7496 91.5158 94.4299 99.0413C92.6952 102.979 89.7873 106.735 89.7873 106.735L79.6973 101.375C81.0451 95.3597 83.5099 86.8858 90.4925 86.8234Z" fill="#A55DDE"/>
<path d="M107.328 126.622L105.094 125.399C104.732 125.199 104.308 125.125 103.896 125.181L101.213 125.549C99.4097 125.736 98.0993 127.115 97.1133 128.313L95.9652 129.711C95.909 132.531 103.035 131.87 103.035 131.87L109.269 131.789L109.075 129.33C108.988 128.195 108.333 127.178 107.328 126.622Z" fill="#FFC3BD"/>
<path d="M240.453 130.379H71.542V138.285H240.453V130.379Z" fill="#407BFF"/>
<path opacity="0.3" d="M126.329 130.379H71.542V138.285H126.329V130.379Z" fill="white"/>
<path d="M76.0658 138.278H73.4824V225.439H76.0658V138.278Z" fill="#407BFF"/>
<path opacity="0.7" d="M76.0658 138.278H73.4824V225.439H76.0658V138.278Z" fill="white"/>
<path d="M124.395 138.278H121.812V225.439H124.395V138.278Z" fill="#407BFF"/>
<path opacity="0.7" d="M124.395 138.278H121.812V225.439H124.395V138.278Z" fill="white"/>
<path d="M190.19 138.278H187.606V225.439H190.19V138.278Z" fill="#407BFF"/>
<path opacity="0.7" d="M190.19 138.278H187.606V225.439H190.19V138.278Z" fill="white"/>
<path d="M238.518 138.278H235.935V225.439H238.518V138.278Z" fill="#407BFF"/>
<path opacity="0.7" d="M238.518 138.278H235.935V225.439H238.518V138.278Z" fill="white"/>
<path d="M222.113 95.4346H175.937C174.371 95.4346 172.886 96.7138 172.624 98.28L167.806 127.539C167.551 129.106 168.618 130.385 170.184 130.385H216.36C217.926 130.385 219.411 129.106 219.673 127.539L224.491 98.28C224.746 96.7138 223.679 95.4346 222.113 95.4346Z" fill="#263238"/>
<path d="M192.823 128.469H149.349C149.062 128.469 148.831 128.706 148.831 128.987V129.854C148.831 130.141 149.068 130.372 149.349 130.372H192.823C193.11 130.372 193.341 130.135 193.341 129.854V128.987C193.341 128.706 193.11 128.469 192.823 128.469Z" fill="#263238"/>
<path opacity="0.2" d="M222.114 95.4346H176.98C175.414 95.4346 173.929 96.7138 173.667 98.28L168.849 127.539C168.594 129.106 169.661 130.385 171.227 130.385H216.361C217.927 130.385 219.412 129.106 219.674 127.539L224.492 98.28C224.747 96.7138 223.68 95.4346 222.114 95.4346Z" fill="white"/>
<path d="M102.623 128.469C102.623 128.469 117.493 130.684 124.669 127.758C128.026 129.374 139.988 130.173 144.144 128.469C142.859 129.961 139.838 130.379 139.838 130.379C139.838 130.379 111.484 130.379 108.47 130.379C105.456 130.379 103.153 129.062 102.623 128.469Z" fill="#A55DDE"/>
<path opacity="0.7" d="M102.623 128.469C102.623 128.469 117.493 130.684 124.669 127.758C128.026 129.374 139.988 130.173 144.144 128.469C142.859 129.961 139.838 130.379 139.838 130.379C139.838 130.379 111.484 130.379 108.47 130.379C105.456 130.379 103.153 129.062 102.623 128.469Z" fill="white"/>
</svg>
