<svg width="60" height="60" viewBox="0 0 60 60" fill="none" xmlns="http://www.w3.org/2000/svg">
<circle cx="30" cy="30" r="30" fill="white"/>
<path d="M23.9974 39V37.368L30.8374 30.768C31.4454 30.192 31.8934 29.688 32.1814 29.256C32.4854 28.808 32.6854 28.4 32.7814 28.032C32.8934 27.648 32.9494 27.28 32.9494 26.928C32.9494 26.064 32.6454 25.384 32.0374 24.888C31.4294 24.392 30.5414 24.144 29.3734 24.144C28.4774 24.144 27.6694 24.296 26.9494 24.6C26.2294 24.888 25.6054 25.344 25.0774 25.968L23.4454 24.552C24.0854 23.736 24.9414 23.112 26.0134 22.68C27.1014 22.232 28.2934 22.008 29.5894 22.008C30.7574 22.008 31.7734 22.2 32.6374 22.584C33.5014 22.952 34.1654 23.488 34.6294 24.192C35.1094 24.896 35.3494 25.728 35.3494 26.688C35.3494 27.232 35.2774 27.768 35.1334 28.296C34.9894 28.824 34.7174 29.384 34.3174 29.976C33.9174 30.568 33.3414 31.232 32.5894 31.968L26.4934 37.848L25.9174 36.912H36.0694V39H23.9974Z" fill="#D48F3F"/>
<rect x="11" y="11" width="38" height="38" rx="19" stroke="#D48F3F" stroke-width="2"/>
</svg>
