<svg width="312" height="250" viewBox="0 0 312 250" fill="none" xmlns="http://www.w3.org/2000/svg">
<mask id="mask0_577_1109" style="mask-type:alpha" maskUnits="userSpaceOnUse" x="0" y="0" width="312" height="250">
<rect width="312" height="250" fill="#FBFBFE"/>
</mask>
<g mask="url(#mask0_577_1109)">
</g>
<g clip-path="url(#clip0_577_1109)">
<path d="M257.367 0H212.927C201.402 0 192.061 9.34124 192.061 20.8666C192.061 32.392 201.402 41.7332 212.927 41.7332H257.367C268.892 41.7332 278.234 32.392 278.234 20.8666C278.234 9.34124 268.892 0 257.367 0Z" fill="#F3CD6C"/>
<path d="M268.904 38.2515L245.865 54.3682V38.2515H268.904Z" fill="#F3CD6C"/>
<path d="M204.249 12.1829H264.841" stroke="white" stroke-width="4" stroke-miterlimit="10" stroke-linecap="round" stroke-linejoin="round"/>
<path d="M204.249 21.0839H264.841" stroke="white" stroke-width="4" stroke-miterlimit="10" stroke-linecap="round" stroke-linejoin="round"/>
<path d="M239.172 29.9847H264.841" stroke="white" stroke-width="4" stroke-miterlimit="10" stroke-linecap="round" stroke-linejoin="round"/>
<path d="M63.9434 87.8405H266.039C271.277 87.8405 275.169 92.0855 274.741 97.3168L265.781 206.259C265.352 211.496 260.755 215.735 255.524 215.735H53.4279C48.1907 215.735 44.298 211.49 44.7266 206.259L53.6862 97.3227C54.1148 92.0855 58.712 87.8405 63.9434 87.8405Z" fill="#DACCC8"/>
<path d="M270.091 96.7708L261.043 206.805C260.638 211.737 256.311 215.735 251.379 215.735H48.1908C43.2589 215.735 39.5893 211.737 39.9944 206.805L46.6877 125.399L49.0421 96.7708C49.0891 96.2189 49.183 95.667 49.3298 95.1444C50.4336 90.9875 54.3321 87.8464 58.7063 87.8464H261.9C266.826 87.8464 270.496 91.8389 270.091 96.7708Z" fill="#EFE8E9"/>
<path d="M63.9554 95.7785H255.518C259.417 95.7785 262.317 98.8785 262 102.707L253.775 200.875C253.452 204.703 250.034 207.803 246.136 207.803H54.5671C50.6686 207.803 47.7682 204.703 48.0852 200.875L56.3109 102.707C56.6397 98.8844 60.0568 95.7785 63.9554 95.7785Z" fill="#DACCC8"/>
<path d="M261.889 105.319L254.051 198.244L253.816 201.045C253.505 204.779 250.146 207.803 246.324 207.803H58.4071C54.5849 207.803 51.7373 204.779 52.0544 201.045L60.1215 105.319C60.4386 101.591 63.7911 98.5674 67.6192 98.5674H255.53C259.358 98.5674 262.2 101.591 261.889 105.319Z" fill="white"/>
<path d="M166.086 109.922H74.8223" stroke="#EFE8E9" stroke-width="8" stroke-miterlimit="10" stroke-linecap="round" stroke-linejoin="round"/>
<path d="M164.924 121.888H73.6602" stroke="#EFE8E9" stroke-width="8" stroke-miterlimit="10" stroke-linecap="round" stroke-linejoin="round"/>
<path d="M163.767 133.848H72.5039" stroke="#EFE8E9" stroke-width="8" stroke-miterlimit="10" stroke-linecap="round" stroke-linejoin="round"/>
<path d="M162.604 145.814H71.3408" stroke="#EFE8E9" stroke-width="8" stroke-miterlimit="10" stroke-linecap="round" stroke-linejoin="round"/>
<path d="M161.442 157.774H70.1787" stroke="#EFE8E9" stroke-width="8" stroke-miterlimit="10" stroke-linecap="round" stroke-linejoin="round"/>
<path d="M160.279 169.739H69.0156" stroke="#EFE8E9" stroke-width="8" stroke-miterlimit="10" stroke-linecap="round" stroke-linejoin="round"/>
<path d="M159.117 181.699H67.8535" stroke="#EFE8E9" stroke-width="8" stroke-miterlimit="10" stroke-linecap="round" stroke-linejoin="round"/>
<path d="M243.57 150.851H174.834C172.333 150.851 170.372 148.702 170.601 146.213L173.895 110.122C174.095 107.932 175.932 106.259 178.128 106.259H246.864C249.365 106.259 251.326 108.408 251.097 110.897L247.803 146.988C247.603 149.178 245.766 150.851 243.57 150.851Z" fill="#F7F3F4"/>
<path d="M242.736 182.744H172.838C170.701 182.744 169.016 180.93 169.169 178.799L170.719 157.351C170.86 155.425 172.457 153.94 174.388 153.94H244.28C246.418 153.94 248.103 155.754 247.95 157.885L246.4 179.333C246.265 181.259 244.662 182.744 242.736 182.744Z" fill="#F7F3F4"/>
<path opacity="0.3" d="M170.719 87.8464V121.154C170.719 123.497 168.816 125.399 166.474 125.399H46.6875L49.0419 96.7708C49.0889 96.2189 49.1828 95.667 49.3296 95.1445C50.4334 90.9876 54.3319 87.8464 58.7061 87.8464H170.719Z" fill="#EFE8E9"/>
<path d="M39.5891 105.454C37.4108 105.454 35.6377 103.681 35.6377 101.503V31.981H148.977C151.156 31.981 152.929 33.7542 152.929 35.9324V101.509C152.929 103.687 151.156 105.46 148.977 105.46H39.5891V105.454Z" fill="white"/>
<path d="M148.977 32.2746C150.997 32.2746 152.635 33.9127 152.635 35.9324V101.509C152.635 103.529 150.997 105.167 148.977 105.167H39.5887C37.569 105.167 35.9309 103.529 35.9309 101.509V32.2746H148.977ZM148.977 31.6874H35.3438V101.509C35.3438 103.852 37.2461 105.754 39.5887 105.754H148.977C151.32 105.754 153.222 103.852 153.222 101.509V35.9324C153.222 33.5839 151.325 31.6874 148.977 31.6874Z" fill="#EFE8E9"/>
<path d="M72.4915 22.6867H38.3968C36.7118 22.6867 35.3438 24.0547 35.3438 25.7398V31.6874H79.2082L75.1747 24.2778C74.6404 23.2973 73.6129 22.6867 72.4915 22.6867Z" fill="#F3CD6C"/>
<path d="M45.5894 29.3565C46.7891 29.3565 47.7618 28.3839 47.7618 27.1841C47.7618 25.9843 46.7891 25.0117 45.5894 25.0117C44.3896 25.0117 43.417 25.9843 43.417 27.1841C43.417 28.3839 44.3896 29.3565 45.5894 29.3565Z" stroke="white" stroke-miterlimit="10"/>
<path d="M56.8916 27.1841C56.8916 28.3818 55.917 29.3565 54.7193 29.3565C53.5215 29.3565 52.5469 28.3818 52.5469 27.1841C52.5469 25.9864 53.5215 25.0117 54.7193 25.0117C55.917 25.0117 56.8916 25.9864 56.8916 27.1841Z" stroke="white" stroke-miterlimit="10"/>
<path d="M63.8491 29.3565C65.0489 29.3565 66.0215 28.3839 66.0215 27.1841C66.0215 25.9843 65.0489 25.0117 63.8491 25.0117C62.6494 25.0117 61.6768 25.9843 61.6768 27.1841C61.6768 28.3839 62.6494 29.3565 63.8491 29.3565Z" stroke="white" stroke-miterlimit="10"/>
<path d="M115.005 64.0735C115.768 62.6115 117.571 62.0479 119.033 62.8053C120.495 63.5685 121.058 65.371 120.301 66.833C119.538 68.2949 117.735 68.8586 116.273 68.1012C114.806 67.3379 114.242 65.5354 115.005 64.0735Z" fill="#BCE0C1"/>
<path d="M122.637 50.593C122.179 51.4678 122.52 52.554 123.395 53.0061C124.27 53.4641 125.356 53.1235 125.808 52.2487C126.266 51.3739 125.925 50.2877 125.05 49.8356C124.181 49.3718 123.095 49.7123 122.637 50.593Z" fill="#BCE0C1"/>
<path d="M105.987 50.6928C104.912 52.7536 105.711 55.2959 107.771 56.3703C109.832 57.4448 112.375 56.6463 113.449 54.5855C114.523 52.5246 113.725 49.9824 111.664 48.9079C109.603 47.8335 107.061 48.632 105.987 50.6928Z" fill="#94C19B"/>
<path d="M130.476 59.7464C130.476 60.5507 129.824 61.1966 129.025 61.1966C128.221 61.1966 127.575 60.5449 127.575 59.7464C127.575 58.942 128.227 58.2961 129.025 58.2961C129.824 58.2961 130.476 58.9479 130.476 59.7464Z" fill="#94C19B"/>
<path d="M116.842 44.2461C116.842 43.6238 116.338 43.1247 115.721 43.1247C115.105 43.1247 114.6 43.6296 114.6 44.2461C114.6 44.8685 115.105 45.3675 115.721 45.3675C116.338 45.3675 116.842 44.8685 116.842 44.2461Z" fill="#94C19B"/>
<path d="M119.256 56.1825C119.256 55.5601 118.751 55.061 118.134 55.061C117.512 55.061 117.013 55.566 117.013 56.1825C117.013 56.7989 117.518 57.3039 118.134 57.3039C118.751 57.3039 119.256 56.7989 119.256 56.1825Z" fill="#BCE0C1"/>
<path d="M132.243 51.4209C132.243 50.7985 131.738 50.2994 131.121 50.2994C130.499 50.2994 130 50.8044 130 51.4209C130 52.0373 130.505 52.5423 131.121 52.5423C131.738 52.5423 132.243 52.0373 132.243 51.4209Z" fill="#BCE0C1"/>
<path d="M109.715 64.0793C109.715 63.7623 109.457 63.5098 109.146 63.5098C108.835 63.5098 108.576 63.7682 108.576 64.0793C108.576 64.3964 108.835 64.6489 109.146 64.6489C109.457 64.6489 109.715 64.3964 109.715 64.0793Z" fill="#94C19B"/>
<path d="M131.702 68.1534C138.316 60.6611 137.604 49.2257 130.112 42.6118C122.619 35.9979 111.184 36.7101 104.57 44.2024C97.9563 51.6947 98.6685 63.1301 106.161 69.744C113.653 76.3579 125.089 75.6458 131.702 68.1534Z" stroke="#F1CB6B" stroke-miterlimit="10" stroke-dasharray="4.03 2.02"/>
<path d="M89.3068 50.8572C86.3183 61.6897 79.4019 67.0444 68.4813 67.0444C68.4813 67.0444 68.2934 58.9772 73.6245 52.8475L89.3068 50.8572Z" fill="#94C19B"/>
<path d="M68.4805 67.0444L84.5209 51.8083" stroke="#5E7969" stroke-miterlimit="10"/>
<path d="M91.5257 55.5366C91.2263 54.0629 90.281 52.0491 89.2711 50.8161L73.583 52.7478C77.4639 55.4486 83.7345 57.2334 91.5257 55.5366Z" fill="#BCE0C1"/>
<path d="M68.4814 88.2868V66.7332" stroke="#5E7969" stroke-miterlimit="10"/>
<path d="M68.4815 84.2943C68.047 86.1848 66.773 87.8699 65.0762 88.8093C63.579 89.6371 61.8411 89.8837 60.25 90.512C58.6588 91.1402 57.0971 92.3555 56.9092 94.0582" stroke="#5E7969" stroke-miterlimit="10"/>
<path d="M68.5453 88.1752C68.0756 89.3025 68.2459 90.6763 68.9857 91.6569C69.3908 92.1911 69.9427 92.608 70.342 93.1423C70.7471 93.6825 70.9819 94.434 70.659 95.0211" stroke="#5E7969" stroke-miterlimit="10"/>
<path d="M68.4336 88.2457C69.2321 89.0148 70.3652 89.3142 71.4632 89.4728C72.5611 89.6313 73.6884 89.6783 74.7218 90.0775C75.7551 90.4709 76.7121 91.3164 76.8589 92.4143" stroke="#5E7969" stroke-miterlimit="10"/>
<path d="M63.5607 89.2908C63.4844 89.7194 63.4081 90.1421 63.3259 90.5707C63.2026 91.2635 63.0675 91.9681 62.727 92.5846C62.3806 93.2011 61.7817 93.7177 61.0771 93.7647" stroke="#5E7969" stroke-miterlimit="10"/>
<path d="M68.4814 82.8558C68.8102 84.218 70.0373 85.1222 71.3936 85.4803C72.7499 85.8385 74.1707 85.7739 75.5622 85.9441C77.4469 86.1731 79.2788 86.8307 80.8816 87.8582C81.8621 88.4864 82.7546 89.2556 83.7586 89.8486C84.7626 90.4416 85.9251 90.8702 87.0817 90.7293" stroke="#5E7969" stroke-miterlimit="10"/>
<path d="M74.9802 93.9291C74.1759 93.4711 73.5946 92.6433 73.4244 91.7332C73.3011 91.0756 73.3833 90.3828 73.166 89.7487" stroke="#5E7969" stroke-miterlimit="10"/>
<path d="M78.5382 86.7308C79.1488 86.9363 79.278 87.7701 79.0901 88.3924C78.9022 89.0089 78.5147 89.5784 78.4912 90.2243C78.4677 90.9229 78.867 91.557 79.2838 92.1148C79.7007 92.6726 80.1645 93.2421 80.2878 93.9232C80.417 94.6101 80.053 95.4438 79.3602 95.5554" stroke="#5E7969" stroke-miterlimit="10"/>
<path d="M52.3408 88.6097C53.4622 89.3377 54.9594 89.2262 56.1983 88.7271C57.443 88.228 58.5174 87.4002 59.6623 86.7074C60.8072 86.0145 62.1107 85.4509 63.4435 85.5742C64.2537 85.6505 65.017 85.9735 65.8213 86.0967C66.6257 86.2142 67.6767 85.9617 68.1581 85.31" stroke="#5E7969" stroke-miterlimit="10"/>
<path d="M77.3818 83.6778C76.7829 83.2316 75.9139 83.3549 75.2505 83.7071C74.587 84.0535 74.041 84.5878 73.401 84.9753C72.761 85.3628 71.8393 85.7503 71.1699 85.4157" stroke="#5E7969" stroke-miterlimit="10"/>
<path d="M55.6816 84.9108C56.5447 84.2356 57.766 84.0418 58.7993 84.4235C59.8444 84.8051 60.6077 85.8267 61.7173 85.768" stroke="#5E7969" stroke-miterlimit="10"/>
<mask id="mask1_577_1109" style="mask-type:luminance" maskUnits="userSpaceOnUse" x="73" y="50" width="19" height="7">
<path d="M91.5257 55.5366C91.2263 54.0629 90.281 52.0491 89.2711 50.8161L73.583 52.7478C77.4639 55.4486 83.7345 57.2334 91.5257 55.5366Z" fill="white"/>
</mask>
<g mask="url(#mask1_577_1109)">
<path d="M92.2304 56.2001L82.1611 50.6106" stroke="#5E7969" stroke-miterlimit="10"/>
</g>
<mask id="mask2_577_1109" style="mask-type:luminance" maskUnits="userSpaceOnUse" x="41" y="51" width="28" height="18">
<path d="M68.4809 67.0444C64.371 51.462 55.8576 49.5303 41.8252 53.7459C49.4872 73.996 68.4809 67.0444 68.4809 67.0444Z" fill="white"/>
</mask>
<g mask="url(#mask2_577_1109)">
<path d="M68.4809 67.0444C64.371 51.462 55.8576 49.5303 41.8252 53.7459C49.4872 73.996 68.4809 67.0444 68.4809 67.0444Z" fill="#94C19B"/>
</g>
<mask id="mask3_577_1109" style="mask-type:luminance" maskUnits="userSpaceOnUse" x="41" y="51" width="28" height="18">
<path d="M68.4809 67.0444C64.371 51.462 55.8576 49.5303 41.8252 53.7459C49.4872 73.996 68.4809 67.0444 68.4809 67.0444Z" fill="white"/>
</mask>
<g mask="url(#mask3_577_1109)">
<path d="M41.8193 53.7459L68.4809 67.0444" stroke="#5E7969" stroke-miterlimit="10"/>
</g>
<path d="M85.1967 62.3826C89.2921 62.3826 92.6122 59.0626 92.6122 54.9672C92.6122 50.8717 89.2921 47.5517 85.1967 47.5517C81.1013 47.5517 77.7812 50.8717 77.7812 54.9672C77.7812 59.0626 81.1013 62.3826 85.1967 62.3826Z" stroke="#F1CB6B" stroke-miterlimit="10" stroke-dasharray="4 2"/>
<path d="M92.6123 54.9672L100.039 56.1825" stroke="#E0DFDB" stroke-miterlimit="10" stroke-dasharray="4 2"/>
<path d="M83.1356 76.9786C83.1356 78.8222 81.6385 80.3194 79.7949 80.3194C77.9513 80.3194 76.4541 78.8222 76.4541 76.9786C76.4541 75.135 79.7949 70.4732 79.7949 70.4732C79.7949 70.4732 83.1356 75.135 83.1356 76.9786Z" fill="#B3C3F7"/>
<path d="M66.0386 46.4126C66.0386 47.9333 64.8056 49.1721 63.279 49.1721C61.7584 49.1721 60.5195 47.9392 60.5195 46.4126C60.5195 44.892 63.279 41.0463 63.279 41.0463C63.279 41.0463 66.0386 44.892 66.0386 46.4126Z" fill="#B3C3F7"/>
<path d="M59.1811 77.5892C59.1811 78.8457 58.1654 79.8614 56.9089 79.8614C55.6525 79.8614 54.6367 78.8457 54.6367 77.5892C54.6367 76.3328 56.9089 73.1682 56.9089 73.1682C56.9089 73.1682 59.1811 76.3328 59.1811 77.5892Z" fill="#B3C3F7"/>
<path d="M97.3027 79.7734H137.286" stroke="#EFE8E9" stroke-width="4" stroke-miterlimit="10" stroke-linecap="round" stroke-linejoin="round"/>
<path d="M97.3027 86.1027H137.286" stroke="#EFE8E9" stroke-width="4" stroke-miterlimit="10" stroke-linecap="round" stroke-linejoin="round"/>
<path d="M97.3027 92.4319H121.557" stroke="#EFE8E9" stroke-width="4" stroke-miterlimit="10" stroke-linecap="round" stroke-linejoin="round"/>
<path d="M97.3027 98.7612H112.263" stroke="#EFE8E9" stroke-width="4" stroke-miterlimit="10" stroke-linecap="round" stroke-linejoin="round"/>
<path d="M166.873 158.008C169.222 166.698 179.103 170.855 186.965 166.487C207.638 155.002 223.332 134.723 231.722 113.751C234.158 107.656 231.499 100.716 225.61 97.8217C220.531 95.3264 214.413 96.53 210.667 100.769L170.032 145.056C166.832 148.544 165.635 153.435 166.873 158.008Z" fill="#849CF1"/>
<path d="M118.471 104.462C118.688 104.738 118.899 105.02 119.128 105.313C120.796 107.492 122.862 110.193 125.833 112.899C129.703 116.44 135.092 120.015 143.083 122.534L146.236 114.608L141.063 96.5359L118.471 104.462Z" fill="#F2C7BF"/>
<path d="M127.084 90.5178L130.19 122.1C130.301 123.215 131.294 124.031 132.409 123.926C133.554 123.82 134.382 122.786 134.235 121.647L130.401 90.9523L127.084 90.5178Z" fill="#212121"/>
<path d="M119.122 105.313C120.79 107.492 122.856 110.193 125.827 112.899C126.813 112.694 127.665 112.007 128.029 110.991C128.181 110.562 128.223 110.116 128.176 109.682C128.176 109.6 128.158 109.529 128.146 109.453C128.135 109.388 128.123 109.318 128.088 109.259C127.841 108.273 127.089 107.427 126.027 107.134L120.044 105.413C119.744 105.337 119.433 105.302 119.122 105.313Z" fill="#E89E91"/>
<path d="M117.836 102.061C117.695 103.077 118.1 104.127 118.987 104.785L124.018 108.466C125.31 109.412 127.136 109.159 128.123 107.897C128.404 107.533 128.58 107.122 128.674 106.693C128.698 106.611 128.71 106.541 128.716 106.47C128.721 106.411 128.733 106.341 128.727 106.276C128.804 105.255 128.352 104.216 127.436 103.605L122.292 100.094C121.558 99.6066 120.66 99.4833 119.862 99.724C119.75 99.7592 119.633 99.8003 119.515 99.8473C119.104 100.012 118.723 100.288 118.429 100.658C118.106 101.086 117.906 101.573 117.836 102.061Z" fill="#E89E91"/>
<path d="M130.207 96.7766C130.295 97.1348 130.318 97.5164 130.26 97.898C130.242 98.0037 130.225 98.0977 130.201 98.1975C129.949 99.2367 129.162 100.035 128.181 100.323C127.806 100.44 127.406 100.481 126.995 100.434L124.43 100.164L120.807 99.771C120.29 99.7123 119.821 99.5244 119.433 99.2426C118.881 98.8492 118.488 98.2679 118.323 97.6045C118.235 97.2463 118.218 96.8647 118.276 96.483C118.488 95.0739 119.691 94.0582 121.089 94.0464H121.095C121.171 94.0464 121.247 94.0523 121.324 94.0582L127.535 94.522C127.594 94.522 127.659 94.5338 127.717 94.5455C128.968 94.704 129.925 95.6258 130.207 96.7766Z" fill="#F2C7BF"/>
<path d="M115.464 108.138C115.652 109.147 116.368 110.016 117.414 110.363L123.349 112.271C124.876 112.758 126.526 111.948 127.066 110.439C127.219 110.005 127.26 109.558 127.213 109.124C127.207 109.036 127.195 108.965 127.183 108.895C127.172 108.836 127.16 108.766 127.136 108.707C126.89 107.709 126.132 106.869 125.076 106.576L119.093 104.856C118.241 104.621 117.349 104.785 116.668 105.272C116.568 105.337 116.474 105.419 116.38 105.495C116.04 105.777 115.77 106.159 115.605 106.605C115.411 107.134 115.37 107.656 115.464 108.138Z" fill="#F2C7BF"/>
<path d="M116.656 105.284C116.897 105.777 117.284 106.212 117.801 106.505L123.197 109.605C124.541 110.386 126.667 110.292 127.553 108.396C127.307 107.398 126.121 106.881 125.064 106.588L119.081 104.867C118.23 104.632 117.343 104.797 116.656 105.284Z" fill="#E89E91"/>
<path d="M116.51 101.826C116.369 102.842 116.774 103.893 117.661 104.55L122.692 108.232C123.984 109.177 125.81 108.924 126.796 107.662C127.078 107.298 127.254 106.887 127.348 106.458C127.372 106.376 127.383 106.306 127.389 106.235C127.395 106.177 127.407 106.106 127.401 106.042C127.477 105.02 127.025 103.981 126.109 103.37L120.966 99.859C120.232 99.3717 119.334 99.2484 118.535 99.4891C118.424 99.5244 118.306 99.5655 118.189 99.6124C117.778 99.7768 117.396 100.053 117.103 100.423C116.774 100.857 116.574 101.339 116.51 101.826Z" fill="#F2C7BF"/>
<path d="M118.541 99.4891C118.611 100.035 118.846 100.564 119.246 101.01L123.391 105.654C124.424 106.817 126.467 107.398 127.906 105.871C127.982 104.85 127.025 103.981 126.109 103.37L120.966 99.859C120.238 99.3717 119.34 99.2484 118.541 99.4891Z" fill="#E89E91"/>
<path d="M122.063 98.7787C121.893 99.5655 122.052 100.429 122.58 101.121L125.24 104.486C126.209 105.766 128.023 106.036 129.32 105.114C129.89 104.697 130.272 104.139 130.448 103.505C130.471 103.446 130.489 103.376 130.501 103.317C130.688 102.46 130.501 101.544 129.908 100.81L127.095 97.5575C126.625 96.988 125.974 96.6357 125.293 96.5359C124.588 96.4185 123.854 96.5828 123.226 97.0115C122.61 97.4518 122.216 98.08 122.063 98.7787Z" fill="#E89E91"/>
<path d="M129.226 103.047C129.215 103.106 129.209 103.176 129.191 103.241C129.179 103.317 129.15 103.394 129.138 103.464H129.132C128.98 104.016 128.668 104.521 128.193 104.92C126.972 105.953 125.14 105.818 124.071 104.615L119.914 99.9765C119.715 99.7475 119.556 99.5009 119.439 99.2367C119.216 98.7435 119.145 98.1975 119.216 97.6749C119.31 96.9704 119.656 96.3128 120.243 95.8314C120.584 95.5613 120.948 95.3793 121.347 95.2736C121.646 95.1973 121.963 95.1738 122.269 95.1973C122.95 95.2384 123.631 95.5378 124.142 96.0721L128.181 100.317L128.44 100.587C129.085 101.28 129.338 102.178 129.226 103.047Z" fill="#F2C7BF"/>
<path d="M128.164 100.264L128.422 100.534C129.068 101.215 129.321 102.114 129.209 102.983C129.197 103.041 129.192 103.112 129.174 103.176C129.162 103.253 129.133 103.329 129.121 103.399H129.115C127.882 103.787 126.485 103.311 125.751 102.166L124.418 100.094L121.535 95.5965C121.453 95.4732 121.383 95.3381 121.33 95.209C121.148 94.8097 121.072 94.387 121.077 93.9642H121.083C121.16 93.9642 121.236 93.9701 121.312 93.976L127.524 94.4398C127.583 94.4398 127.647 94.4516 127.706 94.4633L130.184 98.1211C129.937 99.1779 129.145 99.9765 128.164 100.264Z" fill="#E89E91"/>
<path d="M133.46 93.8762C133.583 94.3753 133.577 94.9095 133.419 95.4321C132.955 96.9762 131.346 97.8628 129.796 97.4518L127.853 96.9351L123.778 95.8372C123.167 95.6728 122.651 95.3205 122.287 94.8626C122.016 94.5397 121.829 94.158 121.729 93.747C121.606 93.248 121.617 92.7137 121.788 92.1911C122.24 90.7703 123.713 89.9248 125.169 90.2595L127.136 90.7233L129.221 91.2047L131.24 91.6803C132.379 91.9445 133.201 92.8252 133.46 93.8762Z" fill="#F2C7BF"/>
<path d="M125.187 95.115C124.899 95.8666 124.923 96.7414 125.34 97.5105L127.453 101.245C128.211 102.66 129.966 103.206 131.393 102.489C132.021 102.161 132.485 101.667 132.749 101.074C132.785 101.022 132.808 100.957 132.832 100.898C133.149 100.076 133.108 99.1428 132.632 98.3266L130.354 94.6864C129.978 94.0523 129.391 93.6061 128.728 93.4006C128.052 93.1775 127.295 93.2245 126.614 93.5592C125.933 93.8879 125.445 94.4516 125.187 95.115Z" fill="#E89E91"/>
<path d="M122.534 93.5357C122.305 94.3107 122.399 95.1797 122.868 95.9136L126.268 101.139C127.137 102.489 128.927 102.9 130.29 102.073C130.894 101.697 131.311 101.168 131.534 100.558C131.564 100.505 131.581 100.434 131.599 100.376C131.851 99.5303 131.734 98.6085 131.2 97.8276L127.642 92.7078C127.219 92.1031 126.597 91.7038 125.921 91.5571C125.229 91.3868 124.483 91.4925 123.825 91.8741C123.174 92.2557 122.733 92.8546 122.534 93.5357Z" fill="#F2C7BF"/>
<path d="M142.672 113.263L138.239 97.9685L130.049 92.7313L129.162 98.4969L131.728 101.503C131.728 101.497 127.935 113.962 142.672 113.263Z" fill="#E89E91"/>
<path d="M130.049 92.7313L124.794 94.7804C123.655 95.2266 123.079 96.5066 123.508 97.6515C123.89 98.6731 124.947 99.272 126.015 99.0723L129.162 98.4911L130.049 92.7313Z" fill="#E89E91"/>
<path d="M129.226 91.2106L129.385 96.3539L127.864 96.9352L125.862 97.6926C125.756 97.7336 125.645 97.7689 125.545 97.7982C124.424 98.0742 123.249 97.5927 122.645 96.5829C122.322 96.0486 122.216 95.4438 122.298 94.8685C122.398 94.1111 122.827 93.4124 123.519 92.9779L127.142 90.7292L129.226 91.2106Z" fill="#E89E91"/>
<path d="M130.641 93.612L124.6 46.3656C124.553 45.9194 124.224 45.5495 123.784 45.4615C123.109 45.3205 122.486 45.8783 122.545 46.5653L127.213 94.8685L130.641 93.612Z" fill="#212121"/>
<path d="M146.224 114.608L141.051 96.5359L131.405 90.324L130.336 97.1289L133.354 100.687C133.36 100.675 128.827 115.371 146.224 114.608Z" fill="#F2C7BF"/>
<path d="M131.411 90.3182L125.205 92.7137C123.854 93.2362 123.173 94.7393 123.672 96.1014C124.118 97.305 125.363 98.0213 126.626 97.7923L130.342 97.123L131.411 90.3182Z" fill="#F2C7BF"/>
<path d="M141.192 120.878C150.164 139.684 161.589 152.801 168.33 161.261C170.567 164.074 173.649 165.594 176.802 165.917C178.322 166.07 179.867 165.946 181.34 165.559C184.781 164.649 187.869 162.277 189.519 158.584C191.081 155.096 190.922 151.204 189.319 147.951C188.45 146.19 187.159 144.622 185.497 143.401L173.872 134.876L146.218 114.608L141.192 120.878Z" fill="#F2C7BF"/>
<path d="M229.755 92.5082L211.431 98.1388L207.362 90.7527L201.367 79.879L198.989 75.5754L214.936 44.9565L229.755 92.5082Z" fill="#F2C7BF"/>
<path d="M214.095 75.8396C214.095 75.8396 215.763 84.259 206.868 89.9425L202.2 81.4819L214.095 75.8396Z" fill="#E89E91"/>
<path d="M197.204 46.5535C181.111 43.7823 187.628 25.4051 201.49 32.5035C211.406 37.5822 218.793 25.8278 229.067 31.6522C242.536 39.2907 229.437 53.6343 229.437 53.6343L197.204 46.5535Z" fill="black"/>
<path d="M218.746 74.8532L199.646 85.6564C194.867 88.3572 188.837 85.5683 187.839 80.1608C186.448 72.7924 185.491 62.8522 187.933 54.5678C189.377 49.677 192.389 45.5965 196.329 42.7783C198.096 41.5042 200.057 40.4885 202.153 39.7839L202.177 39.7722L203.363 39.4081L203.48 39.367C204.079 39.2026 204.678 39.0793 205.289 38.9737C206.739 38.7094 208.224 38.5744 209.733 38.6096C211.178 38.6331 212.569 38.9032 213.855 39.3729C219.245 41.3457 222.82 46.9117 221.951 52.9826L221.188 58.1963L218.746 74.8532Z" fill="#F2C7BF"/>
<path d="M198.989 41.1284C211.219 32.1453 224.036 36.5077 231.017 42.2675C235.931 46.3186 240.118 52.8534 236.519 58.5133C233.242 63.6625 225.075 64.5843 224.013 74.0723L213.045 48.3795L198.989 41.1284Z" fill="black"/>
<path d="M214.741 60.8443C234.968 45.6552 237.551 72.5399 215.598 71.0956L214.741 60.8443Z" fill="#F2C7BF"/>
<path d="M187.34 56.8694C186.237 60.991 183.5 62.1653 181.639 62.4354C180.447 62.6115 179.584 63.6683 179.649 64.872C179.731 66.4631 180.741 67.8546 182.226 68.4241L187.481 70.4438C190.352 71.0016 193.077 68.9643 193.358 66.0521L194.31 56.1824L187.34 56.8694Z" fill="#F2C7BF"/>
<path d="M186.548 70.0857C198.619 64.9894 216.356 67.0796 216.356 67.0796C216.356 67.0796 216.374 72.6515 214.372 77.325C212.37 81.9986 185.796 101.797 186.548 70.0857Z" fill="black"/>
<path d="M251.473 138.756C247.586 157.228 242.83 172.892 242.83 172.892L204.297 175.188L212.564 140.365C204.32 132.668 203.804 123.321 205.5 115.183C207.039 107.774 210.409 101.38 211.431 98.1447L226.725 83.1729C227.541 82.3626 246.2 83.6015 251.843 109.923C253.997 119.951 253.34 129.903 251.473 138.756Z" fill="#A2B7F3"/>
<path d="M224.776 106.764L234.551 150.552L221.3 174.178L242.83 172.892L254.291 135.116V109.312L224.776 106.764Z" fill="#849CF1"/>
<path d="M211.976 43.9937L210.303 70.5319L215.687 73.0449L221.488 52.3133L211.976 43.9937Z" fill="black"/>
<path d="M191.474 62.6644C191.016 64.5432 191.339 66.24 192.196 66.4514C193.053 66.6627 194.122 65.3065 194.58 63.4218C195.038 61.543 194.715 59.8461 193.858 59.6348C192.994 59.4293 191.932 60.7856 191.474 62.6644Z" fill="black"/>
<path d="M196.406 54.3917C200.111 56.2177 201.279 54.333 198.655 52.507C195.831 50.546 191.797 52.1195 196.406 54.3917Z" fill="black"/>
<path d="M199.124 72.0878C198.743 76.9434 194.903 77.3603 193.177 73.2914L199.124 72.0878Z" fill="white"/>
<path d="M254.051 198.244L253.816 201.045C253.504 204.779 250.146 207.803 246.324 207.803H192.167C196.236 186.519 204.191 175.188 204.191 175.188L242.719 172.898C249.277 179.357 252.489 189.402 254.051 198.244Z" fill="black"/>
<path d="M258.918 161.531C267.162 163.04 274.882 156.247 273.837 147.927C271.136 126.55 255.02 105.959 242.631 93.5122C237.676 88.5392 229.462 88.9091 224.371 93.747C219.98 97.9157 218.929 104.509 221.794 109.84L250.452 155.771C252.336 158.795 255.413 160.885 258.918 161.531Z" fill="#A2B7F3"/>
<path d="M249.16 144.381L221.024 169.957L221.353 180.272C221.353 180.272 249.864 175.329 268.4 159.617C281.141 148.814 265.2 129.961 249.16 144.381Z" fill="#F2C7BF"/>
<path d="M221.629 180.208L190.84 186.379L215.869 164.273L228.128 175.258L221.629 180.208Z" fill="#F2C7BF"/>
<path d="M214.542 168.771L217.349 164.954C218.177 163.827 217.719 162.218 216.421 161.702L216.022 161.543C213.562 160.557 210.791 161.901 210.039 164.438C209.534 166.14 210.08 167.984 211.431 169.135C212.37 169.939 213.803 169.775 214.542 168.771Z" fill="#F2C7BF"/>
<path d="M207.573 174.219L190.846 186.379L190.247 186.132C187.892 185.163 185.239 185.275 182.984 186.449C182.62 186.631 182.185 186.555 181.915 186.279C181.874 186.238 181.839 186.185 181.804 186.132C180.9 184.735 181.129 182.932 182.274 181.817C182.461 181.629 182.685 181.47 182.925 181.323L184.07 180.748L184.188 180.689C186.166 179.703 188.491 179.75 190.423 180.818L207.039 174.43L207.573 174.219Z" fill="#F2C7BF"/>
<path d="M202.888 180.231L194.092 184.635C190.329 182.791 187.675 183.32 185.426 184.488C185.062 184.67 184.628 184.594 184.358 184.318C184.317 184.277 184.282 184.224 184.246 184.171C183.548 183.102 183.524 181.793 184.07 180.748L184.188 180.689C186.166 179.703 188.491 179.75 190.423 180.818L194.738 182.574L202.888 180.231Z" fill="#E89E91"/>
<path d="M194.732 182.574L194.133 182.327C191.785 181.359 189.131 181.476 186.87 182.644C186.454 182.862 185.943 182.727 185.684 182.333C184.622 180.701 185.133 178.517 186.8 177.519L188.062 176.891C190.041 175.91 192.372 175.957 194.304 177.02L211.454 170.42L194.732 182.574Z" fill="#F2C7BF"/>
<path d="M211.22 105.308L204.955 90.4063L225.863 76.7555L229.755 83.9244L211.22 105.308Z" fill="#A2B7F3"/>
<path d="M215.441 53.9044C205.871 53.9044 199.9 49.9765 207.11 42.7724C212.13 37.7524 222.404 42.2557 215.441 53.9044Z" fill="black"/>
<path d="M242.56 190.477H67.5192C66.0162 190.477 64.7949 191.698 64.7949 193.201V200.593C64.7949 202.096 66.0162 203.317 67.5192 203.317H242.56C244.063 203.317 245.285 202.096 245.285 200.593V193.201C245.285 191.698 244.069 190.477 242.56 190.477Z" fill="#060606"/>
<path d="M75.4276 197.311L70.9478 200.164C70.619 200.37 70.1904 200.135 70.1904 199.748V194.041C70.1904 193.653 70.619 193.418 70.9478 193.624L75.4276 196.477C75.7329 196.677 75.7329 197.123 75.4276 197.311Z" fill="#FFFFFD"/>
<path d="M138.556 198.368H81.2168C80.4066 198.368 79.749 197.71 79.749 196.9C79.749 196.09 80.4066 195.432 81.2168 195.432H138.556C139.366 195.432 140.024 196.09 140.024 196.9C140.024 197.71 139.366 198.368 138.556 198.368Z" fill="#E15938"/>
<path d="M234.282 198.368H139.36C138.55 198.368 137.893 197.71 137.893 196.9C137.893 196.09 138.55 195.432 139.36 195.432H234.282C235.092 195.432 235.75 196.09 235.75 196.9C235.75 197.71 235.092 198.368 234.282 198.368Z" fill="#FFFFFD"/>
<path d="M142.83 196.9C142.83 199.26 140.916 201.174 138.556 201.174C136.195 201.174 134.281 199.26 134.281 196.9C134.281 194.54 136.195 192.626 138.556 192.626C140.916 192.626 142.83 194.54 142.83 196.9Z" fill="#E15938"/>
<path d="M140.664 196.9C140.664 198.062 139.719 199.008 138.556 199.008C137.394 199.008 136.448 198.062 136.448 196.9C136.448 195.737 137.394 194.792 138.556 194.792C139.719 194.792 140.664 195.737 140.664 196.9Z" fill="#FFFFFD"/>
<path d="M35.344 80.3194C8.79989 105.302 27.6526 152.137 65.3758 152.026" stroke="#F1CB6B" stroke-miterlimit="10" stroke-dasharray="4 2"/>
<path opacity="0.3" d="M161.125 138.387H121.13L117.097 130.977C116.562 129.996 115.535 129.386 114.419 129.386H80.3187C78.6336 129.386 77.2656 130.754 77.2656 132.439V138.387V181.083C77.2656 183.425 79.1679 185.328 81.5106 185.328H161.125C163.468 185.328 165.37 183.425 165.37 181.083V142.632C165.37 140.289 163.468 138.387 161.125 138.387Z" fill="#EFE8E9"/>
<path d="M69.6213 175.206C67.4431 175.206 65.6699 173.432 65.6699 171.254V128.852H149.236C151.414 128.852 153.188 130.625 153.188 132.803V171.254C153.188 173.432 151.414 175.206 149.236 175.206H69.6213Z" fill="white"/>
<path d="M149.236 129.145C151.256 129.145 152.894 130.783 152.894 132.803V171.254C152.894 173.274 151.256 174.912 149.236 174.912H69.6209C67.6012 174.912 65.9631 173.268 65.9631 171.254V129.145H149.236ZM149.236 128.558H65.376V171.254C65.376 173.597 67.2783 175.499 69.6209 175.499H149.236C151.578 175.499 153.481 173.597 153.481 171.254V132.803C153.481 130.46 151.578 128.558 149.236 128.558Z" fill="#EFE8E9"/>
<path d="M102.53 119.557H68.4291C66.744 119.557 65.376 120.925 65.376 122.61V128.558H109.24L105.207 121.148C104.673 120.168 103.645 119.557 102.53 119.557Z" fill="#94C19B"/>
<path d="M75.6216 126.233C76.8214 126.233 77.794 125.26 77.794 124.061C77.794 122.861 76.8214 121.888 75.6216 121.888C74.4218 121.888 73.4492 122.861 73.4492 124.061C73.4492 125.26 74.4218 126.233 75.6216 126.233Z" stroke="white" stroke-miterlimit="10"/>
<path d="M86.9239 124.061C86.9239 125.258 85.9492 126.233 84.7515 126.233C83.5537 126.233 82.5791 125.258 82.5791 124.061C82.5791 122.863 83.5537 121.888 84.7515 121.888C85.9492 121.888 86.9239 122.857 86.9239 124.061Z" stroke="white" stroke-miterlimit="10"/>
<path d="M93.8814 126.233C95.0811 126.233 96.0538 125.26 96.0538 124.061C96.0538 122.861 95.0811 121.888 93.8814 121.888C92.6816 121.888 91.709 122.861 91.709 124.061C91.709 125.26 92.6816 126.233 93.8814 126.233Z" stroke="white" stroke-miterlimit="10"/>
<path d="M109.24 139.156V163.146" stroke="#EFE8E9" stroke-width="4" stroke-miterlimit="10" stroke-linecap="round" stroke-linejoin="round"/>
<path d="M114.977 140.87V161.431" stroke="#EFE8E9" stroke-width="4" stroke-miterlimit="10" stroke-linecap="round" stroke-linejoin="round"/>
<path d="M120.713 145.861V156.435" stroke="#EFE8E9" stroke-width="4" stroke-miterlimit="10" stroke-linecap="round" stroke-linejoin="round"/>
<path d="M77.7939 139.156V163.146" stroke="#EFE8E9" stroke-width="4" stroke-miterlimit="10" stroke-linecap="round" stroke-linejoin="round"/>
<path d="M83.2598 140.87V161.431" stroke="#EFE8E9" stroke-width="4" stroke-miterlimit="10" stroke-linecap="round" stroke-linejoin="round"/>
<path d="M88.7207 145.861V156.435" stroke="#EFE8E9" stroke-width="4" stroke-miterlimit="10" stroke-linecap="round" stroke-linejoin="round"/>
<path d="M140.206 163.146V139.156" stroke="#EFE8E9" stroke-width="4" stroke-miterlimit="10" stroke-linecap="round" stroke-linejoin="round"/>
<path d="M134.745 161.431V140.87" stroke="#EFE8E9" stroke-width="4" stroke-miterlimit="10" stroke-linecap="round" stroke-linejoin="round"/>
<path d="M129.279 156.441V145.867" stroke="#EFE8E9" stroke-width="4" stroke-miterlimit="10" stroke-linecap="round" stroke-linejoin="round"/>
<path d="M103.504 161.261V140.7" stroke="#EFE8E9" stroke-width="4" stroke-miterlimit="10" stroke-linecap="round" stroke-linejoin="round"/>
<path d="M97.7676 156.858V145.15" stroke="#EFE8E9" stroke-width="4" stroke-miterlimit="10" stroke-linecap="round" stroke-linejoin="round"/>
<path d="M76.9834 139.156C93.1119 139.156 93.1119 163.146 109.24 163.146C125.369 163.146 125.369 139.156 141.497 139.156" stroke="#F3CD6C" stroke-width="4" stroke-miterlimit="10" stroke-linecap="round" stroke-linejoin="round"/>
<path d="M141.503 163.146C125.375 163.146 125.375 139.156 109.246 139.156C93.1177 139.156 93.1177 163.146 76.9893 163.146" stroke="#E15938" stroke-width="4" stroke-miterlimit="10" stroke-linecap="round" stroke-linejoin="round"/>
<path d="M95.437 136.566C95.437 137.424 94.7441 138.116 93.8869 138.116C93.0297 138.116 92.3369 137.424 92.3369 136.566C92.3369 135.709 93.0297 135.016 93.8869 135.016C94.7441 135.016 95.437 135.709 95.437 136.566Z" fill="#BCE0C1"/>
<path d="M124.782 165.976C124.782 166.833 124.089 167.526 123.232 167.526C122.374 167.526 121.682 166.833 121.682 165.976C121.682 165.119 122.374 164.426 123.232 164.426C124.089 164.426 124.782 165.119 124.782 165.976Z" fill="#BCE0C1"/>
<path d="M131.598 136.566C131.598 137.424 130.905 138.116 130.048 138.116C129.191 138.116 128.498 137.424 128.498 136.566C128.498 135.709 129.191 135.016 130.048 135.016C130.905 135.016 131.598 135.709 131.598 136.566Z" fill="#BCE0C1"/>
<path d="M74.7172 153.182C74.7172 154.039 74.0244 154.732 73.1672 154.732C72.31 154.732 71.6172 154.039 71.6172 153.182C71.6172 152.325 72.31 151.632 73.1672 151.632C74.0244 151.632 74.7172 152.325 74.7172 153.182Z" fill="#94C19B"/>
<path d="M95.4311 165.976C95.4311 166.833 94.7383 167.526 93.8811 167.526C93.0239 167.526 92.3311 166.833 92.3311 165.976C92.3311 165.119 93.0239 164.426 93.8811 164.426C94.7383 164.426 95.4311 165.119 95.4311 165.976Z" fill="#94C19B"/>
<path d="M147.78 150.981C147.78 151.838 147.087 152.531 146.23 152.531C145.373 152.531 144.68 151.838 144.68 150.981C144.68 150.123 145.373 149.43 146.23 149.43C147.081 149.43 147.78 150.123 147.78 150.981Z" fill="#94C19B"/>
<path d="M218.183 250.006C261.446 250.006 296.517 247.977 296.517 245.473C296.517 242.97 261.446 240.941 218.183 240.941C174.919 240.941 139.848 242.97 139.848 245.473C139.848 247.977 174.919 250.006 218.183 250.006Z" fill="#EFE8E9"/>
<path d="M243.494 188.158V214.267H172.985C168.212 214.267 164.114 211.39 162.323 207.269C161.713 205.86 161.372 204.298 161.372 202.654V199.771C161.372 193.36 166.574 188.158 172.985 188.158H243.494Z" fill="#E15938"/>
<path d="M221.494 207.269V214.267H172.986C168.212 214.267 164.114 211.39 162.323 207.269H221.494Z" fill="#D0391A"/>
<path d="M209.652 201.21C209.652 203.904 210.744 206.341 212.506 208.102C214.267 209.87 216.709 210.962 219.399 210.962H273.943V214.267H219.44C215.829 214.267 212.57 212.805 210.204 210.445C207.838 208.079 206.382 204.814 206.382 201.21C206.382 194 212.23 188.158 219.44 188.158H273.943V191.463H219.399C214.015 191.463 209.652 195.826 209.652 201.21Z" fill="#D0391A"/>
<path d="M271.118 191.463H218.323C213.532 191.463 209.651 195.344 209.651 200.135V202.29C209.651 207.081 213.532 210.962 218.323 210.962H271.118V191.463Z" fill="white"/>
<path d="M216.386 195.162H234.698" stroke="#EFE8E9" stroke-width="4" stroke-miterlimit="10" stroke-linecap="round" stroke-linejoin="round"/>
<path d="M238.491 195.162H242.595" stroke="#EFE8E9" stroke-width="4" stroke-miterlimit="10" stroke-linecap="round" stroke-linejoin="round"/>
<path d="M268.282 198.949H228.281" stroke="#EFE8E9" stroke-width="4" stroke-miterlimit="10" stroke-linecap="round" stroke-linejoin="round"/>
<path d="M268.283 202.842H222.387" stroke="#EFE8E9" stroke-width="4" stroke-miterlimit="10" stroke-linecap="round" stroke-linejoin="round"/>
<path d="M224.171 198.949H217.859" stroke="#EFE8E9" stroke-width="4" stroke-miterlimit="10" stroke-linecap="round" stroke-linejoin="round"/>
<path d="M212.487 202.842H214.806" stroke="#EFE8E9" stroke-width="4" stroke-miterlimit="10" stroke-linecap="round" stroke-linejoin="round"/>
<path d="M219.017 207.269H239.613" stroke="#EFE8E9" stroke-width="4" stroke-miterlimit="10" stroke-linecap="round" stroke-linejoin="round"/>
<path d="M265.758 195.162H256.493" stroke="#EFE8E9" stroke-width="4" stroke-miterlimit="10" stroke-linecap="round" stroke-linejoin="round"/>
<path d="M249.518 207.269H255.042" stroke="#EFE8E9" stroke-width="4" stroke-miterlimit="10" stroke-linecap="round" stroke-linejoin="round"/>
<path d="M176.538 210.451C178.904 212.805 182.168 214.273 185.768 214.273H179.121C175.516 214.273 172.258 212.805 169.892 210.451C168.958 209.523 168.171 208.449 167.555 207.269C166.604 205.46 166.069 203.399 166.069 201.215C166.069 194 171.917 188.163 179.121 188.163H185.768C178.563 188.163 172.716 194 172.716 201.215C172.716 203.399 173.25 205.46 174.201 207.269C174.818 208.449 175.61 209.523 176.538 210.451Z" fill="#F3CD6C"/>
<path d="M202.893 210.451C205.26 212.805 208.524 214.273 212.129 214.273H199.183C195.578 214.273 192.307 212.805 189.947 210.451C189.02 209.523 188.227 208.449 187.61 207.269C186.659 205.46 186.119 203.399 186.119 201.215C186.119 194 191.967 188.163 199.183 188.163H212.129C204.919 188.163 199.071 194 199.071 201.215C199.071 203.399 199.606 205.46 200.557 207.269C201.173 208.449 201.966 209.523 202.893 210.451Z" fill="#F3CD6C"/>
<path d="M176.538 210.451C178.904 212.805 182.168 214.273 185.767 214.273H179.121C175.516 214.273 172.258 212.805 169.891 210.451C168.958 209.523 168.171 208.449 167.555 207.269H174.201C174.817 208.449 175.61 209.523 176.538 210.451Z" fill="#EEB142"/>
<path d="M212.13 214.273H199.184C195.579 214.273 192.308 212.805 189.948 210.451C189.02 209.523 188.228 208.449 187.611 207.269H200.558C201.174 208.449 201.967 209.523 202.894 210.451C205.26 212.805 208.525 214.273 212.13 214.273Z" fill="#EEB142"/>
<path d="M290.581 214.25H192.39V245.473H290.581V214.25Z" fill="#EEB142"/>
<path d="M290.587 218.201H196.3V241.522H290.587V218.201Z" fill="#EFE8E9"/>
<path d="M234.082 214.25H171.699C163.403 214.25 156.675 220.978 156.675 229.274V230.449C156.675 238.745 163.403 245.473 171.699 245.473H234.082V214.25Z" fill="#F3CD6C"/>
<path d="M234.082 218.201H172.245C165.805 218.201 160.585 223.421 160.585 229.861C160.585 236.302 165.805 241.522 172.245 241.522H234.082V218.201Z" fill="white"/>
<path d="M191.538 223.532H244.826" stroke="#EFE8E9" stroke-width="4" stroke-miterlimit="10" stroke-linecap="round" stroke-linejoin="round"/>
<path d="M174.341 228.681H207.437" stroke="#EFE8E9" stroke-width="4" stroke-miterlimit="10" stroke-linecap="round" stroke-linejoin="round"/>
<path d="M182.162 234.834H225.222" stroke="#EFE8E9" stroke-width="4" stroke-miterlimit="10" stroke-linecap="round" stroke-linejoin="round"/>
<path d="M223.22 228.681H243.828" stroke="#EFE8E9" stroke-width="4" stroke-miterlimit="10" stroke-linecap="round" stroke-linejoin="round"/>
<path d="M182.161 223.532H169.984" stroke="#EFE8E9" stroke-width="4" stroke-miterlimit="10" stroke-linecap="round" stroke-linejoin="round"/>
<path d="M176.161 234.834H167.437" stroke="#EFE8E9" stroke-width="4" stroke-miterlimit="10" stroke-linecap="round" stroke-linejoin="round"/>
<path d="M169.985 228.681H165.992" stroke="#EFE8E9" stroke-width="4" stroke-miterlimit="10" stroke-linecap="round" stroke-linejoin="round"/>
<path d="M210.878 228.681H214.958" stroke="#EFE8E9" stroke-width="4" stroke-miterlimit="10" stroke-linecap="round" stroke-linejoin="round"/>
<path d="M164.46 72.0878C164.46 73.7905 163.08 75.1761 161.372 75.1761C159.663 75.1761 158.283 73.7964 158.283 72.0878C158.283 70.3851 159.663 68.9995 161.372 68.9995C163.08 68.9995 164.46 70.3793 164.46 72.0878Z" stroke="#E7DDDD" stroke-width="3" stroke-miterlimit="10" stroke-linecap="round" stroke-linejoin="round"/>
<path d="M287.722 95.1973C287.722 93.5357 286.372 92.1853 284.71 92.1853C283.049 92.1853 281.698 93.5357 281.698 95.1973C281.698 96.8589 283.049 98.2093 284.71 98.2093C286.372 98.2093 287.722 96.8589 287.722 95.1973Z" stroke="#E7DDDD" stroke-width="3" stroke-miterlimit="10" stroke-linecap="round" stroke-linejoin="round"/>
<path d="M39.9703 121.888C39.9703 123.286 38.8371 124.425 37.4339 124.425C36.0306 124.425 34.8975 123.291 34.8975 121.888C34.8975 120.491 36.0306 119.352 37.4339 119.352C38.8371 119.352 39.9703 120.485 39.9703 121.888Z" stroke="#E7DDDD" stroke-width="3" stroke-miterlimit="10" stroke-linecap="round" stroke-linejoin="round"/>
<path d="M131.316 223.532C131.316 224.953 130.165 226.11 128.739 226.11C127.312 226.11 126.161 224.959 126.161 223.532C126.161 222.105 127.312 220.955 128.739 220.955C130.165 220.955 131.316 222.111 131.316 223.532Z" stroke="#E7DDDD" stroke-width="3" stroke-miterlimit="10" stroke-linecap="round" stroke-linejoin="round"/>
<path d="M248.185 72.9861C247.463 72.2464 248.085 70.8725 249.06 70.5261C250.034 70.1797 251.109 70.5202 252.072 70.9077C253.035 71.2952 254.05 71.7238 255.066 71.5477C256.088 71.3715 257.009 70.2677 256.575 69.3224" stroke="#E7DDDD" stroke-width="3" stroke-miterlimit="10" stroke-linecap="round" stroke-linejoin="round"/>
<path d="M172.01 51.1567C170.355 51.1097 169.192 49.4657 168.716 47.8746C168.241 46.2894 168.147 44.5515 167.284 43.1365C166.421 41.7215 164.319 40.8467 163.098 41.9681" stroke="#E7DDDD" stroke-width="3" stroke-miterlimit="10" stroke-linecap="round" stroke-linejoin="round"/>
<path d="M19.9962 39.6313C19.2506 41.6158 20.2193 45.3088 22.1099 46.26C23.0375 46.7297 24.1002 46.8471 25.116 47.0702C26.1317 47.2933 27.1886 47.6632 27.8403 48.4793C28.492 49.2954 28.539 50.6576 27.6994 51.2741" stroke="#E7DDDD" stroke-width="3" stroke-miterlimit="10" stroke-linecap="round" stroke-linejoin="round"/>
<path d="M77.1416 232.756C77.4352 234.758 80.1712 234.694 81.8093 233.496C82.6489 232.885 83.101 231.899 83.5824 230.983C84.0697 230.067 84.6921 229.128 85.6667 228.781C86.6414 228.435 87.9859 229.057 87.9624 230.09" stroke="#E7DDDD" stroke-width="3" stroke-miterlimit="10" stroke-linecap="round" stroke-linejoin="round"/>
<path d="M281.34 167.285C280.037 165.999 279.784 163.78 280.765 162.23C281.317 161.355 282.18 160.727 282.961 160.046C283.742 159.365 284.487 158.543 284.681 157.527C284.875 156.511 284.276 155.284 283.248 155.149" stroke="#E7DDDD" stroke-width="3" stroke-miterlimit="10" stroke-linecap="round" stroke-linejoin="round"/>
<path d="M104.796 25.0469C104.537 23.3267 106.099 21.5711 107.843 21.6298C108.8 21.6651 109.681 22.1524 110.544 22.5634C111.413 22.9744 112.387 23.3325 113.315 23.0859C114.243 22.8393 114.982 21.7355 114.513 20.8959" stroke="#E7DDDD" stroke-width="3" stroke-miterlimit="10" stroke-linecap="round" stroke-linejoin="round"/>
<path d="M96.3704 244.628C96.3704 246.207 78.1576 247.481 55.6881 247.481C33.2186 247.481 15 246.201 15 244.628C15 243.054 33.2128 241.774 55.6822 241.774C78.1517 241.774 96.3704 243.048 96.3704 244.628Z" fill="#EFE8E9"/>
<path d="M49.4414 224.888C59.5459 198.82 60.6438 169.358 52.5062 142.614C49.7878 171.049 45.7248 199.348 40.3291 227.401L49.4414 224.888Z" fill="#94C19B"/>
<path d="M34.2991 218.489C27.6116 196.624 29.6196 172.223 39.7946 151.744C32.1325 174.143 49.5644 199.096 42.9357 221.818L34.2991 218.489Z" fill="#94C19B"/>
<path d="M79.2618 165.318C65.9457 180.214 58.0782 175.188 53.2226 199.959C52.2421 204.961 47.275 223.485 53.6923 222.886C60.1449 222.282 62.511 203.082 65.7931 193.547C70.2083 180.695 75.516 174.636 79.2618 165.318Z" fill="#94C19B"/>
<path d="M40.2354 216.264C45.4138 212.4 48.0735 205.895 48.7546 199.466C49.4357 193.043 48.3788 186.578 47.4512 180.184C46.5235 173.791 45.7133 167.256 46.8817 160.903C48.191 171.33 54.9547 179.216 57.8258 189.326C60.6675 199.337 58.7593 210.592 52.7706 219.105L40.2354 216.264Z" fill="#BCE0C1"/>
<path d="M34.029 222.898C25.3865 206.846 20.6894 186.684 26.8308 160.903C32.9604 178.341 41.8848 221.683 41.8848 221.683L34.029 222.898Z" fill="#BCE0C1"/>
<path d="M62.3585 213.674L59.8045 230.067L57.7202 243.547C57.5499 244.651 56.5929 245.473 55.4715 245.473H31.5988C30.4539 245.473 29.4851 244.622 29.3383 243.477L25.4691 213.621C25.2989 212.253 26.3616 211.056 27.7296 211.056H60.1157C61.5072 211.056 62.5757 212.289 62.3585 213.674Z" fill="#849CF1"/>
<path d="M62.3584 213.674L59.8044 230.067C55.1778 226.985 49.9699 221.348 46.0186 211.056H60.1097C61.507 211.056 62.5756 212.289 62.3584 213.674Z" fill="#B3C3F7"/>
</g>
<defs>
<clipPath id="clip0_577_1109">
<rect width="281.517" height="250" fill="white" transform="translate(15)"/>
</clipPath>
</defs>
</svg>
