<svg width="615" height="445" viewBox="0 0 615 445" fill="none" xmlns="http://www.w3.org/2000/svg">
<path d="M3.59214 444.288C3.75147 444.514 4.06349 444.567 4.28902 444.408L7.96435 441.812C8.18988 441.652 8.24356 441.34 8.08419 441.115C7.92486 440.889 7.61287 440.836 7.38731 440.995L4.12039 443.303L1.81234 440.036C1.65301 439.81 1.34099 439.757 1.11546 439.916C0.889957 440.075 0.836282 440.387 0.995591 440.613L3.59214 444.288ZM612.909 3.4933C612.855 3.76402 613.03 4.02764 613.301 4.08213C613.572 4.13661 613.835 3.96133 613.89 3.69061L612.909 3.4933ZM612.633 9.75583C612.691 9.48575 612.518 9.22014 612.248 9.16256C611.978 9.10499 611.713 9.27725 611.655 9.54732L612.633 9.75583ZM610.352 15.489C610.292 15.7584 610.461 16.026 610.73 16.0867C610.999 16.1474 611.267 15.9783 611.328 15.7089L610.352 15.489ZM609.974 21.5509C610.038 21.2823 609.872 21.0127 609.604 20.9487C609.335 20.8848 609.065 21.0507 609.001 21.3193L609.974 21.5509ZM607.603 27.0395C607.536 27.3073 607.698 27.5789 607.966 27.6462C608.234 27.7134 608.506 27.5508 608.573 27.2829L607.603 27.0395ZM607.124 32.906C607.195 32.6391 607.036 32.3654 606.769 32.2949C606.502 32.2243 606.228 32.3835 606.157 32.6505L607.124 32.906ZM604.665 38.1534C604.591 38.4194 604.747 38.6951 605.013 38.7691C605.279 38.843 605.555 38.6873 605.629 38.4213L604.665 38.1534ZM603.931 44.3619C604.009 44.0969 603.857 43.8191 603.592 43.7413C603.327 43.6635 603.049 43.8152 602.971 44.0802L603.931 44.3619ZM601.203 49.9407C601.122 50.2044 601.269 50.4845 601.533 50.5662C601.797 50.648 602.077 50.5004 602.159 50.2367L601.203 49.9407ZM600.33 55.9824C600.416 55.7199 600.273 55.4376 600.01 55.3519C599.748 55.2661 599.465 55.4094 599.38 55.6719L600.33 55.9824ZM597.501 61.2754C597.411 61.5365 597.55 61.821 597.811 61.9108C598.072 62.0007 598.357 61.8618 598.447 61.6007L597.501 61.2754ZM596.508 67.0929C596.602 66.8333 596.468 66.5466 596.208 66.4526C595.949 66.3586 595.662 66.4929 595.568 66.7526L596.508 67.0929ZM593.581 72.1049C593.483 72.363 593.612 72.6518 593.871 72.7501C594.129 72.8483 594.417 72.7187 594.516 72.4606L593.581 72.1049ZM592.261 78.2258C592.364 77.9696 592.24 77.6784 591.984 77.5755C591.727 77.4725 591.436 77.5968 591.333 77.853L592.261 78.2258ZM589.011 83.4808C588.903 83.735 589.022 84.0285 589.276 84.1362C589.53 84.244 589.824 84.1253 589.931 83.871L589.011 83.4808ZM587.538 89.3696C587.65 89.1175 587.537 88.8218 587.285 88.7091C587.033 88.5964 586.738 88.7095 586.625 88.9616L587.538 89.3696ZM584.177 94.2975C584.059 94.5473 584.166 94.8452 584.416 94.9628C584.666 95.0805 584.964 94.9733 585.082 94.7235L584.177 94.2975ZM582.564 99.9346C582.686 99.6872 582.585 99.3872 582.338 99.2646C582.09 99.1419 581.79 99.243 581.668 99.4904L582.564 99.9346ZM578.954 104.818C578.826 105.063 578.92 105.365 579.165 105.493C579.41 105.621 579.712 105.527 579.84 105.282L578.954 104.818ZM576.939 110.674C577.073 110.432 576.986 110.128 576.744 109.994C576.502 109.861 576.198 109.948 576.064 110.19L576.939 110.674ZM573.104 115.397C572.965 115.635 573.046 115.942 573.284 116.081C573.522 116.22 573.829 116.14 573.968 115.901L573.104 115.397ZM570.926 120.968C571.071 120.733 570.998 120.425 570.763 120.28C570.528 120.135 570.22 120.208 570.075 120.443L570.926 120.968ZM566.978 125.329C566.828 125.561 566.893 125.87 567.124 126.021C567.356 126.172 567.666 126.106 567.816 125.875L566.978 125.329ZM564.46 130.885C564.617 130.658 564.56 130.346 564.332 130.19C564.105 130.033 563.794 130.09 563.637 130.318L564.46 130.885ZM560.134 135.256C559.971 135.479 560.02 135.792 560.243 135.955C560.466 136.117 560.779 136.069 560.942 135.846L560.134 135.256ZM557.347 140.63C557.515 140.411 557.475 140.097 557.257 139.928C557.039 139.759 556.724 139.799 556.556 140.018L557.347 140.63ZM552.903 144.607C552.728 144.82 552.759 145.135 552.973 145.31C553.187 145.485 553.502 145.454 553.677 145.24L552.903 144.607ZM549.898 149.721C550.079 149.513 550.057 149.197 549.849 149.016C549.64 148.835 549.324 148.857 549.143 149.066L549.898 149.721ZM545.098 153.586C544.911 153.789 544.924 154.106 545.126 154.293C545.329 154.48 545.646 154.467 545.833 154.264L545.098 153.586ZM541.688 158.622C541.881 158.425 541.878 158.109 541.681 157.915C541.484 157.722 541.167 157.725 540.974 157.922L541.688 158.622ZM536.773 162.077C536.574 162.268 536.567 162.585 536.758 162.784C536.95 162.984 537.266 162.99 537.465 162.799L536.773 162.077ZM533.167 166.798C533.372 166.613 533.388 166.297 533.203 166.092C533.018 165.887 532.702 165.871 532.497 166.056L533.167 166.798ZM527.971 170.011C527.76 170.19 527.734 170.505 527.912 170.716C528.09 170.927 528.406 170.953 528.617 170.775L527.971 170.011ZM523.966 174.585C524.183 174.414 524.219 174.099 524.047 173.883C523.876 173.667 523.561 173.63 523.345 173.802L523.966 174.585ZM518.642 177.413C518.421 177.578 518.375 177.891 518.539 178.113C518.704 178.334 519.017 178.381 519.239 178.216L518.642 177.413ZM514.437 181.671C514.664 181.513 514.719 181.201 514.562 180.975C514.404 180.748 514.092 180.692 513.866 180.85L514.437 181.671ZM508.912 184.184C508.681 184.335 508.615 184.645 508.766 184.876C508.916 185.108 509.226 185.173 509.457 185.022L508.912 184.184ZM504.381 188.215C504.617 188.071 504.692 187.764 504.549 187.528C504.406 187.292 504.098 187.217 503.862 187.36L504.381 188.215ZM498.74 190.367C498.5 190.503 498.415 190.808 498.552 191.048C498.688 191.288 498.993 191.373 499.233 191.236L498.74 190.367ZM494.015 194.093C494.259 193.964 494.353 193.661 494.224 193.417C494.095 193.173 493.792 193.08 493.548 193.209L494.015 194.093ZM488.244 195.913C487.996 196.035 487.894 196.335 488.016 196.583C488.138 196.831 488.438 196.933 488.685 196.811L488.244 195.913ZM483.282 199.374C483.533 199.259 483.643 198.962 483.528 198.711C483.414 198.46 483.117 198.35 482.866 198.465L483.282 199.374ZM477.423 200.863C477.169 200.971 477.05 201.265 477.158 201.519C477.266 201.773 477.56 201.892 477.814 201.784L477.423 200.863ZM472.284 204.045C472.541 203.944 472.667 203.654 472.566 203.397C472.465 203.14 472.175 203.014 471.918 203.115L472.284 204.045ZM466.363 205.22C466.104 205.314 465.97 205.601 466.065 205.861C466.16 206.12 466.447 206.254 466.706 206.159L466.363 205.22ZM461.072 208.135C461.334 208.047 461.474 207.764 461.386 207.502C461.298 207.24 461.014 207.1 460.752 207.188L461.072 208.135ZM455.086 209.024C454.822 209.107 454.675 209.387 454.757 209.65C454.839 209.914 455.119 210.061 455.383 209.979L455.086 209.024ZM449.642 211.696C449.907 211.62 450.061 211.343 449.985 211.077C449.908 210.812 449.631 210.658 449.366 210.734L449.642 211.696ZM443.651 212.308C443.384 212.379 443.224 212.652 443.295 212.919C443.365 213.186 443.639 213.346 443.906 213.275L443.651 212.308ZM438.124 214.739C438.392 214.674 438.557 214.404 438.492 214.136C438.426 213.867 438.156 213.703 437.888 213.768L438.124 214.739ZM432.079 215.118C431.81 215.178 431.64 215.445 431.7 215.714C431.76 215.984 432.027 216.154 432.296 216.094L432.079 215.118ZM426.428 217.343C426.698 217.288 426.873 217.024 426.818 216.753C426.763 216.482 426.499 216.308 426.228 216.363L426.428 217.343ZM420.412 217.494C420.141 217.544 419.961 217.805 420.012 218.077C420.062 218.348 420.323 218.528 420.595 218.477L420.412 217.494ZM414.725 219.519C414.997 219.473 415.18 219.215 415.134 218.943C415.088 218.67 414.83 218.487 414.558 218.533L414.725 219.519ZM408.667 219.484C408.394 219.526 408.207 219.782 408.249 220.054C408.291 220.327 408.546 220.515 408.819 220.473L408.667 219.484ZM402.881 221.343C403.154 221.305 403.345 221.052 403.307 220.779C403.269 220.505 403.016 220.314 402.743 220.353L402.881 221.343ZM396.866 221.132C396.592 221.167 396.398 221.417 396.432 221.691C396.467 221.965 396.717 222.159 396.991 222.125L396.866 221.132ZM391.074 222.834C391.348 222.803 391.545 222.555 391.514 222.281C391.483 222.007 391.235 221.809 390.961 221.841L391.074 222.834ZM385.028 222.482C384.754 222.51 384.554 222.755 384.582 223.03C384.61 223.305 384.855 223.505 385.13 223.476L385.028 222.482ZM379.162 224.056C379.437 224.03 379.64 223.787 379.615 223.512C379.589 223.237 379.346 223.035 379.071 223.06L379.162 224.056ZM373.153 223.575C372.878 223.598 372.673 223.839 372.696 224.114C372.718 224.389 372.96 224.594 373.235 224.572L373.153 223.575ZM367.294 225.034C367.57 225.014 367.776 224.774 367.756 224.499C367.736 224.223 367.496 224.017 367.221 224.037L367.294 225.034ZM361.27 224.451C360.994 224.469 360.786 224.707 360.804 224.982C360.822 225.258 361.06 225.467 361.336 225.449L361.27 224.451ZM355.361 225.819C355.637 225.803 355.847 225.566 355.831 225.291C355.815 225.015 355.578 224.805 355.303 224.821L355.361 225.819ZM349.358 225.15C349.082 225.164 348.87 225.399 348.884 225.675C348.899 225.951 349.134 226.163 349.41 226.148L349.358 225.15ZM343.457 226.442C343.733 226.429 343.946 226.195 343.933 225.92C343.92 225.644 343.686 225.431 343.411 225.443L343.457 226.442ZM337.453 225.707C337.177 225.719 336.963 225.952 336.974 226.227C336.986 226.503 337.219 226.718 337.495 226.706L337.453 225.707ZM331.524 226.944C331.8 226.933 332.015 226.701 332.005 226.425C331.994 226.149 331.762 225.934 331.486 225.945L331.524 226.944ZM325.526 226.16C325.25 226.17 325.034 226.401 325.043 226.677C325.053 226.953 325.284 227.169 325.56 227.159L325.526 226.16ZM319.6 227.357C319.876 227.349 320.093 227.118 320.084 226.842C320.075 226.566 319.844 226.349 319.568 226.358L319.6 227.357ZM313.608 226.543C313.332 226.551 313.115 226.782 313.123 227.058C313.131 227.334 313.362 227.551 313.638 227.542L313.608 226.543ZM307.675 227.718C307.951 227.71 308.168 227.48 308.16 227.204C308.152 226.928 307.922 226.711 307.646 226.719L307.675 227.718ZM301.681 226.89C301.405 226.898 301.187 227.128 301.195 227.404C301.203 227.68 301.433 227.898 301.709 227.89L301.681 226.89ZM295.742 228.061C296.018 228.053 296.236 227.823 296.228 227.547C296.22 227.271 295.989 227.053 295.713 227.061L295.742 228.061ZM289.75 227.236C289.474 227.245 289.257 227.475 289.265 227.751C289.274 228.027 289.504 228.244 289.78 228.236L289.75 227.236ZM283.825 228.419C284.101 228.41 284.318 228.179 284.309 227.903C284.3 227.627 284.069 227.411 283.793 227.419L283.825 228.419ZM277.834 227.615C277.558 227.625 277.342 227.856 277.352 228.132C277.361 228.408 277.593 228.624 277.869 228.615L277.834 227.615ZM271.894 228.828C272.17 228.818 272.385 228.586 272.375 228.31C272.365 228.034 272.133 227.819 271.857 227.829L271.894 228.828ZM265.891 228.064C265.615 228.075 265.401 228.308 265.412 228.584C265.424 228.86 265.656 229.074 265.932 229.063L265.891 228.064ZM259.986 229.323C260.261 229.31 260.475 229.076 260.462 228.8C260.449 228.524 260.215 228.311 259.939 228.324L259.986 229.323ZM253.996 228.614C253.72 228.629 253.508 228.864 253.522 229.139C253.536 229.415 253.771 229.627 254.047 229.613L253.996 228.614ZM248.069 229.941C248.344 229.925 248.555 229.688 248.539 229.413C248.523 229.137 248.286 228.926 248.011 228.942L248.069 229.941ZM242.046 229.31C241.77 229.328 241.561 229.566 241.579 229.842C241.597 230.117 241.835 230.326 242.111 230.308L242.046 229.31ZM236.176 230.719C236.452 230.699 236.659 230.459 236.639 230.184C236.618 229.908 236.379 229.701 236.103 229.722L236.176 230.719ZM230.183 230.182C229.907 230.204 229.703 230.446 229.725 230.721C229.748 230.996 229.989 231.201 230.265 231.178L230.183 230.182ZM224.292 231.699C224.567 231.673 224.769 231.43 224.744 231.155C224.718 230.88 224.475 230.678 224.2 230.703L224.292 231.699ZM218.247 231.284C217.972 231.312 217.772 231.557 217.8 231.832C217.829 232.107 218.074 232.307 218.349 232.278L218.247 231.284ZM212.438 232.922C212.713 232.89 212.91 232.642 212.878 232.368C212.847 232.093 212.599 231.897 212.324 231.928L212.438 232.922ZM206.436 232.641C206.162 232.676 205.968 232.927 206.003 233.201C206.038 233.474 206.288 233.668 206.562 233.633L206.436 232.641ZM200.618 234.433C200.892 234.394 201.082 234.141 201.043 233.868C201.004 233.594 200.751 233.404 200.478 233.443L200.618 234.433ZM194.558 234.325C194.286 234.368 194.099 234.624 194.142 234.896C194.185 235.169 194.44 235.356 194.713 235.313L194.558 234.325ZM188.85 236.279C189.122 236.232 189.305 235.973 189.258 235.701C189.211 235.429 188.952 235.246 188.68 235.294L188.85 236.279ZM182.842 236.354C182.57 236.405 182.392 236.667 182.444 236.938C182.496 237.21 182.757 237.388 183.029 237.336L182.842 236.354ZM177.151 238.51C177.422 238.453 177.595 238.188 177.538 237.918C177.482 237.648 177.217 237.474 176.946 237.531L177.151 238.51ZM171.101 238.813C170.832 238.875 170.664 239.143 170.725 239.412C170.787 239.682 171.055 239.85 171.325 239.788L171.101 238.813ZM165.551 241.175C165.818 241.108 165.981 240.836 165.914 240.569C165.846 240.301 165.575 240.138 165.307 240.206L165.551 241.175ZM159.555 241.716C159.289 241.789 159.132 242.065 159.205 242.331C159.278 242.597 159.554 242.754 159.82 242.681L159.555 241.716ZM154.072 244.329C154.337 244.249 154.487 243.971 154.408 243.706C154.329 243.442 154.05 243.291 153.786 243.371L154.072 244.329ZM148.077 245.154C147.814 245.24 147.671 245.522 147.756 245.785C147.842 246.047 148.124 246.191 148.387 246.105L148.077 245.154ZM142.765 248.016C143.025 247.924 143.162 247.638 143.069 247.378C142.977 247.118 142.691 246.981 142.431 247.074L142.765 248.016ZM136.837 249.139C136.58 249.238 136.451 249.527 136.55 249.785C136.649 250.043 136.938 250.171 137.196 250.072L136.837 249.139ZM131.666 252.287C131.921 252.181 132.042 251.888 131.935 251.633C131.829 251.378 131.536 251.258 131.281 251.364L131.666 252.287ZM125.797 253.743C125.545 253.857 125.434 254.153 125.547 254.404C125.661 254.656 125.957 254.768 126.209 254.655L125.797 253.743ZM120.826 257.181C121.074 257.06 121.177 256.76 121.056 256.512C120.935 256.264 120.635 256.161 120.387 256.282L120.826 257.181ZM115.065 258.981C114.821 259.11 114.727 259.412 114.856 259.656C114.984 259.901 115.287 259.995 115.531 259.866L115.065 258.981ZM110.326 262.714C110.566 262.577 110.65 262.272 110.514 262.032C110.378 261.792 110.072 261.708 109.832 261.844L110.326 262.714ZM104.681 264.883C104.445 265.027 104.371 265.335 104.515 265.57C104.66 265.806 104.967 265.88 105.203 265.736L104.681 264.883ZM100.163 268.937C100.394 268.785 100.458 268.475 100.306 268.245C100.154 268.014 99.8437 267.95 99.6131 268.102L100.163 268.937ZM94.7018 271.458C94.4764 271.618 94.4231 271.93 94.5828 272.155C94.7423 272.381 95.0544 272.434 95.2798 272.274L94.7018 271.458ZM90.5138 275.773C90.7336 275.605 90.7763 275.292 90.6092 275.072C90.442 274.852 90.1283 274.809 89.9086 274.977L90.5138 275.773ZM85.2028 278.684C84.9889 278.858 84.957 279.173 85.1315 279.387C85.3061 279.601 85.6211 279.633 85.8351 279.459L85.2028 278.684ZM81.2456 283.338C81.4534 283.156 81.4744 282.84 81.2925 282.632C81.1106 282.424 80.7948 282.403 80.587 282.585L81.2456 283.338ZM76.2045 286.554C76.003 286.743 75.9927 287.059 76.1814 287.26C76.3702 287.462 76.6866 287.472 76.8881 287.284L76.2045 286.554ZM72.6566 291.382C72.8517 291.187 72.8515 290.87 72.6561 290.675C72.4607 290.48 72.1441 290.48 71.9489 290.676L72.6566 291.382ZM67.7826 294.99C67.5941 295.192 67.6049 295.509 67.8067 295.697C68.0085 295.886 68.3249 295.875 68.5134 295.673L67.7826 294.99ZM64.4606 300.16C64.6423 299.952 64.621 299.637 64.413 299.455C64.205 299.273 63.8891 299.295 63.7075 299.502L64.4606 300.16ZM59.8955 304.009C59.7205 304.223 59.7518 304.538 59.9654 304.713C60.179 304.888 60.494 304.856 60.6691 304.643L59.8955 304.009ZM57.0278 309.23C57.1961 309.011 57.1551 308.697 56.9362 308.529C56.7174 308.361 56.4034 308.402 56.2351 308.62L57.0278 309.23ZM52.6607 313.418C52.4991 313.642 52.5496 313.954 52.7735 314.116C52.9974 314.278 53.3099 314.227 53.4716 314.003L52.6607 313.418ZM50.002 318.966C50.1568 318.737 50.097 318.427 49.8683 318.272C49.6397 318.117 49.3288 318.177 49.174 318.405L50.002 318.966ZM45.8797 323.424C45.7314 323.657 45.8002 323.966 46.0331 324.115C46.2661 324.263 46.5752 324.194 46.7234 323.961L45.8797 323.424ZM43.6798 328.89C43.8218 328.653 43.7449 328.346 43.508 328.204C43.2711 328.062 42.9641 328.139 42.8221 328.376L43.6798 328.89ZM39.8434 333.498C39.7077 333.739 39.7927 334.044 40.0332 334.18C40.2737 334.315 40.5787 334.23 40.7143 333.99L39.8434 333.498ZM37.8282 339.264C37.9576 339.02 37.8649 338.717 37.621 338.588C37.3771 338.458 37.0744 338.551 36.9449 338.795L37.8282 339.264ZM34.128 344.268C34.0047 344.515 34.105 344.816 34.3521 344.939C34.5992 345.062 34.8995 344.962 35.0228 344.715L34.128 344.268ZM32.4727 349.977C32.5902 349.727 32.483 349.429 32.2331 349.312C31.9833 349.194 31.6854 349.301 31.5678 349.551L32.4727 349.977ZM29.148 354.844C29.0359 355.096 29.1496 355.392 29.402 355.504C29.6544 355.616 29.9498 355.502 30.0619 355.25L29.148 354.844ZM27.7212 360.676C27.8278 360.422 27.7079 360.129 27.4531 360.022C27.1984 359.915 26.9055 360.035 26.7988 360.29L27.7212 360.676ZM24.5212 365.892C24.4199 366.149 24.546 366.439 24.8028 366.54C25.0597 366.642 25.3501 366.516 25.4515 366.259L24.5212 365.892ZM23.2538 372C23.3499 371.741 23.218 371.453 22.9591 371.357C22.7003 371.261 22.4125 371.393 22.3163 371.652L23.2538 372ZM20.3031 377.234C20.2119 377.495 20.3492 377.78 20.6098 377.871C20.8704 377.962 21.1557 377.825 21.2469 377.565L20.3031 377.234ZM19.3914 383.016C19.4781 382.754 19.3359 382.471 19.0737 382.384C18.8115 382.297 18.5287 382.44 18.442 382.702L19.3914 383.016ZM16.6421 388.303C16.5599 388.567 16.7069 388.847 16.9705 388.929C17.2341 389.012 17.5144 388.865 17.5967 388.601L16.6421 388.303ZM15.8637 394.322C15.9416 394.057 15.79 393.779 15.525 393.701C15.2601 393.623 14.9822 393.775 14.9043 394.04L15.8637 394.322ZM13.2293 399.913C13.1556 400.179 13.3117 400.455 13.5779 400.528C13.844 400.602 14.1195 400.446 14.193 400.18L13.2293 399.913ZM12.5856 406.177C12.655 405.909 12.4946 405.636 12.2273 405.567C11.96 405.498 11.6871 405.658 11.6177 405.925L12.5856 406.177ZM10.2056 411.523C10.1399 411.792 10.3041 412.062 10.5723 412.128C10.8406 412.194 11.1113 412.029 11.1769 411.761L10.2056 411.523ZM9.84229 417.375C9.90436 417.106 9.73655 416.838 9.46748 416.776C9.19842 416.713 8.92999 416.881 8.86787 417.15L9.84229 417.375ZM7.58285 422.892C7.52429 423.162 7.6956 423.428 7.96548 423.487C8.23533 423.546 8.50156 423.374 8.56012 423.104L7.58285 422.892ZM7.33093 428.95C7.38605 428.68 7.21136 428.416 6.94075 428.361C6.6702 428.306 6.40615 428.48 6.35105 428.751L7.33093 428.95ZM5.17302 434.727C5.12129 434.998 5.29926 435.26 5.57051 435.312C5.84175 435.364 6.10357 435.186 6.15532 434.914L5.17302 434.727ZM5.03373 440.997C5.08215 440.725 4.90104 440.466 4.62919 440.417C4.35733 440.369 4.09768 440.55 4.04926 440.822L5.03373 440.997ZM613.518 0.423823C613.317 1.45172 613.114 2.47488 612.909 3.4933L613.89 3.69061C614.095 2.67034 614.298 1.64535 614.5 0.615624L613.518 0.423823ZM611.655 9.54732C611.229 11.5465 610.795 13.527 610.352 15.489L611.328 15.7089C611.771 13.7431 612.206 11.7588 612.633 9.75583L611.655 9.54732ZM609.001 21.3193C608.543 23.2444 608.077 25.151 607.603 27.0395L608.573 27.2829C609.048 25.3905 609.515 23.4799 609.974 21.5509L609.001 21.3193ZM606.157 32.6505C605.668 34.5027 605.17 36.337 604.665 38.1534L605.629 38.4213C606.135 36.6007 606.633 34.7624 607.124 32.906L606.157 32.6505ZM602.971 44.0802C602.391 46.0554 601.802 48.0088 601.203 49.9407L602.159 50.2367C602.759 48.3 603.349 46.3418 603.931 44.3619L602.971 44.0802ZM599.38 55.6719C598.763 57.5609 598.136 59.4287 597.501 61.2754L598.447 61.6007C599.084 59.749 599.711 57.8764 600.33 55.9824L599.38 55.6719ZM595.568 66.7526C594.914 68.5574 594.252 70.3414 593.581 72.1049L594.516 72.4606C595.189 70.692 595.853 68.9028 596.508 67.0929L595.568 66.7526ZM591.333 77.853C590.57 79.7536 589.795 81.6294 589.011 83.4808L589.931 83.871C590.719 82.0139 591.495 80.1322 592.261 78.2258L591.333 77.853ZM586.625 88.9616C585.819 90.7642 585.003 92.5428 584.177 94.2975L585.082 94.7235C585.911 92.9627 586.729 91.1782 587.538 89.3696L586.625 88.9616ZM581.668 99.4904C580.774 101.292 579.87 103.068 578.954 104.818L579.84 105.282C580.759 103.525 581.667 101.743 582.564 99.9346L581.668 99.4904ZM576.064 110.19C575.089 111.953 574.103 113.688 573.104 115.397L573.968 115.901C574.97 114.186 575.961 112.443 576.939 110.674L576.064 110.19ZM570.075 120.443C569.054 122.098 568.022 123.727 566.978 125.329L567.816 125.875C568.864 124.265 569.901 122.63 570.926 120.968L570.075 120.443ZM563.637 130.318C562.482 131.993 561.314 133.639 560.134 135.256L560.942 135.846C562.127 134.222 563.3 132.568 564.46 130.885L563.637 130.318ZM556.556 140.018C555.35 141.576 554.133 143.105 552.903 144.607L553.677 145.24C554.912 143.732 556.136 142.195 557.347 140.63L556.556 140.018ZM549.143 149.066C547.808 150.604 546.46 152.11 545.098 153.586L545.833 154.264C547.202 152.781 548.557 151.267 549.898 149.721L549.143 149.066ZM540.974 157.922C539.587 159.337 538.186 160.722 536.773 162.077L537.465 162.799C538.886 161.437 540.293 160.045 541.688 158.622L540.974 157.922ZM532.497 166.056C531.001 167.405 529.492 168.723 527.971 170.011L528.617 170.775C530.146 169.48 531.663 168.155 533.167 166.798L532.497 166.056ZM523.345 173.802C521.79 175.035 520.222 176.239 518.642 177.413L519.239 178.216C520.827 177.035 522.403 175.825 523.966 174.585L523.345 173.802ZM513.866 180.85C512.227 181.991 510.576 183.102 508.912 184.184L509.457 185.022C511.13 183.934 512.79 182.817 514.437 181.671L513.866 180.85ZM503.862 187.36C502.167 188.39 500.459 189.392 498.74 190.367L499.233 191.236C500.961 190.257 502.677 189.25 504.381 188.215L503.862 187.36ZM493.548 193.209C491.791 194.137 490.023 195.038 488.244 195.913L488.685 196.811C490.473 195.931 492.25 195.026 494.015 194.093L493.548 193.209ZM482.866 198.465C481.062 199.289 479.248 200.089 477.423 200.863L477.814 201.784C479.647 201.005 481.47 200.203 483.282 199.374L482.866 198.465ZM471.918 203.115C470.076 203.84 468.225 204.541 466.363 205.22L466.706 206.159C468.575 205.478 470.434 204.773 472.284 204.045L471.918 203.115ZM460.752 207.188C458.873 207.822 456.984 208.434 455.086 209.024L455.383 209.979C457.288 209.386 459.185 208.772 461.072 208.135L460.752 207.188ZM449.366 210.734C447.469 211.279 445.564 211.803 443.651 212.308L443.906 213.275C445.826 212.768 447.738 212.242 449.642 211.696L449.366 210.734ZM437.888 213.768C435.959 214.236 434.023 214.685 432.079 215.118L432.296 216.094C434.246 215.66 436.188 215.209 438.124 214.739L437.888 213.768ZM426.228 216.363C424.296 216.756 422.357 217.133 420.412 217.494L420.595 218.477C422.545 218.115 424.49 217.737 426.428 217.343L426.228 216.363ZM414.558 218.533C412.6 218.864 410.637 219.181 408.667 219.484L408.819 220.473C410.793 220.169 412.762 219.851 414.725 219.519L414.558 218.533ZM402.743 220.353C400.789 220.625 398.83 220.885 396.866 221.132L396.991 222.125C398.959 221.876 400.923 221.616 402.881 221.343L402.743 220.353ZM390.961 221.841C388.988 222.065 387.01 222.279 385.028 222.482L385.13 223.476C387.116 223.273 389.097 223.059 391.074 222.834L390.961 221.841ZM379.071 223.06C377.102 223.241 375.129 223.412 373.153 223.575L373.235 224.572C375.214 224.409 377.19 224.237 379.162 224.056L379.071 223.06ZM367.221 224.037C365.24 224.183 363.257 224.32 361.27 224.451L361.336 225.449C363.325 225.318 365.311 225.18 367.294 225.034L367.221 224.037ZM355.303 224.821C353.323 224.937 351.341 225.046 349.358 225.15L349.41 226.148C351.396 226.045 353.379 225.935 355.361 225.819L355.303 224.821ZM343.411 225.443C341.426 225.536 339.44 225.624 337.453 225.707L337.495 226.706C339.484 226.623 341.471 226.535 343.457 226.442L343.411 225.443ZM331.486 225.945C329.501 226.02 327.514 226.091 325.526 226.16L325.56 227.159C327.549 227.091 329.537 227.019 331.524 226.944L331.486 225.945ZM319.568 226.358C317.582 226.421 315.595 226.483 313.608 226.543L313.638 227.542C315.626 227.482 317.613 227.421 319.6 227.357L319.568 226.358ZM307.646 226.719C305.657 226.776 303.669 226.833 301.681 226.89L301.709 227.89C303.698 227.833 305.686 227.776 307.675 227.718L307.646 226.719ZM295.713 227.061C293.725 227.119 291.737 227.177 289.75 227.236L289.78 228.236C291.766 228.176 293.754 228.118 295.742 228.061L295.713 227.061ZM283.793 227.419C281.806 227.482 279.819 227.547 277.834 227.615L277.869 228.615C279.852 228.547 281.838 228.482 283.825 228.419L283.793 227.419ZM271.857 227.829C269.866 227.903 267.877 227.981 265.891 228.064L265.932 229.063C267.917 228.981 269.904 228.903 271.894 228.828L271.857 227.829ZM259.939 228.324C257.955 228.415 255.974 228.512 253.996 228.614L254.047 229.613C256.024 229.511 258.003 229.414 259.986 229.323L259.939 228.324ZM248.011 228.942C246.019 229.058 244.03 229.18 242.046 229.31L242.111 230.308C244.093 230.179 246.079 230.056 248.069 229.941L248.011 228.942ZM236.103 229.722C234.126 229.867 232.152 230.02 230.183 230.182L230.265 231.178C232.231 231.017 234.202 230.864 236.176 230.719L236.103 229.722ZM224.2 230.703C222.211 230.886 220.226 231.08 218.247 231.284L218.349 232.278C220.325 232.075 222.306 231.882 224.292 231.699L224.2 230.703ZM212.324 231.928C210.356 232.154 208.393 232.392 206.436 232.641L206.562 233.633C208.515 233.384 210.474 233.147 212.438 232.922L212.324 231.928ZM200.478 233.443C198.498 233.723 196.525 234.017 194.558 234.325L194.713 235.313C196.675 235.006 198.643 234.712 200.618 234.433L200.478 233.443ZM188.68 235.294C186.726 235.631 184.78 235.984 182.842 236.354L183.029 237.336C184.962 236.968 186.902 236.616 188.85 236.279L188.68 235.294ZM176.946 237.531C174.99 237.941 173.041 238.368 171.101 238.813L171.325 239.788C173.258 239.344 175.201 238.918 177.151 238.51L176.946 237.531ZM165.307 240.206C163.381 240.69 161.463 241.193 159.555 241.716L159.82 242.681C161.721 242.159 163.631 241.658 165.551 241.175L165.307 240.206ZM153.786 243.371C151.872 243.943 149.969 244.538 148.077 245.154L148.387 246.105C150.271 245.491 152.167 244.899 154.072 244.329L153.786 243.371ZM142.431 247.074C140.555 247.738 138.691 248.426 136.837 249.139L137.196 250.072C139.041 249.363 140.898 248.678 142.765 248.016L142.431 247.074ZM131.281 251.364C129.441 252.131 127.613 252.924 125.797 253.743L126.209 254.655C128.015 253.839 129.835 253.05 131.666 252.287L131.281 251.364ZM120.387 256.282C118.6 257.154 116.826 258.053 115.065 258.981L115.531 259.866C117.283 258.943 119.048 258.048 120.826 257.181L120.387 256.282ZM109.832 261.844C108.101 262.828 106.384 263.84 104.681 264.883L105.203 265.736C106.897 264.699 108.605 263.692 110.326 262.714L109.832 261.844ZM99.6131 268.102C97.9619 269.191 96.3247 270.309 94.7018 271.458L95.2798 272.274C96.8934 271.131 98.5215 270.019 100.163 268.937L99.6131 268.102ZM89.9086 274.977C88.3253 276.18 86.7566 277.416 85.2028 278.684L85.8351 279.459C87.3799 278.198 88.9396 276.97 90.5138 275.773L89.9086 274.977ZM80.587 282.585C79.1116 283.877 77.6507 285.199 76.2045 286.554L76.8881 287.284C78.3261 285.937 79.7787 284.622 81.2456 283.338L80.587 282.585ZM71.9489 290.676C70.5452 292.082 69.1563 293.52 67.7826 294.99L68.5134 295.673C69.8795 294.21 71.2607 292.78 72.6566 291.382L71.9489 290.676ZM63.7075 299.502C62.4225 300.974 61.1517 302.476 59.8955 304.009L60.6691 304.643C61.9186 303.117 63.1826 301.624 64.4606 300.16L63.7075 299.502ZM56.2351 308.62C55.0292 310.188 53.8376 311.787 52.6607 313.418L53.4716 314.003C54.6426 312.381 55.8281 310.79 57.0278 309.23L56.2351 308.62ZM49.174 318.405C48.0618 320.048 46.9636 321.721 45.8797 323.424L46.7234 323.961C47.8023 322.265 48.8952 320.601 50.002 318.966L49.174 318.405ZM42.8221 328.376C41.816 330.055 40.823 331.762 39.8434 333.498L40.7143 333.99C41.6897 332.261 42.6783 330.561 43.6798 328.89L42.8221 328.376ZM36.9449 338.795C35.9923 340.59 35.0532 342.414 34.128 344.268L35.0228 344.715C35.9443 342.868 36.8795 341.051 37.8282 339.264L36.9449 338.795ZM31.5678 349.551C30.7495 351.29 29.9429 353.054 29.148 354.844L30.0619 355.25C30.8539 353.467 31.6575 351.709 32.4727 349.977L31.5678 349.551ZM26.7988 360.29C26.0276 362.131 25.2684 363.998 24.5212 365.892L25.4515 366.259C26.1961 364.372 26.9527 362.511 27.7212 360.676L26.7988 360.29ZM22.3163 371.652C21.6343 373.489 20.9632 375.349 20.3031 377.234L21.2469 377.565C21.9049 375.686 22.5739 373.831 23.2538 372L22.3163 371.652ZM18.442 382.702C17.8318 384.546 17.2318 386.413 16.6421 388.303L17.5967 388.601C18.1847 386.717 18.783 384.855 19.3914 383.016L18.442 382.702ZM14.9043 394.04C14.3355 395.975 13.7771 397.932 13.2293 399.913L14.193 400.18C14.7395 398.204 15.2964 396.251 15.8637 394.322L14.9043 394.04ZM11.6177 405.925C11.1381 407.772 10.6674 409.638 10.2056 411.523L11.1769 411.761C11.6376 409.88 12.1072 408.019 12.5856 406.177L11.6177 405.925ZM8.86787 417.15C8.43073 419.045 8.00237 420.959 7.58285 422.892L8.56012 423.104C8.9787 421.175 9.40612 419.266 9.84229 417.375L8.86787 417.15ZM6.35105 428.751C5.94937 430.723 5.55666 432.715 5.17302 434.727L6.15532 434.914C6.5382 432.907 6.93009 430.919 7.33093 428.95L6.35105 428.751ZM4.04926 440.822C3.86645 441.848 3.68594 442.879 3.50776 443.915L4.49327 444.085C4.67114 443.05 4.85129 442.021 5.03373 440.997L4.04926 440.822Z" fill="#D48F3F"/>
</svg>
